<svg width="46" height="52" fill="none" xmlns="http://www.w3.org/2000/svg"><path d="M9.91 46.698H3.16c-1.72 0-2.751-1.917-1.793-3.355l2.073-3.115-2.073-3.116c-.958-1.427.073-3.354 1.792-3.354h7.033c1.719 0 2.75 1.917 1.792 3.354l-1.354 2.032a4.333 4.333 0 00-.72 2.386v7.314a2.16 2.16 0 002.157 2.157h21.265a2.16 2.16 0 002.157-2.157V41.52c0-.855-.25-1.667-.719-2.376l-1.354-2.032c-.959-1.427.073-3.354 1.792-3.354h7.032c1.72 0 2.751 1.917 1.792 3.354l-2.073 3.116 2.073 3.115c.959 1.427-.072 3.355-1.792 3.355h-6.75m-25.372-6.471H35.28" stroke="#fff" stroke-width="1.56" stroke-linecap="round" stroke-linejoin="round"/><path d="M43.25 21.451h-2.375m-36.341 0H2.158m35.79-15.158l-2.376 2.375M22.787 1v2.375M7.628 6.293l2.375 2.375" stroke="#fff" stroke-width="1.56" stroke-miterlimit="10" stroke-linecap="round" stroke-linejoin="round"/><path d="M22.704 26.379l4.429 2.323c.864.448 1.865-.281 1.708-1.24l-.844-4.928 3.584-3.49c.698-.677.313-1.865-.645-2l-4.95-.72-2.208-4.49c-.427-.875-1.678-.875-2.105 0l-2.209 4.49-4.949.72c-.958.135-1.344 1.323-.646 2l3.584 3.49-.843 4.928c-.167.959.843 1.688 1.708 1.24l4.386-2.323z" stroke="#fff" stroke-width="1.56" stroke-linecap="round" stroke-linejoin="round"/></svg>