<svg width="50" height="52" fill="none" xmlns="http://www.w3.org/2000/svg"><path d="M48.364 41.793c0 5.083-10.604 9.208-23.687 9.208m7.907-17.888c9.188 1.26 15.792 4.667 15.792 8.667m-31.584-8.667C7.604 34.373 1 37.78 1 41.78c0 5.083 10.604 9.208 23.688 9.208" stroke="#fff" stroke-width="1.56" stroke-linecap="round" stroke-linejoin="round"/><path d="M40.47 16.354c0 11.51-15.793 24.125-15.793 24.125S8.886 27.864 8.886 16.354m.01 0C8.896 7.874 15.97 1 24.688 1S40.48 7.875 40.48 16.354" stroke="#fff" stroke-width="1.56" stroke-miterlimit="10" stroke-linecap="round" stroke-linejoin="round"/><path d="M24.688 22.052a5.26 5.26 0 100-10.52 5.26 5.26 0 000 10.52z" stroke="#fff" stroke-width="1.56" stroke-linecap="round" stroke-linejoin="round"/></svg>