<svg width="152" height="40" fill="none" xmlns="http://www.w3.org/2000/svg"><path d="M105.563 7.709c-3.633 0-9.127 1.82-9.127 8.91 0 7.092 5.989 8.849 9.127 8.849 3.137 0 9.127-1.757 9.127-8.848 0-7.091-5.495-8.911-9.127-8.911zm4.532 8.883c0 4.602-2.622 5.738-4.526 5.738-1.903 0-4.532-1.136-4.532-5.738s2.782-5.738 4.526-5.738c1.743-.007 4.532 1.136 4.532 5.738z" fill="#00B2BB"/><path d="M89.248 15.88l7.07-7.99H91.18l-6.484 7.39V2.737c0-1.13-.69-2.762-3.444-2.727-.3.007-.635.021-.977.077v25.157h4.428v-8.8l6.993 8.8h5.042l-7.489-9.364zm37.505-8.157c-2.663 0-4.274.948-4.978 1.492v-.007c-.091.063-.188.126-.279.188-.425-.843-1.353-1.687-3.27-1.687-.314 0-.656.02-1.011.077v17.48h4.553V12.17c1.213-1.164 4.567-1.778 6.101-.202.864.886 1.039 2.14 1.039 3.312v9.992h4.553v-10.85c.007-4.455-3.424-6.7-6.708-6.7zm-74.346-.041c-4.372 0-7.482 2.063-7.482 2.063l1.374 2.469c2.056-1.13 5.117-1.709 6.986-1.29 1.374.307 1.952 1.248 2.245 2.127.154.453.119 1.896.119 1.896v-.467c-2.427-.544-11.582-1.736-11.582 5.508 0 2.698 1.716 4.888 5.432 5.362 2.231.286 4.295-.174 6.15-1.402.09-.062.188-.125.279-.188.425.844 1.352 1.688 3.27 1.688.313 0 .655-.021 1.01-.077V13.622c-.006-4.79-4.9-5.94-7.801-5.94zm3.242 9.433v3.87c-1.8 1.123-3.333 1.318-4.226 1.318-1.038 0-2.844-.404-2.956-2.587-.188-3.835 4.727-3.256 7.182-2.726v.125zm13.225-3.002c-1.75-.593-1.868-1.297-1.701-2.008.474-2.07 5.376-1.374 8.102 0l1.346-2.482c-1.465-.955-4.058-1.932-6.91-1.932-2.482 0-4.748.62-6.003 2.51-1.2 1.806-1.025 4.547 1.025 6.025 1.561 1.122 4.469 1.959 6.526 2.398 1.262.272 2.322.816 2 2.218-.362 1.561-3.945 2.754-8.798-.984l-1.73 2.239s2.685 3.095 7.126 3.353c4.56.265 7.928-2.224 7.698-5.64-.279-4.156-4.47-4.268-8.68-5.697zm75.322-6.431c-4.371 0-7.481 2.063-7.481 2.063l1.374 2.469c2.056-1.13 5.117-1.709 6.986-1.29 1.374.307 1.952 1.248 2.245 2.127.154.453.119 1.896.119 1.896v-.467c-2.427-.544-11.582-1.736-11.582 5.508 0 2.698 1.716 4.888 5.432 5.362 2.231.286 4.295-.174 6.15-1.402.09-.062.188-.125.279-.188.425.844 1.352 1.688 3.27 1.688a6.52 6.52 0 001.011-.077V13.622c0-4.79-4.895-5.94-7.803-5.94zm3.243 9.433v3.87c-1.799 1.123-3.333 1.318-4.226 1.318-1.039 0-2.851-.404-2.956-2.587-.188-3.835 4.727-3.256 7.182-2.726v.125zm-79.527 20.08c-.488-.502-.74-1.108-.74-1.848 0-.732.245-1.345.74-1.833.488-.502 1.109-.746 1.848-.746.969 0 1.785.502 2.168 1.282l-.718.412c-.244-.523-.795-.865-1.45-.865-.488 0-.9.168-1.235.502-.32.335-.488.746-.488 1.248 0 .495.168.907.488 1.234a1.68 1.68 0 001.235.503c.655 0 1.206-.335 1.478-.858l.725.425c-.418.774-1.255 1.276-2.203 1.276-.74 0-1.36-.244-1.848-.732zm9.342-4.289v4.902h-.85v-4.093h-2.539v4.093h-.857v-4.902h4.246zm5.055 0h.683v4.902h-.843v-3.444l-2.713 3.444h-.69v-4.902h.844v3.438l2.719-3.438zm5.83 0v.823h-1.673v4.079h-.851v-4.079h-1.68v-.823h4.204zm1.338 2.842c.167.871.844 1.38 1.778 1.38.648 0 1.116-.237 1.416-.718l.725.411c-.481.74-1.2 1.109-2.162 1.109-.774 0-1.415-.244-1.903-.725-.481-.488-.725-1.109-.725-1.855 0-.732.237-1.352.718-1.84.48-.489 1.101-.733 1.854-.733.719 0 1.304.258 1.758.767.46.502.683 1.109.683 1.827 0 .126-.007.251-.028.384h-4.114v-.007zm0-.746h3.277c-.146-.935-.795-1.423-1.576-1.423-.913 0-1.554.558-1.7 1.423zm6.205 1.791l-.641 2.385h-.732l.39-2.385h.983zm7.141-3.887h.851v4.902h-.851v-1.764a3.35 3.35 0 01-1.324.258c-1.255 0-1.974-.6-1.974-1.764v-1.632h.858v1.583c0 .732.404 1.018 1.178 1.018.461 0 .886-.09 1.269-.258v-2.343h-.007zm5.991 0v.823h-1.667v4.079h-.85v-4.079h-1.681v-.823h4.198zm3.053 5.021c-.718 0-1.332-.244-1.834-.746s-.746-1.108-.746-1.834c0-.725.244-1.331.746-1.833s1.116-.746 1.834-.746 1.332.244 1.834.746.753 1.108.753 1.833c0 .726-.258 1.332-.753 1.834-.502.502-1.116.746-1.834.746zm1.234-1.331c.335-.335.502-.747.502-1.249 0-.502-.167-.913-.502-1.248a1.678 1.678 0 00-1.234-.502c-.481 0-.893.168-1.227.502-.335.335-.502.746-.502 1.248s.167.914.502 1.248a1.67 1.67 0 001.227.502c.488 0 .899-.167 1.234-.502zm2.99.62c-.474-.481-.704-1.088-.704-1.848 0-.83.118-1.478.362-1.931.244-.453.753-.865 1.513-1.227.14-.07.321-.147.558-.258l.53-.237c.377-.189.795-.502.837-.942l.69.39c-.042.21-.098.384-.223.552-.119.16-.167.258-.391.404-.209.126-.237.167-.523.293-.139.07-.237.105-.285.14l-.321.139-.314.125c-.892.384-1.234.725-1.422 1.325.418-.516 1.101-.767 1.729-.767.62 0 1.136.21 1.562.628.432.425.648.962.648 1.617 0 .67-.223 1.214-.69 1.66-.46.432-1.039.648-1.743.648-.739 0-1.339-.23-1.813-.711zm1.827-3.082a1.8 1.8 0 00-1.137.405 1.258 1.258 0 00-.502 1.038c0 .44.161.816.46 1.102.307.286.684.432 1.151.432.46 0 .837-.139 1.129-.418.307-.286.454-.641.454-1.06-.007-.878-.621-1.499-1.555-1.499zm5.572.536c.488 0 .892.146 1.213.439.321.285.488.669.488 1.13 0 .46-.167.843-.488 1.136-.321.286-.725.432-1.213.432h-2.071v-4.909h.851v1.764h1.22v.007zm0 2.342c.481 0 .864-.307.864-.774s-.383-.788-.864-.788h-1.213v1.562h1.213zm2.343-4.107h.85v4.902h-.85v-4.902zm11.036 4.903h-.997l-1.834-2.322v2.322h-.844v-2.322l-1.841 2.322h-.99l2.05-2.53-1.952-2.372h.99l1.743 2.169v-2.169h.844v2.169l1.736-2.169h.997l-1.959 2.371 2.057 2.53zm4.574-4.902h.683v4.902h-.844v-3.444l-2.719 3.444h-.683v-4.902h.844v3.438l2.719-3.438zm5.83 0v.823h-1.674v4.079h-.85v-4.079h-1.681v-.823h4.205zm3.006 1.764c.488 0 .892.146 1.213.439.321.285.488.669.488 1.13 0 .46-.167.843-.488 1.136-.321.286-.725.432-1.213.432h-2.071v-4.909h.851v1.764h1.22v.007zm0 2.342c.481 0 .864-.307.864-.774s-.383-.788-.864-.788h-1.22v1.562h1.22z" fill="#00B2BB"/><circle class="circle circle--1" cx="29.63" cy="16.55" r="4.65" fill="#00B2BB"/><circle class="circle circle--2" cx="25.75" cy="26.65" r="3.65" fill="#00B2BB"/><circle class="circle circle--3" cx="15.6" cy="30.9" r="2.6" fill="#00B2BB"/><circle class="circle circle--4" cx="5.45" cy="26.6" r="1.9" fill="#00B2BB"/><circle class="circle circle--5" cx="1.525" cy="16.79" r="1.525" fill="#00B2BB"/><circle class="circle circle--6" cx="5.32" cy="6.707" r="1.85" fill="#00B2BB"/><circle class="circle circle--7" cx="15.7" cy="2.6" r="2.6" fill="#00B2BB"/><circle class="circle circle--8" cx="25.65" cy="6.75" r="3.55" fill="#00B2BB"/><style>.circle{transition:all .6s}</style></svg>