<svg id="Слой_1" data-name="Слой 1" xmlns="http://www.w3.org/2000/svg" viewBox="0 0 44.93 41.5"><defs><style>.cls-1{fill:#231f20;}</style></defs><title>360</title><path class="cls-1" d="M240.75,253.31a1.34,1.34,0,0,1-1.44-1l-1.39.81a2.67,2.67,0,0,0,1.1,1.29,3.31,3.31,0,0,0,1.73.45,3.1,3.1,0,0,0,2.09-.72,2.46,2.46,0,0,0,.86-2,2.3,2.3,0,0,0-.51-1.49,2.72,2.72,0,0,0-1.38-.87l1.55-2v-1.34h-5.19V248h3.23l-1.63,2.12.63.95h.35a1.38,1.38,0,0,1,1,.31,1,1,0,0,1,.35.81,1,1,0,0,1-.35.82A1.43,1.43,0,0,1,240.75,253.31Z" transform="translate(-227.56 -229.25)"/><path class="cls-1" d="M247.4,246.48l-2.57,3.88a3,3,0,0,0-.48,1.66,2.75,2.75,0,0,0,.82,2.08,3.32,3.32,0,0,0,4.32,0,2.76,2.76,0,0,0,.84-2.08,2.79,2.79,0,0,0-.8-2,3,3,0,0,0-2.09-.83l1.83-2.68Zm.92,4.58a1.27,1.27,0,0,1,.39,1,1.3,1.3,0,0,1-.39,1,1.41,1.41,0,0,1-1,.37,1.37,1.37,0,0,1-1-.37,1.3,1.3,0,0,1-.39-1,1.24,1.24,0,0,1,.39-1,1.33,1.33,0,0,1,1-.37A1.37,1.37,0,0,1,248.32,251.06Z" transform="translate(-227.56 -229.25)"/><path class="cls-1" d="M254.32,246.31a2.89,2.89,0,0,0-2.43,1.18,6,6,0,0,0,0,6.24,3.11,3.11,0,0,0,4.86,0,6,6,0,0,0,0-6.24A2.86,2.86,0,0,0,254.32,246.31Zm1.25,6.3a1.47,1.47,0,0,1-2.5,0,3.8,3.8,0,0,1-.43-2,3.84,3.84,0,0,1,.43-2,1.36,1.36,0,0,1,1.25-.69,1.39,1.39,0,0,1,1.25.69,3.84,3.84,0,0,1,.43,2A3.79,3.79,0,0,1,255.57,252.61Z" transform="translate(-227.56 -229.25)"/><path class="cls-1" d="M259,246.62a2.55,2.55,0,0,0,0,3.57,2.6,2.6,0,0,0,3.59,0,2.44,2.44,0,0,0,.73-1.79,2.4,2.4,0,0,0-.73-1.78,2.57,2.57,0,0,0-3.59,0Zm3.1,1.78a1.27,1.27,0,0,1-1.3,1.31,1.27,1.27,0,0,1-1.3-1.31,1.23,1.23,0,0,1,.37-.93,1.3,1.3,0,0,1,2.23.93Z" transform="translate(-227.56 -229.25)"/><path class="cls-1" d="M229.68,246.81s0,0,0,.05h0l0,0a.57.57,0,0,0,.16.15h0l.06,0,.06,0,.13,0h.35l.08,0h0l0,0,.05,0,0,0h0l4-3a.75.75,0,1,0-.9-1.2l-2.36,1.76a19.26,19.26,0,0,1,37.42,2,.74.74,0,0,0,.74.61h.13a.75.75,0,0,0,.61-.87,20.76,20.76,0,0,0-40.32-2.21L229,241.52a.74.74,0,0,0-1-.39.75.75,0,0,0-.39,1l2,4.6Z" transform="translate(-227.56 -229.25)"/><path class="cls-1" d="M272.43,257.58l-2-4.6s0,0-.05-.07a.59.59,0,0,0,0-.08h0a.1.1,0,0,0,0,0,.47.47,0,0,0-.1-.1l-.06-.05s-.05,0-.07,0l-.13-.05-.07,0h-.31l-.05,0-.06,0-.07,0-.07,0h0l-4,3a.75.75,0,0,0-.15,1.05.75.75,0,0,0,1.05.15l2.41-1.8A19.26,19.26,0,0,1,231,253.15a.75.75,0,0,0-1.48.25A20.76,20.76,0,0,0,270,255.67l1.09,2.51a.75.75,0,0,0,.69.45.8.8,0,0,0,.3-.06A.76.76,0,0,0,272.43,257.58Z" transform="translate(-227.56 -229.25)"/></svg>