<svg id="Icons" xmlns="http://www.w3.org/2000/svg" viewBox="0 0 46.97 49.5"><defs><style>.cls-1{fill:#323232;}</style></defs><title>adresa_magazinov</title><path class="cls-1" d="M498.37,4130.07c3.66-4.41,7.15-10,7.15-15.52a15.91,15.91,0,0,0-31.81,0c0,5.47,3.49,11.11,7.16,15.52-9,1.43-14.74,4.87-14.74,8.9,0,5.38,10.32,9.59,23.49,9.59s23.48-4.21,23.48-9.59C513.1,4134.94,507.35,4131.5,498.37,4130.07Zm-8.75-29.51a14.21,14.21,0,0,1,14.4,14c0,9.48-11.87,20-14.4,22.18-2.53-2.14-14.41-12.7-14.41-22.18A14.21,14.21,0,0,1,489.62,4100.56Zm0,46.5c-13.16,0-22-4.19-22-8.09,0-3.27,5.91-6.37,14.38-7.56a62.76,62.76,0,0,0,7.14,6.88.74.74,0,0,0,.47.16.76.76,0,0,0,.47-.16,63.14,63.14,0,0,0,7.13-6.88c8.48,1.19,14.38,4.29,14.38,7.56C511.6,4142.87,502.77,4147.06,489.62,4147.06Z" transform="translate(-466.13 -4099.06)"/><path class="cls-1" d="M495.42,4115a5.81,5.81,0,1,0-5.8,5.8A5.81,5.81,0,0,0,495.42,4115Zm-10.11,0a4.31,4.31,0,1,1,4.31,4.3A4.31,4.31,0,0,1,485.31,4115Z" transform="translate(-466.13 -4099.06)"/></svg>