<svg id="Icons" xmlns="http://www.w3.org/2000/svg" viewBox="0 0 21.5 21.47"><defs><style>.cls-1{fill:#231f20;}</style></defs><title>akcii</title><path class="cls-1" d="M1348.31,556.09l-1-1a1.42,1.42,0,0,1-.42-1v-1.43a2.93,2.93,0,0,0-2.93-2.93h-1.43a1.48,1.48,0,0,1-1-.42l-1-1a3,3,0,0,0-4.15,0l-1,1a1.48,1.48,0,0,1-1,.42h-1.43a2.94,2.94,0,0,0-2.94,2.93v1.43a1.41,1.41,0,0,1-.41,1l-1,1a2.93,2.93,0,0,0,0,4.14l1,1a1.41,1.41,0,0,1,.41,1v1.44a2.94,2.94,0,0,0,2.94,2.93h2l1.43,1.43a2.93,2.93,0,0,0,4.15,0l1-1a1.44,1.44,0,0,1,1-.42h1.43a2.93,2.93,0,0,0,2.93-2.93v-1.44a1.42,1.42,0,0,1,.42-1l1-1A2.93,2.93,0,0,0,1348.31,556.09Zm-1.06,3.08-1,1a2.92,2.92,0,0,0-.86,2.07v1.44a1.43,1.43,0,0,1-1.43,1.43h-1.43a2.88,2.88,0,0,0-2.07.86l-1,1a1.47,1.47,0,0,1-2,0l-1.65-1.65a.75.75,0,0,0-.53-.22h-2.33a1.44,1.44,0,0,1-1.44-1.43v-1.44a2.91,2.91,0,0,0-.85-2.07l-1-1a1.42,1.42,0,0,1,0-2l1-1a2.91,2.91,0,0,0,.85-2.07v-1.43a1.44,1.44,0,0,1,1.44-1.43h1.43a2.92,2.92,0,0,0,2.07-.86l1-1a1.47,1.47,0,0,1,2,0l1,1a2.92,2.92,0,0,0,2.07.86h1.43a1.43,1.43,0,0,1,1.43,1.43v1.43a2.92,2.92,0,0,0,.86,2.07l1,1a1.45,1.45,0,0,1,0,2Z" transform="translate(-1327.67 -547.44)"/><path class="cls-1" d="M1341,559.67a1.12,1.12,0,1,0,1.12,1.12A1.12,1.12,0,0,0,1341,559.67Z" transform="translate(-1327.67 -547.44)"/><path class="cls-1" d="M1335.79,556.65a1.12,1.12,0,1,0-1.12-1.12A1.12,1.12,0,0,0,1335.79,556.65Z" transform="translate(-1327.67 -547.44)"/><path class="cls-1" d="M1340.88,554.63l-6,6a.75.75,0,0,0,0,1.06.79.79,0,0,0,.53.22.75.75,0,0,0,.53-.22l6-6a.75.75,0,0,0-1.06-1.06Z" transform="translate(-1327.67 -547.44)"/></svg>