<svg width="32" height="32" viewBox="0 0 32 32" xmlns="http://www.w3.org/2000/svg">
<path d="M23.4685 0.259848C23.9312 0.338617 24.3989 0.392771 24.8518 0.506002C28.0813 1.32816 30.2869 3.31708 31.3257 6.47279C32.2364 9.23463 31.8328 11.8832 30.1639 14.2857C29.7405 14.8912 29.1841 15.4131 28.6721 15.9497C28.5293 16.1023 28.4457 16.2303 28.4506 16.4469C28.4605 17.4808 28.4506 18.5196 28.4555 19.5534C28.4555 19.8636 28.3965 20.1294 28.0863 20.2672C27.7663 20.41 27.5152 20.2672 27.2888 20.0408C26.6143 19.3663 25.9398 18.6968 25.2703 18.0174C25.1521 17.8943 25.0439 17.8697 24.8715 17.8992C22.8629 18.2685 20.8543 18.3177 18.8703 17.7909C16.6992 17.2149 15.0106 15.93 13.7847 14.0592C12.6524 12.3263 12.1799 10.4162 12.3866 8.3534C12.6377 5.83279 13.77 3.77 15.7441 2.18477C17.1324 1.07216 18.7226 0.451852 20.4949 0.294313C20.5441 0.28939 20.5934 0.264769 20.6377 0.25C21.578 0.259846 22.5232 0.259848 23.4685 0.259848ZM27.2199 18.2439C27.2199 17.6088 27.2642 17.0623 27.21 16.5257C27.1362 15.8266 27.4167 15.3836 27.9435 14.9356C29.4204 13.6851 30.2475 12.0506 30.4789 10.1356C30.73 8.02356 30.1983 6.10356 28.8789 4.43462C27.658 2.88385 26.0629 1.89923 24.0986 1.62354C23.1632 1.49062 22.1983 1.50538 21.2482 1.49554C20.1602 1.48569 19.1066 1.70231 18.122 2.17493C15.6211 3.36631 14.0752 5.32079 13.6715 8.06294C13.2432 10.9626 14.2377 13.37 16.4924 15.2309C17.7872 16.2992 19.3084 16.8457 20.9921 16.8999C22.3115 16.9442 23.6407 17.0082 24.9306 16.6242C25.3097 16.5109 25.6002 16.5897 25.8709 16.8752C26.2845 17.3183 26.7226 17.7466 27.2199 18.2439Z" />
<path d="M0.266158 14.7828C0.482774 14.192 0.615686 13.5521 0.930763 13.0204C1.69384 11.7355 2.88522 11.0216 4.37692 10.9871C6.48894 10.933 10.4864 10.9675 12.5984 10.9724C13.0021 10.9724 13.2729 11.2284 13.2827 11.573C13.2877 11.9373 13.0022 12.1982 12.5591 12.1982C10.5997 12.2031 6.75473 12.1982 4.79536 12.1982C2.81136 12.1982 1.492 13.5078 1.492 15.4819C1.492 18.5096 1.492 21.5324 1.492 24.5601C1.492 26.5047 2.81138 27.829 4.75108 27.829C5.97201 27.829 7.19289 27.8339 8.41381 27.824C8.71412 27.824 8.92094 27.9324 9.12771 28.1589C9.58555 28.6561 10.0828 29.109 10.6046 29.6111C10.6046 29.2566 10.6046 28.9219 10.6046 28.592C10.6096 28.0505 10.836 27.829 11.3775 27.829C13.4698 27.829 15.5621 27.829 17.6544 27.829C19.6187 27.829 20.9382 26.5145 20.9382 24.5601C20.9382 23.2899 20.9382 19.4598 20.9382 18.1896C20.9382 18.0665 20.9381 17.9434 20.9627 17.8253C21.0267 17.5397 21.2828 17.3379 21.5585 17.3429C21.8292 17.3478 22.0655 17.5397 22.1344 17.8154C22.159 17.9139 22.164 18.0173 22.164 18.1206C22.164 19.4745 22.1739 23.3834 22.164 24.7373C22.1443 26.8148 20.7855 28.5035 18.7621 28.9564C18.4175 29.0352 18.0532 29.0548 17.6938 29.0597C15.7541 29.0696 13.8194 29.0647 11.8305 29.0647C11.8305 29.3453 11.8305 29.616 11.8305 29.8868C11.8305 30.2363 11.8157 30.5859 11.8354 30.9305C11.86 31.3046 11.7369 31.5902 11.4022 31.7674C11.2791 31.7674 11.156 31.7674 11.0329 31.7674C10.8262 31.5853 10.6145 31.413 10.4176 31.221C9.75294 30.5662 9.10304 29.9016 8.4335 29.2518C8.32519 29.1484 8.13812 29.0696 7.9855 29.0647C6.78919 29.0499 5.58801 29.0893 4.3917 29.04C2.89016 28.981 1.69383 28.2917 0.925835 26.997C0.610758 26.4653 0.477846 25.8302 0.26123 25.2394C0.266154 21.7588 0.266158 18.2683 0.266158 14.7828Z" />
<path d="M10.7273 19.3367C12.7999 19.3367 14.8725 19.3367 16.9402 19.3367C17.0436 19.3367 17.147 19.3318 17.2455 19.3466C17.5655 19.3958 17.7968 19.6518 17.7968 19.9521C17.7968 20.2524 17.5655 20.5085 17.2455 20.5577C17.147 20.5725 17.0387 20.5675 16.9402 20.5675C12.7753 20.5675 8.61531 20.5675 4.45041 20.5675C4.43071 20.5675 4.41102 20.5675 4.3864 20.5675C3.88917 20.5626 3.58887 20.3361 3.58887 19.9521C3.58887 19.5681 3.88425 19.3367 4.3864 19.3367C6.50331 19.3367 8.61531 19.3367 10.7273 19.3367Z" />
<path d="M9.4674 24.0148C7.79848 24.0148 6.12463 24.0148 4.45573 24.0148C4.35235 24.0148 4.24896 24.0197 4.1505 24.005C3.8305 23.9557 3.59912 23.7046 3.59912 23.3994C3.59912 23.0991 3.82557 22.8431 4.14557 22.7938C4.22434 22.7791 4.30803 22.784 4.39173 22.784C7.79356 22.784 11.2003 22.784 14.6022 22.784C14.9222 22.784 15.2028 22.853 15.3357 23.173C15.508 23.5865 15.2126 23.9951 14.7302 24.0098C14.2772 24.0246 13.8292 24.0148 13.3763 24.0148C12.0717 24.0148 10.7671 24.0148 9.4674 24.0148Z" />
<path d="M8.6994 17.1222C7.28648 17.1222 5.86863 17.1222 4.45573 17.1222C4.35235 17.1222 4.24896 17.1272 4.1505 17.1124C3.8305 17.0632 3.59912 16.8071 3.59912 16.5068C3.59912 16.2065 3.8305 15.9505 4.1505 15.9013C4.24896 15.8865 4.35727 15.8914 4.45573 15.8914C7.28648 15.8914 10.1173 15.8914 12.948 15.8914C12.9677 15.8914 12.9874 15.8914 13.012 15.8914C13.5093 15.8963 13.8096 16.1228 13.8096 16.5068C13.8096 16.8908 13.5142 17.1222 13.012 17.1222C11.5696 17.1222 10.132 17.1222 8.6994 17.1222Z" />
<path d="M17.802 23.3897C17.807 23.7097 17.5214 24.0051 17.2014 24.01C16.8814 24.015 16.586 23.7294 16.5811 23.4094C16.5762 23.0894 16.8617 22.794 17.1817 22.7891C17.4968 22.7842 17.7922 23.0697 17.802 23.3897Z" />
<path d="M21.6174 10.3239C21.6174 10.0876 21.6075 9.85131 21.6174 9.615C21.642 9.103 21.9029 8.75347 22.3804 8.56639C22.4937 8.52208 22.6167 8.49254 22.73 8.44824C23.3454 8.21193 23.7047 7.54731 23.5718 6.90731C23.4389 6.24762 22.8383 5.775 22.1737 5.80454C21.5091 5.83408 20.9675 6.32147 20.874 6.98116C20.8592 7.08454 20.8444 7.183 20.8247 7.28639C20.7558 7.61131 20.5097 7.79839 20.1847 7.7787C19.8746 7.759 19.6334 7.51777 19.6334 7.18793C19.6284 6.39531 19.9238 5.72085 20.5294 5.21377C21.3761 4.50486 22.346 4.35716 23.3404 4.83962C24.3546 5.33193 24.842 6.19347 24.8124 7.32577C24.7878 8.32023 24.0838 9.28023 23.1238 9.60516C22.8974 9.679 22.8235 9.78239 22.8383 10.0138C22.858 10.3485 22.8481 10.6882 22.8432 11.0279C22.8334 11.471 22.5724 11.7615 22.2081 11.7467C21.8487 11.7368 21.6174 11.4612 21.6124 11.0279C21.6124 10.7965 21.6124 10.5602 21.6174 10.3239C21.6124 10.3239 21.6174 10.3239 21.6174 10.3239Z" />
<path d="M22.8381 13.5734C22.8381 13.8983 22.5525 14.174 22.2227 14.174C21.8879 14.174 21.6172 13.9032 21.6172 13.5684C21.6172 13.2386 21.8928 12.9629 22.2227 12.9629C22.5525 12.9678 22.8381 13.2534 22.8381 13.5734Z" />
</svg>
