<svg id="Слой_1" data-name="Слой 1" xmlns="http://www.w3.org/2000/svg" viewBox="0 0 19.5 19.5"><defs><style>.cls-1{fill:#231f20;}</style></defs><title>bonusi</title><path class="cls-1" d="M247.91,250.16a.76.76,0,0,0-.75.75v3.93a.75.75,0,0,0,1.5,0v-3.93A.75.75,0,0,0,247.91,250.16Z" transform="translate(-240.66 -240.42)"/><path class="cls-1" d="M260.16,247.67a7.23,7.23,0,0,0-14.19-2,7.24,7.24,0,1,0,8.92,8.92A7.26,7.26,0,0,0,260.16,247.67Zm-12.25,10.75a5.75,5.75,0,1,1,5.75-5.75A5.76,5.76,0,0,1,247.91,258.42Zm7.24-5.46c0-.1,0-.19,0-.29a7.26,7.26,0,0,0-7.25-7.25l-.28,0a5.74,5.74,0,1,1,7.52,7.52Z" transform="translate(-240.66 -240.42)"/></svg>