<svg width="32" height="28" viewBox="0 0 32 28" xmlns="http://www.w3.org/2000/svg">
<path d="M30.5536 3.33614C30.5109 3.2764 30.464 3.22521 30.4213 3.17827C29.5765 2.20974 28.5866 1.56974 28.4672 1.50574C25.6213 -0.0302649 22.7584 -0.0473335 19.8912 1.45027C19.6992 1.5484 19.5584 1.55694 19.3536 1.47587C14.5152 -0.473996 9.9584 0.046536 5.71307 3.08014C5.17547 3.46414 4.70187 3.942 4.21119 4.39427C4.20266 4.4028 4.19415 4.41134 4.18562 4.42414C3.81015 4.76547 2.89707 5.90894 2.67947 6.22894C1.64267 7.7308 0.921569 9.3692 0.563169 11.1612C0.439436 11.7927 0.362654 12.4327 0.260254 13.0684C0.260254 13.6615 0.260254 14.2588 0.260254 14.8519C0.277321 14.95 0.298656 15.0481 0.315723 15.1463C0.43519 15.8716 0.499177 16.614 0.678377 17.3223C2.36371 24.0295 8.72529 28.3943 15.6074 27.5153C20.049 26.9479 23.4155 24.6567 25.7067 20.8295C27.1616 18.3975 27.7418 15.7351 27.5072 12.902C27.4858 12.6588 27.5541 12.5393 27.7845 12.4113C28.3819 12.0785 28.992 11.7457 29.5125 11.3105C32.0512 9.21134 32.4693 5.87907 30.5536 3.33614ZM26.5557 15.398C26.2699 18.0817 25.233 20.4711 23.3984 22.4551C20.113 26.0049 16.0426 27.3575 11.2938 26.4359C8.24316 25.8428 5.75147 24.2385 3.85708 21.7724C1.62134 18.8625 0.802145 15.5687 1.35254 11.942C1.64268 10.0476 2.35944 8.32387 3.44744 6.74947C3.44744 6.74947 4.4672 5.478 4.84267 5.05987C4.8896 5.00867 4.94503 4.96174 5.00049 4.91054C8.41809 1.68921 12.4288 0.635337 16.9941 1.64227C17.5829 1.77027 18.1504 1.9964 18.7264 2.17986C18.6965 2.25666 18.6965 2.2652 18.6923 2.27373C18.624 2.33773 18.5557 2.39747 18.4917 2.46147C16.9514 3.94627 16.209 5.71694 16.6144 7.86734C16.9088 9.4332 17.792 10.6364 19.0464 11.5836C19.1957 11.6945 19.2512 11.7927 19.2256 11.9889C19.136 12.6375 19.0677 13.2903 19.0037 13.9431C18.9739 14.2247 19.0549 14.4764 19.3323 14.6172C19.6096 14.7537 19.8443 14.6471 20.0661 14.4721C20.6336 14.0199 21.2011 13.5633 21.7856 13.1281C21.8923 13.0471 22.0715 13.0001 22.1995 13.0257C23.1083 13.2177 24.0256 13.286 24.9515 13.1879C25.4976 13.1324 26.0352 13.0172 26.5771 12.9319C26.5685 13.7468 26.6411 14.5831 26.5557 15.398ZM29.5893 9.96227C27.7291 12.0231 25.3397 12.6119 22.6859 12.1511C21.9776 12.0273 21.4485 12.0785 20.945 12.582C20.6762 12.8508 20.3477 13.0556 19.9893 13.3287C20.0533 12.7996 20.0875 12.3473 20.1685 11.9079C20.2453 11.4855 20.1344 11.2124 19.7632 10.9564C18.432 10.0263 17.5616 8.7804 17.4421 7.12494C17.3227 5.48654 17.9925 4.15107 19.1915 3.07161C21.5168 0.980941 25.3226 0.678003 28.0832 2.34627C28.1472 2.38467 28.7189 2.84547 29.2779 3.36174C29.8795 3.92067 30.3488 4.61187 30.6048 5.39267C31.1125 6.95427 30.7797 8.64387 29.5893 9.96227Z" />
<path d="M14.5065 7.6812C14.4596 8.20173 14.4297 8.72227 14.3572 9.23853C14.2377 10.0748 13.7385 10.6209 12.9364 10.8343C12.578 10.9281 12.4585 11.1415 12.3817 11.4401C12.1897 12.1825 12.2452 12.9207 12.4286 13.6588C12.6676 14.6316 12.9876 15.566 13.6617 16.3383C13.7641 16.4535 13.8708 16.5644 13.9817 16.6668C14.195 16.8588 14.4126 16.9612 14.7284 16.8844C15.5476 16.6924 16.2814 16.9228 16.7934 17.5841C17.3481 18.3009 17.8814 19.0519 18.3209 19.8412C18.8372 20.7713 18.5556 21.6204 17.6126 22.1239C16.1534 22.9089 14.6601 22.8321 13.171 22.1879C11.5369 21.4839 10.4105 20.238 9.53585 18.7361C8.10651 16.2828 7.36838 13.6417 7.45798 10.7916C7.50918 9.20867 7.96149 7.76227 9.03669 6.56333C9.96682 5.5308 11.1316 4.9676 12.531 4.95907C13.6745 4.95053 14.37 5.61187 14.4596 6.75533C14.4852 7.06253 14.4638 7.36973 14.4638 7.67693C14.4766 7.6812 14.4937 7.6812 14.5065 7.6812ZM13.5679 7.68547C13.5594 7.68547 13.5508 7.68547 13.5422 7.68547C13.5422 7.3996 13.5593 7.10947 13.538 6.82787C13.4868 6.16653 13.1924 5.88067 12.531 5.88493C11.426 5.89773 10.5001 6.33293 9.76198 7.1436C8.82758 8.1676 8.43078 9.4092 8.38385 10.766C8.28571 13.5692 9.03238 16.1505 10.4916 18.5313C11.3022 19.854 12.3604 20.9164 13.8494 21.4668C14.9204 21.8636 15.9956 21.8892 17.0409 21.3857C17.6809 21.0743 17.8089 20.7415 17.4462 20.1313C17.0622 19.4828 16.6185 18.8641 16.1705 18.254C15.8249 17.7847 15.3428 17.6311 14.7796 17.806C14.4169 17.9169 14.0756 17.8572 13.7855 17.6439C13.457 17.4049 13.137 17.1404 12.8767 16.8289C12.0618 15.8519 11.6777 14.6785 11.443 13.4455C11.2809 12.5964 11.2809 11.7516 11.5796 10.9324C11.7545 10.4503 12.0489 10.0961 12.6036 9.97667C13.1796 9.8572 13.4185 9.54147 13.4782 8.93987C13.5252 8.526 13.5423 8.1036 13.5679 7.68547Z" />
<path d="M24.3794 4.95508C25.3736 4.95508 26.3677 4.95508 27.3576 4.95508C27.7458 4.95508 27.9506 5.12152 27.9464 5.42019C27.9421 5.71032 27.7416 5.87668 27.3746 5.87668C25.3778 5.87668 23.381 5.87668 21.3842 5.87668C20.9789 5.87668 20.7314 5.62068 20.821 5.30494C20.8978 5.03614 21.0983 4.95508 21.3629 4.95508C22.3741 4.95508 23.3768 4.95508 24.3794 4.95508Z" />
<path d="M24.3669 8.31223C23.4026 8.31223 22.4426 8.31223 21.4783 8.31223C21.3759 8.31223 21.2736 8.31223 21.1712 8.29089C20.928 8.23969 20.8 8.06903 20.8085 7.83009C20.817 7.60396 20.9493 7.44609 21.184 7.40769C21.2821 7.39063 21.3888 7.39062 21.4912 7.39062C23.4154 7.39062 25.3397 7.39062 27.264 7.39062C27.3749 7.39062 27.4901 7.39063 27.601 7.41196C27.8186 7.45889 27.9338 7.60396 27.9424 7.82583C27.9509 8.05623 27.8442 8.22263 27.6181 8.28236C27.5114 8.31223 27.3962 8.30796 27.2853 8.31223C26.3125 8.31223 25.3397 8.31223 24.3669 8.31223Z" />
</svg>
