<svg width="36" height="36" viewBox="0 0 36 36" fill="none" xmlns="http://www.w3.org/2000/svg">
<path d="M6.21343 1.84961H2.44043" stroke="inherit" stroke-width="2.95" stroke-miterlimit="10" stroke-linecap="round" stroke-linejoin="round"/>
<path d="M6.21289 1.84961L7.49994 7.72068" stroke="inherit" stroke-width="2.95" stroke-miterlimit="10" stroke-linecap="round" stroke-linejoin="round"/>
<path d="M10.9566 23.7472L7.50098 7.7207H32.2194C33.4712 7.7207 34.388 8.86671 34.1236 10.0832L31.1968 23.7472C31.0029 24.6463 30.2095 25.2987 29.2927 25.2987H12.8608C11.944 25.281 11.1506 24.6463 10.9566 23.7472Z" stroke="inherit" stroke-width="2.95" stroke-miterlimit="10" stroke-linecap="round" stroke-linejoin="round"/>
<path d="M29.9618 32.3691C29.5563 32.3691 29.2213 32.7041 29.2389 33.1096C29.2389 33.5151 29.5739 33.8501 29.9794 33.8501C30.385 33.8501 30.7199 33.5151 30.7199 33.1096C30.7199 32.7041 30.3673 32.3691 29.9618 32.3691Z" stroke="inherit" stroke-width="2.95" stroke-miterlimit="10" stroke-linecap="round" stroke-linejoin="round"/>
<path d="M13.1415 32.3691C12.736 32.3691 12.401 32.7041 12.4186 33.1096C12.4186 33.5151 12.7536 33.8501 13.1591 33.8501C13.5646 33.8501 13.8996 33.5151 13.8996 33.1096C13.8996 32.7041 13.547 32.3691 13.1415 32.3691Z" stroke="inherit" stroke-width="2.95" stroke-miterlimit="10" stroke-linecap="round" stroke-linejoin="round"/>
</svg>
