<svg id="Слой_1" data-name="Слой 1" xmlns="http://www.w3.org/2000/svg" viewBox="0 0 19.66 19.79"><defs><style>.cls-1{fill:#231f20;}</style></defs><title>cart</title><path class="cls-1" d="M38.45-18.89a2,2,0,0,0-1.51-.72H23.59L23-22.28a.15.15,0,0,1,0-.07,1,1,0,0,0-.07-.15.6.6,0,0,0-.09-.13.52.52,0,0,0-.11-.1.71.71,0,0,0-.14-.1l-.13-.05a.51.51,0,0,0-.17,0l-.07,0H20.05a.83.83,0,0,0-.83.83.83.83,0,0,0,.83.83h1.47l.59,2.67h0l1.95,9.09A2,2,0,0,0,26-8h9.32a1.94,1.94,0,0,0,1.89-1.53l1.67-7.75A2,2,0,0,0,38.45-18.89Zm-2.9,9a.28.28,0,0,1-.27.22H26a.27.27,0,0,1-.27-.22L24-17.94h13a.27.27,0,0,1,.22.1.26.26,0,0,1,.05.23Z" transform="translate(-19.22 22.93)"/><path class="cls-1" d="M35.66-5.62a1.27,1.27,0,0,0-.89.36,1.27,1.27,0,0,0-.36.88,1.25,1.25,0,0,0,1.25,1.25A1.25,1.25,0,0,0,36.9-4.38,1.24,1.24,0,0,0,35.66-5.62Z" transform="translate(-19.22 22.93)"/><path class="cls-1" d="M26.12-5.62a1.25,1.25,0,0,0-.88.36,1.22,1.22,0,0,0-.36.88,1.25,1.25,0,0,0,1.24,1.25,1.25,1.25,0,0,0,1.25-1.25A1.24,1.24,0,0,0,26.12-5.62Z" transform="translate(-19.22 22.93)"/></svg>