<svg width="22" height="19" viewBox="0 0 22 19" fill="none" xmlns="http://www.w3.org/2000/svg">
<path d="M9.86 15.3299H1V9.8999H2.42H10.24" stroke-width="1.25" stroke-miterlimit="10" stroke-linecap="round" stroke-linejoin="round"/>
<path d="M1 15.3301V17.3001" stroke-width="1.25" stroke-miterlimit="10" stroke-linecap="round" stroke-linejoin="round"/>
<path d="M17.6299 6.8999H3.98992C3.11992 6.8999 2.41992 7.6099 2.41992 8.4699V9.8999" stroke-width="1.25" stroke-miterlimit="10" stroke-linecap="round" stroke-linejoin="round"/>
<path d="M17.28 1H4.72004C4.20004 1 3.79004 1.42 3.79004 1.93V6.9H18.21V1.93C18.21 1.42 17.79 1 17.28 1Z" stroke-width="1.25" stroke-miterlimit="10" stroke-linecap="round" stroke-linejoin="round"/>
<path d="M11.0001 6.80995H6.33008V5.32995C6.33008 4.84995 6.73008 4.44995 7.21008 4.44995H10.1101C10.6001 4.44995 10.9901 4.83995 10.9901 5.32995V6.80995H11.0001Z" stroke-width="1.25" stroke-miterlimit="10" stroke-linecap="round" stroke-linejoin="round"/>
<path d="M15.6602 6.80995H10.9902V5.32995C10.9902 4.83995 11.3802 4.44995 11.8702 4.44995H14.7702C15.2602 4.44995 15.6502 4.83995 15.6502 5.32995V6.80995H15.6602Z" stroke-width="1.25" stroke-miterlimit="10" stroke-linecap="round" stroke-linejoin="round"/>
<path d="M16.0798 16.7C18.1454 16.7 19.8198 15.0255 19.8198 12.96C19.8198 10.8944 18.1454 9.21997 16.0798 9.21997C14.0143 9.21997 12.3398 10.8944 12.3398 12.96C12.3398 15.0255 14.0143 16.7 16.0798 16.7Z" stroke-width="1.25" stroke-linecap="round" stroke-linejoin="round"/>
<path d="M18.71 15.6299L20.47 17.4499" stroke-width="1.25" stroke-linecap="round" stroke-linejoin="round"/>
</svg>
