<svg width="30" height="34" viewBox="0 0 30 34" fill="none" xmlns="http://www.w3.org/2000/svg">
<path d="M6.70265 30.2464H2.38177C1.28156 30.2464 0.621452 29.0194 1.2349 28.0992L2.56182 26.1056L1.2349 24.1117C0.621452 23.1982 1.28156 21.9648 2.38177 21.9648H6.88265C7.98285 21.9648 8.643 23.1916 8.02957 24.1117L7.16277 25.4121C6.86268 25.8656 6.70265 26.399 6.70265 26.9392V31.62C6.70265 32.3802 7.3227 33.0002 8.08288 33.0002H21.6922C22.4524 33.0002 23.0725 32.3802 23.0725 31.62C23.0725 31.62 23.0725 28.4726 23.0725 26.9323C23.0725 26.3855 22.9125 25.8656 22.6124 25.4121L21.7456 24.1117C21.1321 23.1982 21.7923 21.9648 22.8925 21.9648H27.3933C28.4936 21.9648 29.1537 23.1916 28.5402 24.1117L27.2133 26.1056L28.5402 28.0992C29.1537 29.0127 28.4936 30.2464 27.3933 30.2464H23.0725" stroke-linecap="round" stroke-linejoin="round"/>
<path d="M6.83545 26.1055H22.9386" stroke-linecap="round" stroke-linejoin="round"/>
<path d="M28.0398 14.0879H26.5195" stroke-miterlimit="10" stroke-linecap="round" stroke-linejoin="round"/>
<path d="M3.26149 14.0879H1.74121" stroke-miterlimit="10" stroke-linecap="round" stroke-linejoin="round"/>
<path d="M24.6463 4.38672L23.126 5.90687" stroke-miterlimit="10" stroke-linecap="round" stroke-linejoin="round"/>
<path d="M14.9434 1V2.52015" stroke-miterlimit="10" stroke-linecap="round" stroke-linejoin="round"/>
<path d="M5.2417 4.38672L6.76197 5.90687" stroke-miterlimit="10" stroke-linecap="round" stroke-linejoin="round"/>
<path d="M14.8905 17.2423L17.7244 18.7292C18.2778 19.0159 18.918 18.5492 18.8179 17.9358L18.2779 14.7818L20.5716 12.5479C21.0183 12.1145 20.7716 11.3544 20.1582 11.2678L16.9909 10.8077L15.5773 7.93376C15.304 7.37364 14.5038 7.37364 14.2304 7.93376L12.8168 10.8077L9.64947 11.2678C9.03604 11.3544 8.78932 12.1145 9.23604 12.5479L11.5298 14.7818L10.9897 17.9358C10.883 18.5492 11.5298 19.0159 12.0833 18.7292L14.8905 17.2423Z" stroke-linecap="round" stroke-linejoin="round"/>
</svg>
