<svg id="Icons" xmlns="http://www.w3.org/2000/svg" viewBox="0 0 43.14 49.5"><defs><style>.cls-1{fill:#323232;}</style></defs><title>club_sna</title><path class="cls-1" d="M686,4222.81l1.71-2.57a2.82,2.82,0,0,0-2.34-4.38h-6.75a2.82,2.82,0,0,0-2.35,4.38l1.22,1.82H655.75l1.21-1.82a2.82,2.82,0,0,0-2.34-4.38h-6.75a2.82,2.82,0,0,0-2.35,4.38l1.72,2.57-1.72,2.58a2.82,2.82,0,0,0,2.35,4.38h5.73v1.32a2.82,2.82,0,0,0,2.81,2.82h20.41a2.82,2.82,0,0,0,2.82-2.82v-1.32h5.73a2.82,2.82,0,0,0,2.34-4.38Zm-32.4,5.46h-5.73a1.32,1.32,0,0,1-1.1-2.05l2-3a.74.74,0,0,0,0-.83l-2-3a1.32,1.32,0,0,1,1.1-2.05h6.75a1.32,1.32,0,0,1,1.09,2.05l-1.29,1.95a4.71,4.71,0,0,0-.56,1.15,0,0,0,0,0,0,0,4.9,4.9,0,0,0-.25,1.53Zm23.22,4.14H656.41a1.32,1.32,0,0,1-1.31-1.32v-7a4.36,4.36,0,0,1,0-.51h23a2.81,2.81,0,0,1,0,.5v7A1.33,1.33,0,0,1,676.82,4232.41Zm9.71-4.84a1.3,1.3,0,0,1-1.16.7h-5.73v-4.21a4.89,4.89,0,0,0-.25-1.52s0,0,0,0a5.1,5.1,0,0,0-.56-1.15l-1.3-1.95a1.32,1.32,0,0,1,1.1-2.05h6.75a1.3,1.3,0,0,1,1.16.7,1.29,1.29,0,0,1-.07,1.35l-2,3a.74.74,0,0,0,0,.83l2,3A1.29,1.29,0,0,1,686.53,4227.57Z" transform="translate(-645.05 -4184.41)"/><path class="cls-1" d="M684.06,4205.54h2.28a.75.75,0,1,0,0-1.5h-2.28a.75.75,0,0,0,0,1.5Z" transform="translate(-645.05 -4184.41)"/><path class="cls-1" d="M646.9,4205.54h2.28a.75.75,0,1,0,0-1.5H646.9a.75.75,0,1,0,0,1.5Z" transform="translate(-645.05 -4184.41)"/><path class="cls-1" d="M679,4193.27a.71.71,0,0,0,.53-.22l2.28-2.28a.74.74,0,0,0,0-1.06.75.75,0,0,0-1.06,0l-2.28,2.28a.75.75,0,0,0,0,1.06A.74.74,0,0,0,679,4193.27Z" transform="translate(-645.05 -4184.41)"/><path class="cls-1" d="M666.7,4188.19a.75.75,0,0,0,.75-.75v-2.28a.75.75,0,0,0-1.5,0v2.28A.76.76,0,0,0,666.7,4188.19Z" transform="translate(-645.05 -4184.41)"/><path class="cls-1" d="M653.9,4193.05a.75.75,0,0,0,1.06,0,.75.75,0,0,0,0-1.06l-2.28-2.28a.75.75,0,1,0-1.06,1.06Z" transform="translate(-645.05 -4184.41)"/><path class="cls-1" d="M660.74,4206.09l-.74,4.34a1.87,1.87,0,0,0,2.72,2l3.9-2.05,3.89,2.05a1.86,1.86,0,0,0,2-.14,1.88,1.88,0,0,0,.75-1.84l-.75-4.34,3.16-3.07a1.88,1.88,0,0,0-1-3.2l-4.36-.63-2-4a1.89,1.89,0,0,0-3.37,0l-1.95,4-4.35.63a1.87,1.87,0,0,0-1,3.2Zm-2.2-4.53a.35.35,0,0,1,.3-.26l4.75-.69a.76.76,0,0,0,.57-.41l2.12-4.3a.37.37,0,0,1,.34-.21.38.38,0,0,1,.34.21l2.12,4.3a.74.74,0,0,0,.56.41l4.75.69a.37.37,0,0,1,.31.26.38.38,0,0,1-.1.39l-3.44,3.34a.79.79,0,0,0-.21.67l.81,4.73a.35.35,0,0,1-.15.37.39.39,0,0,1-.4,0l-4.21-2.22a.8.8,0,0,0-.38-.1h0a.84.84,0,0,0-.39.1l-4.21,2.22a.4.4,0,0,1-.4,0,.39.39,0,0,1-.15-.37l.82-4.73a.77.77,0,0,0-.22-.67l-3.44-3.34A.35.35,0,0,1,658.54,4201.56Z" transform="translate(-645.05 -4184.41)"/></svg>