<svg id="Слой_1" data-name="Слой 1" xmlns="http://www.w3.org/2000/svg" viewBox="0 0 19.5 19.5"><defs><style>.cls-1{fill:#231f20;}</style></defs><title>configurator</title><path class="cls-1" d="M12.37,16.91H9.62a2.75,2.75,0,0,1-2.75-2.75v-5A2.75,2.75,0,0,1,9.62,6.41h2.75a2.75,2.75,0,0,1,2.75,2.75v5A2.76,2.76,0,0,1,12.37,16.91Zm-2.75-9A1.25,1.25,0,0,0,8.37,9.16v5a1.25,1.25,0,0,0,1.25,1.25h2.75a1.25,1.25,0,0,0,1.25-1.25v-5a1.25,1.25,0,0,0-1.25-1.25Z" transform="translate(-6.87 -6.41)"/><path class="cls-1" d="M12.37,25.91H9.62a2.75,2.75,0,0,1-2.75-2.75v-.5a2.75,2.75,0,0,1,2.75-2.75h2.75a2.75,2.75,0,0,1,2.75,2.75v.5A2.76,2.76,0,0,1,12.37,25.91Zm-2.75-4.5a1.25,1.25,0,0,0-1.25,1.25v.5a1.25,1.25,0,0,0,1.25,1.25h2.75a1.25,1.25,0,0,0,1.25-1.25v-.5a1.25,1.25,0,0,0-1.25-1.25Z" transform="translate(-6.87 -6.41)"/><path class="cls-1" d="M23.62,25.91H20.87a2.75,2.75,0,0,1-2.75-2.75v-5a2.75,2.75,0,0,1,2.75-2.75h2.75a2.75,2.75,0,0,1,2.75,2.75v5A2.76,2.76,0,0,1,23.62,25.91Zm-2.75-9a1.25,1.25,0,0,0-1.25,1.25v5a1.25,1.25,0,0,0,1.25,1.25h2.75a1.25,1.25,0,0,0,1.25-1.25v-5a1.25,1.25,0,0,0-1.25-1.25Z" transform="translate(-6.87 -6.41)"/><path class="cls-1" d="M23.62,12.41H20.87a2.75,2.75,0,0,1-2.75-2.75v-.5a2.75,2.75,0,0,1,2.75-2.75h2.75a2.75,2.75,0,0,1,2.75,2.75v.5A2.76,2.76,0,0,1,23.62,12.41Zm-2.75-4.5a1.25,1.25,0,0,0-1.25,1.25v.5a1.25,1.25,0,0,0,1.25,1.25h2.75a1.25,1.25,0,0,0,1.25-1.25v-.5a1.25,1.25,0,0,0-1.25-1.25Z" transform="translate(-6.87 -6.41)"/></svg>