<svg width="32" height="32" viewBox="0 0 32 32" xmlns="http://www.w3.org/2000/svg">
<path d="M30.8334 8.29639C30.2918 7.79916 29.6469 7.60716 28.9183 7.60716C26.7423 7.61701 24.5712 7.61208 22.3952 7.61208C22.2721 7.61208 22.154 7.61208 21.9866 7.61208C21.9866 7.27239 21.9915 6.95732 21.9866 6.64716C21.9423 4.30869 20.9232 2.51177 18.9195 1.31054C15.5915 -0.693151 11.0377 1.153 10.0481 4.90438C9.8906 5.50008 9.86598 6.13516 9.79706 6.75547C9.76752 7.02624 9.79214 7.30193 9.79214 7.61701C9.63952 7.61701 9.52137 7.61701 9.40322 7.61701C7.21737 7.61701 5.03645 7.62193 2.85061 7.61701C1.74784 7.61208 0.891186 8.05516 0.408725 9.05947C0.236417 9.41393 0.147847 9.84716 0.147847 10.241C0.133078 15.6022 0.137991 20.9635 0.137991 26.3296C0.137991 27.8016 1.25551 28.9733 2.82597 28.9536C4.84443 28.9339 6.86783 28.9487 8.88629 28.9487C9.00937 28.9487 9.12752 28.9487 9.28998 28.9487C9.28998 29.6035 9.29491 30.2238 9.28014 30.8441C9.28014 30.8933 9.11768 30.9721 9.03398 30.9721C8.46291 30.9819 7.88691 30.977 7.28137 30.977C7.28137 31.3315 7.28137 31.6662 7.28137 31.9961C13.0266 31.9961 18.7669 31.9961 24.5121 31.9961C24.5121 31.6712 24.5121 31.3462 24.5121 30.977C23.9608 30.977 23.4241 30.9573 22.8826 30.9819C22.5724 30.9967 22.474 30.913 22.4888 30.593C22.5183 30.0613 22.4986 29.5296 22.4986 28.9585C22.6364 28.9536 22.7546 28.9438 22.8727 28.9438C24.8912 28.9438 26.9097 28.9389 28.9281 28.9438C30.0457 28.9487 30.8875 28.4958 31.3946 27.4865C31.5177 27.2453 31.5669 26.9647 31.6506 26.7038C31.6506 21.0816 31.6506 15.4644 31.6506 9.84224C31.5128 9.25639 31.2912 8.71485 30.8334 8.29639ZM11.146 4.78623C11.8746 2.87116 13.8487 1.34992 16.3398 1.52223C18.3681 1.66007 20.2881 3.25023 20.81 5.30316C21.066 6.30255 20.9577 7.3167 20.9823 8.31116C20.618 8.23732 20.298 8.18316 19.9878 8.10932C19.9041 8.08962 19.8057 8.0207 19.7712 7.95178C19.146 6.76039 18.1072 6.30255 16.8469 6.77516C16.1823 7.02132 15.5964 7.00162 14.9367 6.76532C13.6961 6.31239 12.6426 6.77516 12.0321 7.95178C11.9927 8.02562 11.8992 8.09947 11.8155 8.11916C11.5004 8.19301 11.1804 8.24716 10.826 8.31608C10.8506 8.33578 10.8309 8.32593 10.826 8.31608C10.826 8.31608 10.826 8.31608 10.8211 8.31116C10.8211 8.31116 10.8211 8.31116 10.826 8.31116C10.8161 7.1247 10.7078 5.93824 11.146 4.78623ZM20.9724 10.1278C20.9872 10.6939 20.5343 11.1518 19.9583 11.1272C19.9583 10.4576 19.9583 9.81762 19.9583 9.17762C20.5048 9.12839 20.9577 9.56162 20.9724 10.1278ZM20.9774 18.8022C20.9774 19.8115 20.9774 20.8109 20.9774 21.8201C17.5755 21.8201 14.218 21.8201 10.8211 21.8201C10.8211 20.8158 10.8211 19.8164 10.8211 18.7973C10.4715 18.7973 10.1564 18.7973 9.81183 18.7973C9.81183 19.8016 9.81183 20.7961 9.81183 21.8152C9.12752 21.8152 8.47275 21.8152 7.79829 21.8152C7.78845 21.7462 7.77368 21.6675 7.77368 21.5887C7.77368 20.8798 7.76383 20.1758 7.77368 19.4669C7.78845 18.3001 8.42352 17.3942 9.52629 17.0201C10.1909 16.7936 10.8752 16.6164 11.5694 16.4145C12.1011 17.6453 12.618 18.8564 13.1546 20.1019C13.4844 19.841 13.7995 19.5949 14.1097 19.3438C14.6315 18.9302 15.1582 18.5216 15.6653 18.0884C15.8376 17.9456 15.946 17.9309 16.1281 18.0835C16.8469 18.6792 17.5804 19.2552 18.309 19.8361C18.4124 19.9198 18.5158 19.9985 18.6438 20.097C18.9195 19.4619 19.1804 18.8515 19.4414 18.241C19.6974 17.6404 19.9583 17.0398 20.2291 16.4047C21.0118 16.6459 21.8044 16.8281 22.5429 17.1333C23.3946 17.4878 23.9164 18.2016 23.9903 19.1222C24.0592 20.0084 24.0051 20.8995 24.0051 21.8152C23.3503 21.8152 22.6955 21.8152 22.0112 21.8152C22.0112 20.8256 22.0112 19.8262 22.0112 18.8022C21.6567 18.8022 21.3368 18.8022 20.9774 18.8022ZM15.1337 17.217C14.6069 17.6355 14.0998 18.0441 13.5632 18.4773C13.2284 17.6945 12.8986 16.9364 12.5589 16.1389C12.9232 16.0305 13.2531 15.9272 13.5878 15.8435C13.6568 15.8238 13.7699 15.8632 13.8241 15.9173C14.2524 16.3358 14.6758 16.7641 15.1337 17.217ZM14.3361 14.4158C15.3897 14.7998 16.3939 14.8047 17.3933 14.4355C17.4573 14.785 17.4278 15.0459 17.1571 15.2872C16.7238 15.6712 16.33 16.1044 15.8968 16.5425C15.3897 16.0355 14.8875 15.5678 14.4346 15.0558C14.3312 14.9376 14.3706 14.6767 14.3361 14.4158ZM18.2303 18.4773C17.6986 18.049 17.1915 17.6453 16.6598 17.2219C17.1226 16.7592 17.5607 16.3161 18.0038 15.8829C18.0432 15.8435 18.1367 15.8238 18.1958 15.8385C18.5404 15.9321 18.8801 16.0355 19.2395 16.1438C18.8949 16.9216 18.57 17.6847 18.2303 18.4773ZM15.8918 13.7069C14.5921 13.7069 13.3564 12.8207 13.0118 11.5702C12.8838 11.1075 12.869 10.6053 12.8444 10.1179C12.8198 9.66009 12.8198 9.19239 12.8641 8.73455C12.938 7.92224 13.6764 7.43978 14.4592 7.67116C14.8728 7.79424 15.2715 7.94685 15.6851 8.06501C15.8131 8.09947 15.9656 8.09947 16.0936 8.06501C16.4973 7.95178 16.8912 7.79916 17.29 7.68101C18.1072 7.43485 18.8408 7.91732 18.9195 8.76901C18.954 9.14316 18.9244 9.52716 18.9244 9.90624C18.949 9.91116 18.9786 9.91116 19.0032 9.91609C18.9294 10.4724 18.9146 11.0435 18.7669 11.5752C18.4321 12.8207 17.1915 13.7069 15.8918 13.7069ZM11.8254 9.16778C11.8254 9.81762 11.8254 10.4675 11.8254 11.1222C11.2888 11.1715 10.8309 10.7382 10.8161 10.1721C10.8014 9.60101 11.2494 9.14808 11.8254 9.16778ZM1.16197 10.3493C1.16197 9.22193 1.77244 8.61639 2.88998 8.61639C5.07583 8.61639 7.25675 8.61639 9.4426 8.61639C9.54598 8.61639 9.64445 8.61639 9.79706 8.61639C9.79706 9.09885 9.80198 9.56162 9.79706 10.0293C9.79214 10.5167 9.91029 10.9647 10.2057 11.3536C10.6241 11.9099 11.1952 12.1659 11.8795 12.1709C12.0764 12.1709 12.1503 12.2545 12.2488 12.4072C12.4949 12.7961 12.7411 13.1899 13.0512 13.5247C13.2629 13.7512 13.3811 13.953 13.3614 14.2681C13.322 14.9819 13.4746 14.7949 12.8149 14.9967C11.6777 15.3364 10.5355 15.6662 9.39332 15.9862C7.89178 16.4096 6.82352 17.7192 6.77922 19.1961C6.74475 20.3924 6.76937 21.5936 6.76937 22.8145C12.8444 22.8145 18.9294 22.8145 25.0438 22.8145C25.0438 22.6225 25.0438 22.4404 25.0438 22.2582C25.034 21.2342 25.0488 20.2053 25.0094 19.1813C24.9503 17.7241 23.9016 16.4096 22.3804 15.9813C21.1693 15.6416 19.9632 15.2773 18.7472 14.9425C18.4912 14.8736 18.3878 14.7604 18.4223 14.4995C18.442 14.3665 18.4026 14.2287 18.4321 14.1007C18.4715 13.9432 18.5306 13.7807 18.6192 13.6527C18.9195 13.2293 19.2444 12.8256 19.5349 12.3973C19.6284 12.2595 19.6924 12.1758 19.8795 12.1709C21.1595 12.1364 21.9718 11.2945 21.9817 10.0145C21.9866 9.56162 21.9817 9.11362 21.9817 8.61639C22.0949 8.61639 22.1934 8.61639 22.2918 8.61639C24.5072 8.61639 26.7226 8.61639 28.938 8.61639C29.9866 8.61639 30.6167 9.22685 30.6216 10.2705C30.6266 15.0607 30.6266 19.8509 30.6216 24.6361C30.6216 24.6952 30.6118 24.7592 30.6069 24.8724C30.474 24.8724 30.3656 24.8724 30.2524 24.8724C23.2469 24.8724 16.2414 24.8724 9.24075 24.8675C9.04875 24.8675 8.81737 24.8133 8.67952 24.6952C7.87214 24.0059 6.96629 23.7893 5.90783 23.8484C4.45551 23.9272 2.99829 23.8681 1.54106 23.8681C1.42783 23.8681 1.31953 23.8681 1.18168 23.8681C1.17676 23.7352 1.16197 23.6269 1.16197 23.5185C1.16197 19.1272 1.16197 14.7407 1.16197 10.3493ZM28.938 27.9296C23.2174 27.9296 17.4918 27.9296 11.7712 27.9296C11.6383 27.9296 11.5054 27.9296 11.3429 27.9296C11.3429 28.2792 11.3429 28.5942 11.3429 28.9438C14.73 28.9438 18.0974 28.9438 21.4697 28.9438C21.4697 29.633 21.4697 30.2878 21.4697 30.9524C17.7429 30.9524 14.0408 30.9524 10.3041 30.9524C10.3041 29.9432 10.3041 28.9536 10.3041 27.9296C10.1564 27.9296 10.0334 27.9296 9.91522 27.9296C7.57675 27.9296 5.23829 27.9296 2.89983 27.9296C1.77245 27.9296 1.16689 27.3339 1.16197 26.2115C1.16197 25.7832 1.16197 25.3549 1.16197 24.8921C1.28997 24.8872 1.38845 24.8773 1.48691 24.8773C3.26906 24.8773 5.05614 24.8724 6.83829 24.8822C7.00075 24.8822 7.19768 24.9315 7.31583 25.0349C8.15768 25.7782 9.12752 25.9259 10.2303 25.921C16.8863 25.8767 23.5423 25.9013 30.1983 25.9013C30.3312 25.9013 30.4592 25.9013 30.5872 25.9013C30.8235 27.0632 30.1146 27.9296 28.938 27.9296Z" />
<path d="M2.1958 14.7004C4.38657 14.7004 6.55767 14.7004 8.75336 14.7004C8.75336 14.3558 8.75336 14.0456 8.75336 13.7207C6.55767 13.7207 4.38165 13.7207 2.1958 13.7207C2.1958 14.0604 2.1958 14.3804 2.1958 14.7004Z" />
<path d="M2.20068 11.6914C2.20068 12.0262 2.20068 12.3462 2.20068 12.6662C4.39638 12.6662 6.56256 12.6662 8.75826 12.6662C8.75826 12.3216 8.75826 12.0114 8.75826 11.6914C6.55764 11.6914 4.38161 11.6914 2.20068 11.6914Z" />
<path d="M8.75828 9.66406C6.5429 9.66406 4.36688 9.66406 2.1958 9.66406C2.1958 9.99883 2.1958 10.3139 2.1958 10.629C4.39149 10.629 6.56751 10.629 8.75828 10.629C8.75828 10.3041 8.75828 9.98899 8.75828 9.66406Z" />
<path d="M29.5977 16.7637C28.4112 16.7637 27.2494 16.7637 26.0728 16.7637C26.0728 17.1034 26.0728 17.4234 26.0728 17.7581C27.2543 17.7581 28.4211 17.7581 29.5977 17.7581C29.5977 17.4234 29.5977 17.1083 29.5977 16.7637Z" />
<path d="M26.0728 18.7969C26.0728 19.1366 26.0728 19.4566 26.0728 19.7864C27.2592 19.7864 28.4211 19.7864 29.5928 19.7864C29.5928 19.4467 29.5928 19.1267 29.5928 18.7969C28.4112 18.7969 27.2494 18.7969 26.0728 18.7969Z" />
<path d="M26.0728 21.8187C27.2543 21.8187 28.4211 21.8187 29.5977 21.8187C29.5977 21.4888 29.5977 21.1738 29.5977 20.8242C28.4112 20.8242 27.2494 20.8242 26.0728 20.8242C26.0728 21.1639 26.0728 21.4888 26.0728 21.8187Z" />
<path d="M26.0728 23.8528C27.2543 23.8528 28.4211 23.8528 29.5977 23.8528C29.5977 23.523 29.5977 23.2079 29.5977 22.8633C28.4112 22.8633 27.2494 22.8633 26.0728 22.8633C26.0728 23.1981 26.0728 23.523 26.0728 23.8528Z" />
<path d="M2.1958 26.8908C2.53057 26.8908 2.84569 26.8908 3.16569 26.8908C3.16569 26.5511 3.16569 26.236 3.16569 25.916C2.826 25.916 2.51088 25.916 2.1958 25.916C2.1958 26.2557 2.1958 26.5708 2.1958 26.8908Z" />
<path d="M4.22412 26.8799C4.56381 26.8799 4.88382 26.8799 5.21367 26.8799C5.21367 26.5501 5.21367 26.2448 5.21367 25.9199C4.8592 25.9199 4.5392 25.9199 4.22412 25.9199C4.22412 26.2596 4.22412 26.5698 4.22412 26.8799Z" />
<path d="M6.25195 26.8859C6.58672 26.8859 6.90672 26.8859 7.24149 26.8859C7.24149 26.5511 7.24149 26.2409 7.24149 25.916C6.9018 25.916 6.5818 25.916 6.25195 25.916C6.25195 26.2508 6.25195 26.5609 6.25195 26.8859Z" />
</svg>
