<svg width="32" height="13" viewBox="0 0 32 13" fill="none" xmlns="http://www.w3.org/2000/svg">
<path d="M4.25825 4.12223H4.80735C5.7237 4.12223 6.97096 4.32949 6.97096 5.99494C6.97096 7.59494 5.73825 7.90403 4.80735 7.90403H4.25825C4.1928 7.90403 4.14551 7.85678 4.14551 7.81313V4.22043C4.14551 4.16949 4.1928 4.12223 4.25825 4.12223ZM4.9528 7.15494C5.38551 7.17313 6.17825 7.02768 6.17825 5.99494C6.17825 5.20223 5.6619 4.84588 4.9528 4.86043V7.15494ZM8.11641 4.12223H10.4873C10.5564 4.12223 10.6037 4.16223 10.6037 4.21313V4.83858C10.6037 4.88223 10.5564 4.92949 10.4873 4.92949H8.82551V5.60223H10.1237C10.1928 5.60223 10.2328 5.64223 10.2328 5.69313V6.32223C10.2328 6.36588 10.1964 6.41313 10.1237 6.41313H8.82551V7.08588H10.4946C10.5637 7.08588 10.6146 7.12949 10.6146 7.17678V7.80588C10.6146 7.84949 10.5637 7.89678 10.4946 7.89678H8.11641C8.05096 7.89678 8.00735 7.84949 8.00735 7.80588V4.20949C8.00735 4.16223 8.05096 4.12223 8.11641 4.12223ZM11.9092 4.11494H12.5164C12.5419 4.11494 12.5928 4.12223 12.6074 4.14768L14.1164 6.42043V4.20588C14.1164 4.15494 14.1637 4.11494 14.2292 4.11494H14.8146C14.8837 4.11494 14.9273 4.15494 14.9273 4.20588V7.82043C14.9273 7.86404 14.8837 7.91494 14.8146 7.91494H14.2546C14.2328 7.91494 14.1783 7.90404 14.1564 7.87858L12.6255 5.64588V7.82403C12.6255 7.86768 12.5746 7.91858 12.5128 7.91858H11.9128C11.8364 7.91858 11.8037 7.86768 11.8037 7.82403V4.20949C11.8037 4.15858 11.8364 4.11494 11.9092 4.11494ZM16.2292 4.11494H16.8219C16.891 4.11494 16.9346 4.15858 16.9346 4.20588V7.81678C16.9346 7.86043 16.8946 7.90768 16.8219 7.90768H16.2292C16.1637 7.90768 16.1164 7.86043 16.1164 7.81678V4.20588C16.1164 4.15858 16.1637 4.11494 16.2292 4.11494ZM19.3237 6.36588C19.291 6.36588 19.0255 6.36588 18.7528 6.24223C18.3528 6.04949 18.1201 5.68588 18.1201 5.23494C18.1201 4.51858 18.6983 4.11133 19.3237 4.11133C19.9819 4.11133 20.5019 4.49313 20.5128 5.14043C20.5128 5.18768 20.4655 5.23133 20.4001 5.23133H19.8219C19.7601 5.23133 19.7092 5.18768 19.7092 5.14043C19.6983 4.92223 19.5201 4.83858 19.3237 4.83858C19.1055 4.83858 18.9273 4.96588 18.9273 5.23494C18.9273 5.47133 19.1164 5.69313 19.3237 5.69313C19.3528 5.69313 19.6183 5.69313 19.8873 5.81678C20.3019 6.00588 20.5092 6.39133 20.5092 6.83494C20.5092 7.56223 19.9455 7.90768 19.3273 7.90768C18.6583 7.88949 18.1346 7.58404 18.1237 6.87494C18.1237 6.82404 18.1673 6.79133 18.2364 6.79133H18.8219C18.8728 6.79133 18.9346 6.82404 18.9346 6.87494C18.9455 7.10768 19.1237 7.18404 19.331 7.18404C19.5419 7.18404 19.7128 7.05313 19.7128 6.83133C19.7055 6.60588 19.5019 6.38043 19.3237 6.36588ZM23.0364 4.11494C23.7674 4.11494 24.371 4.71133 24.371 5.43494C24.371 6.16223 23.7674 6.71858 23.0364 6.71858C22.2983 6.71858 21.6946 6.16588 21.6946 5.43494C21.6946 4.71133 22.2983 4.11494 23.0364 4.11494ZM23.0364 6.01678C23.3564 6.01678 23.6037 5.76949 23.6037 5.43494C23.6037 5.10404 23.3564 4.80949 23.0364 4.80949C22.7164 4.80949 22.4583 5.10404 22.4583 5.43494C22.4583 5.76949 22.7164 6.01678 23.0364 6.01678ZM22.0328 7.09313H24.0292C24.0983 7.09313 24.1455 7.14043 24.1455 7.18768V7.82043C24.1455 7.86404 24.0983 7.91494 24.0292 7.91494H22.0328C21.9637 7.91494 21.9201 7.86404 21.9201 7.82043V7.18768C21.9201 7.14043 21.9637 7.09313 22.0328 7.09313ZM25.2146 4.11494H25.8401C25.8873 4.11494 25.9383 4.14404 25.9419 4.17678C26.1746 4.83133 26.3746 5.36223 26.6073 6.02043C26.8255 5.41313 27.0364 4.79133 27.2583 4.17678C27.2655 4.14404 27.3092 4.11494 27.3564 4.11494H27.9819C28.0692 4.11494 28.1092 4.17678 28.0837 4.24223L26.7055 7.87133C26.6692 7.94043 26.5419 7.94043 26.5019 7.87133L25.1128 4.24223C25.091 4.17678 25.1346 4.11494 25.2146 4.11494Z" fill="#C1C1C1"/>
<path d="M30.9091 0H1.09091H0V1.09091V10.9091V12H1.09091H30.9091H32V10.9091V1.09091V0H30.9091ZM31.2727 11.2727H0.727274V0.727274H31.2727V11.2727Z" fill="#C1C1C1"/>
</svg>
