<svg width="36" height="36" viewBox="0 0 36 36" fill="none" xmlns="http://www.w3.org/2000/svg">
<path d="M12.9055 30.3354H9.15687C7.23447 30.3354 5.66442 28.7654 5.66442 26.843V24.5522C5.66442 23.623 5.29613 22.7419 4.63931 22.085L3.02128 20.4671C1.65957 19.1054 1.65957 16.8946 3.02128 15.5329L4.63931 13.9149C5.29613 13.258 5.66442 12.377 5.66442 11.4478V9.15697C5.66442 7.23457 7.23447 5.66452 9.15687 5.66452H11.4478C12.377 5.66452 13.2579 5.29613 13.9148 4.63931L15.5328 3.02128C16.8945 1.65957 19.1052 1.65957 20.4669 3.02128L22.0849 4.63931C22.7418 5.29613 23.6229 5.66452 24.5521 5.66452H26.843C28.7654 5.66452 30.3353 7.23457 30.3353 9.15697V11.4478C30.3353 12.377 30.7038 13.258 31.3606 13.9149L32.9786 15.5329C34.3403 16.8946 34.3403 19.1054 32.9786 20.4671L31.3606 22.085C30.7038 22.7419 30.3353 23.623 30.3353 24.5522V26.843C30.3353 28.7654 28.7654 30.3354 26.843 30.3354H24.5521C23.6229 30.3354 22.7418 30.7039 22.0849 31.3607L20.4669 32.9787C19.1052 34.3404 16.8945 34.3404 15.5328 32.9787L12.9055 30.3354Z" stroke="inherit" stroke-width="2.4" stroke-linecap="round" stroke-linejoin="round"/>
<path d="M22.2295 22.7909C22.5568 22.7909 22.8222 22.5256 22.8222 22.1982C22.8222 21.8708 22.5568 21.6055 22.2295 21.6055C21.9021 21.6055 21.6367 21.8708 21.6367 22.1982C21.6367 22.5256 21.9021 22.7909 22.2295 22.7909Z" stroke="inherit" stroke-width="2.4" stroke-linecap="round" stroke-linejoin="round"/>
<path d="M13.8193 14.3613C14.1467 14.3613 14.412 14.096 14.412 13.7686C14.412 13.4413 14.1467 13.1758 13.8193 13.1758C13.4919 13.1758 13.2266 13.4413 13.2266 13.7686C13.2266 14.096 13.4919 14.3613 13.8193 14.3613Z" stroke="inherit" stroke-width="2.4" stroke-linecap="round" stroke-linejoin="round"/>
<path d="M22.821 13.1758L13.209 22.7878" stroke="inherit" stroke-width="2.4" stroke-linecap="round" stroke-linejoin="round"/>
</svg>
