<svg id="Icons" xmlns="http://www.w3.org/2000/svg" viewBox="0 0 19.5 21.66"><defs><style>.cls-1{fill:#231f20;}</style></defs><title>dostavka</title><path class="cls-1" d="M1067.76,1953.2v0h0a2.82,2.82,0,0,0-1-1l-7-4a2.76,2.76,0,0,0-2.75,0l-7,4a2.79,2.79,0,0,0-1,1h0a2.71,2.71,0,0,0-.37,1.37v8.08A2.77,2.77,0,0,0,1050,1965l7,4a2.73,2.73,0,0,0,1.35.36h.06a2.67,2.67,0,0,0,1.34-.36l7-4a2.76,2.76,0,0,0,1.38-2.38v-8.08A2.76,2.76,0,0,0,1067.76,1953.2Zm-9.39,4.53-2.83-1.63,7.5-4.33,2.83,1.63Zm-.63-8.3a1.29,1.29,0,0,1,.63-.17,1.23,1.23,0,0,1,.62.17l2.55,1.47-7.5,4.33-3.17-1.83Zm-7,14.29a1.26,1.26,0,0,1-.62-1.08v-7.94l3.55,2h0l3.95,2.28v8.66Zm15.25,0-6.87,4V1959l7.5-4.33v7.94A1.25,1.25,0,0,1,1066,1963.72Z" transform="translate(-1048.62 -1947.76)"/><path class="cls-1" d="M1055.91,1960.31l-3-1.73a.74.74,0,0,0-1,.28.75.75,0,0,0,.27,1l3,1.73a.76.76,0,0,0,1-.27A.75.75,0,0,0,1055.91,1960.31Z" transform="translate(-1048.62 -1947.76)"/></svg>