<svg id="Слой_1" data-name="Слой 1" xmlns="http://www.w3.org/2000/svg" viewBox="0 0 63.94 64"><title>eco</title><path d="M1455.41,276a.94.94,0,0,0-1.2-.45,23.12,23.12,0,0,0-9.09,4.54,11.39,11.39,0,0,0-4.17,10.55c.08.68.18,1.36.26,1.95-1.4-1.19-2.84-2.37-4.24-3.59a7,7,0,0,1-1.07-1.23c-1.31-1.92-4.56-7-7.75-9.8-4-3.43-8.59-5.11-13.92-4.17-5.85,1-10.7,4-15.14,7.81a1,1,0,0,0-.22,1.38,35.23,35.23,0,0,0,4.36,6.75c1.3,1.54,2.73,3,4.14,4.5l-.19.18c-5.66,5.15-8.23,11.54-7.23,19.12,1.07,8.14,5.56,13.92,13,17.22a23.19,23.19,0,0,0,12.67,1.24c9.23-1.93,16.55-9.77,17.28-19.14.64-8.31-2.51-14.94-9.22-19.88l-.46-.36,2.62-2.06c.2.14.38.26.55.4,7.81,6.37,11.17,14.54,9.34,24.49a24.85,24.85,0,0,1-49-8.44c.12-.78-.12-1.22-.74-1.31s-1,.2-1.1,1a25.73,25.73,0,0,0,.35,10.12,26.76,26.76,0,0,0,52.23-11.67c-.38-1.7-1-3.35-1.46-5.08,0,0,0,0,0,0s.29-.11.44-.15a22.77,22.77,0,0,0,7.65-4.07,11.14,11.14,0,0,0,4.28-7.64C1458.9,283.74,1457.48,279.77,1455.41,276Zm-40.65-.39c.14,0,.34.12.5.2a.52.52,0,0,1,.12.16l7.3,10-2-.37c-1.61-.31-3.22-.61-4.82-.95a1.16,1.16,0,0,1-.66-.38q-2.57-3.46-5.11-7a3.11,3.11,0,0,1-.21-.41C1411.52,276.39,1413.13,276,1414.76,275.58Zm7.7,12.29-2.28,1.67c-2.38,1.75-4.77,3.48-7.13,5.24a.82.82,0,0,1-1,.1,20.82,20.82,0,0,1-4.52-3.26l.69-.52c2-1.49,4.07-3,6.12-4.47a1.26,1.26,0,0,1,.84-.25c2.33.42,4.65.89,7,1.35A1.44,1.44,0,0,1,1422.46,287.87Zm-14.34-10.07,4.51,6.16-10.77-2.09A25.38,25.38,0,0,1,1408.12,277.8Zm-1.94,12.46a35,35,0,0,1-4.77-6.57l10.85,2.11Zm1.92,35c-4.79-2.7-8.12-14.27-5.68-19.94.51.93,1,1.8,1.47,2.71a4.93,4.93,0,0,0,3.37,2.75c2,.54,2.1.85,1.28,2.76-.52,1.21-1.11,2.37-1.64,3.57a3.86,3.86,0,0,0,.19,4A7.1,7.1,0,0,1,1408.1,325.28Zm32.65-18.58a3.63,3.63,0,0,1,.1.45,20.5,20.5,0,0,1,0,7.16,19.68,19.68,0,0,1-16.88,16c-4.73.51-8.39-.09-13.63-3.16a.71.71,0,0,1-.4-.81,8.65,8.65,0,0,0-1-5.6,3.37,3.37,0,0,1,0-3.72,7.66,7.66,0,0,0,.45-1c.46-1.08,1-2.14,1.33-3.26a2.56,2.56,0,0,0-1.47-3.26,7.27,7.27,0,0,0-1.61-.6,3,3,0,0,1-2.08-1.69c-.72-1.35-1.53-2.66-2.27-4a.68.68,0,0,1,0-.54,19.7,19.7,0,0,1,5.68-7.39c1.32.65,2.53,1.37,3.83,1.86s2.64.75,4,1.12l-.54.47a7.94,7.94,0,0,0-2.79,4.94,5.48,5.48,0,0,0,5.18,6.35,30.64,30.64,0,0,0,4.57-.39c1.89-.24,2.1-.15,2.18,1.78.11,2.27.06,4.53.17,6.8a15.1,15.1,0,0,0,.5,3.41,2.92,2.92,0,0,0,4,2.13,8.64,8.64,0,0,0,6-6.5,11.06,11.06,0,0,0-.19-3.42c-.19-1.84-.27-3.66,1.31-5,1.08-.91,2.27-1.68,3.44-2.54A2.76,2.76,0,0,1,1440.75,306.7Zm-.65-2.38c0,.08.05.16.08.24-1,.6-1.91,1.18-2.84,1.77A7,7,0,0,0,1434,314c.06.42.12.84.19,1.25a6.65,6.65,0,0,1-4.64,6.84c-.92.21-1.51-.06-1.71-1a18.71,18.71,0,0,1-.4-3.16c-.09-2.22-.06-4.44-.17-6.66a7,7,0,0,0-.53-2.18,2.11,2.11,0,0,0-2.39-1.39c-1.15.11-2.29.32-3.43.46a15.46,15.46,0,0,1-1.66.13,3.8,3.8,0,0,1-3.74-5.13,7.38,7.38,0,0,1,2.94-3.69c.55-.41,1.11-.8,1.68-1.19a1.1,1.1,0,0,1,.42-.17,26.49,26.49,0,0,0,10.36-4,1,1,0,0,1,1.24,0A19.85,19.85,0,0,1,1440.1,304.32Zm-6.73-14.2a29.81,29.81,0,0,1-11.81,5.89,14.2,14.2,0,0,1-6.88-.11l2-1.49c2.64-1.93,5.27-3.87,7.91-5.78a1.25,1.25,0,0,1,.84-.24c2.57.47,5.14,1,7.71,1.49a1.41,1.41,0,0,1,.27.09C1433.42,290,1433.41,290.09,1433.37,290.12Zm.45-2c-2.71-.54-5.43-1.06-8.15-1.62a1.05,1.05,0,0,1-.54-.43q-3.74-5.06-7.45-10.15c-.1-.13-.17-.28-.3-.49a12.5,12.5,0,0,1,4.43.84,18,18,0,0,1,5.11,3.09c.11.16,2.75,2.65,4,4.21,1.11,1.4,2,2.94,3,4.41Zm12.3-6.41a20.39,20.39,0,0,1,6.81-3.83c-1.48,3.55-2.9,6.94-4.38,10.47-.89-2.17-1.72-4.18-2.54-6.2A.47.47,0,0,1,1446.12,281.69ZM1445,296.92a1.28,1.28,0,0,1-.15.23c-2.3-4.56-3-10.32-.32-13.63a3,3,0,0,1,.21.39c.89,2.14,1.78,4.29,2.65,6.44a1.08,1.08,0,0,1,0,.75C1446.59,293,1445.77,295,1445,296.92Zm10-4.64a15,15,0,0,1-5.65,4.44c-.83.42-1.69.76-2.54,1.13l-.13-.13c.75-1.79,1.55-3.57,2.23-5.39a2.68,2.68,0,0,1,1.72-1.72c2-.74,3.94-1.59,6-2.43A8.35,8.35,0,0,1,1455,292.28Zm1.4-6.07c-1.92.82-3.85,1.61-5.94,2.47,1.44-3.42,2.8-6.7,4.22-10.08a20.47,20.47,0,0,1,2,7.18A.55.55,0,0,1,1456.38,286.21Z" transform="translate(-1394.61 -273.52)"/></svg>