<svg width="32" height="32" viewBox="0 0 32 32" xmlns="http://www.w3.org/2000/svg">
<path d="M30.3999 1.22424C30.2749 0.98921 30.0648 0.924197 29.8048 0.999206C28.1346 1.45426 26.5844 2.14934 25.2542 3.26946C23.6141 4.64962 22.934 6.41981 23.169 8.54505C23.209 8.88508 23.259 9.22512 23.299 9.52016C22.599 8.93009 21.8839 8.33502 21.1788 7.72496C20.9788 7.54994 20.7988 7.33491 20.6438 7.11489C19.9887 6.15478 18.3635 3.61951 16.7634 2.21435C14.7481 0.499161 12.4678 -0.340938 9.80254 0.129114C6.87721 0.644171 4.45194 2.13933 2.2317 4.02954C2.00667 4.22456 1.99169 4.45959 2.1217 4.71962C2.73177 5.91976 3.43684 7.06988 4.30194 8.1C4.95201 8.87008 5.66208 9.58516 6.37216 10.3502C6.35715 10.3652 6.3172 10.4053 6.2772 10.4403C3.44688 13.0105 2.16168 16.2109 2.66174 20.0013C3.1968 24.0668 5.44205 26.9621 9.18747 28.6073C11.4927 29.6224 14.2931 29.4924 15.5282 29.2323C20.1387 28.2622 23.8041 24.3418 24.1641 19.6613C24.4892 15.5058 22.909 12.1905 19.5586 9.72018C19.4836 9.66517 19.4087 9.60516 19.3236 9.54016C19.7737 9.19012 20.1987 8.85508 20.6388 8.51004C20.7338 8.58005 20.8288 8.64006 20.9138 8.70506C24.8192 11.8904 26.4944 15.9759 25.5843 20.9514C24.2142 28.4323 16.4733 32.8527 9.27753 30.3575C3.6369 28.4022 0.166516 22.6266 1.09162 16.731C1.15162 16.3409 1.03161 16.1209 0.72158 16.0759C0.401546 16.0259 0.23648 16.1759 0.171472 16.5809C-0.108559 18.2811 -0.043559 19.9713 0.351485 21.6415C2.22169 29.6024 10.6577 34.0379 18.2835 31.0775C24.3592 28.7173 27.8896 22.1516 26.4694 15.8059C26.2794 14.9558 25.9893 14.1307 25.7343 13.2656C25.7143 13.2806 25.7293 13.2606 25.7493 13.2556C25.8193 13.2256 25.8944 13.2006 25.9694 13.1756C27.3595 12.7155 28.6696 12.0954 29.7998 11.1453C30.9899 10.1452 31.785 8.91009 31.935 7.32491C32.145 5.10967 31.435 3.12445 30.3999 1.22424ZM10.0726 1.02921C10.1426 1.01421 10.2426 1.08922 10.3226 1.12923C10.3476 1.14423 10.3626 1.17923 10.3827 1.20923C11.5828 2.84442 12.7779 4.4796 14.0331 6.19479C13.638 6.12478 13.323 6.06977 13.0079 6.00977C12.2029 5.85475 11.3978 5.69973 10.5927 5.53471C10.4727 5.50971 10.3376 5.4397 10.2676 5.34469C9.40754 4.18956 8.55745 3.02443 7.70735 1.8593C7.68235 1.8243 7.6673 1.78429 7.60229 1.65428C8.45239 1.43425 9.25753 1.22423 10.0726 1.02921ZM13.923 7.1749C13.5279 7.46493 13.153 7.73996 12.7829 8.00999C11.5928 8.88008 10.4027 9.75018 9.21752 10.6303C9.0425 10.7603 8.91249 10.7853 8.71247 10.6803C7.89238 10.2452 7.15229 9.71018 6.45222 9.0501C6.57723 8.95509 6.68219 8.87008 6.7922 8.79007C7.81232 8.04499 8.82743 7.28991 9.85254 6.55483C9.96755 6.47482 10.1426 6.40981 10.2676 6.42981C11.4328 6.63984 12.5979 6.87486 13.758 7.10489C13.808 7.10989 13.848 7.13989 13.923 7.1749ZM6.7522 2.13933C7.49728 3.15945 8.23241 4.16456 9.0075 5.21968C7.16729 4.85963 5.40205 4.5196 3.62187 4.16956C3.9469 3.74451 5.8721 2.49437 6.7522 2.13933ZM5.78214 8.37003C4.86704 7.38492 4.09694 6.3098 3.39687 5.07966C5.23208 5.4397 6.98727 5.77974 8.82248 6.13978C7.77236 6.90987 6.79225 7.62995 5.78214 8.37003ZM6.7422 25.882C4.34694 24.5368 2.68679 18.7462 3.90193 15.9109C4.15696 16.3759 4.41697 16.811 4.642 17.266C4.99704 17.9911 5.53711 18.4311 6.3272 18.6412C7.32231 18.9112 7.37732 19.0662 6.96227 20.0213C6.70224 20.6214 6.40721 21.2065 6.14218 21.8015C5.83715 22.4866 5.79209 23.1417 6.23714 23.8167C6.63719 24.4368 6.7972 25.3119 6.7422 25.882ZM23.069 16.5909C23.089 16.6659 23.109 16.741 23.119 16.816C23.334 18.0061 23.324 19.2012 23.124 20.3964C22.4239 24.5368 18.8535 27.9672 14.6831 28.4072C12.3178 28.6573 10.4876 28.3622 7.86232 26.8271C7.6973 26.7321 7.6373 26.6221 7.6623 26.427C7.79231 25.4419 7.6673 24.4668 7.16724 23.6217C6.7672 22.9466 6.83721 22.3816 7.17725 21.7665C7.26225 21.6115 7.33731 21.4465 7.40732 21.2865C7.63235 20.7464 7.89233 20.2113 8.06734 19.6563C8.29237 18.9412 8.00739 18.3561 7.33231 18.0261C7.07228 17.9011 6.80225 17.7861 6.52222 17.7211C6.02217 17.6111 5.71708 17.316 5.48206 16.876C5.12202 16.2009 4.72202 15.5458 4.34698 14.8807C4.30698 14.8107 4.29696 14.6857 4.32696 14.6157C4.98704 13.1406 5.94711 11.8954 7.16724 10.9203C7.82732 11.2453 8.43243 11.6054 9.08251 11.8504C9.72258 12.0954 10.4027 12.2255 11.0727 12.4105C10.9827 12.4905 10.8927 12.5655 10.8026 12.6505C10.0676 13.3206 9.53756 14.1007 9.40754 15.1158C9.19752 16.771 10.3426 18.2311 11.9978 18.2911C12.7579 18.3161 13.523 18.1911 14.2781 18.0961C15.2282 17.9811 15.3281 18.0261 15.3732 18.9912C15.4232 20.1213 15.4032 21.2565 15.4582 22.3866C15.4882 22.9566 15.5532 23.5417 15.7082 24.0918C15.9833 25.0469 16.7634 25.4769 17.7085 25.1569C19.2786 24.6218 20.3288 23.5317 20.6988 21.9065C20.8188 21.3715 20.6687 20.7664 20.6087 20.1963C20.5137 19.2762 20.4688 18.3661 21.2589 17.7061C21.7989 17.256 22.3939 16.866 22.979 16.4409C23.044 16.5359 23.059 16.5609 23.069 16.5909ZM22.744 15.4008C22.759 15.4408 22.769 15.4808 22.779 15.5208C22.299 15.8209 21.8289 16.1109 21.3588 16.4059C19.9437 17.301 19.4086 18.5912 19.6736 20.2263C19.7086 20.4364 19.7387 20.6414 19.7687 20.8514C19.9837 22.2416 18.8286 23.9418 17.4484 24.2668C16.9884 24.3768 16.6933 24.2418 16.5933 23.7717C16.4783 23.2567 16.4183 22.7216 16.3933 22.1916C16.3483 21.0814 16.3633 19.9713 16.3083 18.8612C16.2883 18.4912 16.1782 18.1161 16.0382 17.7711C15.8232 17.241 15.4182 17.011 14.8431 17.071C14.2681 17.131 13.703 17.231 13.1279 17.306C12.8529 17.341 12.5728 17.366 12.2978 17.366C10.8927 17.376 10.0026 16.1509 10.4276 14.8007C10.6776 14.0007 11.2427 13.4406 11.8978 12.9555C12.1728 12.7505 12.4578 12.5555 12.7429 12.3605C12.8029 12.3205 12.8779 12.2855 12.9529 12.2755C14.8331 12.0154 16.5333 11.2753 18.1335 10.2852C18.3635 10.1402 18.5285 10.1402 18.7535 10.2902C20.6487 11.5604 21.9939 13.2506 22.744 15.4008ZM19.3786 8.30002C17.5984 9.66017 15.6882 10.7653 13.473 11.2453C12.3529 11.4904 11.2277 11.5054 10.0376 11.1853C10.4126 10.9103 10.7326 10.6753 11.0527 10.4403C12.3678 9.47515 13.683 8.51004 15.0082 7.54994C15.1182 7.46993 15.2981 7.40492 15.4282 7.42992C16.7133 7.66495 17.9985 7.92498 19.2836 8.17501C19.3286 8.18501 19.3686 8.20001 19.4236 8.22001C19.4036 8.25502 19.3986 8.28502 19.3786 8.30002ZM19.6036 7.28991C18.2435 7.02488 16.8834 6.75985 15.5282 6.48482C15.4282 6.46482 15.3282 6.35981 15.2582 6.2698C14.0131 4.57961 12.7729 2.88442 11.5328 1.19423C11.4828 1.12923 11.4478 1.05422 11.3828 0.94921C12.1779 0.94921 12.8979 1.10923 13.598 1.36926C14.5431 1.7243 15.3732 2.27436 16.1533 2.91443C16.2083 2.99444 17.5284 4.24458 18.1485 5.02466C18.7036 5.72473 19.1636 6.49482 19.6736 7.2299C19.6486 7.2399 19.6286 7.26491 19.6036 7.28991ZM25.7543 4.08455C26.7244 3.21446 27.8646 2.64439 29.1597 2.16934C28.4197 3.94453 27.7096 5.63973 26.9695 7.40492C26.5244 6.3248 26.1043 5.31469 25.6943 4.30458C25.6743 4.24457 25.7043 4.12456 25.7543 4.08455ZM25.1742 11.7004C25.1592 11.7404 25.1243 11.7704 25.0993 11.8104C23.9492 9.53016 23.5791 6.65484 24.9392 4.99965C24.9792 5.06966 25.0192 5.12967 25.0442 5.18968C25.4893 6.26479 25.9343 7.33491 26.3694 8.41503C26.4144 8.52504 26.4244 8.68006 26.3844 8.78507C25.9894 9.76018 25.5793 10.7303 25.1742 11.7004ZM30.1848 9.38014C29.4497 10.3803 28.4546 11.0603 27.3595 11.6054C26.9444 11.8104 26.5094 11.9804 26.0844 12.1654C26.0644 12.1454 26.0444 12.1254 26.0244 12.1004C26.3994 11.2053 26.7945 10.3152 27.1345 9.40514C27.2995 8.96509 27.5545 8.71007 27.9996 8.54505C28.9947 8.17501 29.9648 7.74996 30.9849 7.32991C30.8949 8.115 30.6248 8.78007 30.1848 9.38014ZM30.8849 6.3448C29.9248 6.74985 28.9647 7.14489 27.9195 7.57494C28.6346 5.86475 29.3197 4.22457 30.0248 2.53438C30.5699 3.71451 30.9349 4.88464 31.0199 6.12478C31.0249 6.19979 30.9499 6.3198 30.8849 6.3448Z" />
</svg>
