<svg id="Слой_1" data-name="Слой 1" xmlns="http://www.w3.org/2000/svg" viewBox="0 0 64.05 64"><title>faq</title><path d="M1449.63,265.15A17.62,17.62,0,0,0,1436.48,253c-.92-.23-1.87-.34-2.81-.5h-5.75a1.71,1.71,0,0,1-.3.09A18.16,18.16,0,0,0,1411.15,269a18,18,0,0,0,.25,5.3c-4.33,0-12.28-.07-16.5,0a8.06,8.06,0,0,0-7,4.13,21.31,21.31,0,0,0-1.35,3.58v21.25a21.2,21.2,0,0,0,1.35,3.57,8.18,8.18,0,0,0,7,4.15c2.42.1,4.86,0,7.29.05a1.45,1.45,0,0,1,.91.37c1.36,1.32,2.68,2.67,4,4,.4.39.83.74,1.25,1.11h.75a1.63,1.63,0,0,0,.88-1.7c0-.71,0-1.42,0-2.13V311c4,0,8,0,11.92,0a9.77,9.77,0,0,0,2.16-.21,8.69,8.69,0,0,0,6.92-8.57c0-2.71,0-10.45,0-13.31a32.74,32.74,0,0,0,5.47-.56.8.8,0,0,1,.82.24c1.36,1.38,2.74,2.74,4.1,4.11a1.31,1.31,0,0,0,2.37-1c0-2.1,0-4.21,0-6.31a1.3,1.3,0,0,1,.46-1,29.28,29.28,0,0,0,3-3.39A17.19,17.19,0,0,0,1449.63,265.15Zm-21.09,36.74a6.3,6.3,0,0,1-6.67,6.64h-12.75c-1.11,0-1.57.46-1.58,1.55v2.08c-1-1-2.07-2-3-3a1.84,1.84,0,0,0-1.45-.68c-2.48,0-5,0-7.44,0a6.3,6.3,0,0,1-6.62-6.64V283.45a6.31,6.31,0,0,1,6.71-6.67h15.76a1.92,1.92,0,0,0,.55-.09,18.47,18.47,0,0,0,1.93,3.88,17.4,17.4,0,0,0,10.33,7.58,22.8,22.8,0,0,0,4.23.71s0,.06,0,.08Zm19.37-29.29a14.67,14.67,0,0,1-5.15,9.75,3.42,3.42,0,0,0-1.49,3.23c.11,1.08,0,2.19,0,3.48-1-1-1.9-1.88-2.76-2.78a1.71,1.71,0,0,0-1.91-.51,25.26,25.26,0,0,1-8,.56,14.77,14.77,0,0,1-9.14-3.39,15.66,15.66,0,0,1,3.32-26.52,14.51,14.51,0,0,1,6.35-1.38,44.64,44.64,0,0,1,5.79.26,14.77,14.77,0,0,1,9.71,5.72A15.17,15.17,0,0,1,1447.91,272.6Z" transform="translate(-1386.54 -252.53)"/><path d="M1421,291.3a4.33,4.33,0,0,0-.62,0h-25.5c-1,0-1.62.47-1.62,1.25s.6,1.24,1.62,1.25h25.5a4.33,4.33,0,0,0,.62,0,1.24,1.24,0,0,0,0-2.46Z" transform="translate(-1386.54 -252.53)"/><path d="M1415.65,298.28h-20.74a4,4,0,0,0-.49,0,1.24,1.24,0,0,0,0,2.46,4.33,4.33,0,0,0,.62,0h18.12c.92,0,1.83,0,2.75,0a1.24,1.24,0,0,0,1.23-1.7A1.39,1.39,0,0,0,1415.65,298.28Z" transform="translate(-1386.54 -252.53)"/><path d="M1394.42,286.76a4.24,4.24,0,0,0,.62,0h17.37c1,0,1.62-.47,1.62-1.25s-.6-1.25-1.61-1.25H1395a4.28,4.28,0,0,0-.62,0,1.24,1.24,0,0,0,0,2.46Z" transform="translate(-1386.54 -252.53)"/><path d="M1420.9,298.29a1.27,1.27,0,0,0-1.22,1.26,1.24,1.24,0,0,0,2.48,0A1.3,1.3,0,0,0,1420.9,298.29Z" transform="translate(-1386.54 -252.53)"/><path d="M1433.41,261.83a5.26,5.26,0,0,0-7.53,4.77,1.22,1.22,0,0,0,2.42.2c0-.2.07-.41.1-.62a2.75,2.75,0,0,1,2.64-2.38,2.78,2.78,0,0,1,1.13,5.36c-.23.09-.48.15-.71.24a2.27,2.27,0,0,0-1.55,2.14c0,.47,0,.95,0,1.43h0v1.44c0,.88.49,1.44,1.21,1.46s1.27-.56,1.29-1.46c0-.69,0-1.38,0-2.06,0-.48.13-.68.59-.84a5.17,5.17,0,0,0,3.43-4.62A5.08,5.08,0,0,0,1433.41,261.83Z" transform="translate(-1386.54 -252.53)"/><path d="M1431.15,278.34a1.23,1.23,0,1,0,0,2.46,1.23,1.23,0,1,0,0-2.46Z" transform="translate(-1386.54 -252.53)"/></svg>