<svg id="Слой_1" data-name="Слой 1" xmlns="http://www.w3.org/2000/svg" viewBox="0 0 41 41"><defs><style>.cls-1{fill:#231f20;}</style></defs><title>fb</title><path class="cls-1" d="M250,229.5A20.5,20.5,0,1,0,270.5,250,20.53,20.53,0,0,0,250,229.5Zm0,40A19.5,19.5,0,1,1,269.5,250,19.53,19.53,0,0,1,250,269.5Z" transform="translate(-229.5 -229.5)"/><path class="cls-1" d="M254.32,243.5l.42-3a12.92,12.92,0,0,0-3.6-.36c-4,.18-3.9,3.55-3.9,3.55v2.94h-2v3h2v10.18h3.9V249.68h3l.23-3h-3.19v-2.21C251.14,242.51,254.32,243.5,254.32,243.5Z" transform="translate(-229.5 -229.5)"/></svg>