<svg width="20" height="20" viewBox="0 0 20 20" fill="none" xmlns="http://www.w3.org/2000/svg">
<path d="M16 3H19" stroke="inherit" stroke-width="1.5" stroke-miterlimit="10" stroke-linecap="round" stroke-linejoin="round"/>
<path d="M1 3H12" stroke="inherit" stroke-width="1.5" stroke-miterlimit="10" stroke-linecap="round" stroke-linejoin="round"/>
<path d="M8 10H19" stroke="inherit" stroke-width="1.5" stroke-miterlimit="10" stroke-linecap="round" stroke-linejoin="round"/>
<path d="M1 10H3" stroke="inherit" stroke-width="1.5" stroke-miterlimit="10" stroke-linecap="round" stroke-linejoin="round"/>
<path d="M16 17H19" stroke="inherit" stroke-width="1.5" stroke-miterlimit="10" stroke-linecap="round" stroke-linejoin="round"/>
<path d="M1 17H12" stroke="inherit" stroke-width="1.5" stroke-miterlimit="10" stroke-linecap="round" stroke-linejoin="round"/>
<path d="M14 5C15.1046 5 16 4.10457 16 3C16 1.89543 15.1046 1 14 1C12.8954 1 12 1.89543 12 3C12 4.10457 12.8954 5 14 5Z" stroke="inherit" stroke-width="1.5" stroke-miterlimit="10" stroke-linecap="round" stroke-linejoin="round"/>
<path d="M6 12C7.10457 12 8 11.1046 8 10C8 8.89543 7.10457 8 6 8C4.89543 8 4 8.89543 4 10C4 11.1046 4.89543 12 6 12Z" stroke="inherit" stroke-width="1.5" stroke-miterlimit="10" stroke-linecap="round" stroke-linejoin="round"/>
<path d="M14 19C15.1046 19 16 18.1046 16 17C16 15.8954 15.1046 15 14 15C12.8954 15 12 15.8954 12 17C12 18.1046 12.8954 19 14 19Z" stroke="inherit" stroke-width="1.5" stroke-miterlimit="10" stroke-linecap="round" stroke-linejoin="round"/>
</svg>
