<svg width="50" height="49" viewBox="0 0 50 49" xmlns="http://www.w3.org/2000/svg">
<path d="M22.6101 0C20.5001 0 18.7801 1.72002 18.7901 3.83002C18.7901 5.93002 20.5101 7.64001 22.6101 7.64001C24.7201 7.64001 26.4401 5.92003 26.4401 3.81003C26.4301 1.71003 24.7201 0 22.6101 0Z"/>
<path d="M22.6101 40.6101C20.5001 40.6101 18.7801 42.3301 18.7901 44.4401C18.7901 46.5401 20.5101 48.2501 22.6101 48.2501C24.7201 48.2501 26.4401 46.5301 26.4401 44.4201C26.4301 42.3201 24.7201 40.6101 22.6101 40.6101Z"/>
<path d="M37.0396 4.78027H37.0296C34.1996 4.79027 31.8896 7.10025 31.8896 9.94025C31.8896 12.7702 34.1996 15.0803 37.0296 15.0803C39.8696 15.0703 42.1896 12.7603 42.1796 9.92026C42.1896 7.09026 39.8696 4.78027 37.0396 4.78027Z"/>
<path d="M37.0396 33.1802H37.0296C34.1996 33.1802 31.8896 35.5002 31.8896 38.3402C31.8896 41.1702 34.1996 43.4802 37.0296 43.4802C39.8696 43.4802 42.1896 41.1602 42.1796 38.3202C42.1896 35.4802 39.8696 33.1802 37.0396 33.1802Z"/>
<path d="M4.52 24.03C4.52 25.28 3.50999 26.29 2.25999 26.29C1.00999 26.29 0 25.28 0 24.03C0 22.78 1.00999 21.77 2.25999 21.77C3.50999 21.77 4.52 22.79 4.52 24.03Z"/>
<path d="M10.8003 9.93018C10.8003 11.4502 9.56028 12.6902 8.04028 12.6902C6.51028 12.6902 5.28027 11.4502 5.28027 9.93018C5.28027 8.41018 6.52028 7.17017 8.04028 7.17017C9.57028 7.17017 10.8003 8.41018 10.8003 9.93018Z"/>
<path d="M10.8003 38.32C10.8003 39.84 9.56028 41.08 8.04028 41.08C6.51028 41.08 5.28027 39.84 5.28027 38.32C5.28027 36.8 6.52028 35.5601 8.04028 35.5601C9.57028 35.5701 10.8003 36.8 10.8003 38.32Z"/>
<path d="M42.8901 17.27H42.8701C39.1401 17.28 36.1101 20.32 36.1201 24.05C36.1301 27.77 39.1601 30.8 42.8801 30.8C46.6201 30.79 49.6601 27.75 49.6501 24.02C49.6501 20.3 46.6101 17.27 42.8901 17.27Z"/>
</svg>
