<svg width="19" height="20" viewBox="0 0 19 20" fill="none" xmlns="http://www.w3.org/2000/svg">
<path d="M6.91992 9.99011C6.91992 8.50011 8.12993 7.29004 9.61993 7.29004C11.1099 7.29004 12.3199 8.50011 12.3199 9.99011" stroke-width="1.5" stroke-linecap="round" stroke-linejoin="round"/>
<path d="M6.91992 9.99011C6.91992 8.50011 8.12993 7.29004 9.61993 7.29004C11.1099 7.29004 12.3199 8.50011 12.3199 9.99011" stroke-width="1.5" stroke-linecap="round" stroke-linejoin="round"/>
<path d="M12.3199 9.98999C12.3199 11.48 11.1099 12.6899 9.61993 12.6899C8.12993 12.6899 6.91992 11.48 6.91992 9.98999" stroke-width="1.5" stroke-linecap="round" stroke-linejoin="round"/>
<path d="M16.3694 9.98999C16.3694 9.68999 16.3394 9.39999 16.3094 9.10999L17.8995 7.87C18.2495 7.59 18.3494 7.09996 18.1194 6.70996L16.7094 4.2699C16.4894 3.8799 16.0094 3.72001 15.5994 3.89001L14.1794 4.45996C13.8994 4.56996 13.5794 4.52999 13.3294 4.35999C13.1094 4.20999 12.8795 4.07996 12.6495 3.95996C12.3795 3.81996 12.1794 3.57991 12.1394 3.27991L11.9194 1.7699C11.8594 1.3299 11.4795 1 11.0295 1H8.20945C7.75945 1 7.37944 1.3299 7.31944 1.7699L7.0994 3.27991C7.0594 3.57991 6.85945 3.81996 6.58945 3.95996C6.34945 4.07996 6.1294 4.20999 5.9094 4.35999C5.6594 4.52999 5.33943 4.56996 5.05943 4.45996L3.63944 3.89001C3.22944 3.72001 2.74946 3.8899 2.52946 4.2699L1.11942 6.70996C0.899423 7.09996 0.989455 7.59 1.33945 7.87L2.92942 9.10999C2.88942 9.39999 2.86942 9.68999 2.86942 9.98999" stroke-width="1.5" stroke-miterlimit="10" stroke-linecap="round" stroke-linejoin="round"/>
<path d="M16.3694 9.98999C16.3694 10.29 16.3394 10.58 16.3094 10.87L17.8995 12.11C18.2495 12.39 18.3494 12.8799 18.1194 13.2699L16.7094 15.71C16.4894 16.1 16.0094 16.26 15.5994 16.09L14.1794 15.5199C13.8994 15.4099 13.5794 15.45 13.3294 15.62C13.1094 15.77 12.8795 15.8999 12.6495 16.0199C12.3795 16.1599 12.1794 16.4 12.1394 16.7L11.9194 18.21C11.8594 18.65 11.4795 18.98 11.0295 18.98H8.20945C7.75945 18.98 7.37944 18.65 7.31944 18.21L7.0994 16.7C7.0594 16.4 6.85945 16.1599 6.58945 16.0199C6.34945 15.8999 6.1294 15.77 5.9094 15.62C5.6594 15.45 5.33943 15.4099 5.05943 15.5199L3.63944 16.09C3.22944 16.26 2.74946 16.09 2.52946 15.71L1.11942 13.2699C0.899423 12.8799 0.989455 12.39 1.33945 12.11L2.92942 10.87C2.88942 10.58 2.86942 10.29 2.86942 9.98999" stroke-width="1.5" stroke-miterlimit="10" stroke-linecap="round" stroke-linejoin="round"/>
</svg>
