<svg width="20" height="20" viewBox="0 0 20 20" xmlns="http://www.w3.org/2000/svg">
<path d="M19.89 5.86C19.84 4.8 19.68 4.07 19.43 3.44C19.18 2.78 18.83 2.23 18.28 1.67C17.72 1.12 17.17 0.769989 16.51 0.519989C15.87 0.269989 15.15 0.109998 14.09 0.0599976C13.03 0.00999756 12.69 0 9.98 0C7.27 0 6.93 0.00999756 5.86 0.0599976C4.8 0.109998 4.07 0.279989 3.44 0.519989C2.78 0.769989 2.23 1.12 1.67 1.67C1.12 2.22 0.780004 2.78 0.520004 3.44C0.270004 4.08 0.0999976 4.8 0.0599976 5.86C0.00999756 6.92 0 7.26 0 9.97C0 12.68 0.00999756 13.02 0.0599976 14.08C0.109998 15.14 0.280004 15.87 0.520004 16.5C0.770004 17.16 1.12 17.71 1.67 18.27C2.23 18.83 2.78 19.17 3.44 19.42C4.08 19.67 4.8 19.83 5.86 19.88C6.92 19.93 7.27 19.94 9.98 19.94C12.69 19.94 13.03 19.93 14.09 19.88C15.15 19.83 15.88 19.66 16.51 19.42C17.17 19.16 17.72 18.82 18.28 18.27C18.83 17.72 19.18 17.16 19.43 16.5C19.68 15.87 19.84 15.14 19.89 14.08C19.94 13.02 19.95 12.68 19.95 9.97C19.95 7.26 19.94 6.93 19.89 5.86ZM18.1 14.01C18.06 14.98 17.89 15.51 17.75 15.86C17.57 16.33 17.35 16.66 17 17.01C16.65 17.36 16.32 17.58 15.85 17.76C15.5 17.9 14.97 18.06 14 18.1C12.95 18.15 12.63 18.16 9.97 18.16C7.3 18.16 6.99 18.15 5.94 18.1C4.97 18.06 4.44 17.89 4.09 17.76C3.62 17.58 3.29 17.36 2.94 17.01C2.59 16.66 2.37 16.33 2.19 15.86C2.05 15.51 1.89001 14.98 1.85001 14.01C1.80001 12.96 1.79001 12.64 1.79001 9.98C1.79001 7.32 1.80001 7 1.85001 5.95C1.90001 4.98 2.06 4.44999 2.19 4.09999C2.37 3.62999 2.59 3.3 2.94 2.95C3.29 2.6 3.62 2.38 4.09 2.2C4.44 2.06 4.97 1.9 5.94 1.86C6.99 1.81 7.31 1.8 9.97 1.8C12.64 1.8 12.95 1.81 14 1.86C14.97 1.9 15.5 2.07 15.85 2.2C16.32 2.38 16.65 2.6 17 2.95C17.35 3.3 17.57 3.62999 17.75 4.09999C17.89 4.44999 18.05 4.98 18.1 5.95C18.15 7 18.16 7.32 18.16 9.98C18.15 12.64 18.14 12.96 18.1 14.01Z" />
<path d="M9.96985 4.85938C7.13985 4.85938 4.83984 7.14937 4.83984 9.97937C4.83984 12.8094 7.12985 15.1094 9.96985 15.1094C12.7998 15.1094 15.0898 12.8194 15.0898 9.97937C15.0998 7.14937 12.7998 4.85938 9.96985 4.85938ZM9.96985 13.3094C8.12985 13.3094 6.63985 11.8194 6.63985 9.97937C6.63985 8.13937 8.12985 6.64937 9.96985 6.64937C11.8098 6.64937 13.2999 8.13937 13.2999 9.97937C13.2999 11.8194 11.8098 13.3094 9.96985 13.3094Z" />
<path d="M15.3001 3.44922C14.6401 3.44922 14.1001 3.98922 14.1001 4.64922C14.1001 5.30922 14.6401 5.84921 15.3001 5.84921C15.9601 5.84921 16.5001 5.30922 16.5001 4.64922C16.5001 3.98922 15.9601 3.44922 15.3001 3.44922Z" />
</svg>
