<svg id="Слой_1" data-name="Слой 1" xmlns="http://www.w3.org/2000/svg" viewBox="0 0 41 41"><defs><style>.cls-1{fill:#231f20;}</style></defs><title>inst</title><path class="cls-1" d="M250,229.5A20.5,20.5,0,1,0,270.5,250,20.53,20.53,0,0,0,250,229.5Zm0,40A19.5,19.5,0,1,1,269.5,250,19.53,19.53,0,0,1,250,269.5Z" transform="translate(-229.5 -229.5)"/><path class="cls-1" d="M259.46,243.46a5.08,5.08,0,0,0-2.92-2.92,7.58,7.58,0,0,0-2.42-.46c-1.07-.05-1.41-.06-4.12-.06s-3.05,0-4.12.06a7.58,7.58,0,0,0-2.42.46,5.08,5.08,0,0,0-2.92,2.92,7.58,7.58,0,0,0-.46,2.42C240,247,240,247.29,240,250s0,3.05.06,4.11a7.59,7.59,0,0,0,.46,2.43,5.16,5.16,0,0,0,2.92,2.92,7.58,7.58,0,0,0,2.42.46c1.07.05,1.41.06,4.12.06s3.05,0,4.12-.06a7.58,7.58,0,0,0,2.42-.46,5.16,5.16,0,0,0,2.92-2.92,7.33,7.33,0,0,0,.46-2.43c.05-1.06.06-1.4.06-4.11s0-3.05-.06-4.12A7.31,7.31,0,0,0,259.46,243.46ZM258.13,254a5.6,5.6,0,0,1-.35,1.86,3.38,3.38,0,0,1-1.89,1.89,5.41,5.41,0,0,1-1.86.34c-1.05.05-1.36.06-4,.06s-3,0-4-.06a5.41,5.41,0,0,1-1.86-.34,3.38,3.38,0,0,1-1.89-1.89,5.41,5.41,0,0,1-.34-1.86c0-1.05-.06-1.37-.06-4s0-3,.06-4a5.41,5.41,0,0,1,.34-1.86A3,3,0,0,1,243,243a3.1,3.1,0,0,1,1.14-.75,5.41,5.41,0,0,1,1.86-.34c1.05,0,1.36-.06,4-.06s3,0,4,.06a5.41,5.41,0,0,1,1.86.34A3.1,3.1,0,0,1,257,243a3,3,0,0,1,.75,1.14,5.6,5.6,0,0,1,.35,1.86c0,1.05.05,1.36.05,4S258.17,253,258.13,254Z" transform="translate(-229.5 -229.5)"/><path class="cls-1" d="M250,244.88a5.12,5.12,0,1,0,5.13,5.12A5.13,5.13,0,0,0,250,244.88Zm0,8.45a3.33,3.33,0,1,1,3.33-3.33A3.33,3.33,0,0,1,250,253.33Z" transform="translate(-229.5 -229.5)"/><path class="cls-1" d="M255.33,243.47a1.2,1.2,0,1,0,1.2,1.2A1.2,1.2,0,0,0,255.33,243.47Z" transform="translate(-229.5 -229.5)"/></svg>