<svg id="Слой_1" data-name="Слой 1" xmlns="http://www.w3.org/2000/svg" viewBox="0 0 19.5 17.5"><defs><style>.cls-1{fill:#231f20;}</style></defs><title>izbrannoe</title><path class="cls-1" d="M37.37-11.09c0-3.14-2.44-6.5-6.06-6.5a5.41,5.41,0,0,0-3.69,1.39,5.42,5.42,0,0,0-3.7-1.39c-3.62,0-6.05,3.36-6.05,6.5C17.87-5.63,25.35-1,27.22-.22a.79.79,0,0,0,.4.13A.73.73,0,0,0,28-.22C29.89-1,37.37-5.63,37.37-11.09ZM27.62-1.67C26-2.48,19.37-6.6,19.37-11.09c0-2.41,1.83-5,4.55-5a4,4,0,0,1,3.13,1.45l0,0s0,0,0,0l.12.07.08.05a1,1,0,0,0,.29.06.94.94,0,0,0,.28-.06l.08-.05a.47.47,0,0,0,.12-.07l0,0,.05,0a4,4,0,0,1,3.12-1.44c2.73,0,4.56,2.59,4.56,5C35.87-6.6,29.23-2.48,27.62-1.67Z" transform="translate(-17.87 17.59)"/></svg>