<svg width="33" height="31" viewBox="0 0 33 31" xmlns="http://www.w3.org/2000/svg">
<path d="M4.66331 30.6364C3.97256 30.6364 3.28711 30.6364 2.59635 30.6311C1.24141 30.6257 0.396563 29.7862 0.396563 28.4366C0.39125 23.0009 0.39125 17.5652 0.396563 12.1295C0.396563 10.7799 1.24141 9.94038 2.59635 9.93507C3.28711 9.93507 3.97256 9.92975 4.66331 9.92975C5.38595 9.92975 6.10858 9.92975 6.83121 9.93507C8.19678 9.94038 9.04688 10.7905 9.05751 12.1508V12.6715L9.04162 13.1816C9.04162 13.1816 9.72701 12.4589 9.84922 12.3314C10.1255 12.0445 10.4071 11.7522 10.6728 11.4494C11.8577 10.0944 12.7717 8.47386 13.5421 6.34846C13.7441 5.79586 13.9565 5.25385 14.1691 4.70656C14.4401 4.01581 14.7217 3.30381 14.9661 2.58648C15.354 1.45471 16.0979 0.880859 17.1712 0.880859C17.4688 0.880859 17.7929 0.923367 18.1383 1.0137C19.0735 1.2528 19.8493 1.8426 20.3222 2.67682C20.811 3.5376 20.9172 4.55248 20.6303 5.52484C20.3274 6.53969 20.0139 7.54931 19.7004 8.56419L19.2435 10.0413C19.2222 10.1157 19.201 10.1901 19.1744 10.2804L19.0629 10.679H25.2158C26.6186 10.679 28.0214 10.679 29.4189 10.679C30.7951 10.679 31.8843 11.4494 32.2669 12.6821C32.6707 13.9839 32.0755 15.3867 30.8534 16.019C30.7791 16.0562 30.6994 16.0933 30.625 16.1305L30.3274 16.2741L30.4337 16.4494C30.896 17.2251 31.0129 18.0859 30.7525 18.8882C30.4975 19.6906 29.8864 20.3389 29.031 20.7108L28.8609 20.7852L28.93 20.9552C29.7748 23.0169 29.3816 24.1805 27.4794 25.2485L27.3094 25.3442L27.4157 25.5089C27.8301 26.1625 27.963 26.8638 27.8195 27.5917C27.5538 28.9467 26.4699 29.8607 25.1149 29.8766C23.9088 29.8872 22.7026 29.8978 21.4964 29.8978C19.6154 29.8978 17.878 29.8819 16.1936 29.8447C14.387 29.8075 12.6175 29.2921 10.7791 28.2719C10.4656 28.0965 10.1521 27.9212 9.81739 27.7299L9.0522 27.2942C9.0522 27.2942 9.0522 28.2506 9.0522 28.4206C9.04157 29.7862 8.19146 30.6364 6.8259 30.6364C6.10858 30.6364 5.38595 30.6364 4.66331 30.6364ZM2.64948 11.0562C1.8684 11.0562 1.5177 11.4015 1.5177 12.1826V28.3782C1.5177 29.1593 1.86307 29.5099 2.63884 29.5152H6.7302C7.59099 29.5152 7.90985 29.1964 7.90985 28.3356V12.2145C7.90985 11.3962 7.58041 11.0615 6.77276 11.0615H4.71111L2.64948 11.0562ZM23.574 28.7501C24.0947 28.7501 24.6101 28.7501 25.1308 28.7395C25.9491 28.7236 26.6452 28.0859 26.7461 27.257C26.8471 26.4387 26.321 25.6577 25.5293 25.4345C25.3274 25.3814 25.1202 25.3708 24.9236 25.3708C24.7536 25.3708 23.6218 25.3708 23.6218 25.3708C23.3721 25.3708 23.1276 25.3707 22.8779 25.3654C22.49 25.3601 22.251 25.1423 22.2403 24.8075C22.235 24.4675 22.4847 24.2443 22.8885 24.2284C22.9257 24.2284 24.828 24.2284 24.828 24.2284C25.354 24.2284 25.8853 24.2284 26.4114 24.223C26.7036 24.223 26.9321 24.1912 27.1287 24.1274C27.8938 23.8724 28.3455 23.1125 28.2339 22.2783C28.1277 21.4865 27.4476 20.8755 26.6452 20.8596C26.2414 20.849 25.8323 20.8489 25.4284 20.8489H24.3285C24.1106 20.8489 23.8928 20.849 23.6749 20.8437C23.4305 20.8437 23.2393 20.7745 23.1224 20.647C23.0267 20.5407 22.9842 20.392 22.9948 20.2166C23.032 19.7756 23.4411 19.7066 23.6802 19.7066C24.2275 19.7066 27.336 19.7065 27.8833 19.7012C28.0799 19.7012 28.3136 19.6959 28.5261 19.6374C29.3072 19.4249 29.8439 18.6438 29.7536 17.8574C29.6527 16.9754 28.9884 16.3484 28.1436 16.3325C27.591 16.3218 27.0437 16.3219 26.4911 16.3219H24.6101C23.7387 16.3219 23.7387 15.8968 23.7334 15.7533C23.7334 15.5992 23.7759 15.4824 23.8609 15.392C23.9991 15.2539 24.2541 15.1795 24.5942 15.1795H27.1234C27.9523 15.1795 28.7812 15.1795 29.6048 15.1742C30.3434 15.1689 30.9597 14.7065 31.1776 13.9892C31.4061 13.2506 31.1404 12.4855 30.5293 12.1242C30.2052 11.9329 29.7695 11.816 29.3763 11.8107C27.5697 11.8001 25.7631 11.7948 23.9565 11.7948H19.4879C18.9193 11.7948 18.4678 11.6035 18.2127 11.2634C17.963 10.9234 17.9098 10.4398 18.0746 9.90313C18.2233 9.40898 18.3774 8.92014 18.5315 8.42598C18.8716 7.3314 19.2223 6.19968 19.5411 5.07851C19.743 4.37182 19.6102 3.6173 19.1798 3.01688C18.7441 2.40583 18.0586 2.03919 17.3147 2.002C17.2615 2.002 17.2084 1.9967 17.1606 1.9967C16.5708 1.9967 16.3052 2.1986 16.0661 2.82028L15.6144 3.99455C15.1734 5.14758 14.7271 6.30064 14.286 7.45898C13.2499 10.1795 11.5814 12.4642 9.33913 14.2549C9.12127 14.4249 9.031 14.6216 9.031 14.9085C9.03631 16.2687 9.03631 17.6237 9.03631 18.9839V21.5078C9.03631 22.8415 9.04162 24.1699 9.02568 25.4982C9.02037 25.8436 9.14784 26.0508 9.45071 26.2102C9.85453 26.4281 10.253 26.6566 10.6516 26.8851C10.8428 26.9967 11.0342 27.1083 11.2255 27.2145C12.9736 28.2028 14.8386 28.7129 16.7674 28.7236C17.6069 28.7289 18.4518 28.7289 19.2913 28.7289H21.8152L23.574 28.7501Z" />
</svg>
