<svg width="32" height="34" viewBox="0 0 32 34" fill="none" xmlns="http://www.w3.org/2000/svg">
<path d="M31.3124 27.1074C31.3124 30.3607 24.526 33.0005 16.1528 33.0005" stroke-linecap="round" stroke-linejoin="round"/>
<path d="M21.2134 21.5527C27.0933 22.3594 31.3198 24.5392 31.3198 27.0992" stroke-linecap="round" stroke-linejoin="round"/>
<path d="M11.1065 21.5527C5.22658 22.3594 1 24.5392 1 27.0992C1 30.3524 7.78654 32.9922 16.1597 32.9922" stroke-linecap="round" stroke-linejoin="round"/>
<path d="M26.2598 10.8262C26.2598 18.1927 16.1533 26.266 16.1533 26.266C16.1533 26.266 6.04688 18.1927 6.04688 10.8262" stroke-miterlimit="10" stroke-linecap="round" stroke-linejoin="round"/>
<path d="M6.05371 10.8263C6.05371 5.39973 10.5803 1 16.1602 1C21.74 1 26.2666 5.39973 26.2666 10.8263" stroke-miterlimit="10" stroke-linecap="round" stroke-linejoin="round"/>
<path d="M16.16 14.4735C18.0194 14.4735 19.5267 12.9664 19.5267 11.1071C19.5267 9.24772 18.0194 7.74023 16.16 7.74023C14.3008 7.74023 12.7935 9.24772 12.7935 11.1071C12.7935 12.9664 14.3008 14.4735 16.16 14.4735Z" stroke-linecap="round" stroke-linejoin="round"/>
</svg>
