<svg id="Слой_1" data-name="Слой 1" xmlns="http://www.w3.org/2000/svg" viewBox="0 0 19.5 19.47"><defs><style>.cls-1{fill:#231f20;}</style></defs><title>login</title><path class="cls-1" d="M13.41,12.46A4.73,4.73,0,1,0,8.68,7.73,4.74,4.74,0,0,0,13.41,12.46Zm0-8a3.23,3.23,0,1,1-3.23,3.23A3.24,3.24,0,0,1,13.41,4.5Z" transform="translate(-3.66 -3)"/><path class="cls-1" d="M13.41,14c-4.79,0-9.75,2.15-9.75,5.74v1a1.75,1.75,0,0,0,1.75,1.75h16a1.75,1.75,0,0,0,1.75-1.75v-1C23.16,16.12,18.21,14,13.41,14Zm8.25,6.74a.25.25,0,0,1-.25.25h-16a.25.25,0,0,1-.25-.25v-1c0-2.53,4.27-4.24,8.25-4.24s8.25,1.71,8.25,4.24Z" transform="translate(-3.66 -3)"/></svg>