<svg width="32" height="9" viewBox="0 0 32 9" fill="none" xmlns="http://www.w3.org/2000/svg">
<path d="M3.31904 0C3.00932 0 2.75683 0.25248 2.75831 0.562206C2.75831 0.870463 3.01079 1.12147 3.31904 1.12147C3.62877 1.12147 3.88123 0.868996 3.88123 0.559272C3.87978 0.251015 3.62877 0 3.31904 0Z" fill="#00B2BB"/>
<path d="M3.31904 5.96094C3.00932 5.96094 2.75683 6.21342 2.75831 6.52315C2.75831 6.8314 3.01079 7.08241 3.31904 7.08241C3.62877 7.08241 3.88123 6.82993 3.88123 6.5202C3.87978 6.21195 3.62877 5.96094 3.31904 5.96094Z" fill="#00B2BB"/>
<path d="M5.43711 0.701172H5.43564C5.02023 0.702641 4.68115 1.04172 4.68115 1.4586C4.68115 1.87402 5.02023 2.21309 5.43564 2.21309C5.85252 2.21164 6.19307 1.87255 6.19159 1.45567C6.19307 1.04025 5.85252 0.701172 5.43711 0.701172Z" fill="#00B2BB"/>
<path d="M5.43711 4.87109H5.43564C5.02023 4.87109 4.68115 5.21164 4.68115 5.62853C4.68115 6.04394 5.02023 6.38301 5.43564 6.38301C5.85252 6.38301 6.19307 6.04246 6.19159 5.62558C6.19307 5.20869 5.85252 4.87109 5.43711 4.87109Z" fill="#00B2BB"/>
<path d="M0.663486 3.52706C0.663486 3.71053 0.515229 3.85879 0.331743 3.85879C0.148256 3.85879 0 3.71053 0 3.52706C0 3.34357 0.148256 3.19531 0.331743 3.19531C0.515229 3.19531 0.663486 3.34504 0.663486 3.52706Z" fill="#00B2BB"/>
<path d="M1.58518 1.45787C1.58518 1.68099 1.40316 1.86301 1.18004 1.86301C0.955454 1.86301 0.774902 1.68099 0.774902 1.45787C0.774902 1.23476 0.956921 1.05273 1.18004 1.05273C1.40463 1.05273 1.58518 1.23476 1.58518 1.45787Z" fill="#00B2BB"/>
<path d="M1.58518 5.62584C1.58518 5.84896 1.40316 6.03098 1.18004 6.03098C0.955454 6.03098 0.774902 5.84896 0.774902 5.62584C0.774902 5.40272 0.956921 5.2207 1.18004 5.2207C1.40463 5.22218 1.58518 5.40272 1.58518 5.62584Z" fill="#00B2BB"/>
<path d="M6.29602 2.53516H6.29307C5.74555 2.53661 5.30078 2.98286 5.30225 3.53038C5.30372 4.07644 5.74848 4.5212 6.29454 4.5212C6.84353 4.51975 7.28977 4.07349 7.28831 3.52598C7.28831 2.97991 6.84206 2.53516 6.29602 2.53516Z" fill="#00B2BB"/>
<path d="M22.2238 1.62305C21.459 1.62305 20.3022 2.00617 20.3022 3.49901C20.3022 4.99185 21.5632 5.36177 22.2238 5.36177C22.8842 5.36177 24.1453 4.99185 24.1453 3.49901C24.1453 2.00617 22.9885 1.62305 22.2238 1.62305ZM23.1779 3.49314C23.1779 4.46196 22.6259 4.70122 22.2251 4.70122C21.8245 4.70122 21.271 4.46196 21.271 3.49314C21.271 2.52434 21.8567 2.28507 22.2238 2.28507C22.5908 2.2836 23.1779 2.52434 23.1779 3.49314Z" fill="#00B2BB"/>
<path d="M18.7891 3.34299L20.2775 1.66079H19.1957L17.8306 3.21676V0.576016C17.8306 0.338216 17.6852 -0.00527066 17.1054 0.00206881C17.0423 0.00353671 16.9718 0.00647481 16.8999 0.018218V5.31438H17.832V3.4619L19.3043 5.31438H20.3656L18.7891 3.34299Z" fill="#00B2BB"/>
<path d="M26.6848 1.62598C26.1241 1.62598 25.785 1.82562 25.6368 1.94011V1.93864C25.6176 1.95185 25.5972 1.96506 25.578 1.97827C25.4885 1.80066 25.2932 1.62305 24.8896 1.62305C24.8235 1.62305 24.7515 1.62745 24.6768 1.63919V5.3192H25.6353V2.5625C25.8907 2.31737 26.5968 2.18819 26.9197 2.51994C27.1016 2.70636 27.1384 2.97057 27.1384 3.21718V5.32067H28.097V3.03663C28.0984 2.09864 27.3761 1.62598 26.6848 1.62598Z" fill="#00B2BB"/>
<path d="M11.0329 1.61719C10.1126 1.61719 9.45789 2.05168 9.45789 2.05168L9.74707 2.57132C10.1801 2.33351 10.8245 2.21168 11.2179 2.29977C11.5071 2.36433 11.6289 2.5625 11.6906 2.74747C11.7229 2.84288 11.7155 3.14673 11.7155 3.14673V3.04838C11.2047 2.93389 9.27734 2.68288 9.27734 4.20802C9.27734 4.77608 9.63844 5.23701 10.4208 5.33682C10.8906 5.39701 11.325 5.30012 11.7155 5.04179C11.7346 5.02857 11.7552 5.01537 11.7742 5.00215C11.8638 5.17977 12.059 5.35737 12.4627 5.35737C12.5287 5.35737 12.6006 5.35297 12.6755 5.34124V2.86783C12.674 1.85939 11.6436 1.61719 11.0329 1.61719ZM11.7155 3.60324V4.41791C11.3368 4.65425 11.0139 4.69537 10.826 4.69537C10.6073 4.69537 10.2271 4.61023 10.2036 4.15078C10.164 3.34343 11.1988 3.46526 11.7155 3.57682V3.60324Z" fill="#00B2BB"/>
<path d="M14.4998 2.97108C14.1313 2.8463 14.1064 2.69804 14.1416 2.54832C14.2414 2.11236 15.2733 2.25914 15.8473 2.54832L16.1306 2.02574C15.8223 1.82464 15.2763 1.61914 14.6759 1.61914C14.1533 1.61914 13.6763 1.74978 13.4121 2.14758C13.1596 2.52777 13.1963 3.10465 13.6278 3.41583C13.9566 3.65217 14.5688 3.82832 15.0018 3.9208C15.2675 3.97804 15.4906 4.09253 15.4231 4.38758C15.3467 4.71638 14.5922 4.96739 13.5706 4.18061L13.2065 4.65181C13.2065 4.65181 13.7717 5.30354 14.7067 5.35785C15.6667 5.41364 16.3757 4.8896 16.3273 4.17034C16.2686 3.29548 15.3864 3.27198 14.4998 2.97108Z" fill="#00B2BB"/>
<path d="M30.3571 1.61719C29.4369 1.61719 28.7822 2.05168 28.7822 2.05168L29.0715 2.57132C29.5043 2.33351 30.1487 2.21168 30.5422 2.29977C30.8315 2.36433 30.9531 2.5625 31.0148 2.74747C31.0472 2.84288 31.0399 3.14673 31.0399 3.14673V3.04838C30.5289 2.93389 28.6016 2.68288 28.6016 4.20802C28.6016 4.77608 28.9628 5.23701 29.7451 5.33682C30.2148 5.39701 30.6494 5.30012 31.0399 5.04179C31.0588 5.02857 31.0795 5.01537 31.0986 5.00215C31.1881 5.17977 31.3832 5.35737 31.787 5.35737C31.8529 5.35737 31.9249 5.35297 31.9999 5.34124V2.86783C31.9999 1.85939 30.9694 1.61719 30.3571 1.61719ZM31.0399 3.60324V4.41791C30.6611 4.65425 30.3382 4.69537 30.1502 4.69537C29.9315 4.69537 29.55 4.61023 29.5279 4.15078C29.4883 3.34343 30.523 3.46526 31.0399 3.57682V3.60324Z" fill="#00B2BB"/>
<path d="M14.2972 7.83054C14.1944 7.72486 14.1416 7.59715 14.1416 7.44155C14.1416 7.28743 14.193 7.15825 14.2972 7.05549C14.3999 6.94981 14.5306 6.89844 14.6862 6.89844C14.8902 6.89844 15.062 7.00412 15.1427 7.16852L14.9915 7.25513C14.9401 7.14505 14.8242 7.07311 14.6862 7.07311C14.5834 7.07311 14.4968 7.10835 14.4264 7.1788C14.3588 7.24926 14.3236 7.33587 14.3236 7.44155C14.3236 7.54578 14.3588 7.63237 14.4264 7.70136C14.4968 7.77183 14.5834 7.80707 14.6862 7.80707C14.8242 7.80707 14.9401 7.73661 14.9974 7.62652L15.15 7.71606C15.062 7.87899 14.8858 7.98467 14.6862 7.98467C14.5306 7.98467 14.3999 7.9333 14.2972 7.83054Z" fill="#00B2BB"/>
<path d="M16.2641 6.92773V7.95967H16.085V7.09801H15.5507V7.95967H15.3701V6.92773H16.2641Z" fill="#00B2BB"/>
<path d="M17.3282 6.92773H17.4721V7.95967H17.2944V7.23453L16.7235 7.95967H16.5781V6.92773H16.7557V7.65142L17.3282 6.92773Z" fill="#00B2BB"/>
<path d="M18.5555 6.92773V7.10096H18.2033V7.95967H18.0242V7.10096H17.6704V6.92773H18.5555Z" fill="#00B2BB"/>
<path d="M18.8373 7.52572C18.8725 7.70921 19.0149 7.81637 19.2116 7.81637C19.3481 7.81637 19.4465 7.76645 19.5096 7.66517L19.6623 7.75178C19.561 7.90738 19.4098 7.98517 19.2072 7.98517C19.0443 7.98517 18.9092 7.9338 18.8065 7.83252C18.7052 7.72976 18.6538 7.59913 18.6538 7.44205C18.6538 7.28793 18.7037 7.15727 18.805 7.05454C18.9063 6.95178 19.0369 6.90039 19.1955 6.90039C19.3467 6.90039 19.47 6.95471 19.5654 7.06186C19.6623 7.16755 19.7092 7.29525 19.7092 7.44645C19.7092 7.47287 19.7078 7.4993 19.7034 7.52719H18.8373V7.52572ZM18.8373 7.36866H19.5272C19.4964 7.17197 19.3599 7.06921 19.1955 7.06921C19.0032 7.06921 18.8681 7.18664 18.8373 7.36866Z" fill="#00B2BB"/>
<path d="M20.1437 7.74609L20.0086 8.24812H19.8545L19.9367 7.74609H20.1437Z" fill="#00B2BB"/>
<path d="M21.6469 6.92773H21.826V7.95967H21.6469V7.58828C21.5648 7.62352 21.4709 7.6426 21.3681 7.6426C21.1039 7.6426 20.9526 7.51637 20.9526 7.27123V6.92773H21.1332V7.26096C21.1332 7.41508 21.2182 7.47525 21.3812 7.47525C21.4782 7.47525 21.5677 7.45618 21.6483 7.42096V6.92773H21.6469Z" fill="#00B2BB"/>
<path d="M22.9082 6.92773V7.10096H22.5573V7.95967H22.3783V7.10096H22.0244V6.92773H22.9082Z" fill="#00B2BB"/>
<path d="M23.551 7.98467C23.3998 7.98467 23.2705 7.9333 23.1649 7.82762C23.0592 7.72193 23.0078 7.59423 23.0078 7.44155C23.0078 7.2889 23.0592 7.1612 23.1649 7.05549C23.2705 6.94981 23.3998 6.89844 23.551 6.89844C23.7021 6.89844 23.8314 6.94981 23.9371 7.05549C24.0428 7.1612 24.0956 7.2889 24.0956 7.44155C24.0956 7.59423 24.0413 7.72193 23.9371 7.82762C23.8314 7.9333 23.7021 7.98467 23.551 7.98467ZM23.8108 7.70431C23.8813 7.63385 23.9164 7.54724 23.9164 7.44155C23.9164 7.33587 23.8813 7.24926 23.8108 7.1788C23.7402 7.10835 23.6537 7.07311 23.551 7.07311C23.4497 7.07311 23.363 7.10835 23.2927 7.1788C23.2221 7.24926 23.187 7.33587 23.187 7.44155C23.187 7.54724 23.2221 7.63385 23.2927 7.70431C23.363 7.77477 23.4497 7.81 23.551 7.81C23.6537 7.81 23.7402 7.77477 23.8108 7.70431Z" fill="#00B2BB"/>
<path d="M24.4402 7.83485C24.3404 7.73357 24.292 7.60586 24.292 7.44586C24.292 7.27119 24.3168 7.13468 24.3682 7.03925C24.4196 6.94384 24.5267 6.85723 24.6867 6.78092C24.7162 6.76624 24.7543 6.75009 24.8042 6.7266L24.9158 6.67668C24.9951 6.63706 25.0832 6.571 25.092 6.47852L25.2373 6.56073C25.2284 6.60477 25.2166 6.64146 25.1903 6.67668C25.1653 6.71045 25.1551 6.731 25.108 6.76182C25.064 6.78824 25.0581 6.79706 24.9979 6.82348C24.9686 6.83816 24.948 6.84551 24.9379 6.85283L24.8703 6.8822L24.8042 6.90862C24.6164 6.98936 24.5444 7.06127 24.5048 7.18751C24.5928 7.07889 24.7366 7.02605 24.8688 7.02605C24.9994 7.02605 25.108 7.07009 25.1977 7.15816C25.2886 7.24769 25.3341 7.36073 25.3341 7.49871C25.3341 7.63963 25.2872 7.75412 25.1888 7.84807C25.092 7.93908 24.9701 7.98458 24.8219 7.98458C24.6663 7.98458 24.54 7.93614 24.4402 7.83485ZM24.8248 7.18605C24.7351 7.18605 24.6575 7.2154 24.5855 7.27119C24.5151 7.32696 24.4798 7.39889 24.4798 7.48991C24.4798 7.58239 24.5137 7.66165 24.5766 7.72182C24.6413 7.78201 24.7206 7.81283 24.8189 7.81283C24.9158 7.81283 24.9951 7.78348 25.0566 7.72477C25.1213 7.66458 25.1522 7.58972 25.1522 7.50165C25.1507 7.31668 25.0215 7.18605 24.8248 7.18605Z" fill="#00B2BB"/>
<path d="M25.998 7.29862C26.1007 7.29862 26.1858 7.32944 26.2534 7.39111C26.321 7.45128 26.3561 7.53201 26.3561 7.6289C26.3561 7.72578 26.321 7.80652 26.2534 7.86816C26.1858 7.92835 26.1007 7.95917 25.998 7.95917H25.562V6.92578H25.7412V7.29715H25.998V7.29862ZM25.998 7.79182C26.0993 7.79182 26.1799 7.72723 26.1799 7.6289C26.1799 7.53054 26.0993 7.46302 25.998 7.46302H25.7426V7.79182H25.998ZM26.4913 6.92723H26.6702V7.95917H26.4913V6.92723Z" fill="#00B2BB"/>
<path d="M28.8145 7.95967H28.6046L28.2185 7.47085V7.95967H28.0408V7.47085L27.6532 7.95967H27.4448L27.8764 7.42683L27.4655 6.92773H27.6739L28.0408 7.38426V6.92773H28.2185V7.38426L28.584 6.92773H28.7939L28.3815 7.42683L28.8145 7.95967Z" fill="#00B2BB"/>
<path d="M29.7774 6.92773H29.9212V7.95967H29.7436V7.23453L29.1711 7.95967H29.0273V6.92773H29.205V7.65142L29.7774 6.92773Z" fill="#00B2BB"/>
<path d="M31.0049 6.92773V7.10096H30.6525V7.95967H30.4735V7.10096H30.1196V6.92773H31.0049Z" fill="#00B2BB"/>
<path d="M31.6377 7.29862C31.7404 7.29862 31.8254 7.32944 31.893 7.39111C31.9606 7.45128 31.9958 7.53201 31.9958 7.6289C31.9958 7.72578 31.9606 7.80652 31.893 7.86816C31.8254 7.92835 31.7404 7.95917 31.6377 7.95917H31.2017V6.92578H31.3808V7.29715H31.6377V7.29862ZM31.6377 7.79182C31.7389 7.79182 31.8196 7.72723 31.8196 7.6289C31.8196 7.53054 31.7389 7.46302 31.6377 7.46302H31.3808V7.79182H31.6377Z" fill="#00B2BB"/>
</svg>
