<svg id="Слой_1" data-name="Слой 1" xmlns="http://www.w3.org/2000/svg" viewBox="0 0 60.23 56"><title>marka_n1</title><path d="M1395.43,312.88h-3.89a3.85,3.85,0,0,1-4.14-4.13V278.05a3.85,3.85,0,0,1,4.14-4.14h8a3.91,3.91,0,0,1,4.19,4.17v1l0,.95,1.52-1.6c.53-.54,1-1.09,1.55-1.66a29.22,29.22,0,0,0,5.39-9.6c.38-1,.78-2.06,1.19-3.09.51-1.29,1-2.64,1.5-4a4.17,4.17,0,0,1,4.15-3.21,7.16,7.16,0,0,1,1.82.25,6.54,6.54,0,0,1,4.11,3.13,6.85,6.85,0,0,1,.57,5.36c-.57,1.91-1.16,3.81-1.74,5.72l-.86,2.77-.13.45-.2.75H1442a5.37,5.37,0,0,1,5.36,3.77,5.28,5.28,0,0,1-2.66,6.28l-.43.21-.56.27.2.33a5.53,5.53,0,0,1,.6,4.59,5.65,5.65,0,0,1-3.23,3.43l-.32.14.13.32c1.59,3.88.85,6.07-2.73,8.08l-.33.18.2.32a5.27,5.27,0,0,1,.77,3.92,5.16,5.16,0,0,1-5.09,4.29c-2.27,0-4.55,0-6.82,0-3.54,0-6.8,0-10-.1a21.51,21.51,0,0,1-10.19-3l-1.81-1-1.44-.82v2.12a3.91,3.91,0,0,1-4.19,4.17ZM1391.64,276c-1.47,0-2.12.65-2.12,2.11v30.48c0,1.48.65,2.14,2.11,2.14h7.7c1.62,0,2.22-.6,2.22-2.22V278.19c0-1.53-.62-2.16-2.14-2.16h-7.77Zm39.38,33.3c1,0,2,0,2.93,0a3.14,3.14,0,0,0,3-2.78,3.17,3.17,0,0,0-2.29-3.43,4.06,4.06,0,0,0-1.14-.12h-2.46l-1.39,0a1.07,1.07,0,0,1-1.2-1c0-.64.46-1.05,1.23-1.08h6.63a4.61,4.61,0,0,0,1.35-.19,3.15,3.15,0,0,0,2.08-3.48,3.1,3.1,0,0,0-3-2.67l-2.29,0h-3.29a1.37,1.37,0,0,1-1-.37,1,1,0,0,1-.24-.81c.07-.83.84-1,1.29-1h7.91a4.69,4.69,0,0,0,1.21-.12,3.18,3.18,0,0,0,2.31-3.35,3.11,3.11,0,0,0-3-2.86c-1,0-2.07,0-3.11,0H1433c-1.64,0-1.64-.8-1.65-1.07a.91.91,0,0,1,.25-.68,1.94,1.94,0,0,1,1.38-.4h9.44a3.08,3.08,0,0,0,3-2.23,3,3,0,0,0-1.22-3.5,4.35,4.35,0,0,0-2.17-.59q-5.1,0-10.2,0h-8.41a2.53,2.53,0,0,1-2.65-3.56c.28-.93.57-1.85.86-2.78.64-2.06,1.3-4.19,1.9-6.3a4.48,4.48,0,0,0-.68-3.88,4.56,4.56,0,0,0-3.51-1.91H1419c-1.11,0-1.61.37-2.06,1.54l-.85,2.22c-.83,2.17-1.67,4.34-2.5,6.52a29.48,29.48,0,0,1-9.31,12.78,1.44,1.44,0,0,0-.58,1.23c0,2.56,0,5.11,0,7.67v4.75c0,2.5,0,5,0,7.51a1.33,1.33,0,0,0,.8,1.35c.76.4,1.51.83,2.26,1.27l1.08.62a21.28,21.28,0,0,0,10.43,2.84H1431Z" transform="translate(-1387.4 -256.88)"/></svg>