<svg width="32" height="20" viewBox="0 0 32 20" fill="none" xmlns="http://www.w3.org/2000/svg">
<g clip-path="url(#clip0_47_91)">
<path d="M19.1427 9.57135C19.1427 14.8569 14.8569 19.1427 9.57135 19.1427C4.28577 19.1427 0 14.8569 0 9.57135C0 4.28578 4.28577 0 9.57135 0C14.8569 0 19.1427 4.28578 19.1427 9.57135Z" fill="#ED1B2E"/>
<path d="M22.422 0C19.9491 0 17.6941 0.937581 15.9966 2.47726C15.6523 2.79053 15.3279 3.13046 15.0302 3.49038H16.9631C17.2275 3.81254 17.4719 4.15025 17.6941 4.50351H14.3014C14.0992 4.83011 13.9126 5.16781 13.7504 5.51665H18.2473C18.4006 5.84543 18.5361 6.18318 18.6516 6.52975H13.3461C13.235 6.8608 13.1417 7.1985 13.0684 7.54289H18.9316C19.0716 8.19607 19.1471 8.8737 19.1471 9.56912C19.1471 10.6311 18.9738 11.6554 18.6539 12.6107H13.3483C13.4639 12.9573 13.5994 13.295 13.7527 13.6238H18.2495C18.0851 13.9727 17.9007 14.3126 17.6985 14.6369H14.3059C14.528 14.9902 14.7702 15.3279 15.0368 15.6501H16.9698C16.672 16.0122 16.3499 16.3499 16.0033 16.6632C17.703 18.2029 19.9558 19.1405 22.4287 19.1405C27.7142 19.1405 32 14.8547 32 9.56912C31.9933 4.28577 27.7075 0 22.422 0Z" fill="#FCB131"/>
<path d="M30.7178 14.9087C30.7178 14.7375 30.8556 14.5996 31.0269 14.5996C31.1981 14.5996 31.336 14.7375 31.336 14.9087C31.336 15.0799 31.1981 15.2178 31.0269 15.2178C30.8556 15.2178 30.7178 15.0799 30.7178 14.9087ZM31.0269 15.1444C31.1558 15.1444 31.2626 15.0399 31.2626 14.9087C31.2626 14.7775 31.1581 14.673 31.0269 14.673C30.8957 14.673 30.7911 14.7775 30.7911 14.9087C30.7911 15.0377 30.8957 15.1444 31.0269 15.1444ZM30.9846 15.0444H30.9201V14.7731H31.0357C31.0602 14.7731 31.0847 14.7731 31.1047 14.7864C31.1269 14.802 31.138 14.8287 31.138 14.8554C31.138 14.8865 31.1202 14.9154 31.0913 14.9265L31.1425 15.0466H31.0713L31.0291 14.9399H30.9824V15.0444H30.9846ZM30.9846 14.891H31.0202C31.0335 14.891 31.0469 14.891 31.058 14.8865C31.0691 14.8798 31.0736 14.8665 31.0736 14.8554C31.0736 14.8443 31.0669 14.8331 31.058 14.8265C31.0469 14.8198 31.0291 14.822 31.0179 14.822H30.9846V14.891Z" fill="#FCB131"/>
<path d="M7.33638 10.6169C7.22753 10.6036 7.17866 10.6013 7.10535 10.6013C6.51655 10.6013 6.21885 10.8035 6.21885 11.2034C6.21885 11.4501 6.36324 11.6056 6.59209 11.6056C7.01424 11.6034 7.31863 11.2012 7.33638 10.6169ZM8.09177 12.3765C7.95403 12.3765 7.22976 12.3765 7.22976 12.3765L7.24974 11.9677C6.98758 12.2921 6.63655 12.4454 6.16111 12.4454C5.59897 12.4454 5.2124 12.0055 5.2124 11.3678C5.2124 10.4058 5.88338 9.84594 7.03645 9.84594C7.15422 9.84594 7.3053 9.85705 7.46079 9.87707C7.49192 9.74597 7.50079 9.6904 7.50079 9.62155C7.50079 9.3594 7.32086 9.2616 6.83427 9.2616C6.32552 9.25719 5.90559 9.38383 5.73449 9.43935C5.74564 9.37491 5.87892 8.55067 5.87892 8.55067C6.3966 8.39736 6.73875 8.3418 7.12309 8.3418C8.01623 8.3418 8.48726 8.74175 8.48726 9.49937C8.48949 9.70155 8.45618 9.95261 8.40285 10.2814C8.31175 10.8524 8.11844 12.0788 8.09177 12.3765Z" fill="#003473"/>
<path d="M4.77713 12.376H3.73956L4.335 8.64347L3.00416 12.376H2.29764L2.20877 8.66573L1.58446 12.376H0.611328L1.42227 7.52148H2.91751L3.0086 10.2387L3.91953 7.52148H5.5814L4.77713 12.376Z" fill="#003473"/>
<path d="M23.7065 10.6169C23.5976 10.6036 23.5488 10.6013 23.4755 10.6013C22.8867 10.6013 22.589 10.8035 22.589 11.2034C22.589 11.4501 22.7334 11.6056 22.9622 11.6056C23.3821 11.6034 23.6888 11.2012 23.7065 10.6169ZM24.4619 12.3765C24.3219 12.3765 23.5999 12.3765 23.5999 12.3765L23.6199 11.9677C23.3577 12.2921 23.0067 12.4454 22.5312 12.4454C21.9669 12.4454 21.5825 12.0055 21.5825 11.3678C21.5825 10.4058 22.2535 9.84594 23.4066 9.84594C23.5243 9.84594 23.6754 9.85705 23.8309 9.87707C23.862 9.74597 23.8709 9.6904 23.8709 9.62155C23.8709 9.3594 23.6909 9.2616 23.2044 9.2616C22.6956 9.25719 22.2757 9.38383 22.1046 9.43935C22.1157 9.37491 22.249 8.55067 22.249 8.55067C22.7667 8.39736 23.1089 8.3418 23.491 8.3418C24.3842 8.3418 24.8552 8.74175 24.8552 9.49937C24.8574 9.70155 24.8241 9.95261 24.7707 10.2814C24.6819 10.8524 24.4886 12.0788 24.4619 12.3765Z" fill="#003473"/>
<path d="M12.711 12.3178C12.4267 12.4067 12.2045 12.4466 11.9645 12.4466C11.4335 12.4466 11.1425 12.1423 11.1425 11.5802C11.1358 11.4046 11.218 10.9469 11.2847 10.5271C11.3446 10.1582 11.7357 7.83203 11.7357 7.83203H12.7688L12.6488 8.4297H13.2731L13.1332 9.37841H12.5066C12.3867 10.1293 12.2156 11.0647 12.2134 11.1891C12.2134 11.3935 12.3222 11.4824 12.5688 11.4824C12.6866 11.4824 12.7799 11.4713 12.8488 11.4446L12.711 12.3178Z" fill="#003473"/>
<path d="M15.8771 12.2818C15.5216 12.3907 15.1794 12.444 14.8173 12.4417C13.6598 12.4395 13.0576 11.8374 13.0576 10.6799C13.0576 9.33128 13.8242 8.33594 14.8661 8.33594C15.7171 8.33594 16.2614 8.89138 16.2614 9.76454C16.2614 10.0534 16.2236 10.3377 16.1348 10.7355H14.0774C14.0086 11.3086 14.3751 11.5464 14.975 11.5464C15.3438 11.5464 15.6771 11.4708 16.0481 11.2975L15.8771 12.2818ZM15.2972 9.94229C15.3038 9.86006 15.406 9.238 14.8173 9.238C14.4885 9.238 14.253 9.48905 14.1574 9.94229H15.2972Z" fill="#003473"/>
<path d="M8.7165 9.67682C8.7165 10.1767 8.95868 10.5211 9.50744 10.7788C9.92736 10.9766 9.99398 11.0343 9.99398 11.2143C9.99398 11.4609 9.80736 11.572 9.39636 11.572C9.08533 11.572 8.79868 11.5231 8.46545 11.4165C8.46545 11.4165 8.32988 12.2874 8.32324 12.3296C8.55873 12.3807 8.76979 12.4296 9.40523 12.4473C10.5006 12.4473 11.0071 12.0296 11.0071 11.1276C11.0071 10.5855 10.7961 10.2656 10.2739 10.0278C9.83849 9.8279 9.78739 9.78348 9.78739 9.59905C9.78739 9.38576 9.96067 9.27691 10.2961 9.27691C10.5006 9.27691 10.7783 9.29912 11.0427 9.33689L11.1915 8.42154C10.9227 8.37931 10.5139 8.34377 10.2762 8.34377C9.11418 8.33931 8.71204 8.94586 8.7165 9.67682Z" fill="#003473"/>
<path d="M20.9319 8.44418C21.2207 8.44418 21.4896 8.51971 21.8606 8.70633L22.0317 7.65324C21.8784 7.59327 21.3429 7.24219 20.8897 7.24219C20.1943 7.24219 19.6055 7.58658 19.1923 8.15758C18.5902 7.95763 18.3413 8.36199 18.037 8.76413L17.7681 8.82633C17.7881 8.693 17.8081 8.56194 17.8014 8.42861H16.8461C16.715 9.65058 16.4839 10.8881 16.304 12.1123L16.2573 12.3789H17.2971C17.4704 11.2525 17.5659 10.5304 17.6237 10.0416L18.0147 9.82391C18.0725 9.60616 18.2569 9.53285 18.6235 9.54173C18.5768 9.79947 18.5502 10.0705 18.5502 10.3505C18.5502 11.6413 19.2478 12.4456 20.3653 12.4456C20.6542 12.4456 20.9008 12.4078 21.2829 12.3034L21.4651 11.197C21.1207 11.3658 20.8386 11.4458 20.5831 11.4458C19.9788 11.4458 19.6144 10.9992 19.6144 10.2638C19.6122 9.19293 20.1565 8.44418 20.9319 8.44418Z" fill="#003473"/>
<path d="M29.7273 7.52148L29.4962 8.92342C29.2119 8.55019 28.9075 8.27911 28.5053 8.27911C27.981 8.27911 27.5033 8.67683 27.1923 9.26112C26.7568 9.17007 26.308 9.01676 26.308 9.01676V9.02117C26.3435 8.69458 26.3569 8.49462 26.3546 8.42573H25.3993C25.2704 9.64774 25.0372 10.8853 24.8572 12.1094L24.8105 12.376H25.8481C25.988 11.4651 26.0969 10.7075 26.1747 10.1076C26.5302 9.78548 26.7079 9.50776 27.0656 9.52551C26.9079 9.9099 26.8146 10.352 26.8146 10.8075C26.8146 11.7939 27.3144 12.4449 28.0698 12.4449C28.4498 12.4449 28.7431 12.3138 29.0274 12.0094L28.9785 12.376H29.9628L30.7537 7.52148H29.7273ZM28.4298 11.4629C28.0765 11.4629 27.8966 11.2007 27.8966 10.6853C27.8966 9.9099 28.232 9.35891 28.7031 9.35891C29.0608 9.35891 29.254 9.62995 29.254 10.1321C29.2518 10.9141 28.9119 11.4629 28.4298 11.4629Z" fill="#003473"/>
<path d="M5.07674 12.0889H4.03693L4.63236 8.35859L3.30375 12.0889H2.59501L2.50836 8.37857L1.88183 12.0889H0.908691L1.72186 7.23438H3.2171L3.25709 10.2404L4.26577 7.23438H5.881L5.07674 12.0889Z" fill="white"/>
<path d="M7.63672 10.3322C7.52782 10.319 7.47895 10.3167 7.40564 10.3167C6.81689 10.3167 6.51914 10.5189 6.51914 10.9166C6.51914 11.1632 6.66581 11.3187 6.89243 11.3187C7.31231 11.3187 7.61893 10.9144 7.63672 10.3322ZM8.39211 12.0897C8.25437 12.0897 7.53005 12.0897 7.53005 12.0897L7.55008 11.6809C7.28787 12.003 6.93684 12.1586 6.4614 12.1586C5.89708 12.1586 5.5127 11.7186 5.5127 11.0788C5.5127 10.1167 6.18368 9.55688 7.33674 9.55688C7.45451 9.55688 7.60559 9.56798 7.76113 9.58796C7.79221 9.4569 7.80113 9.40134 7.80113 9.33026C7.80113 9.0681 7.62116 8.97254 7.13456 8.97254C6.62581 8.9659 6.20588 9.09254 6.03483 9.15029C6.04593 9.08585 6.17922 8.26161 6.17922 8.26161C6.69689 8.11053 7.03905 8.05273 7.42343 8.05273C8.31657 8.05273 8.78756 8.45264 8.78756 9.21026C8.78979 9.41244 8.75648 9.66355 8.70314 9.99232C8.61204 10.5656 8.41878 11.792 8.39211 12.0897Z" fill="white"/>
<path d="M22.3287 7.36436L22.1576 8.41745C21.7866 8.23083 21.5177 8.15529 21.2289 8.15529C20.4535 8.15529 19.9091 8.90622 19.9091 9.97492C19.9091 10.7125 20.2757 11.1569 20.88 11.1569C21.1356 11.1569 21.4177 11.0769 21.7621 10.9081L21.5799 12.0145C21.1978 12.1189 20.9489 12.1567 20.6623 12.1567C19.5425 12.1567 18.8472 11.3524 18.8472 10.0616C18.8472 8.32634 19.8114 7.1133 21.1867 7.1133C21.6399 7.11107 22.1754 7.30433 22.3287 7.36436Z" fill="white"/>
<path d="M24.0041 10.3322C23.8953 10.319 23.8464 10.3167 23.773 10.3167C23.1843 10.3167 22.8866 10.5189 22.8866 10.9166C22.8866 11.1632 23.031 11.3187 23.2598 11.3187C23.682 11.3187 23.9886 10.9144 24.0041 10.3322ZM24.7617 12.0897C24.624 12.0897 23.8997 12.0897 23.8997 12.0897L23.9197 11.6809C23.6575 12.003 23.3065 12.1586 22.831 12.1586C22.2667 12.1586 21.8823 11.7186 21.8823 11.0788C21.8823 10.1167 22.5533 9.55688 23.7064 9.55688C23.8241 9.55688 23.9752 9.56798 24.1285 9.58796C24.1597 9.4569 24.1685 9.40134 24.1685 9.33026C24.1685 9.0681 23.9886 8.97254 23.502 8.97254C22.9932 8.9659 22.5755 9.09254 22.4022 9.15029C22.4133 9.08585 22.5467 8.26161 22.5467 8.26161C23.0643 8.11053 23.4064 8.05273 23.7908 8.05273C24.684 8.05273 25.155 8.45264 25.155 9.21026C25.1572 9.41244 25.1239 9.66355 25.0706 9.99232C24.9817 10.5656 24.7884 11.792 24.7617 12.0897Z" fill="white"/>
<path d="M13.0089 12.0287C12.7245 12.1176 12.5023 12.1576 12.2624 12.1576C11.7314 12.1576 11.4403 11.851 11.4403 11.2911C11.4337 11.1156 11.5159 10.6579 11.5825 10.238C11.6425 9.86918 12.0335 7.54297 12.0335 7.54297H13.0666L12.9467 8.14064H13.4777L13.3377 9.08934H12.8067C12.6867 9.84028 12.5157 10.7756 12.5134 10.9001C12.5134 11.1045 12.6223 11.1933 12.8689 11.1933C12.9866 11.1933 13.08 11.1822 13.1489 11.1556L13.0089 12.0287Z" fill="white"/>
<path d="M16.1768 11.9986C15.8214 12.1075 15.4792 12.1586 15.1171 12.1586C13.9595 12.1586 13.3574 11.5543 13.3574 10.3967C13.3574 9.0459 14.1239 8.05273 15.1637 8.05273C16.0169 8.05273 16.559 8.60818 16.559 9.48134C16.559 9.77016 16.5212 10.0523 16.4323 10.4522H14.375C14.3061 11.0255 14.6727 11.2632 15.2726 11.2632C15.6414 11.2632 15.9769 11.1877 16.3479 11.0143L16.1768 11.9986ZM15.5969 9.65685C15.6036 9.57467 15.7058 8.95256 15.1171 8.95256C14.7883 8.95256 14.5527 9.20362 14.4572 9.65685H15.5969Z" fill="white"/>
<path d="M9.01387 9.39024C9.01387 9.89016 9.256 10.2345 9.8048 10.4922C10.2247 10.69 10.2913 10.7477 10.2913 10.9277C10.2913 11.1743 10.107 11.2854 9.69372 11.2854C9.38264 11.2854 9.09605 11.2365 8.76281 11.1299C8.76281 11.1299 8.62725 12.0008 8.62061 12.0408C8.8561 12.0919 9.06715 12.1408 9.70259 12.1586C10.8001 12.1586 11.3045 11.7409 11.3045 10.8388C11.3045 10.2967 11.0934 9.97681 10.5713 9.73904C10.1359 9.53909 10.0848 9.49467 10.0848 9.31024C10.0848 9.09695 10.258 8.98587 10.5935 8.98587C10.7979 8.98587 11.0756 9.00808 11.34 9.04585L11.4889 8.1305C11.2201 8.08827 10.8112 8.05273 10.5735 8.05273C9.41377 8.05273 9.01164 8.66151 9.01387 9.39024Z" fill="white"/>
<path d="M30.2608 12.0872H29.2787L29.3276 11.7207C29.0432 12.025 28.7499 12.1561 28.3701 12.1561C27.6146 12.1561 27.1147 11.5051 27.1147 10.5165C27.1147 9.20341 27.8902 8.09694 28.8055 8.09694C29.2076 8.09694 29.5143 8.26135 29.7986 8.63464L30.0297 7.23047H31.0539L30.2608 12.0872ZM28.7277 11.1763C29.2121 11.1763 29.552 10.6276 29.552 9.8455C29.552 9.34339 29.3587 9.07231 29.001 9.07231C28.53 9.07231 28.1945 9.62329 28.1945 10.3987C28.1945 10.9142 28.3745 11.1763 28.7277 11.1763Z" fill="white"/>
<path d="M25.6967 8.14055C25.5656 9.36251 25.3345 10.6 25.1546 11.822L25.1079 12.0886H26.1477C26.5187 9.67359 26.6098 9.20256 27.1919 9.26253C27.2852 8.7693 27.4585 8.33609 27.5874 8.11834C27.1519 8.02724 26.9098 8.27388 26.5898 8.74045C26.6142 8.53827 26.6609 8.34273 26.652 8.14055H25.6967Z" fill="white"/>
<path d="M17.1434 8.14055C17.0123 9.36251 16.7813 10.6 16.6013 11.822L16.5547 12.0886H17.5944C17.9655 9.67359 18.0566 9.20256 18.6387 9.26253C18.732 8.7693 18.9053 8.33609 19.0342 8.11834C18.5987 8.02724 18.3565 8.27388 18.0388 8.74045C18.0632 8.53827 18.1099 8.34273 18.101 8.14055H17.1434Z" fill="white"/>
<path d="M30.7183 11.7779C30.7183 11.6066 30.8584 11.4688 31.0274 11.4688C31.1986 11.4688 31.3365 11.6066 31.3365 11.7779C31.3365 11.9491 31.1986 12.087 31.0274 12.087C30.8562 12.087 30.7183 11.9491 30.7183 11.7779ZM31.0274 12.0136C31.1586 12.0136 31.2631 11.9091 31.2631 11.7779C31.2631 11.6489 31.1586 11.5422 31.0274 11.5422C30.8984 11.5422 30.7917 11.6467 30.7917 11.7779C30.7917 11.9069 30.8962 12.0136 31.0274 12.0136ZM30.9851 11.9136H30.9206V11.6422H31.0363C31.0608 11.6422 31.0852 11.6422 31.1052 11.6556C31.1274 11.6711 31.1408 11.6956 31.1408 11.7223C31.1408 11.7534 31.123 11.7823 31.0941 11.7935L31.143 11.9136H31.0719L31.0296 11.8068H30.9829V11.9136H30.9851ZM30.9851 11.7601H31.0207C31.034 11.7601 31.0474 11.7623 31.0585 11.7556C31.0696 11.7489 31.0741 11.7356 31.0741 11.7245C31.0741 11.7134 31.0674 11.7023 31.0585 11.6956C31.0474 11.6889 31.0296 11.6912 31.0185 11.6912H30.9851V11.7601Z" fill="white"/>
</g>
<defs>
<clipPath id="clip0_47_91">
<rect width="32" height="19.3939" fill="white"/>
</clipPath>
</defs>
</svg>
