<?xml version="1.0" encoding="utf-8"?>
<!-- Generator: Adobe Illustrator 22.1.0, SVG Export Plug-In . SVG Version: 6.00 Build 0)  -->
<svg version="1.1" id="Icons" xmlns="http://www.w3.org/2000/svg" xmlns:xlink="http://www.w3.org/1999/xlink" x="0px" y="0px"
	 viewBox="0 0 11.7 17.2" style="enable-background:new 0 0 11.7 17.2;" xml:space="preserve">
<style type="text/css">
	.st0{fill:#231F20;}
</style>
<g>
	<path class="st0" d="M11.1,0H0.6C0.3,0,0,0.3,0,0.6v16c0,0.3,0.3,0.6,0.6,0.6h10.5c0.3,0,0.6-0.3,0.6-0.6v-2.9v-0.6v-2.6V10V7.5
		V6.9V4V3.5V0.6C11.7,0.3,11.4,0,11.1,0z M10.5,16H1.2V1.2h9.2v1.9H6.9c-0.1,0-0.1,0-0.2,0c-0.3,0-0.6,0.4-0.5,0.7s0.4,0.6,0.7,0.5
		h3.5v2.2H4.3C4,6.6,3.8,6.8,3.7,7.1c0,0.3,0.2,0.7,0.5,0.7h6.2v1.9H6.9c-0.1,0-0.1,0-0.2,0c-0.3,0-0.6,0.4-0.5,0.7S6.6,11,6.9,11
		h3.5v1.9H4.3c-0.3,0-0.5,0.3-0.5,0.5c0,0.3,0.2,0.7,0.5,0.7h6.2V16z"/>
</g>
</svg>
