<svg id="Icons" xmlns="http://www.w3.org/2000/svg" viewBox="0 0 15.47 17.25"><defs><style>.cls-1{fill:#231f20;}</style></defs><title>matras_ves</title><path class="cls-1" d="M1394.41,843.24a.62.62,0,0,1-.32-.09l-7.11-4.24a.6.6,0,0,1-.3-.53.62.62,0,0,1,.3-.54l7.11-4.24a.66.66,0,0,1,.64,0l7.11,4.24a.63.63,0,0,1,.31.54.61.61,0,0,1-.31.53l-7.11,4.24A.59.59,0,0,1,1394.41,843.24Zm-5.89-4.86,5.89,3.5,5.89-3.5-5.89-3.51Z" transform="translate(-1386.68 -833.52)"/><path class="cls-1" d="M1394.41,847a.62.62,0,0,1-.32-.09l-7.11-4.23a.63.63,0,0,1,.64-1.08l6.79,4,6.8-4a.63.63,0,0,1,.63,1.08l-7.11,4.23A.59.59,0,0,1,1394.41,847Z" transform="translate(-1386.68 -833.52)"/><path class="cls-1" d="M1394.41,850.77a.62.62,0,0,1-.32-.09l-7.11-4.24a.62.62,0,0,1-.21-.85.61.61,0,0,1,.85-.22l6.79,4,6.8-4a.62.62,0,1,1,.63,1.07l-7.11,4.24A.59.59,0,0,1,1394.41,850.77Z" transform="translate(-1386.68 -833.52)"/></svg>