<svg id="Icons" xmlns="http://www.w3.org/2000/svg" viewBox="0 0 13.81 15.25"><defs><style>.cls-1{fill:#231f20;}</style></defs><title>matras_jestkost</title><path class="cls-1" d="M491.84,1622.78h12.55a.63.63,0,1,0,0-1.25H491.84a.63.63,0,1,0,0,1.25Z" transform="translate(-491.21 -1614.53)"/><path class="cls-1" d="M491.51,1615.69l6.28,3.89a.63.63,0,0,0,.33.09.66.66,0,0,0,.33-.09l6.27-3.89a.62.62,0,0,0-.33-1.16H491.84a.63.63,0,0,0-.33,1.16Zm10.69.09-4.08,2.53-4.09-2.53Z" transform="translate(-491.21 -1614.53)"/><path class="cls-1" d="M504.94,1629.09l0-.12a.37.37,0,0,0-.05-.11l-.06-.1-.1-.09-.05,0-6.24-3.89s-.05,0-.08,0l-.13,0H498l-.13,0-.08,0-6.24,3.89-.05,0-.09.09a.36.36,0,0,0-.07.1,1.17,1.17,0,0,0-.05.11.5.5,0,0,0,0,.12.14.14,0,0,0,0,.07v0l0,.13a.36.36,0,0,0,0,.11l0,0,0,0a.54.54,0,0,0,.15.15l.07,0a.6.6,0,0,0,.27.07h12.48a.68.68,0,0,0,.28-.07l.06,0a.75.75,0,0,0,.16-.15l0,0,0,0a.36.36,0,0,0,0-.11.31.31,0,0,0,0-.13v0S504.94,1629.11,504.94,1629.09Zm-6.86-3.09,4.06,2.53H494Z" transform="translate(-491.21 -1614.53)"/></svg>