<svg width="28" height="32" viewBox="0 0 28 32" xmlns="http://www.w3.org/2000/svg">
<path d="M1.71542 28.9934C1.85539 28.3736 1.95035 27.7787 2.12531 27.2088C2.38525 26.339 2.82515 25.5742 3.61998 25.0643C3.68996 25.0193 3.75496 24.8993 3.75996 24.8143C3.77496 24.4694 3.76497 24.1245 3.76497 23.7346C3.625 23.7296 3.50501 23.7146 3.38004 23.7146C2.67519 23.7146 1.97035 23.7146 1.2605 23.7146C0.845595 23.7146 0.705625 23.5846 0.700627 23.1847C0.690629 22.5348 0.690629 21.89 0.700627 21.2401C0.705625 20.8652 0.855568 20.7202 1.23549 20.7202C5.02964 20.7202 8.82887 20.7202 12.623 20.7202C13.023 20.7202 13.1679 20.8652 13.1729 21.2651C13.1779 21.9 13.1779 22.5398 13.1729 23.1747C13.1679 23.5496 13.013 23.6996 12.638 23.6996C11.9332 23.7046 11.2283 23.6996 10.5185 23.6996C10.3935 23.6996 10.2686 23.6996 10.1286 23.6996C10.1286 24.0645 10.1286 24.3944 10.1286 24.8143C11.3983 24.7593 12.658 24.8093 13.8778 24.6194C15.4324 24.3744 16.1673 23.2147 16.4773 21.76C16.7972 20.2403 16.6522 18.7207 16.3772 17.211C16.2922 16.7561 16.1873 16.3062 16.0673 15.8613C16.0423 15.7663 15.9323 15.6563 15.8373 15.6213C15.4524 15.4714 15.0625 15.3414 14.5826 15.1764C14.4926 15.2764 14.3527 15.4414 14.1977 15.5963C13.3479 16.4512 12.4981 17.301 11.6433 18.1508C11.1834 18.6107 11.0434 18.6107 10.5635 18.1408C10.5085 18.0858 10.4586 18.0158 10.3536 17.8858C9.99367 18.2608 9.66869 18.6107 9.32876 18.9556C8.95884 19.3305 8.77388 19.3255 8.40396 18.9606C7.50416 18.0608 6.60435 17.161 5.70455 16.2612C5.36462 15.9213 5.35457 15.7513 5.6745 15.3764C5.98943 15.0065 6.31936 14.6515 6.66929 14.2666C6.5993 14.1916 6.46938 14.0517 6.34441 13.9017C6.14445 13.6618 6.12945 13.4418 6.3694 13.2019C9.80866 9.7676 13.2429 6.32835 16.6772 2.88909C16.9271 2.63914 17.1621 2.62914 17.402 2.84909C17.657 3.08404 17.8819 3.34899 18.0869 3.56894C18.8967 2.76412 19.6665 1.99428 20.5163 1.14947C20.4064 1.06449 20.2414 0.959504 20.1015 0.824533C19.8465 0.574587 19.8315 0.334639 20.0514 0.134682C20.2864 -0.0752736 20.5113 -0.0252814 20.7213 0.184672C21.7461 1.20945 22.7708 2.22923 23.7906 3.24901C24.0255 3.48396 24.2655 3.7239 24.5005 3.96385C24.7054 4.16881 24.7304 4.39376 24.5205 4.60372C24.3105 4.81368 24.0906 4.79868 23.8806 4.59372C23.7356 4.44875 23.5956 4.29378 23.4806 4.17381C22.6908 4.96364 21.921 5.72848 21.0712 6.58329C21.2312 6.71327 21.4561 6.86823 21.6461 7.05819C22.076 7.4831 22.071 7.67306 21.6561 8.09297C20.7513 9.00277 19.8465 9.91757 18.9367 10.8224C18.8467 10.9124 18.7317 10.9773 18.6317 11.0523C18.6767 11.0673 18.7217 11.0773 18.7617 11.0923C18.9067 11.5522 19.0417 12.0121 19.1966 12.467C19.2366 12.582 19.3016 12.697 19.3816 12.7869C22.6609 16.5761 24.7454 20.9302 25.5302 25.8891C25.6652 26.7339 25.6952 27.5887 25.7752 28.4436C25.7902 28.6135 25.7952 28.7885 25.8102 29.0034C26.1951 29.0034 26.565 29.0034 26.9299 29.0034C27.4048 29.0084 27.5448 29.1484 27.5498 29.6283C27.5548 30.2182 27.5548 30.808 27.5498 31.3979C27.5448 31.8628 27.4098 31.9978 26.9449 31.9978C25.1503 32.0028 23.3557 31.9978 21.5661 31.9978C14.6576 31.9978 7.7491 31.9978 0.840611 31.9978C0.715638 31.9978 0.585661 32.0028 0.460689 31.9928C0.170753 31.9778 0.0107712 31.8278 0.00577225 31.5329C0.000773335 30.848 -0.00422558 30.1682 0.00577225 29.4833C0.0107712 29.1634 0.17574 29.0084 0.510668 29.0034C0.935576 28.9834 1.3405 28.9934 1.71542 28.9934ZM19.5066 28.9734C19.4616 28.5885 19.4166 28.2236 19.3766 27.8587C19.0716 25.2792 18.8567 22.6998 19.2066 20.1104C19.3966 18.7207 19.6665 17.326 21.1212 16.5261C20.4513 15.6013 19.7915 14.6915 19.0966 13.7317C18.6617 14.7665 17.9519 15.3614 16.9721 15.6263C17.1021 16.3062 17.2471 16.946 17.3521 17.5959C17.592 19.1006 17.6769 20.6102 17.322 22.1099C16.8971 23.9145 15.8623 25.1593 13.9827 25.5442C13.5128 25.6392 13.018 25.6592 12.5331 25.6642C9.97862 25.6742 7.41917 25.6842 4.86473 25.6592C4.31982 25.6542 3.9299 25.8641 3.60997 26.254C2.97011 27.0389 2.79015 27.9837 2.67017 28.9784C8.29393 28.9734 13.8828 28.9734 19.5066 28.9734ZM17.1121 3.84888C13.8728 7.08818 10.6135 10.3475 7.36919 13.5918C8.60392 14.8315 9.86864 16.0962 11.1184 17.346C12.0682 16.3912 13.028 15.4264 14.0027 14.4466C13.2479 12.9319 13.3529 11.8222 14.3777 10.7924C14.8576 10.3125 15.4275 9.99755 16.1023 9.90257C16.8372 9.7926 17.492 10.0225 18.0119 10.3875C18.9867 9.43268 19.9365 8.50788 20.8663 7.59307C19.6065 6.33835 18.3368 5.07362 17.1121 3.84888ZM21.5211 17.326C21.3012 17.5059 21.0462 17.6309 20.9112 17.8359C20.6963 18.1558 20.4813 18.5107 20.3964 18.8806C20.2114 19.6855 20.0414 20.5103 19.9864 21.3351C19.8165 23.8246 20.0664 26.299 20.3864 28.7635C20.4164 29.0034 20.5513 28.9934 20.7213 28.9934C22.051 28.9934 23.3807 28.9984 24.7104 29.0034C24.7854 29.0034 24.8604 28.9834 24.9304 28.9734C25.0753 25.8391 23.4007 20.0704 21.5211 17.326ZM26.6699 31.093C26.6699 30.6781 26.6699 30.3031 26.6699 29.9032C18.0868 29.9032 9.51872 29.9032 0.940564 29.9032C0.940564 30.3031 0.940564 30.6881 0.940564 31.093C9.52372 31.093 18.0818 31.093 26.6699 31.093ZM1.60546 22.7948C5.18471 22.7948 8.72389 22.7948 12.2781 22.7948C12.2781 22.3949 12.2781 22.0149 12.2781 21.625C8.71389 21.625 5.16971 21.625 1.60546 21.625C1.60546 22.0199 1.60546 22.3949 1.60546 22.7948ZM20.4663 5.81346C21.2312 5.04863 21.996 4.28378 22.7508 3.53394C22.221 3.00906 21.6811 2.47417 21.1512 1.94929C20.4114 2.69913 19.6465 3.47896 18.8917 4.24379C19.3966 4.74869 19.9265 5.27858 20.4663 5.81346ZM18.2968 12.8119C18.3068 11.6222 17.532 10.7924 16.3972 10.7824C15.2275 10.7724 14.4226 11.5772 14.4176 12.767C14.4126 13.9717 15.2275 14.7815 16.4472 14.7815C17.507 14.7815 18.2918 13.9467 18.2968 12.8119ZM9.20379 24.7594C9.20379 24.3944 9.20379 24.0595 9.20379 23.7296C7.67412 23.7296 6.17939 23.7296 4.66974 23.7296C4.66974 24.0795 4.66974 24.4094 4.66974 24.7594C6.18439 24.7594 7.67912 24.7594 9.20379 24.7594ZM6.57936 15.7513C7.37918 16.5511 8.14902 17.321 8.87886 18.0508C9.1438 17.8109 9.43374 17.5509 9.67868 17.326C8.88885 16.5411 8.11407 15.7663 7.35424 15.0065C7.10929 15.2414 6.8343 15.5064 6.57936 15.7513Z" />
<path d="M17.8069 12.7336C17.8169 13.5084 17.1071 14.2182 16.3272 14.2182C15.6024 14.2182 14.9425 13.5734 14.9275 12.8585C14.9125 12.0887 15.6224 11.3589 16.3922 11.3439C17.1071 11.3339 17.8019 12.0137 17.8069 12.7336ZM16.7921 12.8335C16.7921 12.5386 16.5622 12.2487 16.3522 12.2837C16.0773 12.3286 15.9423 12.5236 15.9323 12.7935C15.9223 13.0585 16.1573 13.3484 16.3722 13.3134C16.6522 13.2684 16.7771 13.0735 16.7921 12.8335Z" />
</svg>
