<svg id="Слой_1" data-name="Слой 1" xmlns="http://www.w3.org/2000/svg" viewBox="0 0 73.8 64"><title>napishite_zvonite</title><path d="M1451.61,259.82a2.88,2.88,0,0,0-.31-.36,21.45,21.45,0,0,0-4.58-3.92,20.26,20.26,0,0,0-20.09-.14,1.31,1.31,0,0,1-1.26.07c-11.34-4.57-22-3.36-32,3.76a37.85,37.85,0,0,0-3.52,3.08l-.07.07a42.74,42.74,0,0,0-3.53,4.23,31,31,0,0,0-5,11.56c-.3,1.48-.48,3-.71,4.47v4.18c.05.23.09.46.13.69.28,1.7.44,3.44.85,5.1a31.82,31.82,0,0,0,35,23.9c10.41-1.33,18.31-6.7,23.68-15.68a30.47,30.47,0,0,0,4.21-18.57,1,1,0,0,1,.65-1.15,26.31,26.31,0,0,0,4.06-2.58C1455.12,273.59,1456.1,265.78,1451.61,259.82Zm-9.37,28.27a28.2,28.2,0,0,1-7.4,16.54c-7.71,8.32-17.24,11.49-28.37,9.33A28.32,28.32,0,0,1,1389,303a29.2,29.2,0,0,1-5.87-23,28.91,28.91,0,0,1,4.91-12.18s2.39-3,3.27-3.95c.12-.13.25-.23.37-.35,8-7.55,17.41-10,28.11-7.65,1.38.3,2.71.83,4.06,1.25-.06.18-.06.21-.08.22l-.47.45c-3.61,3.48-5.35,7.62-4.4,12.67a14,14,0,0,0,5.7,8.71.87.87,0,0,1,.41.95c-.21,1.52-.37,3.05-.52,4.58a1.43,1.43,0,0,0,.77,1.57,1.52,1.52,0,0,0,1.72-.34c1.33-1.07,2.66-2.13,4-3.16a1.35,1.35,0,0,1,1-.23,20.51,20.51,0,0,0,6.44.38c1.28-.13,2.54-.39,3.82-.6A55.72,55.72,0,0,1,1442.24,288.09Zm7.11-12.74c-4.36,4.83-10,6.21-16.18,5.13-1.66-.28-2.9-.16-4.08,1a25.06,25.06,0,0,1-2.24,1.75c.15-1.24.23-2.29.42-3.33a2,2,0,0,0-1-2.23,11.73,11.73,0,0,1-5.45-9,11.26,11.26,0,0,1,4.1-9.5c5.45-4.9,14.37-5.61,20.85-1.7a36.57,36.57,0,0,1,2.79,2.37,11.28,11.28,0,0,1,3.11,4.76A10.73,10.73,0,0,1,1449.35,275.35Z" transform="translate(-1380.61 -252.77)"/><path d="M1414,270c-.11,1.22-.17,2.44-.34,3.65a4.25,4.25,0,0,1-3.33,3.74,1.7,1.7,0,0,0-1.31,1.42,10.53,10.53,0,0,0,.11,5.2,14.39,14.39,0,0,0,2.89,6.28,9.09,9.09,0,0,0,.75.77,1.8,1.8,0,0,0,1.75.51,4.49,4.49,0,0,1,4.84,1.63,42.08,42.08,0,0,1,3.58,5.3c1.21,2.18.55,4.16-1.66,5.35a11.45,11.45,0,0,1-10.4.15,18.28,18.28,0,0,1-8.53-8.09,34.19,34.19,0,0,1-4.87-18.61,15,15,0,0,1,3.7-9.91,10.8,10.8,0,0,1,8.19-3.76,4.16,4.16,0,0,1,4.52,4.21c0,.71,0,1.44,0,2.16Zm-2.2,0h-.06c0-.67,0-1.35,0-2-.12-1.55-.81-2.22-2.36-2.2a8.61,8.61,0,0,0-6.49,2.95,12.76,12.76,0,0,0-3.23,8.49,32.06,32.06,0,0,0,4.94,18.2,15.52,15.52,0,0,0,7.87,6.88,9.24,9.24,0,0,0,7.48-.19c1.5-.73,1.8-1.51,1-2.94s-2-3-3-4.4a2.75,2.75,0,0,0-3.26-1,2.53,2.53,0,0,1-2.33-.38,11.73,11.73,0,0,1-2.13-1.91,16.9,16.9,0,0,1-3.35-7.93,10.83,10.83,0,0,1,.32-5.89,3.11,3.11,0,0,1,2.39-2.24,2.36,2.36,0,0,0,2.06-2.43C1411.7,272,1411.74,271,1411.8,270Z" transform="translate(-1380.61 -252.77)"/><path d="M1437.14,263.61h7c.9,0,1.38.39,1.38,1.09s-.49,1.07-1.34,1.07h-14c-1,0-1.54-.6-1.32-1.35a1.16,1.16,0,0,1,1.28-.82Z" transform="translate(-1380.61 -252.77)"/><path d="M1437.11,271.48h-6.76a4.28,4.28,0,0,1-.72-.05,1,1,0,0,1-.85-1.09,1,1,0,0,1,.88-1,4.29,4.29,0,0,1,.72,0h13.53a3.5,3.5,0,0,1,.79.05,1,1,0,0,1,.8,1,1,1,0,0,1-.76,1.07,3.46,3.46,0,0,1-.79.06Z" transform="translate(-1380.61 -252.77)"/></svg>