<svg width="21" height="21" viewBox="0 0 21 21" fill="none" xmlns="http://www.w3.org/2000/svg">
<path d="M10.0035 19.0035C4.9435 19.0035 0.863498 14.8335 1.0035 9.74349C1.1335 5.04349 5.05349 1.1335 9.74349 1.0035C14.8335 0.863498 19.0035 4.9435 19.0035 10.0035C19.0035 11.3635 18.7034 12.6435 18.1634 13.8035L19.3234 19.3436L13.7934 18.1734C12.6434 18.7034 11.3635 19.0035 10.0035 19.0035Z" stroke-width="1.5" stroke-linecap="round" stroke-linejoin="round"/>
<path d="M10.0039 11.2534C10.6943 11.2534 11.2539 10.6938 11.2539 10.0034C11.2539 9.31306 10.6943 8.75342 10.0039 8.75342C9.31355 8.75342 8.75391 9.31306 8.75391 10.0034C8.75391 10.6938 9.31355 11.2534 10.0039 11.2534Z"/>
<path d="M6.00391 11.2534C6.69426 11.2534 7.25391 10.6938 7.25391 10.0034C7.25391 9.31306 6.69426 8.75342 6.00391 8.75342C5.31355 8.75342 4.75391 9.31306 4.75391 10.0034C4.75391 10.6938 5.31355 11.2534 6.00391 11.2534Z"/>
<path d="M14.0039 11.2534C14.6943 11.2534 15.2539 10.6938 15.2539 10.0034C15.2539 9.31306 14.6943 8.75342 14.0039 8.75342C13.3136 8.75342 12.7539 9.31306 12.7539 10.0034C12.7539 10.6938 13.3136 11.2534 14.0039 11.2534Z"/>
</svg>
