<svg width="16" height="16" viewBox="0 0 16 16" fill="none" xmlns="http://www.w3.org/2000/svg">
<path d="M14.4809 11.295L13.4909 10.305C12.9909 9.805 12.1909 9.805 11.7009 10.305L10.9209 11.085C10.7509 11.255 10.4809 11.315 10.2609 11.215C9.13088 10.715 8.01088 9.975 7.02088 8.975C6.03088 7.985 5.28088 6.875 4.79088 5.745C4.69088 5.515 4.75088 5.235 4.93088 5.055L5.63088 4.355C6.20088 3.785 6.20088 2.985 5.70088 2.485L4.71088 1.495C4.05088 0.835 2.98088 0.835 2.32088 1.495L1.77088 2.045C1.14088 2.675 0.88088 3.575 1.05088 4.475C1.47088 6.685 2.75088 9.105 4.82088 11.175C6.89088 13.245 9.31088 14.535 11.5209 14.945C12.4209 15.115 13.3209 14.855 13.9509 14.225L14.5009 13.675C15.1409 13.035 15.1409 11.955 14.4809 11.295Z" stroke-width="1.25" stroke-miterlimit="10" stroke-linecap="round" stroke-linejoin="round"/>
</svg>
