<svg width="36" height="36" viewBox="0 0 36 36" fill="none" xmlns="http://www.w3.org/2000/svg">
<path d="M30.3232 26.222L28.2455 24.1445C27.1978 23.0967 25.5108 23.0967 24.4808 24.1445L22.847 25.7781C22.4741 26.151 21.9236 26.2578 21.4619 26.0625C19.0823 25.0148 16.7383 23.4522 14.6606 21.3568C12.5829 19.2791 11.0024 16.9344 9.97239 14.5726C9.75929 14.0754 9.88361 13.507 10.2565 13.1341L11.7304 11.6609C12.9202 10.4711 12.9203 8.78328 11.8725 7.73555L9.7948 5.65799C8.40967 4.27286 6.15441 4.27286 4.76927 5.65799L3.61501 6.81296C2.30091 8.12706 1.75039 10.0265 2.10555 11.9089C2.9757 16.5438 5.67492 21.6224 10.0257 25.9732C14.3764 30.3239 19.4553 33.024 24.0901 33.8941C25.9725 34.2493 27.8726 33.6986 29.1867 32.3845L30.341 31.2304C31.7083 29.863 31.7083 27.6072 30.3232 26.222Z" stroke="inherit" stroke-width="2.67" stroke-miterlimit="10" stroke-linecap="round" stroke-linejoin="round"/>
<path d="M19.7393 9.13901C21.5683 9.12126 23.4152 9.79634 24.8003 11.1992" stroke="inherit" stroke-width="2.67" stroke-miterlimit="10" stroke-linecap="round" stroke-linejoin="round"/>
<path d="M29.8259 6.17333C27.0378 3.38531 23.3797 2 19.7393 2" stroke="inherit" stroke-width="2.67" stroke-miterlimit="10" stroke-linecap="round" stroke-linejoin="round"/>
<path d="M26.8605 16.2585C26.8783 14.4294 26.2035 12.5824 24.8184 11.1973" stroke="inherit" stroke-width="2.67" stroke-miterlimit="10" stroke-linecap="round" stroke-linejoin="round"/>
<path d="M29.8271 6.17188C32.6152 8.9599 34.0003 12.6184 34.0003 16.2588" stroke="inherit" stroke-width="2.67" stroke-miterlimit="10" stroke-linecap="round" stroke-linejoin="round"/>
</svg>
