<svg id="Icons" xmlns="http://www.w3.org/2000/svg" viewBox="0 0 19.53 19.54"><defs><style>.cls-1{fill:#231f20;}</style></defs><title>phone</title><path class="cls-1" d="M336.94,4436.22a2.25,2.25,0,0,0-3.18,0l-.88.92a12.23,12.23,0,0,1-6.08-6.06l.83-.83a2.28,2.28,0,0,0,.08-3.26l-1.17-1.18a2.76,2.76,0,0,0-3.89,0l-.65.65a4,4,0,0,0-1.06,3.54,17.64,17.64,0,0,0,13,13,5.12,5.12,0,0,0,.77.07,3.91,3.91,0,0,0,2.77-1.13l.65-.65a2.74,2.74,0,0,0,0-3.89Zm.11,4-.65.65a2.43,2.43,0,0,1-2.2.64,16.15,16.15,0,0,1-11.79-11.78,2.46,2.46,0,0,1,.65-2.2l.65-.66a1.24,1.24,0,0,1,.88-.36,1.28,1.28,0,0,1,.89.36l1.17,1.18a.79.79,0,0,1-.08,1.14l-.83.83a1.5,1.5,0,0,0-.32,1.64,13.68,13.68,0,0,0,6.86,6.85,1.48,1.48,0,0,0,1.62-.31l.92-.92a.75.75,0,0,1,1.06,0l1.17,1.17a1.24,1.24,0,0,1,0,1.77Z" transform="translate(-320.87 -4423.52)"/><path class="cls-1" d="M333.94,4430a3.15,3.15,0,0,1,.94,2.31.75.75,0,0,0,.74.76h0a.75.75,0,0,0,.75-.74,4.7,4.7,0,0,0-4.77-4.77.75.75,0,0,0-.74.76.71.71,0,0,0,.76.74A3.34,3.34,0,0,1,333.94,4430Z" transform="translate(-320.87 -4423.52)"/><path class="cls-1" d="M337.83,4426.1a8.74,8.74,0,0,0-6.21-2.58.75.75,0,1,0,0,1.5,7.29,7.29,0,0,1,7.28,7.29.75.75,0,0,0,1.5,0A8.71,8.71,0,0,0,337.83,4426.1Z" transform="translate(-320.87 -4423.52)"/></svg>