<svg id="Слой_1" data-name="Слой 1" xmlns="http://www.w3.org/2000/svg" viewBox="0 0 41.5 41.5"><defs><style>.cls-1{fill:#231f20;}</style></defs><title>play_video</title><path class="cls-1" d="M250,229.25A20.75,20.75,0,1,0,270.75,250,20.78,20.78,0,0,0,250,229.25Zm0,40A19.25,19.25,0,1,1,269.25,250,19.28,19.28,0,0,1,250,269.25Z" transform="translate(-229.25 -229.25)"/><path class="cls-1" d="M255.45,248.84l-3.84-2.21-3.85-2.22a1.33,1.33,0,0,0-2,1.15v8.88a1.33,1.33,0,0,0,2,1.15l3.85-2.22,3.84-2.21A1.34,1.34,0,0,0,255.45,248.84Z" transform="translate(-229.25 -229.25)"/></svg>