<svg id="Icons" xmlns="http://www.w3.org/2000/svg" viewBox="0 0 19.5 12.75"><defs><style>.cls-1{fill:#323232;}</style></defs><title>pozvonit_video</title><path class="cls-1" d="M1459,5334a1.85,1.85,0,0,0-2,.23l-2.57,2.07v-.71a3,3,0,0,0-3-3h-7.87a3,3,0,0,0-3,3v6.75a3,3,0,0,0,3,3h7.87a3,3,0,0,0,3-3v-.71l2.57,2.07a1.93,1.93,0,0,0,1.18.42,2,2,0,0,0,.81-.19,1.85,1.85,0,0,0,1.07-1.69v-6.55A1.85,1.85,0,0,0,1459,5334Zm-6.06,8.34a1.5,1.5,0,0,1-1.5,1.5h-7.87a1.5,1.5,0,0,1-1.5-1.5v-6.75a1.5,1.5,0,0,1,1.5-1.5h7.87a1.5,1.5,0,0,1,1.5,1.5Zm5.63-.1a.37.37,0,0,1-.61.29l-3.52-2.83v-1.47l3.52-2.83a.35.35,0,0,1,.39-.05.35.35,0,0,1,.22.34Z" transform="translate(-1440.58 -5332.54)"/></svg>