<svg id="Icons" xmlns="http://www.w3.org/2000/svg" viewBox="0 0 19.5 19.5"><defs><style>.cls-1{fill:#323232;}</style></defs><title>rekomenduem</title><path class="cls-1" d="M558.62,1341.41h-3.25v-3.25a.75.75,0,0,0-1.5,0v3.25h-3.25a.75.75,0,0,0,0,1.5h3.25v3.25a.75.75,0,0,0,1.5,0v-3.25h3.25a.75.75,0,1,0,0-1.5Z" transform="translate(-544.87 -1332.41)"/><path class="cls-1" d="M554.62,1332.41a9.75,9.75,0,1,0,9.75,9.75A9.76,9.76,0,0,0,554.62,1332.41Zm0,18a8.25,8.25,0,1,1,8.25-8.25A8.26,8.26,0,0,1,554.62,1350.41Z" transform="translate(-544.87 -1332.41)"/></svg>