<svg width="18" height="16" viewBox="0 0 18 16" fill="none" xmlns="http://www.w3.org/2000/svg">
<path d="M2.75293 7.12V15" stroke="#323232" stroke-width="1.25" stroke-linecap="round" stroke-linejoin="round"/>
<path d="M1.00293 15H16.7529" stroke="#323232" stroke-width="1.25" stroke-linecap="round" stroke-linejoin="round"/>
<path d="M4.83325 5.38C4.83325 6.34 3.93323 7.12 2.81323 7.12C2.80323 7.12 2.7932 7.12 2.7832 7.12" stroke="#323232" stroke-width="1.25" stroke-linecap="round" stroke-linejoin="round"/>
<path d="M8.87305 5.38C8.87305 6.34 7.97303 7.12 6.85303 7.12C5.73303 7.12 4.83301 6.34 4.83301 5.38" stroke="#323232" stroke-width="1.25" stroke-linecap="round" stroke-linejoin="round"/>
<path d="M12.9227 5.38C12.9227 6.34 12.0227 7.12 10.9027 7.12C9.78271 7.12 8.88281 6.34 8.88281 5.38" stroke="#323232" stroke-width="1.25" stroke-linecap="round" stroke-linejoin="round"/>
<path d="M2.81277 7.12C1.47277 7.11 0.602762 5.78999 1.18276 4.64999L2.53274 1.98999C2.81274 1.43999 3.56278 1 4.20278 1H13.5528C14.2628 1 14.9128 1.38999 15.2228 1.98999L16.5728 4.64999C17.1528 5.78999 16.2828 7.12 14.9428 7.12C13.8228 7.12 12.9228 6.35998 12.9228 5.41998" stroke="#323232" stroke-width="1.25" stroke-linecap="round" stroke-linejoin="round"/>
<path d="M15.0029 7.12V15" stroke="#323232" stroke-width="1.25" stroke-linecap="round" stroke-linejoin="round"/>
<path d="M10.623 11.5C10.623 10.53 9.84305 9.75 8.87305 9.75C7.90305 9.75 7.12305 10.53 7.12305 11.5" stroke="#323232" stroke-width="1.25" stroke-miterlimit="10" stroke-linecap="round" stroke-linejoin="round"/>
<path d="M7.12305 11.5V15" stroke="#323232" stroke-width="1.25" stroke-miterlimit="10" stroke-linecap="round" stroke-linejoin="round"/>
<path d="M10.623 11.5V15" stroke="#323232" stroke-width="1.25" stroke-miterlimit="10" stroke-linecap="round" stroke-linejoin="round"/>
</svg>
