<svg id="Icons" xmlns="http://www.w3.org/2000/svg" viewBox="0 0 20.17 25.5"><defs><style>.cls-1{fill:#231f20;}</style></defs><title>skachat</title><path class="cls-1" d="M395.61,5554.94l-3.77-3.78a3.42,3.42,0,0,0-2.42-1h-9.56a3.42,3.42,0,0,0-3.41,3.42v18.67a3.41,3.41,0,0,0,3.41,3.41H393.2a3.41,3.41,0,0,0,3.41-3.41v-14.9A3.36,3.36,0,0,0,395.61,5554.94Zm-1.06,1.06a1.84,1.84,0,0,1,.48.83h-4.5a.58.58,0,0,1-.58-.58v-4.5a1.82,1.82,0,0,1,.83.47Zm-1.35,18.16H379.86a1.92,1.92,0,0,1-1.91-1.91v-18.67a1.92,1.92,0,0,1,1.91-1.92h8.59v4.59a2.08,2.08,0,0,0,2.08,2.08h4.58v13.92A1.92,1.92,0,0,1,393.2,5574.16Z" transform="translate(-376.45 -5550.16)"/><path class="cls-1" d="M387.33,5566.38l-1.38,1.39v-6.19a.75.75,0,0,0-1.5,0v6.19l-1.39-1.39a.75.75,0,1,0-1.06,1.06l2.67,2.67a.67.67,0,0,0,.24.16.72.72,0,0,0,.29.06.71.71,0,0,0,.28-.06.82.82,0,0,0,.25-.16l2.66-2.67a.74.74,0,0,0,0-1.06A.75.75,0,0,0,387.33,5566.38Z" transform="translate(-376.45 -5550.16)"/></svg>