<svg id="Icons" xmlns="http://www.w3.org/2000/svg" viewBox="0 0 19.5 19.5"><defs><style>.cls-1{fill:#231f20;}</style></defs><title>sravnenie</title><path class="cls-1" d="M663.68,2930.33a.74.74,0,0,1-.75-.75v-8a.75.75,0,0,1,1.5,0v8A.75.75,0,0,1,663.68,2930.33Z" transform="translate(-656.93 -2910.83)"/><path class="cls-1" d="M675.68,2930.33a.74.74,0,0,1-.75-.75v-13a.75.75,0,0,1,1.5,0v13A.75.75,0,0,1,675.68,2930.33Z" transform="translate(-656.93 -2910.83)"/><path class="cls-1" d="M669.68,2930.33a.74.74,0,0,1-.75-.75v-18a.75.75,0,0,1,1.5,0v18A.75.75,0,0,1,669.68,2930.33Z" transform="translate(-656.93 -2910.83)"/><path class="cls-1" d="M657.68,2930.33a.74.74,0,0,1-.75-.75v-13a.75.75,0,0,1,1.5,0v13A.75.75,0,0,1,657.68,2930.33Z" transform="translate(-656.93 -2910.83)"/></svg>