<svg id="Слой_1" data-name="Слой 1" xmlns="http://www.w3.org/2000/svg" viewBox="0 0 63.99 64"><title>videokonsultaciya</title><path d="M1448.63,268.85a5.48,5.48,0,0,0-3.89-1.4c-4.41,0-8.83,0-13.25,0h-.82c0-.69,0-1.33,0-2a12.19,12.19,0,0,0-6.22-10.84,12.36,12.36,0,0,0-18,7.3,24.81,24.81,0,0,0-.5,3.76,16.86,16.86,0,0,0,0,1.75H1391.8a5,5,0,0,0-5,2.93,5.7,5.7,0,0,0-.54,2.41q0,16.33,0,32.67a5.25,5.25,0,0,0,5.46,5.34c4.1,0,8.2,0,12.31,0h.81c0,1.33,0,2.59,0,3.85,0,.1-.32.26-.5.27-1.16,0-2.33,0-3.56,0V317h35v-2.07c-1.11,0-2.21,0-3.31,0-.62,0-.83-.14-.79-.79.06-1.07,0-2.16,0-3.32l.76,0c4.1,0,8.2,0,12.3,0a5.15,5.15,0,0,0,5-3,10.56,10.56,0,0,0,.52-1.59V272A5.79,5.79,0,0,0,1448.63,268.85Zm-40-7.13a10.32,10.32,0,0,1,19.63,1.06,26.73,26.73,0,0,1,.35,6.11c-.74-.15-1.39-.26-2-.41a.71.71,0,0,1-.44-.33c-1.28-2.42-3.38-3.35-6-2.39a5.3,5.3,0,0,1-3.88,0,4.47,4.47,0,0,0-5.89,2.4.75.75,0,0,1-.44.34c-.64.15-1.28.26-2,.4h0s0,0,0,0h0C1408,266.47,1407.75,264.06,1408.64,261.72Zm20,10.85a2,2,0,0,1-2.06,2v-4A1.92,1.92,0,0,1,1428.6,272.57Zm0,17.62v6.14H1408v-6.15h-2v6.13h-4.09c0-.14,0-.3,0-.45,0-1.44,0-2.88,0-4.31a5.09,5.09,0,0,1,3.56-5c1.35-.46,2.74-.81,4.15-1.23,1.08,2.5,2.14,5,3.22,7.49l1.94-1.54c1-.84,2.12-1.67,3.16-2.54a.6.6,0,0,1,.94,0c1.46,1.21,3,2.38,4.43,3.56l.68.53,1.62-3.76c.53-1.22,1-2.44,1.6-3.74,1.59.49,3.21.86,4.71,1.49a4.61,4.61,0,0,1,2.94,4c.14,1.79,0,3.61,0,5.46h-4.06v-6.12ZM1416.74,287l-3.2,2.56-2-4.75c.74-.22,1.41-.43,2.09-.6a.61.61,0,0,1,.48.14C1415,285.18,1415.81,286.05,1416.74,287Zm-1.62-5.69a8.64,8.64,0,0,0,6.21,0,1.64,1.64,0,0,1-.48,1.74c-.88.78-1.67,1.66-2.55,2.55-1-1-2-2-3-3C1415.11,282.34,1415.19,281.81,1415.12,281.28Zm7.91,8.25-3.19-2.55c.94-.94,1.82-1.84,2.73-2.72a.44.44,0,0,1,.38-.1c.7.19,1.39.4,2.12.62C1424.38,286.37,1423.72,287.92,1423,289.53Zm-4.75-9.69a6.12,6.12,0,0,1-5.84-4.34,13.75,13.75,0,0,1-.34-2.95,18.81,18.81,0,0,1,0-2.81,2.45,2.45,0,0,1,3.24-2.16c.84.25,1.65.56,2.49.8a1.67,1.67,0,0,0,.83,0c.82-.24,1.62-.54,2.44-.78a2.47,2.47,0,0,1,3.31,2.21c.06.76,0,1.54,0,2.31h.16a27,27,0,0,1-.49,3.38A6.13,6.13,0,0,1,1418.28,279.84Zm-8.26-9.22v4a1.93,1.93,0,0,1-2-1.93A2,2,0,0,1,1410,270.62Zm-21.66,2.4a3.16,3.16,0,0,1,3.51-3.52h14c0,1,0,1.93,0,2.87a4.28,4.28,0,0,0,.83,2.7,4.13,4.13,0,0,0,3.41,1.66.79.79,0,0,1,.75.48,15.22,15.22,0,0,0,1.62,2.26,1.89,1.89,0,0,1,.64,1.51c-.08,1.45.23,1.08-1.12,1.48-2.3.7-4.62,1.36-7,2a7.16,7.16,0,0,0-5.31,6.52c-.07,2.43,0,4.87,0,7.35h37.13v-1.13c0-2.08,0-4.17-.08-6.24a7.15,7.15,0,0,0-5.34-6.5c-2.46-.69-4.91-1.43-7.37-2.11-.53-.15-.73-.38-.66-.9a7.18,7.18,0,0,1,0-.81,2.62,2.62,0,0,1,.38-.91c.61-.87,1.27-1.69,1.87-2.56.19-.27.32-.44.7-.45a4.14,4.14,0,0,0,4.27-4.38V269.5h14.12a3.12,3.12,0,0,1,3.42,3.36q0,14.59,0,29.18c0,.13,0,.25,0,.49h-.72q-21.35,0-42.68,0a1.9,1.9,0,0,1-1.14-.34,7.5,7.5,0,0,0-5.64-1.73c-3,.16-5.91,0-8.87,0h-.73c0-.27,0-.49,0-.71Zm56.42,35.71h-35.73v2.06h20.56v4.08h-22.68v-6.14h-15c-2.29,0-3.52-1.21-3.53-3.49v-2.68l.66,0c3.62,0,7.24,0,10.87,0a1.56,1.56,0,0,1,1,.31c1.7,1.51,3.67,1.82,5.92,1.8,13.51-.08,27,0,40.55,0h.79A3.22,3.22,0,0,1,1444.78,308.73Z" transform="translate(-1386.29 -252.99)"/><path d="M1390.46,281.86h13.32v-2h-13.32Z" transform="translate(-1386.29 -252.99)"/><path d="M1390.47,275.75v2h13.31v-2Z" transform="translate(-1386.29 -252.99)"/><path d="M1403.79,271.63h-13.33v2h13.33Z" transform="translate(-1386.29 -252.99)"/><path d="M1446.12,286.05H1439v2h7.16Z" transform="translate(-1386.29 -252.99)"/><path d="M1439,290.18v2h7.16v-2Z" transform="translate(-1386.29 -252.99)"/><path d="M1439,296.32h7.16v-2H1439Z" transform="translate(-1386.29 -252.99)"/><path d="M1439,300.45h7.16v-2H1439Z" transform="translate(-1386.29 -252.99)"/><path d="M1390.46,306.62h2v-2h-2Z" transform="translate(-1386.29 -252.99)"/><path d="M1394.58,306.6h2v-1.94h-2Z" transform="translate(-1386.29 -252.99)"/><path d="M1398.7,306.61h2v-2h-2Z" transform="translate(-1386.29 -252.99)"/></svg>