<svg width="32" height="11" viewBox="0 0 32 11" fill="none" xmlns="http://www.w3.org/2000/svg">
<g clip-path="url(#clip0_47_114)">
<path d="M13.8701 10.2079H11.2598L12.8935 0.179688H15.5039L13.8701 10.2079Z" fill="#0066B3"/>
<path d="M9.06236 0.180416L6.57276 7.0778L6.27765 5.59153L5.39773 1.08183C5.39773 1.08183 5.29039 0.177734 4.1583 0.177734H0.04829L0 0.346749C0 0.346749 1.25822 0.60966 2.73105 1.49229L5.00065 10.2059H7.71832L11.8739 0.177734H9.06236V0.180416Z" fill="#0066B3"/>
<path d="M29.6018 10.2079H32.0001L29.9103 0.179688H27.8096C26.8412 0.179688 26.6051 0.92818 26.6051 0.92818L22.7124 10.2106H25.4327L25.9773 8.7216H29.2959L29.6018 10.2079ZM26.7285 6.66124L28.0994 2.90806L28.872 6.66124H26.7285Z" fill="#0066B3"/>
<path d="M22.9134 2.59155L23.2863 0.43729C23.2863 0.43729 22.1355 0 20.9389 0C19.6432 0 16.566 0.566064 16.566 3.32126C16.566 5.91281 20.177 5.94501 20.177 7.30517C20.177 8.66532 16.9389 8.42386 15.8685 7.56539L15.4795 9.81622C15.4795 9.81622 16.6465 10.3823 18.4278 10.3823C20.2092 10.3823 22.8973 9.45944 22.8973 6.94835C22.8973 4.3407 19.2542 4.09659 19.2542 2.96445C19.2542 1.82965 21.7974 1.97451 22.9134 2.59155Z" fill="#0066B3"/>
<path d="M6.28034 5.59153L5.40041 1.08183C5.40041 1.08183 5.29308 0.177734 4.16095 0.177734H0.04829L0 0.346749C0 0.346749 1.9772 0.757212 3.87659 2.29175C5.68747 3.76191 6.28034 5.59153 6.28034 5.59153Z" fill="#FAA634"/>
</g>
<defs>
<clipPath id="clip0_47_114">
<rect width="32" height="10.6667" fill="white"/>
</clipPath>
</defs>
</svg>
