<svg id="Слой_1" data-name="Слой 1" xmlns="http://www.w3.org/2000/svg" viewBox="0 0 41 41"><defs><style>.cls-1{fill:#231f20;}</style></defs><title>vk</title><path class="cls-1" d="M250,229.5A20.5,20.5,0,1,0,270.5,250,20.53,20.53,0,0,0,250,229.5Zm0,40A19.5,19.5,0,1,1,269.5,250,19.53,19.53,0,0,1,250,269.5Z" transform="translate(-229.5 -229.5)"/><path class="cls-1" d="M259.94,256.28a14.76,14.76,0,0,0-3.76-4.5.6.6,0,0,1-.06-.83,35.56,35.56,0,0,0,3.52-5.36.6.6,0,0,0-.52-.89H256a28.63,28.63,0,0,1-3.89,5.78.45.45,0,0,1-.75-.33v-5a.45.45,0,0,0-.45-.44h-3.84a.45.45,0,0,0-.33.75l.06.07a3.06,3.06,0,0,1,.78,2.06v3.49a.45.45,0,0,1-.63.41c-1.83-.84-3.12-3.84-4.07-6.59a.29.29,0,0,0-.28-.2h-3.1a.45.45,0,0,0-.45.49,12.1,12.1,0,0,0,.83,3.35c1.41,3.57,4.33,7.21,8.18,8.24.65.17,3.3.85,3.3-.38v-2.49c.59-1.59,2.78,1,4.82,3.21h3.22a.6.6,0,0,0,.55-.84Z" transform="translate(-229.5 -229.5)"/></svg>