<svg width="32" height="19" viewBox="0 0 32 19" xmlns="http://www.w3.org/2000/svg">
<path d="M31.9189 17.6841C30.5903 14.7367 27.8873 12.3239 26.1769 10.812C25.8104 10.4913 25.7646 9.92629 26.0853 9.54451C27.9636 7.29964 29.7198 4.48974 31.4608 1.35914C31.7967 0.748289 31.3538 0 30.6666 0H25.8867C23.8251 3.66509 21.4581 7.51344 19.9462 8.82676C19.5034 9.20854 18.8162 8.90312 18.8162 8.30754V1.40495V0.6872C18.8162 0.30542 18.5107 0 18.129 0H12.2495C11.654 0 11.3333 0.717747 11.7456 1.14534L11.8372 1.25225C12.616 2.10744 13.0284 3.23751 13.0284 4.39812V9.72778C13.0284 10.2317 12.5092 10.5524 12.0663 10.3539C9.27166 9.0711 7.31694 4.505 5.86618 0.30542C5.80509 0.122165 5.63711 0 5.43859 0H0.689238C0.292187 0 -0.0285274 0.351246 0.00201498 0.748298C0.169998 2.50449 0.612866 4.21485 1.26953 5.86414C3.42277 11.316 7.88198 16.8747 13.7614 18.4476C14.754 18.7072 18.8009 19.7457 18.8009 17.8673V14.0648C19.7019 11.6367 23.0463 15.6072 26.1464 18.9668H31.0637C31.7356 18.9668 32.1938 18.2949 31.9189 17.6841Z" />
</svg>
