<svg width="16" height="16" viewBox="0 0 16 16" fill="none" xmlns="http://www.w3.org/2000/svg">
<path d="M8 15C4.13 15 1 11.87 1 8C1 4.13 4.13 1 8 1C11.87 1 15 4.13 15 8C15 11.86 11.86 15 8 15Z" stroke-linecap="round" stroke-linejoin="round"/>
<path d="M9.54996 6.31C9.54996 5.45 8.84993 4.75 7.98993 4.75C7.12993 4.75 6.42993 5.45 6.42993 6.31" stroke-linecap="round" stroke-linejoin="round"/>
<path d="M8.00006 11.1094C7.89006 11.1094 7.81006 11.1994 7.81006 11.2994C7.81006 11.4094 7.90006 11.4894 8.00006 11.4894C8.10006 11.4894 8.19006 11.3994 8.19006 11.2994C8.19006 11.1994 8.10006 11.1094 8.00006 11.1094Z" stroke-miterlimit="10" stroke-linecap="round" stroke-linejoin="round"/>
<path d="M9.55005 6.31055C9.55005 6.93055 9.17003 7.27055 8.78003 7.53055" stroke-linecap="round" stroke-linejoin="round"/>
<path d="M8 8.76929C8 8.12929 8.39001 7.7893 8.79001 7.5293" stroke-linecap="round" stroke-linejoin="round"/>
<path d="M8 8.76953V8.96954" stroke-linecap="round" stroke-linejoin="round"/>
</svg>
