<svg width="66" height="40" viewBox="0 0 66 40" fill="none" xmlns="http://www.w3.org/2000/svg">
<path d="M39.4818 19.7409C39.4818 30.6424 30.6424 39.4818 19.7409 39.4818C8.8394 39.4818 0 30.6424 0 19.7409C0 8.83942 8.8394 0 19.7409 0C30.6424 0 39.4818 8.83942 39.4818 19.7409Z" fill="#ED1B2E"/>
<path d="M46.2454 0C41.1452 0 36.4941 1.93376 32.9932 5.10935C32.2829 5.75546 31.6139 6.45657 30.9998 7.19891H34.9865C35.5318 7.86336 36.0359 8.55989 36.4941 9.28849H29.4968C29.0798 9.9621 28.6949 10.6586 28.3604 11.3781H37.6351C37.9513 12.0562 38.2308 12.7528 38.4691 13.4676H27.5264C27.2973 14.1504 27.1048 14.8469 26.9536 15.5572H39.0465C39.3352 16.9044 39.491 18.302 39.491 19.7363C39.491 21.9267 39.1336 24.0392 38.4737 26.0096H27.531C27.7693 26.7244 28.0488 27.421 28.365 28.0991H37.6397C37.3006 28.8186 36.9203 29.5197 36.5033 30.1887H29.506C29.9642 30.9173 30.4637 31.6138 31.0136 32.2783H35.0003C34.3862 33.0252 33.7218 33.7217 33.0069 34.3678C36.5125 37.5434 41.159 39.4772 46.2592 39.4772C57.1606 39.4772 66.0001 30.6378 66.0001 19.7363C65.9863 8.83941 57.1469 0 46.2454 0Z" fill="#FCB131"/>
<path d="M63.3555 30.7489C63.3555 30.3957 63.6398 30.1113 63.993 30.1113C64.3462 30.1113 64.6305 30.3957 64.6305 30.7489C64.6305 31.102 64.3462 31.3864 63.993 31.3864C63.6398 31.3864 63.3555 31.102 63.3555 30.7489ZM63.993 31.235C64.259 31.235 64.4792 31.0195 64.4792 30.7489C64.4792 30.4783 64.2636 30.2627 63.993 30.2627C63.7224 30.2627 63.5068 30.4783 63.5068 30.7489C63.5068 31.0149 63.7224 31.235 63.993 31.235ZM63.9058 31.0286H63.7728V30.4691H64.0113C64.0618 30.4691 64.1122 30.4691 64.1535 30.4966C64.1994 30.5287 64.2223 30.5838 64.2223 30.6388C64.2223 30.703 64.1856 30.7626 64.126 30.7855L64.2315 31.0332H64.0847L63.9976 30.8131H63.9013V31.0286H63.9058ZM63.9058 30.7122H63.9792C64.0067 30.7122 64.0343 30.7122 64.0572 30.703C64.0801 30.6892 64.0893 30.6617 64.0893 30.6388C64.0893 30.6159 64.0756 30.5929 64.0572 30.5792C64.0343 30.5654 63.9976 30.57 63.9746 30.57H63.9058V30.7122Z" fill="#FCB131"/>
<path d="M15.1317 21.8955C14.9072 21.868 14.8064 21.8634 14.6552 21.8634C13.4408 21.8634 12.8268 22.2804 12.8268 23.1052C12.8268 23.6139 13.1246 23.9346 13.5966 23.9346C14.4673 23.9301 15.0951 23.1007 15.1317 21.8955ZM16.6897 25.5247C16.4056 25.5247 14.9118 25.5247 14.9118 25.5247L14.953 24.6816C14.4123 25.3506 13.6883 25.6668 12.7077 25.6668C11.5483 25.6668 10.751 24.7595 10.751 23.4443C10.751 21.4602 12.1349 20.3054 14.5131 20.3054C14.756 20.3054 15.0676 20.3283 15.3883 20.3696C15.4525 20.0992 15.4708 19.9846 15.4708 19.8426C15.4708 19.3019 15.0997 19.1002 14.0961 19.1002C13.0468 19.0911 12.1807 19.3523 11.8278 19.4668C11.8508 19.3339 12.1257 17.6339 12.1257 17.6339C13.1934 17.3177 13.8991 17.2031 14.6918 17.2031C16.5339 17.2031 17.5054 18.028 17.5054 19.5906C17.51 20.0076 17.4413 20.5254 17.3313 21.2035C17.1434 22.3812 16.7447 24.9107 16.6897 25.5247Z" fill="#003473"/>
<path d="M9.85319 25.5242H7.71321L8.9413 17.8258L6.19645 25.5242H4.73925L4.55596 17.8717L3.26831 25.5242H1.26123L2.9338 15.5117H6.01773L6.20561 21.116L8.08439 15.5117H11.512L9.85319 25.5242Z" fill="#003473"/>
<path d="M48.8949 21.8955C48.6704 21.868 48.5696 21.8634 48.4184 21.8634C47.204 21.8634 46.59 22.2804 46.59 23.1052C46.59 23.6139 46.8878 23.9346 47.3598 23.9346C48.2259 23.9301 48.8583 23.1007 48.8949 21.8955ZM50.4529 25.5247C50.1642 25.5247 48.675 25.5247 48.675 25.5247L48.7162 24.6816C48.1755 25.3506 47.4515 25.6668 46.4708 25.6668C45.3069 25.6668 44.5142 24.7595 44.5142 23.4443C44.5142 21.4602 45.898 20.3054 48.2763 20.3054C48.5192 20.3054 48.8308 20.3283 49.1515 20.3696C49.2157 20.0992 49.234 19.9846 49.234 19.8426C49.234 19.3019 48.8628 19.1002 47.8593 19.1002C46.8099 19.0911 45.9439 19.3523 45.591 19.4668C45.6139 19.3339 45.8889 17.6339 45.8889 17.6339C46.9566 17.3177 47.6623 17.2031 48.4504 17.2031C50.2926 17.2031 51.264 18.028 51.264 19.5906C51.2686 20.0076 51.1999 20.5254 51.0899 21.2035C50.9066 22.3812 50.5079 24.9107 50.4529 25.5247Z" fill="#003473"/>
<path d="M26.2169 25.4042C25.6304 25.5875 25.1721 25.6699 24.6772 25.6699C23.582 25.6699 22.9817 25.0422 22.9817 23.8828C22.968 23.5208 23.1375 22.5768 23.275 21.7108C23.3987 20.9501 24.2052 16.1523 24.2052 16.1523H26.336L26.0886 17.385H27.3762L27.0875 19.3417H25.7953C25.5479 20.8905 25.195 22.8197 25.1905 23.0763C25.1905 23.4979 25.415 23.6812 25.9236 23.6812C26.1665 23.6812 26.359 23.6583 26.501 23.6033L26.2169 25.4042Z" fill="#003473"/>
<path d="M32.7467 25.3297C32.0135 25.5543 31.3078 25.6642 30.5609 25.6596C28.1735 25.6551 26.9316 24.4132 26.9316 22.0258C26.9316 19.2443 28.5126 17.1914 30.6617 17.1914C32.4168 17.1914 33.5394 18.337 33.5394 20.1379C33.5394 20.7336 33.4615 21.3201 33.2782 22.1404H29.035C28.8929 23.3226 29.649 23.8129 30.8862 23.8129C31.6469 23.8129 32.3343 23.6571 33.0995 23.2997L32.7467 25.3297ZM31.5507 20.5045C31.5644 20.3349 31.7752 19.0519 30.5609 19.0519C29.8827 19.0519 29.397 19.5697 29.1999 20.5045H31.5507Z" fill="#003473"/>
<path d="M17.9781 19.9565C17.9781 20.9875 18.4776 21.6978 19.6094 22.2294C20.4755 22.6372 20.6129 22.7563 20.6129 23.1275C20.6129 23.6362 20.228 23.8653 19.3803 23.8653C18.7388 23.8653 18.1476 23.7645 17.4603 23.5445C17.4603 23.5445 17.1807 25.3408 17.167 25.4279C17.6527 25.5333 18.088 25.6341 19.3986 25.6707C21.6577 25.6707 22.7025 24.8092 22.7025 22.9488C22.7025 21.8307 22.2672 21.1708 21.1903 20.6805C20.2922 20.2681 20.1868 20.1765 20.1868 19.7961C20.1868 19.3562 20.5442 19.1317 21.2361 19.1317C21.6577 19.1317 22.2305 19.1775 22.7758 19.2554L23.0828 17.3675C22.5284 17.2804 21.6852 17.2071 21.1949 17.2071C18.7983 17.1979 17.9689 18.4489 17.9781 19.9565Z" fill="#003473"/>
<path d="M43.1716 17.4146C43.7673 17.4146 44.3218 17.5704 45.087 17.9553L45.4399 15.7833C45.1237 15.6596 44.0193 14.9355 43.0845 14.9355C41.6503 14.9355 40.4359 15.6458 39.5836 16.8235C38.3418 16.4111 37.8285 17.2451 37.2008 18.0745L36.6463 18.2028C36.6875 17.9278 36.7288 17.6575 36.715 17.3825H34.7446C34.4743 19.9028 33.9977 22.4552 33.6265 24.9801L33.5303 25.53H35.6748C36.0323 23.2067 36.2293 21.7175 36.3484 20.7093L37.1549 20.2603C37.2741 19.8112 37.6544 19.66 38.4105 19.6783C38.3143 20.2099 38.2593 20.7689 38.2593 21.3463C38.2593 24.0087 39.6982 25.6675 42.0031 25.6675C42.5988 25.6675 43.1075 25.5896 43.8956 25.3742L44.2714 23.0922C43.5611 23.4404 42.9791 23.6054 42.4522 23.6054C41.2058 23.6054 40.4543 22.6843 40.4543 21.1676C40.4497 18.9589 41.5724 17.4146 43.1716 17.4146Z" fill="#003473"/>
<path d="M61.3127 15.5117L60.8361 18.4032C60.2496 17.6334 59.6218 17.0743 58.7924 17.0743C57.7109 17.0743 56.7257 17.8946 56.0842 19.0997C55.186 18.9119 54.2604 18.5957 54.2604 18.5957V18.6048C54.3337 17.9312 54.3612 17.5188 54.3566 17.3767H52.3862C52.1204 19.8971 51.6393 22.4495 51.2681 24.9743L51.1719 25.5242H53.3119C53.6005 23.6454 53.8251 22.0829 53.9855 20.8456C54.7186 20.1812 55.0852 19.6084 55.823 19.645C55.4977 20.4378 55.3052 21.3497 55.3052 22.2891C55.3052 24.3236 56.3362 25.6663 57.8942 25.6663C58.6778 25.6663 59.2827 25.3959 59.8692 24.7681L59.7684 25.5242H61.7984L63.4297 15.5117H61.3127ZM58.6366 23.6409C57.908 23.6409 57.5368 23.1001 57.5368 22.037C57.5368 20.4378 58.2287 19.3014 59.2002 19.3014C59.938 19.3014 60.3366 19.8604 60.3366 20.896C60.332 22.509 59.6309 23.6409 58.6366 23.6409Z" fill="#003473"/>
<path d="M10.4711 24.9324H8.3265L9.55458 17.2386L6.81432 24.9324H5.35254L5.17382 17.2798L3.8816 24.9324H1.87451L3.55166 14.9199H6.6356L6.71809 21.1199L8.79848 14.9199H12.1299L10.4711 24.9324Z" fill="white"/>
<path d="M15.7509 21.3089C15.5263 21.2815 15.4255 21.2769 15.2743 21.2769C14.06 21.2769 13.4459 21.6939 13.4459 22.5141C13.4459 23.0228 13.7484 23.3435 14.2158 23.3435C15.0818 23.3435 15.7142 22.5095 15.7509 21.3089ZM17.3089 24.9336C17.0248 24.9336 15.5309 24.9336 15.5309 24.9336L15.5722 24.0905C15.0314 24.7549 14.3074 25.0757 13.3268 25.0757C12.1629 25.0757 11.3701 24.1683 11.3701 22.8486C11.3701 20.8644 12.754 19.7097 15.1322 19.7097C15.3751 19.7097 15.6867 19.7326 16.0075 19.7738C16.0716 19.5035 16.09 19.3889 16.09 19.2423C16.09 18.7016 15.7188 18.5045 14.7152 18.5045C13.6659 18.4908 12.7998 18.752 12.447 18.8711C12.4699 18.7382 12.7448 17.0382 12.7448 17.0382C13.8125 16.7266 14.5182 16.6074 15.311 16.6074C17.1531 16.6074 18.1245 17.4322 18.1245 18.9948C18.1291 19.4118 18.0604 19.9297 17.9504 20.6078C17.7625 21.7901 17.3639 24.3196 17.3089 24.9336Z" fill="white"/>
<path d="M46.0532 15.1878L45.7003 17.3598C44.9351 16.9749 44.3806 16.8191 43.7849 16.8191C42.1856 16.8191 41.0629 18.3679 41.0629 20.5721C41.0629 22.0934 41.819 23.0099 43.0654 23.0099C43.5924 23.0099 44.1744 22.8449 44.8846 22.4967L44.5089 24.7787C43.7207 24.9941 43.2075 25.072 42.6164 25.072C40.3068 25.072 38.8726 23.4131 38.8726 20.7508C38.8726 17.1719 40.8613 14.67 43.6978 14.67C44.6326 14.6654 45.737 15.064 46.0532 15.1878Z" fill="white"/>
<path d="M49.508 21.3089C49.2835 21.2815 49.1827 21.2769 49.0314 21.2769C47.8171 21.2769 47.2031 21.6939 47.2031 22.5141C47.2031 23.0228 47.5009 23.3435 47.9729 23.3435C48.8436 23.3435 49.4759 22.5095 49.508 21.3089ZM51.0706 24.9336C50.7865 24.9336 49.2926 24.9336 49.2926 24.9336L49.3339 24.0905C48.7932 24.7549 48.0691 25.0757 47.0885 25.0757C45.9246 25.0757 45.1318 24.1683 45.1318 22.8486C45.1318 20.8644 46.5157 19.7097 48.894 19.7097C49.1368 19.7097 49.4484 19.7326 49.7646 19.7738C49.8288 19.5035 49.8471 19.3889 49.8471 19.2423C49.8471 18.7016 49.4759 18.5045 48.4724 18.5045C47.423 18.4908 46.5615 18.752 46.2041 18.8711C46.227 18.7382 46.502 17.0382 46.502 17.0382C47.5697 16.7266 48.2753 16.6074 49.0681 16.6074C50.9102 16.6074 51.8817 17.4322 51.8817 18.9948C51.8863 19.4118 51.8175 19.9297 51.7076 20.6078C51.5243 21.7901 51.1256 24.3196 51.0706 24.9336Z" fill="white"/>
<path d="M26.8312 24.8085C26.2446 24.9918 25.7864 25.0742 25.2915 25.0742C24.1963 25.0742 23.596 24.4419 23.596 23.2871C23.5823 22.9251 23.7518 21.9811 23.8893 21.1151C24.013 20.3544 24.8195 15.5566 24.8195 15.5566H26.9503L26.7029 16.7893H27.798L27.5094 18.746H26.4142C26.1667 20.2948 25.8139 22.224 25.8093 22.4806C25.8093 22.9022 26.0338 23.0855 26.5425 23.0855C26.7853 23.0855 26.9778 23.0626 27.1199 23.0076L26.8312 24.8085Z" fill="white"/>
<path d="M33.3648 24.7457C32.6317 24.9703 31.926 25.0757 31.1791 25.0757C28.7916 25.0757 27.5498 23.8293 27.5498 21.4418C27.5498 18.6558 29.1307 16.6074 31.2753 16.6074C33.0349 16.6074 34.153 17.753 34.153 19.5539C34.153 20.1496 34.0751 20.7316 33.8918 21.5564H29.6485C29.5065 22.7387 30.2626 23.229 31.4998 23.229C32.2605 23.229 32.9524 23.0732 33.7177 22.7157L33.3648 24.7457ZM32.1688 19.9159C32.1826 19.7464 32.3934 18.4633 31.1791 18.4633C30.5009 18.4633 30.0151 18.9811 29.8181 19.9159H32.1688Z" fill="white"/>
<path d="M18.5914 19.366C18.5914 20.3971 19.0908 21.1073 20.2227 21.6389C21.0888 22.0467 21.2262 22.1658 21.2262 22.537C21.2262 23.0457 20.8459 23.2748 19.9936 23.2748C19.352 23.2748 18.7609 23.174 18.0736 22.954C18.0736 22.954 17.794 24.7503 17.7803 24.8328C18.266 24.9382 18.7013 25.039 20.0119 25.0757C22.2756 25.0757 23.3158 24.2142 23.3158 22.3537C23.3158 21.2356 22.8805 20.5758 21.8036 20.0854C20.9055 19.673 20.8001 19.5814 20.8001 19.201C20.8001 18.7611 21.1575 18.532 21.8494 18.532C22.271 18.532 22.8438 18.5778 23.3891 18.6557L23.6961 16.7678C23.1417 16.6807 22.2985 16.6074 21.8082 16.6074C19.4162 16.6074 18.5868 17.863 18.5914 19.366Z" fill="white"/>
<path d="M62.413 24.9292H60.3875L60.4884 24.1731C59.9018 24.8009 59.2969 25.0712 58.5134 25.0712C56.9553 25.0712 55.9243 23.7286 55.9243 21.6895C55.9243 18.9813 57.5236 16.6992 59.4115 16.6992C60.2409 16.6992 60.8733 17.0383 61.4598 17.8082L61.9364 14.9121H64.0489L62.413 24.9292ZM59.2511 23.0504C60.2501 23.0504 60.9512 21.9186 60.9512 20.3056C60.9512 19.27 60.5525 18.7109 59.8148 18.7109C58.8433 18.7109 58.1513 19.8473 58.1513 21.4466C58.1513 22.5097 58.5225 23.0504 59.2511 23.0504Z" fill="white"/>
<path d="M52.9995 16.7895C52.7291 19.3098 52.2526 21.8622 51.8814 24.3825L51.7852 24.9324H53.9297C54.695 19.9514 54.8828 18.9799 56.0834 19.1036C56.2759 18.0863 56.6333 17.1928 56.8991 16.7437C56.0009 16.5558 55.5015 17.0645 54.8416 18.0268C54.892 17.6098 54.9882 17.2065 54.9699 16.7895H52.9995Z" fill="white"/>
<path d="M35.3579 16.7895C35.0875 19.3098 34.611 21.8622 34.2398 24.3825L34.1436 24.9324H36.2881C37.0534 19.9514 37.2412 18.9799 38.4418 19.1036C38.6343 18.0863 38.9917 17.1928 39.2575 16.7437C38.3593 16.5558 37.8599 17.0645 37.2046 18.0268C37.255 17.6098 37.3512 17.2065 37.3329 16.7895H35.3579Z" fill="white"/>
<path d="M63.3569 24.2938C63.3569 23.9406 63.6459 23.6562 63.9945 23.6562C64.3476 23.6562 64.632 23.9406 64.632 24.2938C64.632 24.6469 64.3476 24.9313 63.9945 24.9313C63.6413 24.9313 63.3569 24.6469 63.3569 24.2938ZM63.9945 24.7799C64.2651 24.7799 64.4806 24.5644 64.4806 24.2938C64.4806 24.0278 64.2651 23.8076 63.9945 23.8076C63.7284 23.8076 63.5083 24.0232 63.5083 24.2938C63.5083 24.5598 63.7238 24.7799 63.9945 24.7799ZM63.9073 24.5737H63.7743V24.014H64.0128C64.0633 24.014 64.1137 24.014 64.155 24.0415C64.2008 24.0736 64.2284 24.1241 64.2284 24.1791C64.2284 24.2433 64.1917 24.3029 64.132 24.3259L64.2329 24.5737H64.0862L63.999 24.3534H63.9027V24.5737H63.9073ZM63.9073 24.2571H63.9807C64.0082 24.2571 64.0357 24.2617 64.0587 24.2479C64.0816 24.2341 64.0908 24.2067 64.0908 24.1838C64.0908 24.1609 64.077 24.1378 64.0587 24.1241C64.0357 24.1103 63.999 24.115 63.9761 24.115H63.9073V24.2571Z" fill="white"/>
</svg>
