<svg width="81" height="27" viewBox="0 0 81 27" fill="none" xmlns="http://www.w3.org/2000/svg">
<path d="M35.1089 25.8389H28.5015L32.637 0.455078H39.2444L35.1089 25.8389Z" fill="#0066B3"/>
<path d="M22.9391 0.456008L16.6373 17.915L15.8903 14.1529L13.663 2.7377C13.663 2.7377 13.3913 0.449219 10.5257 0.449219H0.122234L0 0.877036C0 0.877036 3.18486 1.54253 6.91298 3.77668L12.6579 25.833H19.537L30.0558 0.449219H22.9391V0.456008Z" fill="#0066B3"/>
<path d="M74.9294 25.8389H81.0003L75.7103 0.455078H70.3931C67.9417 0.455078 67.3441 2.3497 67.3441 2.3497L57.4907 25.8457H64.3765L65.7551 22.0768H74.1552L74.9294 25.8389ZM67.6565 16.8615L71.1265 7.36127L73.0823 16.8615H67.6565Z" fill="#0066B3"/>
<path d="M57.9998 6.55986L58.9437 1.10689C58.9437 1.10689 56.0305 0 53.0018 0C49.7219 0 41.9329 1.43285 41.9329 8.40694C41.9329 14.9668 51.0732 15.0483 51.0732 18.4912C51.0732 21.9341 42.8768 21.3229 40.1673 19.1499L39.1826 24.8473C39.1826 24.8473 42.1366 26.2802 46.6456 26.2802C51.1547 26.2802 57.959 23.9442 57.959 17.588C57.959 10.9874 48.7372 10.3695 48.7372 7.50377C48.7372 4.63129 55.1748 4.99799 57.9998 6.55986Z" fill="#0066B3"/>
<path d="M15.8971 14.1529L13.6698 2.7377C13.6698 2.7377 13.3981 0.449219 10.5324 0.449219H0.122234L0 0.877036C0 0.877036 5.00478 1.91602 9.81263 5.80033C14.3964 9.52165 15.8971 14.1529 15.8971 14.1529Z" fill="#FAA634"/>
</svg>
