<svg width="152" height="40" viewBox="0 0 152 40" fill="none" xmlns="http://www.w3.org/2000/svg">
<path d="M105.563 7.70898C101.93 7.70898 96.4355 9.5288 96.4355 16.6198C96.4355 23.7108 102.425 25.4679 105.563 25.4679C108.7 25.4679 114.69 23.7108 114.69 16.6198C114.69 9.5288 109.195 7.70898 105.563 7.70898ZM110.095 16.5919C110.095 21.1938 107.473 22.3303 105.569 22.3303C103.666 22.3303 101.037 21.1938 101.037 16.5919C101.037 11.9901 103.819 10.8536 105.563 10.8536C107.306 10.8466 110.095 11.9901 110.095 16.5919Z" fill="#00B2BB"/>
<path d="M89.248 15.8797L96.3181 7.88925H91.1794L84.695 15.2801V2.73657C84.695 1.60702 84.0047 -0.0245474 81.2506 0.0103151C80.9507 0.0172876 80.6161 0.0312436 80.2744 0.0870235V25.2438H84.7019V16.4445L91.6954 25.2438H96.7365L89.248 15.8797Z" fill="#00B2BB"/>
<path d="M126.753 7.72292C124.09 7.72292 122.479 8.67118 121.775 9.21504V9.20806C121.684 9.27081 121.587 9.33356 121.496 9.39631C121.071 8.55264 120.143 7.70898 118.226 7.70898C117.912 7.70898 117.57 7.72989 117.215 7.78567V25.2657H121.768V12.1714C122.981 11.007 126.335 10.3934 127.869 11.9692C128.733 12.8547 128.908 14.1097 128.908 15.2811V25.2727H133.461V14.4235C133.468 9.96807 130.037 7.72292 126.753 7.72292Z" fill="#00B2BB"/>
<path d="M52.4065 7.68164C48.0348 7.68164 44.925 9.74549 44.925 9.74549L46.2986 12.2138C48.3555 11.0842 51.4164 10.5055 53.285 10.9239C54.6586 11.2306 55.2373 12.1719 55.5302 13.0505C55.6836 13.5037 55.6487 14.947 55.6487 14.947V14.4798C53.2223 13.936 44.0674 12.7437 44.0674 19.9881C44.0674 22.6864 45.7826 24.8758 49.499 25.3499C51.7302 25.6358 53.794 25.1756 55.6487 23.9485C55.7393 23.8857 55.837 23.823 55.9276 23.7602C56.3529 24.6039 57.2803 25.4475 59.1977 25.4475C59.5115 25.4475 59.8531 25.4266 60.2087 25.3709V13.6222C60.2017 8.83209 55.3071 7.68164 52.4065 7.68164ZM55.6487 17.1154V20.9851C53.8498 22.1077 52.3159 22.303 51.4234 22.303C50.3845 22.303 48.5786 21.8986 48.4671 19.7162C48.2788 15.8813 53.1944 16.46 55.6487 16.9899V17.1154Z" fill="#00B2BB"/>
<path d="M68.8742 14.1131C67.1241 13.5204 67.0056 12.8162 67.1729 12.105C67.6471 10.0342 72.5487 10.7314 75.275 12.105L76.6206 9.62278C75.1564 8.66755 72.5627 7.69141 69.7109 7.69141C67.2287 7.69141 64.9626 8.31194 63.7076 10.2015C62.5083 12.0074 62.6826 14.7476 64.7326 16.2257C66.2944 17.3483 69.2019 18.185 71.2588 18.6243C72.5208 18.8962 73.5806 19.44 73.2599 20.8415C72.8973 22.4033 69.3135 23.5956 64.4606 19.8584L62.7314 22.0966C62.7314 22.0966 65.4159 25.1923 69.8573 25.4503C74.4173 25.7153 77.7851 23.2261 77.555 19.8096C77.2761 15.654 73.0856 15.5424 68.8742 14.1131Z" fill="#00B2BB"/>
<path d="M144.196 7.68164C139.825 7.68164 136.715 9.74549 136.715 9.74549L138.089 12.2138C140.145 11.0842 143.206 10.5055 145.075 10.9239C146.449 11.2306 147.027 12.1719 147.32 13.0505C147.474 13.5037 147.439 14.947 147.439 14.947V14.4798C145.012 13.936 135.857 12.7437 135.857 19.9881C135.857 22.6864 137.573 24.8758 141.289 25.3499C143.52 25.6358 145.584 25.1756 147.439 23.9485C147.529 23.8857 147.627 23.823 147.718 23.7602C148.143 24.6039 149.07 25.4475 150.988 25.4475C151.301 25.4475 151.643 25.4266 151.999 25.3709V13.6222C151.999 8.83209 147.104 7.68164 144.196 7.68164ZM147.439 17.1154V20.9851C145.64 22.1077 144.106 22.303 143.213 22.303C142.174 22.303 140.362 21.8986 140.257 19.7162C140.069 15.8813 144.984 16.46 147.439 16.9899V17.1154Z" fill="#00B2BB"/>
<path d="M67.9119 37.1951C67.4239 36.6931 67.1729 36.0865 67.1729 35.3474C67.1729 34.6153 67.4169 34.0017 67.9119 33.5136C68.4 33.0116 69.0206 32.7676 69.7596 32.7676C70.7288 32.7676 71.5446 33.2696 71.9281 34.0505L71.2099 34.4619C70.9659 33.939 70.4151 33.5973 69.7596 33.5973C69.2716 33.5973 68.8602 33.7647 68.5255 34.0993C68.2048 34.434 68.0374 34.8454 68.0374 35.3474C68.0374 35.8425 68.2048 36.2538 68.5255 36.5815C68.8602 36.9162 69.2716 37.0836 69.7596 37.0836C70.4151 37.0836 70.9659 36.7489 71.2378 36.226L71.9629 36.6513C71.5446 37.4252 70.7079 37.9272 69.7596 37.9272C69.0206 37.9272 68.4 37.6832 67.9119 37.1951Z" fill="#00B2BB"/>
<path d="M77.254 32.9062V37.8079H76.4034V33.715H73.8654V37.8079H73.0078V32.9062H77.254Z" fill="#00B2BB"/>
<path d="M82.309 32.9062H82.9923V37.8079H82.1486V34.3635L79.4364 37.8079H78.7461V32.9062H79.5897V36.3438L82.309 32.9062Z" fill="#00B2BB"/>
<path d="M88.139 32.9062V33.729H86.4656V37.8079H85.6149V33.729H83.9346V32.9062H88.139Z" fill="#00B2BB"/>
<path d="M89.4771 35.7476C89.6444 36.6192 90.3208 37.1282 91.2551 37.1282C91.9035 37.1282 92.3707 36.8911 92.6705 36.41L93.3957 36.8214C92.9146 37.5605 92.1964 37.93 91.2342 37.93C90.4602 37.93 89.8188 37.686 89.3307 37.2049C88.8496 36.7168 88.6055 36.0963 88.6055 35.3502C88.6055 34.6181 88.8426 33.9975 89.3237 33.5095C89.8048 33.0214 90.4254 32.7773 91.1784 32.7773C91.8966 32.7773 92.4823 33.0353 92.9355 33.5443C93.3957 34.0463 93.6188 34.6529 93.6188 35.3711C93.6188 35.4966 93.6118 35.6221 93.5909 35.7546H89.4771V35.7476ZM89.4771 35.0016H92.7542C92.6078 34.0673 91.9593 33.5792 91.1784 33.5792C90.265 33.5792 89.6235 34.137 89.4771 35.0016Z" fill="#00B2BB"/>
<path d="M95.6822 36.793L95.0407 39.1776H94.3086L94.699 36.793H95.6822Z" fill="#00B2BB"/>
<path d="M102.823 32.9062H103.674V37.8079H102.823V36.0438C102.433 36.2112 101.987 36.3018 101.499 36.3018C100.244 36.3018 99.5254 35.7022 99.5254 34.5378V32.9062H100.383V34.489C100.383 35.2211 100.787 35.507 101.561 35.507C102.022 35.507 102.447 35.4164 102.83 35.2491V32.9062H102.823Z" fill="#00B2BB"/>
<path d="M108.814 32.9062V33.729H107.147V37.8079H106.297V33.729H104.616V32.9062H108.814Z" fill="#00B2BB"/>
<path d="M111.867 37.9272C111.149 37.9272 110.535 37.6832 110.033 37.1812C109.531 36.6792 109.287 36.0726 109.287 35.3474C109.287 34.6223 109.531 34.0157 110.033 33.5136C110.535 33.0116 111.149 32.7676 111.867 32.7676C112.585 32.7676 113.199 33.0116 113.701 33.5136C114.203 34.0157 114.454 34.6223 114.454 35.3474C114.454 36.0726 114.196 36.6792 113.701 37.1812C113.199 37.6832 112.585 37.9272 111.867 37.9272ZM113.101 36.5955C113.436 36.2608 113.603 35.8494 113.603 35.3474C113.603 34.8454 113.436 34.434 113.101 34.0993C112.766 33.7647 112.355 33.5973 111.867 33.5973C111.386 33.5973 110.974 33.7647 110.64 34.0993C110.305 34.434 110.138 34.8454 110.138 35.3474C110.138 35.8494 110.305 36.2608 110.64 36.5955C110.974 36.9302 111.386 37.0975 111.867 37.0975C112.355 37.0975 112.766 36.9302 113.101 36.5955Z" fill="#00B2BB"/>
<path d="M116.091 37.216C115.617 36.7349 115.387 36.1283 115.387 35.3683C115.387 34.5386 115.505 33.8902 115.749 33.4369C115.993 32.9837 116.502 32.5723 117.262 32.2098C117.402 32.1401 117.583 32.0634 117.82 31.9518L118.35 31.7147C118.727 31.5265 119.145 31.2127 119.187 30.7734L119.877 31.1639C119.835 31.3731 119.779 31.5474 119.654 31.7147C119.535 31.8751 119.487 31.9727 119.263 32.1191C119.054 32.2446 119.026 32.2865 118.74 32.412C118.601 32.4817 118.503 32.5166 118.455 32.5514L118.134 32.6909L117.82 32.8164C116.928 33.1999 116.586 33.5415 116.398 34.1411C116.816 33.6252 117.499 33.3742 118.127 33.3742C118.747 33.3742 119.263 33.5834 119.689 34.0017C120.121 34.427 120.337 34.9639 120.337 35.6193C120.337 36.2887 120.114 36.8325 119.647 37.2788C119.187 37.7111 118.608 37.9272 117.904 37.9272C117.165 37.9272 116.565 37.6971 116.091 37.216ZM117.918 34.1342C117.492 34.1342 117.123 34.2736 116.781 34.5386C116.447 34.8035 116.279 35.1452 116.279 35.5775C116.279 36.0168 116.44 36.3933 116.739 36.6791C117.046 36.965 117.423 37.1114 117.89 37.1114C118.35 37.1114 118.727 36.972 119.019 36.6931C119.326 36.4072 119.473 36.0516 119.473 35.6333C119.466 34.7547 118.852 34.1342 117.918 34.1342Z" fill="#00B2BB"/>
<path d="M123.49 34.6694C123.978 34.6694 124.382 34.8158 124.703 35.1087C125.024 35.3945 125.191 35.778 125.191 36.2382C125.191 36.6984 125.024 37.0819 124.703 37.3747C124.382 37.6606 123.978 37.807 123.49 37.807H121.419V32.8984H122.27V34.6624H123.49V34.6694ZM123.49 37.0121C123.971 37.0121 124.354 36.7053 124.354 36.2382C124.354 35.771 123.971 35.4503 123.49 35.4503H122.277V37.0121H123.49ZM125.833 32.9053H126.683V37.807H125.833V32.9053Z" fill="#00B2BB"/>
<path d="M136.869 37.8079H135.872L134.038 35.486V37.8079H133.194V35.486L131.353 37.8079H130.363L132.413 35.2771L130.461 32.9062H131.451L133.194 35.0747V32.9062H134.038V35.0747L135.774 32.9062H136.771L134.812 35.2771L136.869 37.8079Z" fill="#00B2BB"/>
<path d="M141.443 32.9062H142.126V37.8079H141.282V34.3635L138.563 37.8079H137.88V32.9062H138.724V36.3438L141.443 32.9062Z" fill="#00B2BB"/>
<path d="M147.273 32.9062V33.729H145.599V37.8079H144.749V33.729H143.068V32.9062H147.273Z" fill="#00B2BB"/>
<path d="M150.279 34.6694C150.767 34.6694 151.171 34.8158 151.492 35.1087C151.813 35.3945 151.98 35.778 151.98 36.2382C151.98 36.6984 151.813 37.0819 151.492 37.3747C151.171 37.6606 150.767 37.807 150.279 37.807H148.208V32.8984H149.059V34.6624H150.279V34.6694ZM150.279 37.0121C150.76 37.0121 151.143 36.7053 151.143 36.2382C151.143 35.771 150.76 35.4503 150.279 35.4503H149.059V37.0121H150.279Z" fill="#00B2BB"/>
<circle class="circle circle--1" cx="29.6295" cy="16.5499" r="4.65" fill="#00B2BB"/>
<circle class="circle circle--2" cx="25.7496" cy="26.65" r="3.65" fill="#00B2BB"/>
<circle class="circle circle--3" cx="15.6" cy="30.9" r="2.6" fill="#00B2BB"/>
<circle class="circle circle--4" cx="5.4498" cy="26.6" r="1.9" fill="#00B2BB"/>
<circle class="circle circle--5" cx="1.525" cy="16.7904" r="1.525" fill="#00B2BB"/>
<circle class="circle circle--6" cx="5.31973" cy="6.70718" r="1.85" fill="#00B2BB"/>
<circle class="circle circle--7" cx="15.6996" cy="2.6" r="2.6" fill="#00B2BB"/>
<circle class="circle circle--8" cx="25.6496" cy="6.74995" r="3.55" fill="#00B2BB"/>

<style>
  .circle {
    transition: all .6s;
  }
</style>
</svg>
