<?xml version="1.0" encoding="utf-8"?><svg viewBox="0 0 38 38" xmlns="http://www.w3.org/2000/svg" xmlns:xlink="http://www.w3.org/1999/xlink"><style>:root>svg{display:none}:root>svg:target{display:block}</style><svg viewBox="0 0 36 27" id="arrow" xmlns="http://www.w3.org/2000/svg"><path d="M34 13.57H2M22.572 24.999L34 13.57M22.572 2.143L34 13.57" stroke="inherit" stroke-width="3.2" stroke-linecap="round" stroke-linejoin="round"/></svg><svg fill="none" viewBox="0 0 36 36" id="cart" xmlns="http://www.w3.org/2000/svg"><path d="M6.213 1.85H2.44M6.213 1.85L7.5 7.72M10.957 23.747L7.5 7.721h24.718a1.943 1.943 0 011.905 2.362l-2.927 13.664a1.96 1.96 0 01-1.904 1.552H12.86a1.978 1.978 0 01-1.904-1.552zM29.962 32.37a.719.719 0 00-.723.74c0 .405.335.74.74.74.406 0 .74-.335.74-.74 0-.406-.352-.74-.757-.74zM13.142 32.37a.719.719 0 00-.723.74c0 .405.335.74.74.74.406 0 .74-.335.74-.74 0-.406-.352-.74-.757-.74z" stroke="inherit" stroke-width="2.95" stroke-miterlimit="10" stroke-linecap="round" stroke-linejoin="round"/></svg><svg fill="none" viewBox="0 0 36 36" id="compare" xmlns="http://www.w3.org/2000/svg"><path d="M12.667 19.777V34M34 10.889v23.11M23.334 2v32M2 10.889v23.11" stroke="inherit" stroke-width="2.67" stroke-linecap="round" stroke-linejoin="round"/></svg><svg fill="none" viewBox="0 0 36 36" id="discount" xmlns="http://www.w3.org/2000/svg"><path d="M12.905 30.335H9.157a3.5 3.5 0 01-3.493-3.492v-2.29c0-.93-.368-1.811-1.025-2.468l-1.618-1.618a3.49 3.49 0 010-4.934l1.618-1.618a3.48 3.48 0 001.025-2.467V9.157a3.5 3.5 0 013.493-3.492h2.29c.93 0 1.81-.369 2.468-1.026l1.618-1.618a3.49 3.49 0 014.934 0l1.618 1.618a3.48 3.48 0 002.467 1.026h2.291a3.5 3.5 0 013.492 3.492v2.29c0 .93.369 1.811 1.026 2.468l1.618 1.618a3.49 3.49 0 010 4.934l-1.618 1.618a3.48 3.48 0 00-1.026 2.467v2.291a3.5 3.5 0 01-3.492 3.492h-2.29c-.93 0-1.811.369-2.468 1.026l-1.618 1.618a3.49 3.49 0 01-4.934 0l-2.627-2.644z" stroke="inherit" stroke-width="2.4" stroke-linecap="round" stroke-linejoin="round"/><path d="M22.23 22.79a.593.593 0 100-1.184.593.593 0 000 1.185zM13.82 14.361a.593.593 0 100-1.185.593.593 0 000 1.185zM22.821 13.176l-9.612 9.612" stroke="inherit" stroke-width="2.4" stroke-linecap="round" stroke-linejoin="round"/></svg><svg fill="none" viewBox="0 0 38 22" id="down" xmlns="http://www.w3.org/2000/svg"><path d="M3 3l16 16L35 3" stroke="inherit" stroke-width="5.7" stroke-linecap="round" stroke-linejoin="round"/></svg><svg fill="none" viewBox="0 0 38 22" id="down-primary" xmlns="http://www.w3.org/2000/svg"><path d="M3 3l16 16L35 3" stroke="#00BAC1" stroke-width="5.7" stroke-linecap="round" stroke-linejoin="round"/></svg><svg viewBox="0 0 16 32" id="facebook" xmlns="http://www.w3.org/2000/svg"><path d="M14.716 10.55l-.373 4.932H9.541V32H3.213V15.483H0V10.55h3.213V5.78S2.985.312 9.54.02c3.18-.146 5.84.568 5.84.568l-.68 4.851S9.54 3.833 9.54 6.964v3.57h5.175v.016z"/></svg><svg fill="none" viewBox="0 0 36 32" id="heart" xmlns="http://www.w3.org/2000/svg"><path d="M24.573 2C30.21 2 34 7.3 34 12.246 34 22.26 18.276 30.46 17.991 30.46" stroke="inherit" stroke-width="2.67" stroke-miterlimit="10" stroke-linecap="round" stroke-linejoin="round"/><path d="M11.428 2C5.788 2 2 7.3 2 12.246 2 22.26 17.724 30.46 18.009 30.46M18.009 5.042C19.236 3.6 21.353 2 24.59 2M18.008 5.042C16.781 3.6 14.664 2 11.427 2" stroke="inherit" stroke-width="2.67" stroke-miterlimit="10" stroke-linecap="round" stroke-linejoin="round"/></svg><svg viewBox="0 0 20 20" id="instagram" xmlns="http://www.w3.org/2000/svg"><path d="M19.89 5.86c-.05-1.06-.21-1.79-.46-2.42-.25-.66-.6-1.21-1.15-1.77-.56-.55-1.11-.9-1.77-1.15-.64-.25-1.36-.41-2.42-.46C13.03.01 12.69 0 9.98 0 7.27 0 6.93.01 5.86.06 4.8.11 4.07.28 3.44.52c-.66.25-1.21.6-1.77 1.15-.55.55-.89 1.11-1.15 1.77C.27 4.08.1 4.8.06 5.86.01 6.92 0 7.26 0 9.97c0 2.71.01 3.05.06 4.11.05 1.06.22 1.79.46 2.42.25.66.6 1.21 1.15 1.77.56.56 1.11.9 1.77 1.15.64.25 1.36.41 2.42.46 1.06.05 1.41.06 4.12.06s3.05-.01 4.11-.06c1.06-.05 1.79-.22 2.42-.46.66-.26 1.21-.6 1.77-1.15.55-.55.9-1.11 1.15-1.77.25-.63.41-1.36.46-2.42.05-1.06.06-1.4.06-4.11 0-2.71-.01-3.04-.06-4.11zm-1.79 8.15c-.04.97-.21 1.5-.35 1.85-.18.47-.4.8-.75 1.15-.35.35-.68.57-1.15.75-.35.14-.88.3-1.85.34-1.05.05-1.37.06-4.03.06-2.67 0-2.98-.01-4.03-.06-.97-.04-1.5-.21-1.85-.34-.47-.18-.8-.4-1.15-.75a3.06 3.06 0 01-.75-1.15c-.14-.35-.3-.88-.34-1.85-.05-1.05-.06-1.37-.06-4.03S1.8 7 1.85 5.95c.05-.97.21-1.5.34-1.85.18-.47.4-.8.75-1.15.35-.35.68-.57 1.15-.75.35-.14.88-.3 1.85-.34 1.05-.05 1.37-.06 4.03-.06 2.67 0 2.98.01 4.03.06.97.04 1.5.21 1.85.34.47.18.8.4 1.15.75.35.35.57.68.75 1.15.14.35.3.88.35 1.85.05 1.05.06 1.37.06 4.03-.01 2.66-.02 2.98-.06 4.03z"/><path d="M9.97 4.86a5.126 5.126 0 105.12 5.12c.01-2.83-2.29-5.12-5.12-5.12zm0 8.45c-1.84 0-3.33-1.49-3.33-3.33s1.49-3.33 3.33-3.33 3.33 1.49 3.33 3.33-1.49 3.33-3.33 3.33zM15.3 3.45c-.66 0-1.2.54-1.2 1.2 0 .66.54 1.2 1.2 1.2.66 0 1.2-.54 1.2-1.2 0-.66-.54-1.2-1.2-1.2z"/></svg><svg viewBox="0 0 32 28" id="menu" xmlns="http://www.w3.org/2000/svg"><path d="M0 0h32v4H0zM0 12h32v4H0zM0 24h32v4H0z"/></svg><svg fill="none" viewBox="0 0 22 38" id="next" xmlns="http://www.w3.org/2000/svg"><path d="M3 35l16-16L3 3" stroke="inherit" stroke-width="5.7" stroke-linecap="round" stroke-linejoin="round"/></svg><svg fill="none" viewBox="0 0 36 36" id="phone" xmlns="http://www.w3.org/2000/svg"><path d="M30.323 26.222l-2.078-2.078a2.647 2.647 0 00-3.764 0l-1.634 1.634c-.373.373-.923.48-1.385.285a22.237 22.237 0 01-6.801-4.706c-2.078-2.078-3.659-4.423-4.689-6.784a1.309 1.309 0 01.285-1.439l1.473-1.473c1.19-1.19 1.19-2.878.143-3.925L9.795 5.658a3.558 3.558 0 00-5.026 0L3.615 6.813c-1.314 1.314-1.865 3.214-1.51 5.096.87 4.635 3.57 9.713 7.92 14.064 4.351 4.35 9.43 7.051 14.065 7.921 1.883.355 3.783-.195 5.097-1.51l1.154-1.154c1.367-1.367 1.367-3.623-.018-5.008zM19.74 9.139c1.828-.018 3.675.657 5.06 2.06M29.826 6.173A14.226 14.226 0 0019.739 2M26.86 16.259c.018-1.83-.657-3.677-2.042-5.062M29.827 6.172A14.226 14.226 0 0134 16.259" stroke="inherit" stroke-width="2.67" stroke-miterlimit="10" stroke-linecap="round" stroke-linejoin="round"/></svg><svg fill="none" viewBox="0 0 22 38" id="prev" xmlns="http://www.w3.org/2000/svg"><path d="M19 3L3 19l16 16" stroke="inherit" stroke-width="5.7" stroke-linecap="round" stroke-linejoin="round"/></svg><svg fill="none" viewBox="0 0 36 36" id="search" xmlns="http://www.w3.org/2000/svg"><path d="M17.044 30.516c7.73-.29 13.762-6.79 13.473-14.52-.29-7.73-6.79-13.762-14.52-13.473-7.73.29-13.762 6.79-13.473 14.52.29 7.73 6.79 13.762 14.52 13.473zM27.435 27.615L33.662 34" stroke="inherit" stroke-width="3.3" stroke-linecap="round" stroke-linejoin="round"/></svg><svg fill="none" viewBox="0 0 36 36" id="user" xmlns="http://www.w3.org/2000/svg"><path d="M18 16.151a7.075 7.075 0 100-14.15 7.075 7.075 0 000 14.15zM18 21.504c8.089 0 16 3.502 16 8.871v1.778c0 .978-.8 1.778-1.778 1.778H3.778C2.8 33.93 2 33.13 2 32.153v-1.778c0-5.369 7.911-8.871 16-8.871z" stroke="inherit" stroke-width="2.67" stroke-miterlimit="10" stroke-linecap="round" stroke-linejoin="round"/></svg><svg viewBox="0 0 32 19" id="vk" xmlns="http://www.w3.org/2000/svg"><path d="M31.919 17.684c-1.329-2.947-4.032-5.36-5.742-6.872a.91.91 0 01-.092-1.267C27.964 7.3 29.72 4.49 31.461 1.359 31.797.75 31.354 0 30.667 0h-4.78c-2.062 3.665-4.429 7.513-5.94 8.827a.682.682 0 01-1.13-.52V.688A.684.684 0 0018.128 0h-5.88c-.595 0-.916.718-.503 1.145l.091.107c.779.855 1.191 1.986 1.191 3.146v5.33c0 .504-.519.824-.962.626C9.272 9.07 7.316 4.505 5.866.305A.445.445 0 005.44 0H.689a.7.7 0 00-.687.748C.17 2.504.612 4.215 1.27 5.864c2.153 5.452 6.612 11.01 12.491 12.584.993.26 5.04 1.298 5.04-.58v-3.803c.9-2.428 4.245 1.542 7.345 4.902h4.918c.672 0 1.13-.672.855-1.283z"/></svg></svg>