<?xml version="1.0" encoding="utf-8"?><svg viewBox="0 0 38 38" xmlns="http://www.w3.org/2000/svg" xmlns:xlink="http://www.w3.org/1999/xlink"><style>:root>svg{display:none}:root>svg:target{display:block}</style><svg viewBox="0 0 32 32" id="answer" xmlns="http://www.w3.org/2000/svg"><path d="M23.468.26c.463.079.93.133 1.384.246 3.23.822 5.435 2.811 6.474 5.967.91 2.762.507 5.41-1.162 7.813-.424.605-.98 1.127-1.492 1.664-.143.152-.226.28-.221.497.01 1.034 0 2.073.005 3.106 0 .31-.06.576-.37.714-.32.143-.57 0-.797-.226-.675-.675-1.35-1.344-2.019-2.024-.118-.123-.226-.147-.398-.118-2.01.37-4.018.419-6.002-.108-2.17-.576-3.86-1.861-5.085-3.732-1.133-1.733-1.605-3.643-1.398-5.706.25-2.52 1.383-4.583 3.357-6.168 1.388-1.113 2.979-1.733 4.75-1.89.05-.006.1-.03.144-.045.94.01 1.885.01 2.83.01zm3.752 17.984c0-.635.044-1.182-.01-1.718-.074-.7.207-1.142.733-1.59 1.477-1.25 2.304-2.885 2.536-4.8.251-2.112-.28-4.032-1.6-5.701-1.221-1.551-2.816-2.536-4.78-2.811-.936-.133-1.9-.119-2.85-.128a7.007 7.007 0 00-3.127.679c-2.5 1.191-4.047 3.146-4.45 5.888-.429 2.9.566 5.307 2.82 7.168 1.295 1.068 2.816 1.615 4.5 1.669 1.32.044 2.649.108 3.939-.276.379-.113.67-.034.94.251.414.443.852.872 1.349 1.369z"/><path d="M.266 14.783c.217-.591.35-1.23.665-1.763.763-1.284 1.954-1.998 3.446-2.033 2.112-.054 6.11-.02 8.221-.015.404 0 .675.256.685.601.005.364-.28.625-.724.625-1.96.005-5.804 0-7.764 0-1.984 0-3.303 1.31-3.303 3.284v9.078c0 1.945 1.32 3.269 3.26 3.269 1.22 0 2.44.005 3.662-.005.3 0 .507.108.714.335.458.497.955.95 1.477 1.452v-1.019c.005-.541.231-.763.772-.763h6.277c1.965 0 3.284-1.314 3.284-3.269v-6.37c0-.123 0-.247.025-.365a.613.613 0 01.595-.482c.271.005.508.197.576.472.025.099.03.202.03.306 0 1.354.01 5.262 0 6.616-.02 2.078-1.379 3.767-3.402 4.22a5.135 5.135 0 01-1.068.103c-1.94.01-3.875.005-5.863.005v.822c0 .35-.015.699.004 1.043.025.375-.098.66-.433.837h-.37c-.206-.182-.418-.354-.614-.546-.665-.655-1.315-1.32-1.984-1.97a.748.748 0 00-.448-.186c-1.197-.015-2.398.024-3.594-.025-1.502-.059-2.698-.748-3.466-2.043C.61 26.465.478 25.83.26 25.239c.005-3.48.005-6.97.005-10.456z"/><path d="M10.727 19.337h6.213c.104 0 .207-.005.305.01.32.049.552.305.552.605s-.232.556-.552.606c-.098.015-.206.01-.305.01H4.386c-.497-.005-.797-.232-.797-.616s.295-.615.797-.615h6.341zM9.467 24.015H4.456c-.104 0-.207.005-.306-.01-.32-.05-.55-.3-.55-.606 0-.3.226-.556.546-.605.078-.015.162-.01.246-.01h10.21c.32 0 .6.069.734.389.172.414-.123.822-.606.837-.453.015-.9.005-1.354.005H9.467zM8.7 17.122H4.455c-.104 0-.207.005-.306-.01-.32-.049-.55-.305-.55-.605s.23-.557.55-.606c.099-.014.207-.01.306-.01H13.012c.497.005.798.232.798.616s-.296.615-.798.615H8.699zM17.802 23.39a.634.634 0 01-.6.62.634.634 0 01-.62-.6.634.634 0 01.6-.62c.315-.006.61.28.62.6zM21.617 10.324c0-.236-.01-.473 0-.709.025-.512.286-.862.763-1.049.114-.044.237-.073.35-.118.615-.236.975-.9.842-1.54a1.377 1.377 0 00-1.398-1.103 1.364 1.364 0 00-1.3 1.176 6.59 6.59 0 01-.05.305c-.068.325-.314.512-.64.493a.579.579 0 01-.55-.591c-.006-.793.29-1.467.895-1.974.847-.71 1.817-.857 2.811-.374 1.015.492 1.502 1.353 1.472 2.486-.024.994-.728 1.954-1.688 2.28-.227.073-.3.176-.286.408.02.335.01.674.005 1.014-.01.443-.27.733-.635.719-.36-.01-.59-.286-.596-.72 0-.23 0-.467.005-.703-.005 0 0 0 0 0zM22.838 13.573a.62.62 0 01-.615.601.605.605 0 110-1.211c.33.005.615.29.615.61z"/></svg><svg viewBox="0 0 32 24" id="arrow" xmlns="http://www.w3.org/2000/svg"><path d="M30.222 12.063H1.778zM30.222 12.063H1.778M20.064 22.221l10.159-10.159zM20.064 22.221l10.159-10.159M20.064 1.904l10.159 10.16zM20.064 1.904l10.159 10.16"/></svg><svg viewBox="0 0 32 28" id="call" xmlns="http://www.w3.org/2000/svg"><path d="M30.554 3.336c-.043-.06-.09-.11-.133-.158-.845-.968-1.834-1.608-1.954-1.672-2.846-1.536-5.709-1.553-8.576-.056a.571.571 0 01-.537.026C14.515-.474 9.958.046 5.714 3.08c-.539.384-1.012.862-1.503 1.314a.185.185 0 00-.025.03C3.81 4.765 2.897 5.91 2.679 6.23 1.643 7.73.922 9.369.563 11.16c-.124.632-.2 1.272-.303 1.907v1.784c.017.098.039.196.056.294.12.726.183 1.468.362 2.176a13.57 13.57 0 0014.93 10.193c4.441-.567 7.808-2.858 10.099-6.686 1.455-2.431 2.035-5.094 1.8-7.927-.021-.243.047-.363.277-.49.598-.334 1.208-.666 1.729-1.102 2.538-2.099 2.956-5.43 1.04-7.974zm-3.998 12.062c-.286 2.684-1.323 5.073-3.158 7.057-3.285 3.55-7.355 4.903-12.104 3.98-3.05-.592-5.543-2.197-7.437-4.663-2.236-2.91-3.055-6.203-2.504-9.83.29-1.894 1.006-3.618 2.094-5.193 0 0 1.02-1.271 1.396-1.69.047-.05.102-.097.157-.148C8.418 1.689 12.43.635 16.994 1.642c.589.128 1.156.354 1.732.538-.03.077-.03.085-.034.094-.068.064-.136.123-.2.187-1.54 1.485-2.283 3.256-1.878 5.406.295 1.566 1.178 2.77 2.432 3.717.15.11.205.209.18.405-.09.648-.158 1.301-.222 1.954-.03.282.05.533.328.674.278.137.512.03.734-.145.568-.452 1.135-.909 1.72-1.344a.578.578 0 01.413-.102c.91.192 1.827.26 2.752.162.547-.056 1.084-.17 1.626-.256-.009.815.064 1.651-.021 2.466zm3.033-5.436c-1.86 2.061-4.25 2.65-6.903 2.19-.708-.125-1.238-.073-1.741.43-.269.269-.597.474-.956.747.064-.53.098-.982.18-1.421.076-.422-.035-.696-.406-.952-1.331-.93-2.201-2.176-2.32-3.831-.12-1.638.55-2.974 1.748-4.053C21.518.98 25.324.678 28.084 2.346c.064.039.636.5 1.195 1.016a4.854 4.854 0 011.327 2.03c.508 1.562.175 3.252-1.016 4.57z"/><path d="M14.507 7.681c-.047.52-.077 1.041-.15 1.558-.12.836-.618 1.382-1.42 1.595-.359.094-.478.308-.555.606-.192.742-.137 1.48.047 2.219.239.973.559 1.907 1.233 2.68.102.114.209.225.32.328.213.192.43.294.746.217.82-.192 1.553.039 2.065.7.555.717 1.088 1.468 1.528 2.257.516.93.235 1.78-.708 2.283-1.46.785-2.953.708-4.442.064-1.634-.704-2.76-1.95-3.635-3.452-1.43-2.453-2.168-5.094-2.078-7.944.051-1.583.503-3.03 1.579-4.229.93-1.032 2.095-1.595 3.494-1.604 1.143-.008 1.839.653 1.929 1.796.025.308.004.615.004.922.013.004.03.004.043.004zm-.94.004h-.025c0-.285.017-.576-.004-.857-.051-.661-.346-.947-1.007-.943-1.105.013-2.03.448-2.769 1.259-.934 1.024-1.331 2.265-1.378 3.622-.098 2.803.648 5.385 2.108 7.765.81 1.323 1.868 2.385 3.357 2.936 1.071.397 2.147.422 3.192-.081.64-.312.768-.645.405-1.255-.384-.648-.828-1.267-1.276-1.877-.345-.47-.827-.623-1.39-.448-.363.11-.704.051-.994-.162a5.01 5.01 0 01-.91-.815c-.814-.977-1.198-2.15-1.433-3.384-.162-.849-.162-1.693.137-2.513.175-.482.469-.836 1.024-.955.576-.12.815-.436.874-1.037.047-.414.064-.836.09-1.255zM24.38 4.955h2.978c.388 0 .593.167.588.465-.004.29-.204.457-.571.457h-5.99c-.406 0-.654-.256-.564-.572.077-.269.277-.35.542-.35h3.016zM24.367 8.312h-2.889c-.102 0-.204 0-.307-.021-.243-.051-.371-.222-.363-.46a.417.417 0 01.376-.423 1.83 1.83 0 01.307-.017h5.773c.11 0 .226 0 .337.021.218.047.333.192.341.414.009.23-.098.397-.324.456-.107.03-.222.026-.333.03h-2.918z"/></svg><svg fill="none" viewBox="0 0 36 36" id="cart" xmlns="http://www.w3.org/2000/svg"><path d="M6.213 1.85H2.44M6.213 1.85L7.5 7.72M10.957 23.747L7.5 7.721h24.718a1.943 1.943 0 011.905 2.362l-2.927 13.664a1.96 1.96 0 01-1.904 1.552H12.86a1.978 1.978 0 01-1.904-1.552zM29.962 32.37a.719.719 0 00-.723.74c0 .405.335.74.74.74.406 0 .74-.335.74-.74 0-.406-.352-.74-.757-.74zM13.142 32.37a.719.719 0 00-.723.74c0 .405.335.74.74.74.406 0 .74-.335.74-.74 0-.406-.352-.74-.757-.74z" stroke="inherit" stroke-width="2.95" stroke-miterlimit="10" stroke-linecap="round" stroke-linejoin="round"/></svg><svg fill="none" viewBox="0 0 30 34" id="club" xmlns="http://www.w3.org/2000/svg"><path d="M6.703 30.246H2.382A1.38 1.38 0 011.235 28.1l1.327-1.993-1.327-1.994c-.614-.914.047-2.147 1.147-2.147h4.5a1.38 1.38 0 011.148 2.147l-.867 1.3c-.3.454-.46.987-.46 1.527v4.681c0 .76.62 1.38 1.38 1.38h13.61c.76 0 1.38-.62 1.38-1.38v-4.688c0-.546-.16-1.066-.46-1.52l-.867-1.3c-.614-.914.046-2.147 1.146-2.147h4.501a1.38 1.38 0 011.147 2.147l-1.327 1.994 1.327 1.993c.614.914-.046 2.147-1.147 2.147h-4.32M6.835 26.105H22.94M28.04 14.088h-1.52M3.261 14.088h-1.52M24.646 4.387l-1.52 1.52M14.943 1v1.52M5.242 4.387l1.52 1.52M14.89 17.242l2.834 1.487a.756.756 0 001.094-.793l-.54-3.154 2.294-2.234a.75.75 0 00-.414-1.28l-3.167-.46-1.414-2.874a.75.75 0 00-1.347 0l-1.413 2.874-3.168.46a.75.75 0 00-.413 1.28l2.294 2.234-.54 3.154c-.107.613.54 1.08 1.093.793l2.807-1.487z"/></svg><svg fill="none" viewBox="0 0 36 36" id="compare" xmlns="http://www.w3.org/2000/svg"><path d="M12.667 19.777V34M34 10.889v23.11M23.334 2v32M2 10.889v23.11" stroke="inherit" stroke-width="2.67" stroke-linecap="round" stroke-linejoin="round"/></svg><svg viewBox="0 0 32 32" id="consult" xmlns="http://www.w3.org/2000/svg"><path d="M30.833 8.296c-.541-.497-1.186-.689-1.915-.689-2.176.01-4.347.005-6.523.005h-.408c0-.34.005-.655 0-.965-.045-2.338-1.064-4.135-3.067-5.336-3.329-2.004-7.882-.158-8.872 3.593-.157.596-.182 1.231-.25 1.851-.03.271-.006.547-.006.862h-.389c-2.186 0-4.367.005-6.552 0C1.748 7.612.89 8.055.409 9.059c-.173.355-.261.788-.261 1.182-.015 5.361-.01 10.723-.01 16.089 0 1.472 1.118 2.643 2.688 2.624 2.018-.02 4.042-.005 6.06-.005h.404c0 .654.005 1.275-.01 1.895 0 .05-.162.128-.246.128-.571.01-1.147.005-1.753.005v1.02h17.231v-1.02c-.551 0-1.088-.02-1.63.005-.31.015-.408-.069-.393-.389.03-.532.01-1.063.01-1.634.137-.005.256-.015.374-.015 2.018 0 4.037-.005 6.055 0 1.118.005 1.96-.448 2.467-1.457.123-.242.172-.522.256-.783V9.842c-.138-.586-.36-1.127-.818-1.546zm-19.687-3.51a5.136 5.136 0 015.194-3.264c2.028.138 3.948 1.728 4.47 3.781.256 1 .148 2.014.172 3.008-.364-.074-.684-.128-.994-.202a.36.36 0 01-.217-.157c-.625-1.192-1.664-1.65-2.924-1.177-.665.246-1.25.227-1.91-.01-1.24-.453-2.294.01-2.905 1.187a.37.37 0 01-.216.167c-.316.074-.636.128-.99.197.025.02.005.01 0 0l-.005-.005h.005c-.01-1.186-.118-2.373.32-3.525zm9.826 5.342a.965.965 0 01-1.014 1v-1.95c.547-.05 1 .384 1.014.95zm.005 8.674v3.018H10.821v-3.023h-1.01v3.018H7.799c-.01-.069-.024-.148-.024-.226 0-.71-.01-1.413 0-2.122.014-1.167.65-2.073 1.752-2.447.665-.226 1.35-.404 2.043-.605.532 1.23 1.049 2.441 1.586 3.687.33-.261.645-.507.955-.758.522-.414 1.048-.822 1.555-1.256.173-.142.281-.157.463-.005.719.596 1.452 1.172 2.181 1.753.103.084.207.163.335.261.276-.635.536-1.245.797-1.856.256-.6.517-1.201.788-1.836.783.24 1.575.423 2.314.728.852.355 1.373 1.069 1.447 1.99.07.885.015 1.776.015 2.692h-1.994v-3.013h-1.034zm-5.843-1.585c-.527.419-1.034.827-1.57 1.26-.336-.782-.665-1.54-1.005-2.338.364-.108.694-.212 1.029-.295.069-.02.182.02.236.073.428.419.852.847 1.31 1.3zm-.798-2.801c1.054.384 2.058.389 3.057.02.064.349.035.61-.236.851-.433.384-.827.817-1.26 1.255-.507-.507-1.01-.974-1.462-1.486-.104-.118-.064-.38-.099-.64zm3.894 4.061c-.531-.428-1.038-.832-1.57-1.255.463-.463.9-.906 1.344-1.34.04-.038.133-.058.192-.043.344.093.684.196 1.043.305-.344.778-.669 1.54-1.009 2.333zm-2.338-4.77c-1.3 0-2.536-.886-2.88-2.137-.128-.463-.143-.965-.168-1.452a9.274 9.274 0 01.02-1.383c.074-.813.812-1.295 1.595-1.064.414.123.813.276 1.226.394a.82.82 0 00.409 0c.403-.113.797-.266 1.196-.384.817-.246 1.55.236 1.63 1.088.034.374.004.758.004 1.137.025.005.055.005.08.01-.075.556-.09 1.127-.237 1.66-.335 1.245-1.575 2.13-2.875 2.13zm-4.067-4.54v1.955c-.536.05-.994-.384-1.009-.95a.966.966 0 011.01-1.004zM1.162 10.35c0-1.127.61-1.733 1.728-1.733h6.907c0 .483.005.946 0 1.413-.005.488.113.936.409 1.325.418.556.99.812 1.674.817.196 0 .27.084.369.236.246.39.492.783.802 1.118.212.226.33.428.31.743-.039.714.114.527-.546.729-1.137.34-2.28.67-3.422.99-1.501.423-2.57 1.732-2.614 3.21-.034 1.195-.01 2.397-.01 3.617h18.275v-.556c-.01-1.024.005-2.053-.035-3.077-.059-1.457-1.107-2.771-2.629-3.2-1.21-.34-2.417-.704-3.633-1.038-.256-.07-.36-.183-.325-.444.02-.133-.02-.27.01-.398.04-.158.099-.32.187-.448.3-.424.625-.827.916-1.256.093-.138.157-.221.345-.226 1.28-.035 2.092-.877 2.102-2.156.005-.453 0-.901 0-1.399H28.938c1.049 0 1.679.61 1.684 1.655.005 4.79.005 9.58 0 14.365 0 .06-.01.123-.015.236h-.355c-7.005 0-14.01 0-21.011-.005-.192 0-.424-.054-.561-.172-.808-.69-1.714-.906-2.772-.847-1.452.08-2.91.02-4.367.02h-.36c-.004-.133-.019-.241-.019-.35V10.35zm27.776 17.58H11.343v1.015H21.47v2.008H10.304V27.93H2.9c-1.128 0-1.733-.596-1.738-1.718v-1.32c.128-.005.226-.015.325-.015 1.782 0 3.57-.005 5.351.005.163 0 .36.05.478.153.842.743 1.812.89 2.914.886 6.656-.044 13.312-.02 19.968-.02h.39c.235 1.162-.473 2.029-1.65 2.029z"/><path d="M2.196 14.7h6.557v-.98H2.196v.98zM2.2 11.691v.975h6.558v-.975H2.201zM8.758 9.664H2.196v.965h6.562v-.965zM29.598 16.764h-3.525v.994h3.525v-.994zM26.073 18.797v.99h3.52v-.99h-3.52zM26.073 21.819h3.525v-.995h-3.525v.995zM26.073 23.853h3.525v-.99h-3.525v.99zM2.196 26.89h.97v-.974h-.97v.975zM4.224 26.88h.99v-.96h-.99v.96zM6.252 26.886h.99v-.97h-.99v.97z"/></svg><svg fill="none" viewBox="0 0 32 13" id="denisov" xmlns="http://www.w3.org/2000/svg"><path d="M4.258 4.122h.55c.916 0 2.163.207 2.163 1.873 0 1.6-1.233 1.909-2.164 1.909h-.549c-.065 0-.112-.047-.112-.09V4.22c0-.05.047-.098.112-.098zm.695 3.033c.433.018 1.225-.127 1.225-1.16 0-.793-.516-1.15-1.225-1.135v2.295zm3.163-3.033h2.371c.07 0 .117.04.117.091v.626c0 .043-.048.09-.117.09H8.826v.673h1.298c.069 0 .109.04.109.091v.63c0 .043-.037.09-.11.09H8.827v.673h1.669c.069 0 .12.043.12.09v.63c0 .043-.051.09-.12.09H8.116c-.065 0-.109-.047-.109-.09V4.209c0-.047.044-.087.11-.087zm3.793-.007h.607c.026 0 .077.007.091.033l1.51 2.272V4.206c0-.051.047-.091.112-.091h.586c.069 0 .112.04.112.09V7.82c0 .044-.043.095-.112.095h-.56c-.022 0-.077-.011-.099-.036l-1.53-2.233v2.178c0 .044-.051.095-.113.095h-.6c-.077 0-.11-.051-.11-.095V4.209c0-.05.033-.094.106-.094zm4.32 0h.593c.069 0 .113.044.113.09v3.612c0 .043-.04.09-.113.09h-.593c-.065 0-.113-.047-.113-.09V4.206c0-.047.048-.091.113-.091zm3.095 2.25c-.033 0-.299 0-.571-.123a1.08 1.08 0 01-.633-1.007c0-.716.578-1.124 1.204-1.124.658 0 1.178.382 1.189 1.03 0 .047-.048.09-.113.09h-.578c-.062 0-.113-.043-.113-.09-.01-.219-.189-.302-.385-.302-.219 0-.397.127-.397.396 0 .236.19.458.397.458.029 0 .294 0 .563.124.415.189.622.574.622 1.018 0 .727-.564 1.073-1.182 1.073-.669-.019-1.192-.324-1.203-1.033 0-.051.043-.084.112-.084h.586c.05 0 .113.033.113.084.01.233.189.309.396.309.21 0 .382-.13.382-.353-.008-.225-.211-.45-.39-.465zm3.712-2.25c.731 0 1.335.596 1.335 1.32 0 .727-.604 1.284-1.335 1.284-.738 0-1.341-.553-1.341-1.284 0-.724.603-1.32 1.341-1.32zm0 1.902c.32 0 .568-.248.568-.582 0-.331-.248-.626-.568-.626-.32 0-.578.295-.578.626 0 .334.258.582.578.582zm-1.003 1.076h1.996c.07 0 .116.047.116.095v.632c0 .044-.047.095-.116.095h-1.996c-.07 0-.113-.051-.113-.095v-.632c0-.048.044-.095.113-.095zm3.182-2.978h.625c.047 0 .098.029.102.062.233.654.433 1.185.665 1.843.219-.607.43-1.229.651-1.843.008-.033.051-.062.098-.062h.626c.087 0 .127.062.102.127l-1.378 3.63c-.037.068-.164.068-.204 0l-1.39-3.63c-.021-.065.023-.127.103-.127z" fill="#C1C1C1"/><path d="M30.91 0H0v12h32V0h-1.09zm.363 11.273H.727V.727h30.546v10.546z" fill="#C1C1C1"/></svg><svg fill="none" viewBox="0 0 36 36" id="discount" xmlns="http://www.w3.org/2000/svg"><path d="M12.905 30.335H9.157a3.5 3.5 0 01-3.493-3.492v-2.29c0-.93-.368-1.811-1.025-2.468l-1.618-1.618a3.49 3.49 0 010-4.934l1.618-1.618a3.48 3.48 0 001.025-2.467V9.157a3.5 3.5 0 013.493-3.492h2.29c.93 0 1.81-.369 2.468-1.026l1.618-1.618a3.49 3.49 0 014.934 0l1.618 1.618a3.48 3.48 0 002.467 1.026h2.291a3.5 3.5 0 013.492 3.492v2.29c0 .93.369 1.811 1.026 2.468l1.618 1.618a3.49 3.49 0 010 4.934l-1.618 1.618a3.48 3.48 0 00-1.026 2.467v2.291a3.5 3.5 0 01-3.492 3.492h-2.29c-.93 0-1.811.369-2.468 1.026l-1.618 1.618a3.49 3.49 0 01-4.934 0l-2.627-2.644z" stroke="inherit" stroke-width="2.4" stroke-linecap="round" stroke-linejoin="round"/><path d="M22.23 22.79a.593.593 0 100-1.184.593.593 0 000 1.185zM13.82 14.361a.593.593 0 100-1.185.593.593 0 000 1.185zM22.821 13.176l-9.612 9.612" stroke="inherit" stroke-width="2.4" stroke-linecap="round" stroke-linejoin="round"/></svg><svg fill="none" viewBox="0 0 38 22" id="down" xmlns="http://www.w3.org/2000/svg"><path d="M3 3l16 16L35 3" stroke="inherit" stroke-width="5.7" stroke-linecap="round" stroke-linejoin="round"/></svg><svg fill="none" viewBox="0 0 38 22" id="down-primary" xmlns="http://www.w3.org/2000/svg"><path d="M3 3l16 16L35 3" stroke="#00BAC1" stroke-width="5.7" stroke-linecap="round" stroke-linejoin="round"/></svg><svg viewBox="0 0 32 32" id="ecology" xmlns="http://www.w3.org/2000/svg"><path d="M30.4 1.224c-.125-.235-.335-.3-.595-.225-1.67.455-3.22 1.15-4.55 2.27-1.64 1.38-2.321 3.15-2.086 5.276.04.34.09.68.13.975-.7-.59-1.415-1.185-2.12-1.795-.2-.175-.38-.39-.535-.61-.655-.96-2.28-3.495-3.88-4.9C14.747.498 12.467-.342 9.802.128c-2.926.515-5.351 2.01-7.571 3.9-.225.196-.24.43-.11.69.61 1.2 1.315 2.35 2.18 3.381.65.77 1.36 1.485 2.07 2.25-.015.015-.055.055-.095.09-2.83 2.57-4.115 5.77-3.615 9.561.535 4.066 2.78 6.961 6.525 8.606 2.306 1.015 5.106.885 6.341.625 4.61-.97 8.276-4.89 8.636-9.57.325-4.156-1.255-7.471-4.605-9.942-.075-.055-.15-.115-.235-.18.45-.35.875-.685 1.315-1.03.095.07.19.13.275.195 3.905 3.185 5.58 7.27 4.67 12.246-1.37 7.481-9.11 11.902-16.306 9.407C3.637 28.402.167 22.627 1.092 16.73c.06-.39-.06-.61-.37-.655-.32-.05-.486.1-.55.505-.28 1.7-.216 3.39.18 5.06 1.87 7.961 10.306 12.397 17.931 9.437 6.076-2.36 9.607-8.926 8.186-15.272-.19-.85-.48-1.675-.735-2.54-.02.015-.005-.005.015-.01.07-.03.145-.055.22-.08 1.39-.46 2.7-1.08 3.83-2.03 1.19-1 1.986-2.236 2.136-3.821.21-2.215-.5-4.2-1.535-6.1zM10.073 1.03c.07-.015.17.06.25.1.025.015.04.05.06.08 1.2 1.635 2.395 3.27 3.65 4.986-.395-.07-.71-.125-1.025-.185-.805-.155-1.61-.31-2.415-.475a.568.568 0 01-.325-.19c-.86-1.155-1.71-2.32-2.56-3.486-.026-.035-.04-.075-.106-.205.85-.22 1.656-.43 2.47-.625zm3.85 6.146l-1.14.835c-1.19.87-2.38 1.74-3.565 2.62-.175.13-.306.155-.506.05-.82-.435-1.56-.97-2.26-1.63.125-.095.23-.18.34-.26 1.02-.745 2.035-1.5 3.06-2.235.116-.08.29-.145.416-.125 1.165.21 2.33.445 3.49.675.05.005.09.035.165.07zm-7.17-5.036c.744 1.02 1.48 2.026 2.255 3.08-1.84-.36-3.606-.7-5.386-1.05.325-.424 2.25-1.675 3.13-2.03zm-.97 6.231c-.916-.985-1.686-2.06-2.386-3.29 1.835.36 3.59.7 5.425 1.06l-3.04 2.23zm.96 17.512c-2.396-1.345-4.056-7.136-2.841-9.971.255.465.515.9.74 1.355.355.725.895 1.165 1.685 1.375.995.27 1.05.425.635 1.38-.26.6-.555 1.185-.82 1.78-.305.686-.35 1.34.095 2.016.4.62.56 1.495.505 2.065zm16.326-9.291c.02.075.04.15.05.225.215 1.19.205 2.385.005 3.58-.7 4.14-4.27 7.571-8.44 8.011-2.366.25-4.196-.045-6.822-1.58-.165-.095-.225-.205-.2-.4.13-.985.005-1.96-.495-2.805-.4-.675-.33-1.24.01-1.855.085-.155.16-.32.23-.48.225-.54.485-1.076.66-1.63.225-.716-.06-1.3-.735-1.63-.26-.126-.53-.24-.81-.306-.5-.11-.805-.405-1.04-.845-.36-.675-.76-1.33-1.135-1.995a.35.35 0 01-.02-.265 9.81 9.81 0 012.84-3.696c.66.325 1.265.685 1.916.93.64.245 1.32.376 1.99.56-.09.08-.18.155-.27.24-.735.67-1.265 1.45-1.395 2.466-.21 1.655.935 3.115 2.59 3.175.76.025 1.525-.1 2.28-.195.95-.115 1.05-.07 1.095.895.05 1.13.03 2.265.085 3.396.03.57.095 1.155.25 1.705.275.955 1.055 1.385 2 1.065 1.57-.535 2.62-1.625 2.99-3.25.12-.535-.03-1.14-.09-1.71-.094-.92-.14-1.83.65-2.49.54-.451 1.136-.841 1.721-1.266a.65.65 0 01.09.15zm-.325-1.19c.015.04.025.08.035.12-.48.3-.95.59-1.42.885-1.415.895-1.95 2.185-1.685 3.82.035.21.065.415.095.625.215 1.39-.94 3.09-2.32 3.416-.46.11-.756-.025-.856-.495a9.292 9.292 0 01-.2-1.58c-.045-1.11-.03-2.22-.085-3.33-.02-.37-.13-.746-.27-1.09-.215-.531-.62-.761-1.195-.701-.575.06-1.14.16-1.715.235a6.62 6.62 0 01-.83.06c-1.405.01-2.295-1.215-1.87-2.565.25-.8.815-1.36 1.47-1.845.275-.205.56-.4.845-.595a.518.518 0 01.21-.086c1.88-.26 3.58-1 5.18-1.99.23-.145.396-.145.62.005 1.896 1.27 3.24 2.96 3.991 5.11zM19.379 8.3c-1.78 1.36-3.69 2.465-5.906 2.945-1.12.245-2.245.26-3.435-.06l1.015-.745c1.315-.965 2.63-1.93 3.955-2.89.11-.08.29-.145.42-.12 1.285.235 2.57.495 3.856.745.045.01.085.025.14.045-.02.035-.025.065-.045.08zm.225-1.01c-1.36-.265-2.72-.53-4.076-.805-.1-.02-.2-.125-.27-.215-1.245-1.69-2.485-3.386-3.725-5.076-.05-.065-.085-.14-.15-.245.795 0 1.515.16 2.215.42.945.355 1.775.905 2.555 1.545.055.08 1.375 1.33 1.995 2.11.556.7 1.016 1.47 1.526 2.206-.025.01-.045.035-.07.06zm6.15-3.205c.97-.87 2.11-1.44 3.406-1.916-.74 1.776-1.45 3.47-2.19 5.236-.446-1.08-.866-2.09-1.276-3.1-.02-.06.01-.18.06-.22zm-.58 7.615c-.015.04-.05.07-.075.11-1.15-2.28-1.52-5.155-.16-6.81.04.07.08.13.105.19.445 1.075.89 2.145 1.325 3.225.045.11.055.265.015.37-.395.975-.805 1.945-1.21 2.915zm5.01-2.32c-.734 1-1.73 1.68-2.825 2.225-.415.205-.85.375-1.275.56a.769.769 0 01-.06-.065c.375-.895.77-1.785 1.11-2.695.165-.44.42-.695.866-.86.995-.37 1.965-.795 2.985-1.215-.09.785-.36 1.45-.8 2.05zm.7-3.035c-.96.405-1.92.8-2.965 1.23.716-1.71 1.4-3.35 2.106-5.04.545 1.18.91 2.35.995 3.59.005.075-.07.195-.135.22z"/></svg><svg viewBox="0 0 16 32" id="facebook" xmlns="http://www.w3.org/2000/svg"><path d="M14.716 10.55l-.373 4.932H9.541V32H3.213V15.483H0V10.55h3.213V5.78S2.985.312 9.54.02c3.18-.146 5.84.568 5.84.568l-.68 4.851S9.54 3.833 9.54 6.964v3.57h5.175v.016z"/></svg><svg fill="none" viewBox="0 0 36 32" id="heart" xmlns="http://www.w3.org/2000/svg"><path d="M24.573 2C30.21 2 34 7.3 34 12.246 34 22.26 18.276 30.46 17.991 30.46" stroke="inherit" stroke-width="2.67" stroke-miterlimit="10" stroke-linecap="round" stroke-linejoin="round"/><path d="M11.428 2C5.788 2 2 7.3 2 12.246 2 22.26 17.724 30.46 18.009 30.46M18.009 5.042C19.236 3.6 21.353 2 24.59 2M18.008 5.042C16.781 3.6 14.664 2 11.427 2" stroke="inherit" stroke-width="2.67" stroke-miterlimit="10" stroke-linecap="round" stroke-linejoin="round"/></svg><svg viewBox="0 0 20 20" id="instagram" xmlns="http://www.w3.org/2000/svg"><path d="M19.89 5.86c-.05-1.06-.21-1.79-.46-2.42-.25-.66-.6-1.21-1.15-1.77-.56-.55-1.11-.9-1.77-1.15-.64-.25-1.36-.41-2.42-.46C13.03.01 12.69 0 9.98 0 7.27 0 6.93.01 5.86.06 4.8.11 4.07.28 3.44.52c-.66.25-1.21.6-1.77 1.15-.55.55-.89 1.11-1.15 1.77C.27 4.08.1 4.8.06 5.86.01 6.92 0 7.26 0 9.97c0 2.71.01 3.05.06 4.11.05 1.06.22 1.79.46 2.42.25.66.6 1.21 1.15 1.77.56.56 1.11.9 1.77 1.15.64.25 1.36.41 2.42.46 1.06.05 1.41.06 4.12.06s3.05-.01 4.11-.06c1.06-.05 1.79-.22 2.42-.46.66-.26 1.21-.6 1.77-1.15.55-.55.9-1.11 1.15-1.77.25-.63.41-1.36.46-2.42.05-1.06.06-1.4.06-4.11 0-2.71-.01-3.04-.06-4.11zm-1.79 8.15c-.04.97-.21 1.5-.35 1.85-.18.47-.4.8-.75 1.15-.35.35-.68.57-1.15.75-.35.14-.88.3-1.85.34-1.05.05-1.37.06-4.03.06-2.67 0-2.98-.01-4.03-.06-.97-.04-1.5-.21-1.85-.34-.47-.18-.8-.4-1.15-.75a3.06 3.06 0 01-.75-1.15c-.14-.35-.3-.88-.34-1.85-.05-1.05-.06-1.37-.06-4.03S1.8 7 1.85 5.95c.05-.97.21-1.5.34-1.85.18-.47.4-.8.75-1.15.35-.35.68-.57 1.15-.75.35-.14.88-.3 1.85-.34 1.05-.05 1.37-.06 4.03-.06 2.67 0 2.98.01 4.03.06.97.04 1.5.21 1.85.34.47.18.8.4 1.15.75.35.35.57.68.75 1.15.14.35.3.88.35 1.85.05 1.05.06 1.37.06 4.03-.01 2.66-.02 2.98-.06 4.03z"/><path d="M9.97 4.86a5.126 5.126 0 105.12 5.12c.01-2.83-2.29-5.12-5.12-5.12zm0 8.45c-1.84 0-3.33-1.49-3.33-3.33s1.49-3.33 3.33-3.33 3.33 1.49 3.33 3.33-1.49 3.33-3.33 3.33zM15.3 3.45c-.66 0-1.2.54-1.2 1.2 0 .66.54 1.2 1.2 1.2.66 0 1.2-.54 1.2-1.2 0-.66-.54-1.2-1.2-1.2z"/></svg><svg viewBox="0 0 33 31" id="like" xmlns="http://www.w3.org/2000/svg"><path d="M4.663 30.636c-.69 0-1.376 0-2.067-.005-1.355-.005-2.2-.845-2.2-2.194C.392 23 .392 17.565.397 12.129c0-1.35.845-2.189 2.2-2.194.691 0 1.377-.005 2.067-.005.723 0 1.446 0 2.168.005 1.366.005 2.216.855 2.227 2.216v.52l-.016.51.807-.85c.277-.287.558-.579.824-.882 1.185-1.355 2.099-2.975 2.87-5.1.201-.553.414-1.095.626-1.642.271-.691.553-1.403.797-2.12C15.354 1.454 16.098.88 17.171.88c.298 0 .622.042.967.133.935.239 1.711.829 2.184 1.663a3.64 3.64 0 01.308 2.848c-.303 1.015-.616 2.024-.93 3.04l-.456 1.476-.07.24-.111.398h10.356c1.376 0 2.465.77 2.848 2.003a2.82 2.82 0 01-1.414 3.337c-.074.037-.154.074-.228.112l-.298.143.107.175c.462.776.579 1.637.319 2.44-.256.802-.867 1.45-1.722 1.822l-.17.074.069.17c.845 2.062.452 3.226-1.45 4.294l-.17.095.106.165c.414.654.547 1.355.404 2.083-.266 1.355-1.35 2.269-2.705 2.285-1.206.01-2.412.02-3.619.02-1.88 0-3.618-.015-5.302-.052-1.807-.037-3.576-.553-5.415-1.573-.313-.175-.627-.35-.962-.542l-.765-.436v1.127c-.01 1.365-.86 2.215-2.226 2.215H4.663zM2.65 11.056c-.78 0-1.131.346-1.131 1.127v16.195c0 .781.345 1.132 1.12 1.137H6.73c.861 0 1.18-.319 1.18-1.18v-16.12c0-.819-.33-1.153-1.137-1.153H4.71l-2.062-.006zM23.574 28.75c.52 0 1.036 0 1.557-.01.818-.016 1.514-.654 1.615-1.483a1.693 1.693 0 00-1.217-1.823 2.376 2.376 0 00-.605-.063h-1.302c-.25 0-.494 0-.744-.006-.388-.005-.627-.223-.638-.557-.005-.34.245-.564.649-.58h1.939c.526 0 1.057 0 1.583-.005.293 0 .521-.032.718-.096.765-.255 1.216-1.014 1.105-1.849a1.646 1.646 0 00-1.589-1.418c-.404-.011-.813-.011-1.217-.011h-1.1c-.217 0-.435 0-.653-.005-.245 0-.436-.07-.553-.197a.574.574 0 01-.127-.43c.037-.441.446-.51.685-.51.547 0 3.656 0 4.203-.006.197 0 .43-.005.643-.064.781-.212 1.318-.993 1.228-1.78-.101-.882-.766-1.509-1.61-1.524-.553-.011-1.1-.011-1.653-.011h-1.88c-.872 0-.872-.425-.878-.569a.5.5 0 01.128-.361c.138-.138.393-.212.733-.212h2.53c.828 0 1.657 0 2.48-.006a1.63 1.63 0 001.574-1.185c.228-.738-.038-1.504-.649-1.865a2.445 2.445 0 00-1.153-.313c-1.806-.01-3.613-.016-5.42-.016h-4.468c-.569 0-1.02-.191-1.275-.532-.25-.34-.303-.823-.138-1.36.148-.494.302-.983.457-1.477.34-1.095.69-2.226 1.01-3.347a2.398 2.398 0 00-.362-2.062 2.43 2.43 0 00-1.865-1.015c-.053 0-.107-.005-.154-.005-.59 0-.856.202-1.095.823l-.452 1.175c-.44 1.153-.887 2.306-1.328 3.464a15.756 15.756 0 01-4.947 6.796c-.218.17-.308.367-.308.653.005 1.36.005 2.716.005 4.076v2.524c0 1.334.006 2.662-.01 3.99-.006.346.122.553.425.712.404.218.802.447 1.2.675.192.112.383.223.575.33 1.748.988 3.613 1.498 5.541 1.509.84.005 1.685.005 2.524.005h2.524l1.759.021z"/></svg><svg fill="none" viewBox="0 0 32 34" id="location" xmlns="http://www.w3.org/2000/svg"><path d="M31.312 27.107c0 3.254-6.786 5.894-15.16 5.894M21.213 21.553c5.88.806 10.107 2.986 10.107 5.546M11.107 21.553C5.227 22.359 1 24.539 1 27.099c0 3.253 6.787 5.893 15.16 5.893"/><path d="M26.26 10.826c0 7.367-10.107 15.44-10.107 15.44S6.047 18.193 6.047 10.826M6.054 10.826C6.054 5.4 10.58 1 16.16 1s10.107 4.4 10.107 9.826"/><path d="M16.16 14.473a3.366 3.366 0 100-6.732 3.366 3.366 0 000 6.732z"/></svg><svg fill="none" viewBox="0 0 32 9" id="logo" xmlns="http://www.w3.org/2000/svg"><path d="M3.319 0a.561.561 0 100 1.122.561.561 0 000-1.122zM3.319 5.96a.561.561 0 100 1.123.561.561 0 000-1.122zM5.437.701h-.001a.756.756 0 10.001 0zM5.437 4.871h-.001a.756.756 0 10.001 0zM.663 3.527a.331.331 0 11-.662 0 .331.331 0 01.662 0zM1.585 1.458a.406.406 0 01-.81 0 .406.406 0 01.81 0zM1.585 5.626a.406.406 0 01-.81 0 .406.406 0 01.81 0zM6.296 2.535h-.003a.994.994 0 00.002 1.986.994.994 0 00.001-1.986zM22.224 1.623c-.765 0-1.922.383-1.922 1.876 0 1.493 1.261 1.863 1.922 1.863.66 0 1.921-.37 1.921-1.863 0-1.493-1.157-1.876-1.921-1.876zm.954 1.87c0 .969-.552 1.208-.953 1.208-.4 0-.954-.239-.954-1.208s.586-1.208.953-1.208c.367-.001.954.24.954 1.208z" fill="#00B2BB"/><path d="M18.79 3.343l1.488-1.682h-1.082L17.83 3.217V.576c0-.238-.146-.581-.726-.574a1.482 1.482 0 00-.205.016v5.296h.932V3.462l1.472 1.852h1.062l-1.577-1.971zM26.685 1.626c-.56 0-.9.2-1.048.314V1.94l-.059.04c-.09-.178-.285-.356-.688-.356-.067 0-.139.004-.213.016v3.68h.958V2.563c.256-.246.962-.375 1.285-.043.182.186.218.45.218.697v2.104h.959V3.037c.001-.938-.72-1.411-1.412-1.411zM11.033 1.617c-.92 0-1.575.435-1.575.435l.29.52c.432-.238 1.077-.36 1.47-.272.29.064.41.263.473.447.032.096.024.4.024.4v-.099c-.51-.114-2.438-.365-2.438 1.16 0 .568.361 1.029 1.144 1.129.47.06.904-.037 1.295-.295l.058-.04c.09.178.285.355.689.355.066 0 .138-.004.213-.016V2.868c-.002-1.009-1.032-1.25-1.643-1.25zm.683 1.986v.815c-.38.236-.702.277-.89.277-.219 0-.599-.085-.622-.544-.04-.808.995-.686 1.511-.574v.026zM14.5 2.971c-.369-.125-.394-.273-.358-.423.1-.436 1.131-.289 1.705 0l.284-.522c-.309-.201-.855-.407-1.455-.407-.523 0-1 .13-1.264.529-.252.38-.216.957.216 1.268.329.236.94.412 1.374.505.265.057.489.172.421.467-.076.328-.83.58-1.852-.207l-.364.47s.565.653 1.5.707c.96.056 1.669-.468 1.62-1.188-.058-.875-.94-.898-1.827-1.199zM30.357 1.617c-.92 0-1.575.435-1.575.435l.29.52c.432-.238 1.077-.36 1.47-.272.29.064.411.263.473.447.032.096.025.4.025.4v-.099c-.511-.114-2.438-.365-2.438 1.16 0 .568.36 1.029 1.143 1.129.47.06.904-.037 1.295-.295l.059-.04c.09.178.284.355.688.355.066 0 .138-.004.213-.016V2.868c0-1.009-1.03-1.25-1.643-1.25zm.683 1.986v.815c-.379.236-.702.277-.89.277-.218 0-.6-.085-.622-.544-.04-.808.995-.686 1.512-.574v.026zM14.297 7.83a.535.535 0 01-.155-.388.52.52 0 01.155-.387.52.52 0 01.39-.157c.203 0 .375.106.456.27l-.152.087a.329.329 0 00-.305-.182.353.353 0 00-.26.106.364.364 0 00-.102.263.357.357 0 00.362.365c.138 0 .254-.07.311-.18l.153.09a.523.523 0 01-.464.268.529.529 0 01-.389-.154zM16.264 6.928V7.96h-.179v-.862h-.534v.862h-.18V6.928h.893zM17.328 6.928h.144V7.96h-.178v-.725l-.57.725h-.146V6.928h.178v.723l.572-.723zM18.555 6.928V7.1h-.352v.859h-.179V7.1h-.354v-.173h.885zM18.837 7.526c.035.183.178.29.375.29.136 0 .235-.05.298-.15l.152.086a.506.506 0 01-.455.233.55.55 0 01-.4-.152.535.535 0 01-.153-.391c0-.154.05-.285.151-.387a.525.525 0 01.39-.155c.152 0 .275.055.37.162a.547.547 0 01.138.465h-.866v-.001zm0-.157h.69c-.03-.197-.167-.3-.332-.3a.344.344 0 00-.358.3zM20.144 7.746l-.135.502h-.154l.082-.502h.207zM21.647 6.928h.179V7.96h-.18v-.372a.704.704 0 01-.278.055c-.264 0-.415-.127-.415-.372v-.343h.18v.333c0 .154.085.214.248.214.097 0 .187-.019.267-.054v-.493h-.001zM22.908 6.928V7.1h-.35v.859h-.18V7.1h-.354v-.173h.884zM23.551 7.985a.525.525 0 01-.386-.157.523.523 0 01-.157-.386c0-.153.051-.28.157-.387a.525.525 0 01.386-.157c.151 0 .28.052.386.157a.524.524 0 01.159.387.53.53 0 01-.159.386.525.525 0 01-.386.157zm.26-.28a.355.355 0 00.105-.263.355.355 0 00-.105-.263.353.353 0 00-.26-.106.352.352 0 00-.258.106.355.355 0 00-.106.263c0 .105.035.192.106.262.07.07.157.106.258.106.103 0 .19-.035.26-.106zM24.44 7.835a.527.527 0 01-.148-.39c0-.174.025-.31.076-.406.052-.095.159-.182.319-.258.03-.015.067-.03.117-.054l.112-.05c.08-.04.167-.106.176-.198l.145.082a.272.272 0 01-.047.116c-.025.033-.035.054-.082.085-.044.026-.05.035-.11.061-.03.015-.05.023-.06.03l-.068.03-.066.026c-.188.08-.26.152-.3.279a.473.473 0 01.365-.162.457.457 0 01.465.473c0 .14-.047.255-.145.35a.514.514 0 01-.367.136.51.51 0 01-.382-.15zm.385-.649c-.09 0-.168.03-.24.085a.265.265 0 00-.105.219c0 .092.034.172.097.232a.34.34 0 00.242.09.33.33 0 00.238-.087.292.292 0 00.095-.223c-.001-.185-.13-.316-.327-.316zM25.998 7.299c.103 0 .188.03.255.092.068.06.103.141.103.238a.311.311 0 01-.103.24.37.37 0 01-.255.09h-.436V6.926h.18v.371h.256V7.3zm0 .493c.101 0 .182-.065.182-.163s-.08-.166-.182-.166h-.255v.329h.255zm.493-.865h.18V7.96h-.18V6.927zM28.814 7.96h-.21l-.386-.49v.49h-.177v-.49l-.388.49h-.208l.431-.533-.41-.5h.208l.367.457v-.456h.177v.456l.366-.456h.21l-.413.499.433.533zM29.777 6.928h.144V7.96h-.177v-.725l-.573.725h-.144V6.928h.178v.723l.572-.723zM31.005 6.928V7.1h-.352v.859h-.18V7.1h-.353v-.173h.885zM31.638 7.299c.102 0 .187.03.255.092.068.06.103.141.103.238a.312.312 0 01-.103.24.37.37 0 01-.255.09h-.436V6.926h.179v.371h.257V7.3zm0 .493c.1 0 .182-.065.182-.163s-.081-.166-.182-.166h-.257v.329h.257z" fill="#00B2BB"/></svg><svg fill="none" viewBox="0 0 32 20" id="mastercard" xmlns="http://www.w3.org/2000/svg"><g clip-path="url(#asclip0_47_91)"><path d="M19.143 9.571c0 5.286-4.286 9.572-9.572 9.572C4.286 19.143 0 14.857 0 9.57 0 4.286 4.286 0 9.571 0c5.286 0 9.572 4.286 9.572 9.571z" fill="#ED1B2E"/><path d="M22.422 0a9.533 9.533 0 00-6.425 2.477 9.925 9.925 0 00-.967 1.013h1.933c.264.323.509.66.731 1.014h-3.393a9.696 9.696 0 00-.55 1.013h4.496c.154.328.29.666.405 1.013h-5.306a9.208 9.208 0 00-.278 1.013h5.864c.14.653.215 1.33.215 2.026a9.569 9.569 0 01-.493 3.042h-5.306c.116.346.251.684.405 1.013h4.497a9.869 9.869 0 01-.552 1.013h-3.392c.222.353.464.69.73 1.013h1.934c-.298.362-.62.7-.967 1.013a9.537 9.537 0 006.426 2.477c5.285 0 9.571-4.285 9.571-9.57C31.993 4.285 27.707 0 22.422 0z" fill="#FCB131"/><path d="M30.718 14.909a.308.308 0 11.618 0 .308.308 0 11-.618 0zm.309.235a.236.236 0 100-.471.236.236 0 000 .471zm-.042-.1h-.065v-.27h.116c.024 0 .049 0 .069.012a.083.083 0 01.033.07c0 .03-.018.06-.047.07l.051.12h-.07l-.043-.106h-.047v.104h.003zm0-.153h.035c.014 0 .027 0 .038-.005.011-.006.016-.02.016-.03a.038.038 0 00-.016-.03c-.011-.006-.029-.004-.04-.004h-.033v.069z" fill="#FCB131"/><path d="M7.336 10.617a1.623 1.623 0 00-.23-.016c-.59 0-.887.202-.887.602 0 .247.144.403.373.403.422-.003.727-.405.744-.99zm.756 1.76H7.23l.02-.41c-.262.325-.613.478-1.089.478-.562 0-.949-.44-.949-1.077 0-.962.671-1.522 1.824-1.522.118 0 .27.011.425.031a1.02 1.02 0 00.04-.255c0-.263-.18-.36-.667-.36a3.51 3.51 0 00-1.1.177c.012-.064.145-.888.145-.888.518-.154.86-.21 1.244-.21.893 0 1.364.4 1.364 1.158.002.203-.03.454-.084.782-.091.571-.285 1.798-.311 2.095zM4.777 12.376H3.74l.595-3.733-1.33 3.733h-.707l-.09-3.71-.624 3.71H.611l.811-4.855h1.496l.09 2.718.912-2.718H5.58l-.804 4.855zM23.706 10.617a1.623 1.623 0 00-.23-.016c-.59 0-.887.202-.887.602 0 .247.144.403.373.403.42-.003.727-.405.744-.99zm.756 1.76H23.6l.02-.41c-.262.325-.613.478-1.089.478-.564 0-.948-.44-.948-1.077 0-.962.67-1.522 1.824-1.522.117 0 .268.011.424.031.031-.131.04-.187.04-.255 0-.263-.18-.36-.667-.36a3.51 3.51 0 00-1.1.177c.012-.064.145-.888.145-.888.518-.154.86-.21 1.242-.21.893 0 1.364.4 1.364 1.158.002.203-.03.454-.084.782-.09.571-.282 1.798-.31 2.095zM12.711 12.318a2.396 2.396 0 01-.747.129c-.53 0-.822-.305-.822-.867-.006-.175.076-.633.143-1.053.06-.369.45-2.695.45-2.695h1.034l-.12.598h.624l-.14.948h-.626c-.12.751-.291 1.687-.294 1.811 0 .204.11.293.356.293a.801.801 0 00.28-.037l-.138.873zM15.877 12.282a3.472 3.472 0 01-1.06.16c-1.157-.002-1.76-.605-1.76-1.762 0-1.349.767-2.344 1.81-2.344.85 0 1.394.555 1.394 1.429 0 .288-.037.573-.126.97h-2.058c-.068.574.298.811.898.811.369 0 .702-.075 1.073-.248l-.17.984zm-.58-2.34c.007-.082.109-.704-.48-.704-.329 0-.564.251-.66.704h1.14zM8.716 9.677c0 .5.243.844.791 1.102.42.198.487.255.487.435 0 .247-.187.358-.598.358-.31 0-.597-.049-.93-.155l-.143.913c.236.05.447.1 1.082.117 1.096 0 1.602-.417 1.602-1.32 0-.542-.21-.861-.733-1.1-.436-.2-.487-.244-.487-.428 0-.213.174-.322.51-.322.204 0 .481.022.746.06l.149-.915a7.132 7.132 0 00-.916-.078c-1.162-.005-1.564.602-1.56 1.333zM20.932 8.444c.289 0 .558.076.929.262l.17-1.053c-.153-.06-.688-.41-1.141-.41-.696 0-1.285.344-1.698.915-.602-.2-.85.204-1.155.606l-.269.062c.02-.133.04-.264.033-.397h-.955c-.131 1.222-.362 2.46-.542 3.683l-.047.267h1.04c.173-1.127.269-1.849.327-2.337l.39-.218c.059-.218.243-.291.61-.282a4.539 4.539 0 00-.074.809c0 1.29.698 2.095 1.815 2.095.29 0 .536-.038.918-.143l.182-1.106c-.344.169-.626.249-.882.249-.604 0-.969-.447-.969-1.182-.002-1.071.543-1.82 1.318-1.82zM29.727 7.521l-.23 1.402c-.285-.373-.59-.644-.992-.644-.524 0-1.002.398-1.313.982-.435-.09-.884-.244-.884-.244v.004c.035-.326.049-.526.047-.595h-.956c-.129 1.222-.362 2.46-.542 3.683l-.046.267h1.037c.14-.91.249-1.668.327-2.268.355-.323.533-.6.89-.582a3.407 3.407 0 00-.25 1.281c0 .987.5 1.638 1.255 1.638.38 0 .673-.131.957-.436l-.049.367h.985l.79-4.855h-1.026zm-1.297 3.942c-.354 0-.533-.262-.533-.778 0-.775.335-1.326.806-1.326.358 0 .551.27.551.773-.002.782-.342 1.33-.824 1.33z" fill="#003473"/><path d="M5.077 12.089h-1.04l.595-3.73-1.328 3.73h-.709l-.087-3.71-.626 3.71H.909l.813-4.855h1.495l.04 3.006 1.009-3.006H5.88l-.804 4.855zM7.637 10.332a1.636 1.636 0 00-.231-.015c-.59 0-.887.202-.887.6 0 .246.147.402.373.402.42 0 .727-.405.745-.987zm.755 1.758H7.53l.02-.41c-.262.323-.613.479-1.089.479-.564 0-.948-.44-.948-1.08 0-.962.67-1.522 1.824-1.522.118 0 .269.011.424.031.031-.131.04-.187.04-.258 0-.262-.18-.357-.666-.357a3.38 3.38 0 00-1.1.177l.144-.888c.518-.151.86-.21 1.244-.21.894 0 1.365.4 1.365 1.158a4.88 4.88 0 01-.085.782c-.091.574-.284 1.8-.31 2.098zM22.329 7.364l-.171 1.053c-.371-.186-.64-.262-.93-.262-.775 0-1.319.751-1.319 1.82 0 .738.367 1.182.971 1.182.256 0 .538-.08.882-.249l-.182 1.107c-.382.104-.631.142-.918.142-1.12 0-1.815-.805-1.815-2.095 0-1.736.964-2.949 2.34-2.949.453-.002.988.191 1.142.251zM24.004 10.332a1.635 1.635 0 00-.231-.015c-.589 0-.886.202-.886.6 0 .246.144.402.373.402.422 0 .729-.405.744-.987zm.758 1.758H23.9l.02-.41c-.263.323-.614.479-1.089.479-.564 0-.949-.44-.949-1.08 0-.962.671-1.522 1.824-1.522.118 0 .27.011.422.031.032-.131.04-.187.04-.258 0-.262-.18-.357-.666-.357a3.392 3.392 0 00-1.1.177l.145-.888c.517-.151.86-.21 1.244-.21.893 0 1.364.4 1.364 1.158.002.202-.031.454-.084.782-.09.574-.283 1.8-.31 2.098zM13.009 12.029a2.397 2.397 0 01-.747.129c-.53 0-.822-.307-.822-.867-.006-.175.076-.633.143-1.053.06-.369.45-2.695.45-2.695h1.034l-.12.598h.53l-.14.948h-.53c-.12.751-.291 1.687-.294 1.811 0 .204.11.293.356.293a.804.804 0 00.28-.037l-.14.873zM16.177 11.999c-.356.108-.698.16-1.06.16-1.158 0-1.76-.605-1.76-1.762 0-1.351.767-2.344 1.807-2.344.853 0 1.395.555 1.395 1.428 0 .29-.038.571-.127.971h-2.057c-.069.573.298.811.898.811a2.44 2.44 0 001.075-.249l-.171.985zm-.58-2.342c.007-.082.109-.704-.48-.704-.329 0-.564.25-.66.704h1.14zM9.014 9.39c0 .5.242.845.79 1.102.42.198.487.256.487.436 0 .246-.184.357-.597.357-.311 0-.598-.049-.931-.155l-.142.91c.235.052.446.1 1.082.119 1.097 0 1.602-.418 1.602-1.32 0-.542-.212-.862-.734-1.1-.435-.2-.486-.244-.486-.429 0-.213.173-.324.508-.324.205 0 .483.022.747.06l.149-.915a7.134 7.134 0 00-.916-.078c-1.16 0-1.561.609-1.56 1.337zM30.26 12.087h-.981l.049-.366c-.285.304-.578.435-.958.435-.755 0-1.255-.65-1.255-1.64 0-1.313.775-2.42 1.69-2.42.403 0 .71.165.994.539l.23-1.405h1.025l-.793 4.857zm-1.532-.91c.484 0 .824-.55.824-1.332 0-.502-.193-.773-.551-.773-.471 0-.806.551-.806 1.327 0 .515.18.777.533.777zM25.697 8.14c-.131 1.223-.363 2.46-.542 3.682l-.047.267h1.04c.37-2.415.462-2.886 1.044-2.826.093-.494.267-.927.395-1.145-.435-.09-.677.156-.997.622.024-.202.07-.397.062-.6h-.955zM17.143 8.14c-.13 1.223-.362 2.46-.542 3.682l-.046.267h1.04c.37-2.415.462-2.886 1.044-2.826.093-.494.266-.927.395-1.145-.435-.09-.677.156-.995.622.024-.202.07-.397.062-.6h-.958zM30.718 11.778a.31.31 0 11.62.001.31.31 0 01-.62-.001zm.31.236a.236.236 0 100-.471.236.236 0 000 .47zm-.043-.1h-.064v-.272h.115c.025 0 .05 0 .07.014.021.015.035.04.035.066 0 .031-.018.06-.047.072l.049.12h-.071l-.042-.107h-.047v.107h.002zm0-.154h.036c.013 0 .026.002.037-.004.012-.007.016-.02.016-.031a.038.038 0 00-.016-.03c-.01-.006-.028-.004-.04-.004h-.033v.07z" fill="#fff"/></g><defs><clipPath id="asclip0_47_91"><path fill="#fff" d="M0 0h32v19.394H0z"/></clipPath></defs></svg><svg viewBox="0 0 32 28" id="menu" xmlns="http://www.w3.org/2000/svg"><path d="M0 0h32v4H0zM0 12h32v4H0zM0 24h32v4H0z"/></svg><svg viewBox="0 0 28 32" id="microscope" xmlns="http://www.w3.org/2000/svg"><path d="M1.715 28.993c.14-.62.235-1.214.41-1.784.26-.87.7-1.635 1.495-2.145a.373.373 0 00.14-.25c.015-.345.005-.69.005-1.08-.14-.004-.26-.02-.385-.02H1.26c-.414 0-.554-.13-.56-.53a63.04 63.04 0 010-1.944c.006-.375.156-.52.535-.52h11.388c.4 0 .545.145.55.545.005.635.005 1.275 0 1.91-.005.375-.16.525-.535.525-.705.005-1.41 0-2.12 0h-.39v1.114c1.27-.055 2.53-.005 3.75-.195 1.554-.245 2.29-1.404 2.6-2.859.32-1.52.174-3.04-.1-4.549-.086-.455-.19-.905-.31-1.35a.417.417 0 00-.23-.24c-.386-.15-.775-.28-1.255-.445-.09.1-.23.265-.385.42-.85.855-1.7 1.705-2.555 2.555-.46.46-.6.46-1.08-.01-.055-.055-.104-.125-.21-.255-.36.375-.684.725-1.024 1.07-.37.375-.555.37-.925.005l-2.7-2.7c-.34-.34-.35-.51-.03-.885.315-.37.645-.724.995-1.11-.07-.074-.2-.214-.325-.364-.2-.24-.215-.46.025-.7 3.44-3.434 6.874-6.874 10.308-10.313.25-.25.485-.26.725-.04.255.235.48.5.685.72.81-.805 1.58-1.575 2.43-2.42-.11-.085-.276-.19-.415-.324-.256-.25-.27-.49-.05-.69.234-.21.46-.16.67.05 1.024 1.024 2.049 2.044 3.069 3.064.235.235.474.475.71.715.204.205.23.43.02.64-.21.21-.43.195-.64-.01-.145-.145-.285-.3-.4-.42-.79.79-1.56 1.554-2.41 2.41.16.13.385.284.575.474.43.425.425.615.01 1.035-.905.91-1.81 1.825-2.72 2.73-.09.09-.204.154-.304.23.045.014.09.024.13.04.145.46.28.92.435 1.374.04.115.105.23.185.32 3.279 3.79 5.363 8.143 6.148 13.102.135.845.165 1.7.245 2.555.015.17.02.345.035.56h1.12c.475.004.615.144.62.624.005.59.005 1.18 0 1.77-.005.465-.14.6-.605.6-1.795.005-3.59 0-5.379 0H.841c-.125 0-.255.005-.38-.005-.29-.015-.45-.165-.455-.46-.005-.685-.01-1.365 0-2.05.005-.32.17-.475.505-.48.425-.02.83-.01 1.204-.01zm17.792-.02c-.045-.384-.09-.75-.13-1.114-.305-2.58-.52-5.16-.17-7.749.19-1.39.46-2.784 1.914-3.584l-2.024-2.794c-.435 1.035-1.145 1.63-2.125 1.894.13.68.275 1.32.38 1.97.24 1.505.325 3.014-.03 4.514-.425 1.805-1.46 3.05-3.34 3.434-.47.095-.964.115-1.449.12-2.554.01-5.114.02-7.668-.005-.545-.005-.935.205-1.255.595-.64.785-.82 1.73-.94 2.724 5.624-.005 11.213-.005 16.837-.005zM17.112 3.85L7.37 13.592c1.235 1.24 2.5 2.504 3.75 3.754l2.884-2.9c-.755-1.514-.65-2.624.375-3.654.48-.48 1.05-.794 1.724-.89.735-.11 1.39.12 1.91.486.975-.955 1.924-1.88 2.854-2.795-1.26-1.255-2.53-2.52-3.754-3.744zm4.41 13.477c-.22.18-.476.305-.61.51-.216.32-.43.675-.516 1.045-.185.805-.355 1.63-.41 2.454-.17 2.49.08 4.964.4 7.428.03.24.165.23.335.23 1.33 0 2.66.005 3.99.01.074 0 .15-.02.22-.03.144-3.134-1.53-8.903-3.41-11.647zm5.148 13.767v-1.19H.94v1.19h25.73zM1.605 22.795h10.673v-1.17H1.605v1.17zM20.466 5.813c.765-.764 1.53-1.53 2.285-2.28l-1.6-1.584c-.74.75-1.505 1.53-2.26 2.295.506.505 1.036 1.035 1.575 1.57zm-2.17 6.999c.01-1.19-.764-2.02-1.899-2.03-1.17-.01-1.974.795-1.98 1.985-.004 1.205.81 2.014 2.03 2.014 1.06 0 1.845-.834 1.85-1.97zM9.205 24.759v-1.03H4.67v1.03h4.534zm-2.625-9.008l2.3 2.3c.265-.24.555-.5.8-.725-.79-.785-1.565-1.56-2.325-2.32l-.775.745z"/><path d="M17.807 12.734c.01.774-.7 1.484-1.48 1.484-.725 0-1.385-.645-1.4-1.36-.014-.77.695-1.5 1.465-1.514.715-.01 1.41.67 1.415 1.39zm-1.015.1c0-.295-.23-.585-.44-.55-.275.045-.41.24-.42.51-.01.264.225.554.44.52.28-.046.405-.24.42-.48z"/></svg><svg fill="none" viewBox="0 0 22 38" id="next" xmlns="http://www.w3.org/2000/svg"><path d="M3 35l16-16L3 3" stroke="inherit" stroke-width="5.7" stroke-linecap="round" stroke-linejoin="round"/></svg><svg fill="none" viewBox="0 0 36 36" id="phone" xmlns="http://www.w3.org/2000/svg"><path d="M30.323 26.222l-2.078-2.078a2.647 2.647 0 00-3.764 0l-1.634 1.634c-.373.373-.923.48-1.385.285a22.237 22.237 0 01-6.801-4.706c-2.078-2.078-3.659-4.423-4.689-6.784a1.309 1.309 0 01.285-1.439l1.473-1.473c1.19-1.19 1.19-2.878.143-3.925L9.795 5.658a3.558 3.558 0 00-5.026 0L3.615 6.813c-1.314 1.314-1.865 3.214-1.51 5.096.87 4.635 3.57 9.713 7.92 14.064 4.351 4.35 9.43 7.051 14.065 7.921 1.883.355 3.783-.195 5.097-1.51l1.154-1.154c1.367-1.367 1.367-3.623-.018-5.008zM19.74 9.139c1.828-.018 3.675.657 5.06 2.06M29.826 6.173A14.226 14.226 0 0019.739 2M26.86 16.259c.018-1.83-.657-3.677-2.042-5.062M29.827 6.172A14.226 14.226 0 0134 16.259" stroke="inherit" stroke-width="2.67" stroke-miterlimit="10" stroke-linecap="round" stroke-linejoin="round"/></svg><svg fill="none" viewBox="0 0 22 38" id="prev" xmlns="http://www.w3.org/2000/svg"><path d="M19 3L3 19l16 16" stroke="inherit" stroke-width="5.7" stroke-linecap="round" stroke-linejoin="round"/></svg><svg fill="none" viewBox="0 0 36 36" id="search" xmlns="http://www.w3.org/2000/svg"><path d="M17.044 30.516c7.73-.29 13.762-6.79 13.473-14.52-.29-7.73-6.79-13.762-14.52-13.473-7.73.29-13.762 6.79-13.473 14.52.29 7.73 6.79 13.762 14.52 13.473zM27.435 27.615L33.662 34" stroke="inherit" stroke-width="3.3" stroke-linecap="round" stroke-linejoin="round"/></svg><svg fill="none" viewBox="0 0 36 36" id="user" xmlns="http://www.w3.org/2000/svg"><path d="M18 16.151a7.075 7.075 0 100-14.15 7.075 7.075 0 000 14.15zM18 21.504c8.089 0 16 3.502 16 8.871v1.778c0 .978-.8 1.778-1.778 1.778H3.778C2.8 33.93 2 33.13 2 32.153v-1.778c0-5.369 7.911-8.871 16-8.871z" stroke="inherit" stroke-width="2.67" stroke-miterlimit="10" stroke-linecap="round" stroke-linejoin="round"/></svg><svg fill="none" viewBox="0 0 32 11" id="visa" xmlns="http://www.w3.org/2000/svg"><g clip-path="url(#baclip0_47_114)"><path d="M13.87 10.208h-2.61L12.893.18h2.61L13.87 10.208zM9.062.18l-2.49 6.898-.294-1.486-.88-4.51S5.29.178 4.158.178H.048L0 .347S1.258.61 2.731 1.492l2.27 8.714h2.717L11.874.178H9.062V.18zM29.602 10.208H32L29.91.18h-2.1c-.969 0-1.205.748-1.205.748l-3.893 9.283h2.72l.545-1.49h3.319l.306 1.487zM26.729 6.66l1.37-3.753.773 3.753h-2.143zM22.913 2.592l.373-2.155S22.136 0 20.94 0c-1.296 0-4.373.566-4.373 3.321 0 2.592 3.611 2.624 3.611 3.984 0 1.36-3.238 1.119-4.309.26l-.389 2.251s1.168.566 2.949.566 4.47-.923 4.47-3.434c0-2.607-3.644-2.851-3.644-3.984 0-1.134 2.543-.99 3.66-.372z" fill="#0066B3"/><path d="M6.28 5.592l-.88-4.51S5.293.178 4.16.178H.049L0 .347s1.977.41 3.877 1.945c1.81 1.47 2.403 3.3 2.403 3.3z" fill="#FAA634"/></g><defs><clipPath id="baclip0_47_114"><path fill="#fff" d="M0 0h32v10.667H0z"/></clipPath></defs></svg><svg viewBox="0 0 32 19" id="vk" xmlns="http://www.w3.org/2000/svg"><path d="M31.919 17.684c-1.329-2.947-4.032-5.36-5.742-6.872a.91.91 0 01-.092-1.267C27.964 7.3 29.72 4.49 31.461 1.359 31.797.75 31.354 0 30.667 0h-4.78c-2.062 3.665-4.429 7.513-5.94 8.827a.682.682 0 01-1.13-.52V.688A.684.684 0 0018.128 0h-5.88c-.595 0-.916.718-.503 1.145l.091.107c.779.855 1.191 1.986 1.191 3.146v5.33c0 .504-.519.824-.962.626C9.272 9.07 7.316 4.505 5.866.305A.445.445 0 005.44 0H.689a.7.7 0 00-.687.748C.17 2.504.612 4.215 1.27 5.864c2.153 5.452 6.612 11.01 12.491 12.584.993.26 5.04 1.298 5.04-.58v-3.803c.9-2.428 4.245 1.542 7.345 4.902h4.918c.672 0 1.13-.672.855-1.283z"/></svg></svg>