<?xml version="1.0" encoding="utf-8"?><svg viewBox="0 0 122.11 64" xmlns="http://www.w3.org/2000/svg" xmlns:xlink="http://www.w3.org/1999/xlink"><style>:root>svg{display:none}:root>svg:target{display:block}</style><svg id="360" data-name="Слой 1" viewBox="0 0 44.93 41.5" xmlns="http://www.w3.org/2000/svg"><defs><style>.aacls-1{fill:#231f20}</style></defs><path class="aacls-1" d="M240.75 253.31a1.34 1.34 0 01-1.44-1l-1.39.81a2.67 2.67 0 001.1 1.29 3.31 3.31 0 001.73.45 3.1 3.1 0 002.09-.72 2.46 2.46 0 00.86-2 2.3 2.3 0 00-.51-1.49 2.72 2.72 0 00-1.38-.87l1.55-2v-1.34h-5.19V248h3.23l-1.63 2.12.63.95h.35a1.38 1.38 0 011 .31 1 1 0 01.35.81 1 1 0 01-.35.82 1.43 1.43 0 01-1 .3zM247.4 246.48l-2.57 3.88a3 3 0 00-.48 1.66 2.75 2.75 0 00.82 2.08 3.32 3.32 0 004.32 0 2.76 2.76 0 00.84-2.08 2.79 2.79 0 00-.8-2 3 3 0 00-2.09-.83l1.83-2.68zm.92 4.58a1.27 1.27 0 01.39 1 1.3 1.3 0 01-.39 1 1.41 1.41 0 01-1 .37 1.37 1.37 0 01-1-.37 1.3 1.3 0 01-.39-1 1.24 1.24 0 01.39-1 1.33 1.33 0 011-.37 1.37 1.37 0 011 .37zM254.32 246.31a2.89 2.89 0 00-2.43 1.18 6 6 0 000 6.24 3.11 3.11 0 004.86 0 6 6 0 000-6.24 2.86 2.86 0 00-2.43-1.18zm1.25 6.3a1.47 1.47 0 01-2.5 0 3.8 3.8 0 01-.43-2 3.84 3.84 0 01.43-2 1.36 1.36 0 011.25-.69 1.39 1.39 0 011.25.69 3.84 3.84 0 01.43 2 3.79 3.79 0 01-.43 2zM259 246.62a2.55 2.55 0 000 3.57 2.6 2.6 0 003.59 0 2.44 2.44 0 00.73-1.79 2.4 2.4 0 00-.73-1.78 2.57 2.57 0 00-3.59 0zm3.1 1.78a1.27 1.27 0 01-1.3 1.31 1.27 1.27 0 01-1.3-1.31 1.23 1.23 0 01.37-.93 1.3 1.3 0 012.23.93z" transform="translate(-227.56 -229.25)"/><path class="aacls-1" d="M229.68 246.81v.05a.57.57 0 00.16.15h.73l4-3a.75.75 0 10-.9-1.2l-2.36 1.76a19.26 19.26 0 0137.42 2 .74.74 0 00.74.61h.13a.75.75 0 00.61-.87 20.76 20.76 0 00-40.32-2.21l-.89-2.58a.74.74 0 00-1-.39.75.75 0 00-.39 1l2 4.6zM272.43 257.58l-2-4.6-.05-.07a.59.59 0 000-.08.47.47 0 00-.1-.1l-.06-.05h-.07l-.13-.05H269.39l-4 3a.75.75 0 00-.15 1.05.75.75 0 001.05.15l2.41-1.8a19.26 19.26 0 01-37.7-1.88.75.75 0 00-1.48.25 20.76 20.76 0 0040.48 2.27l1.09 2.51a.75.75 0 00.69.45.8.8 0 00.3-.06.76.76 0 00.35-.99z" transform="translate(-227.56 -229.25)"/></svg><svg id="adresa_magazinov" viewBox="0 0 46.97 49.5" xmlns="http://www.w3.org/2000/svg"><defs><style>.abcls-1{fill:#323232}</style></defs><path class="abcls-1" d="M498.37 4130.07c3.66-4.41 7.15-10 7.15-15.52a15.91 15.91 0 00-31.81 0c0 5.47 3.49 11.11 7.16 15.52-9 1.43-14.74 4.87-14.74 8.9 0 5.38 10.32 9.59 23.49 9.59s23.48-4.21 23.48-9.59c0-4.03-5.75-7.47-14.73-8.9zm-8.75-29.51a14.21 14.21 0 0114.4 14c0 9.48-11.87 20-14.4 22.18-2.53-2.14-14.41-12.7-14.41-22.18a14.21 14.21 0 0114.41-14zm0 46.5c-13.16 0-22-4.19-22-8.09 0-3.27 5.91-6.37 14.38-7.56a62.76 62.76 0 007.14 6.88.74.74 0 00.47.16.76.76 0 00.47-.16 63.14 63.14 0 007.13-6.88c8.48 1.19 14.38 4.29 14.38 7.56.01 3.9-8.82 8.09-21.97 8.09z" transform="translate(-466.13 -4099.06)"/><path class="abcls-1" d="M495.42 4115a5.81 5.81 0 10-5.8 5.8 5.81 5.81 0 005.8-5.8zm-10.11 0a4.31 4.31 0 114.31 4.3 4.31 4.31 0 01-4.31-4.3z" transform="translate(-466.13 -4099.06)"/></svg><svg id="akcii" viewBox="0 0 21.5 21.47" xmlns="http://www.w3.org/2000/svg"><defs><style>.accls-1{fill:#231f20}</style></defs><path class="accls-1" d="M1348.31 556.09l-1-1a1.42 1.42 0 01-.42-1v-1.43a2.93 2.93 0 00-2.93-2.93h-1.43a1.48 1.48 0 01-1-.42l-1-1a3 3 0 00-4.15 0l-1 1a1.48 1.48 0 01-1 .42h-1.43a2.94 2.94 0 00-2.94 2.93v1.43a1.41 1.41 0 01-.41 1l-1 1a2.93 2.93 0 000 4.14l1 1a1.41 1.41 0 01.41 1v1.44a2.94 2.94 0 002.94 2.93h2l1.43 1.43a2.93 2.93 0 004.15 0l1-1a1.44 1.44 0 011-.42h1.43a2.93 2.93 0 002.93-2.93v-1.44a1.42 1.42 0 01.42-1l1-1a2.93 2.93 0 000-4.15zm-1.06 3.08l-1 1a2.92 2.92 0 00-.86 2.07v1.44a1.43 1.43 0 01-1.43 1.43h-1.43a2.88 2.88 0 00-2.07.86l-1 1a1.47 1.47 0 01-2 0l-1.65-1.65a.75.75 0 00-.53-.22h-2.33a1.44 1.44 0 01-1.44-1.43v-1.44a2.91 2.91 0 00-.85-2.07l-1-1a1.42 1.42 0 010-2l1-1a2.91 2.91 0 00.85-2.07v-1.43a1.44 1.44 0 011.44-1.43h1.43a2.92 2.92 0 002.07-.86l1-1a1.47 1.47 0 012 0l1 1a2.92 2.92 0 002.07.86h1.43a1.43 1.43 0 011.43 1.43v1.43a2.92 2.92 0 00.86 2.07l1 1a1.45 1.45 0 010 2z" transform="translate(-1327.67 -547.44)"/><path class="accls-1" d="M1341 559.67a1.12 1.12 0 101.12 1.12 1.12 1.12 0 00-1.12-1.12zM1335.79 556.65a1.12 1.12 0 10-1.12-1.12 1.12 1.12 0 001.12 1.12zM1340.88 554.63l-6 6a.75.75 0 000 1.06.79.79 0 00.53.22.75.75 0 00.53-.22l6-6a.75.75 0 00-1.06-1.06z" transform="translate(-1327.67 -547.44)"/></svg><svg id="arrow_left" data-name="Слой 1" viewBox="0 0 4.12 7.13" xmlns="http://www.w3.org/2000/svg"><defs><style>.adcls-1{fill:#231f20}</style></defs><path class="adcls-1" d="M14.18 9.14a.54.54 0 01.39.16.57.57 0 010 .8L12 12.7l2.6 2.6a.57.57 0 010 .8.56.56 0 01-.79 0l-3-3a.57.57 0 010-.8l3-3a.55.55 0 01.37-.16z" transform="translate(-10.61 -9.14)"/></svg><svg id="arrow_podpiska" data-name="Слой 1" viewBox="0 0 15.5 11.5" xmlns="http://www.w3.org/2000/svg"><defs><style>.aecls-1{fill:#231f20}</style></defs><path class="aecls-1" d="M10.37 20.41a.78.78 0 00-.16-.24l-5-5a.75.75 0 00-1.06 0 .74.74 0 000 1.06L7.87 20H-4.32a.75.75 0 00-.75.75.75.75 0 00.75.75H7.87l-3.72 3.67a.74.74 0 000 1.06.71.71 0 00.53.22.74.74 0 00.53-.22l5-5a.78.78 0 00.16-.24.83.83 0 000-.58z" transform="translate(5.07 -14.95)"/></svg><svg id="arrow_right" data-name="Слой 1" viewBox="0 0 4.12 7.12" xmlns="http://www.w3.org/2000/svg"><defs><style>.afcls-1{fill:#231f20}</style></defs><path class="afcls-1" d="M.62 7.12A.51.51 0 01.23 7a.57.57 0 010-.8L2.8 3.56.2 1a.57.57 0 010-.8.57.57 0 01.8-.04l3 3A.57.57 0 014 4L1 7a.52.52 0 01-.38.12z" transform="translate(-.04)"/></svg><svg id="bonusi" data-name="Слой 1" viewBox="0 0 19.5 19.5" xmlns="http://www.w3.org/2000/svg"><defs><style>.agcls-1{fill:#231f20}</style></defs><path class="agcls-1" d="M247.91 250.16a.76.76 0 00-.75.75v3.93a.75.75 0 001.5 0v-3.93a.75.75 0 00-.75-.75z" transform="translate(-240.66 -240.42)"/><path class="agcls-1" d="M260.16 247.67a7.23 7.23 0 00-14.19-2 7.24 7.24 0 108.92 8.92 7.26 7.26 0 005.27-6.92zm-12.25 10.75a5.75 5.75 0 115.75-5.75 5.76 5.76 0 01-5.75 5.75zm7.24-5.46v-.29a7.26 7.26 0 00-7.25-7.25h-.28a5.74 5.74 0 117.52 7.52z" transform="translate(-240.66 -240.42)"/></svg><svg id="cart" data-name="Слой 1" viewBox="0 0 19.66 19.79" xmlns="http://www.w3.org/2000/svg"><defs><style>.ahcls-1{fill:#231f20}</style></defs><path class="ahcls-1" d="M38.45-18.89a2 2 0 00-1.51-.72H23.59L23-22.28a.15.15 0 010-.07 1 1 0 00-.07-.15.6.6 0 00-.09-.13.52.52 0 00-.11-.1.71.71 0 00-.14-.1l-.13-.05a.51.51 0 00-.17 0H20.05a.83.83 0 00-.83.83.83.83 0 00.83.83h1.47l.59 2.67 1.95 9.09A2 2 0 0026-8h9.32a1.94 1.94 0 001.89-1.53l1.67-7.75a2 2 0 00-.43-1.61zm-2.9 9a.28.28 0 01-.27.22H26a.27.27 0 01-.27-.22L24-17.94h13a.27.27 0 01.22.1.26.26 0 01.05.23zM35.66-5.62a1.27 1.27 0 00-.89.36 1.27 1.27 0 00-.36.88 1.25 1.25 0 001.25 1.25 1.25 1.25 0 001.24-1.25 1.24 1.24 0 00-1.24-1.24zM26.12-5.62a1.25 1.25 0 00-.88.36 1.22 1.22 0 00-.36.88 1.25 1.25 0 001.24 1.25 1.25 1.25 0 001.25-1.25 1.24 1.24 0 00-1.25-1.24z" transform="translate(-19.22 22.93)"/></svg><svg id="club_sna" viewBox="0 0 43.14 49.5" xmlns="http://www.w3.org/2000/svg"><defs><style>.aicls-1{fill:#323232}</style></defs><path class="aicls-1" d="M686 4222.81l1.71-2.57a2.82 2.82 0 00-2.34-4.38h-6.75a2.82 2.82 0 00-2.35 4.38l1.22 1.82h-21.74l1.21-1.82a2.82 2.82 0 00-2.34-4.38h-6.75a2.82 2.82 0 00-2.35 4.38l1.72 2.57-1.72 2.58a2.82 2.82 0 002.35 4.38h5.73v1.32a2.82 2.82 0 002.81 2.82h20.41a2.82 2.82 0 002.82-2.82v-1.32h5.73a2.82 2.82 0 002.34-4.38zm-32.4 5.46h-5.73a1.32 1.32 0 01-1.1-2.05l2-3a.74.74 0 000-.83l-2-3a1.32 1.32 0 011.1-2.05h6.75a1.32 1.32 0 011.09 2.05l-1.29 1.95a4.71 4.71 0 00-.56 1.15 4.9 4.9 0 00-.25 1.53zm23.22 4.14h-20.41a1.32 1.32 0 01-1.31-1.32v-7a4.36 4.36 0 010-.51h23a2.81 2.81 0 010 .5v7a1.33 1.33 0 01-1.28 1.33zm9.71-4.84a1.3 1.3 0 01-1.16.7h-5.73v-4.21a4.89 4.89 0 00-.25-1.52 5.1 5.1 0 00-.56-1.15l-1.3-1.95a1.32 1.32 0 011.1-2.05h6.75a1.3 1.3 0 011.16.7 1.29 1.29 0 01-.07 1.35l-2 3a.74.74 0 000 .83l2 3a1.29 1.29 0 01.06 1.3zM684.06 4205.54h2.28a.75.75 0 100-1.5h-2.28a.75.75 0 000 1.5zM646.9 4205.54h2.28a.75.75 0 100-1.5h-2.28a.75.75 0 100 1.5zM679 4193.27a.71.71 0 00.53-.22l2.28-2.28a.74.74 0 000-1.06.75.75 0 00-1.06 0l-2.28 2.28a.75.75 0 000 1.06.74.74 0 00.53.22zM666.7 4188.19a.75.75 0 00.75-.75v-2.28a.75.75 0 00-1.5 0v2.28a.76.76 0 00.75.75zM653.9 4193.05a.75.75 0 001.06 0 .75.75 0 000-1.06l-2.28-2.28a.75.75 0 10-1.06 1.06zM660.74 4206.09l-.74 4.34a1.87 1.87 0 002.72 2l3.9-2.05 3.89 2.05a1.86 1.86 0 002-.14 1.88 1.88 0 00.75-1.84l-.75-4.34 3.16-3.07a1.88 1.88 0 00-1-3.2l-4.36-.63-2-4a1.89 1.89 0 00-3.37 0l-1.95 4-4.35.63a1.87 1.87 0 00-1 3.2zm-2.2-4.53a.35.35 0 01.3-.26l4.75-.69a.76.76 0 00.57-.41l2.12-4.3a.37.37 0 01.34-.21.38.38 0 01.34.21l2.12 4.3a.74.74 0 00.56.41l4.75.69a.37.37 0 01.31.26.38.38 0 01-.1.39l-3.44 3.34a.79.79 0 00-.21.67l.81 4.73a.35.35 0 01-.15.37.39.39 0 01-.4 0l-4.21-2.22a.8.8 0 00-.38-.1.84.84 0 00-.39.1l-4.21 2.22a.4.4 0 01-.4 0 .39.39 0 01-.15-.37l.82-4.73a.77.77 0 00-.22-.67l-3.44-3.34a.35.35 0 01-.09-.39z" transform="translate(-645.05 -4184.41)"/></svg><svg id="configurator" data-name="Слой 1" viewBox="0 0 19.5 19.5" xmlns="http://www.w3.org/2000/svg"><defs><style>.ajcls-1{fill:#231f20}</style></defs><path class="ajcls-1" d="M12.37 16.91H9.62a2.75 2.75 0 01-2.75-2.75v-5a2.75 2.75 0 012.75-2.75h2.75a2.75 2.75 0 012.75 2.75v5a2.76 2.76 0 01-2.75 2.75zm-2.75-9a1.25 1.25 0 00-1.25 1.25v5a1.25 1.25 0 001.25 1.25h2.75a1.25 1.25 0 001.25-1.25v-5a1.25 1.25 0 00-1.25-1.25zM12.37 25.91H9.62a2.75 2.75 0 01-2.75-2.75v-.5a2.75 2.75 0 012.75-2.75h2.75a2.75 2.75 0 012.75 2.75v.5a2.76 2.76 0 01-2.75 2.75zm-2.75-4.5a1.25 1.25 0 00-1.25 1.25v.5a1.25 1.25 0 001.25 1.25h2.75a1.25 1.25 0 001.25-1.25v-.5a1.25 1.25 0 00-1.25-1.25zM23.62 25.91h-2.75a2.75 2.75 0 01-2.75-2.75v-5a2.75 2.75 0 012.75-2.75h2.75a2.75 2.75 0 012.75 2.75v5a2.76 2.76 0 01-2.75 2.75zm-2.75-9a1.25 1.25 0 00-1.25 1.25v5a1.25 1.25 0 001.25 1.25h2.75a1.25 1.25 0 001.25-1.25v-5a1.25 1.25 0 00-1.25-1.25zM23.62 12.41h-2.75a2.75 2.75 0 01-2.75-2.75v-.5a2.75 2.75 0 012.75-2.75h2.75a2.75 2.75 0 012.75 2.75v.5a2.76 2.76 0 01-2.75 2.75zm-2.75-4.5a1.25 1.25 0 00-1.25 1.25v.5a1.25 1.25 0 001.25 1.25h2.75a1.25 1.25 0 001.25-1.25v-.5a1.25 1.25 0 00-1.25-1.25z" transform="translate(-6.87 -6.41)"/></svg><svg viewBox="0 0 88 33" id="denisov" xmlns="http://www.w3.org/2000/svg"><defs><style>.akcls-1{isolation:isolate}.akcls-2{fill:#231f20}</style></defs><g id="akСлой_1" data-name="Слой 1"><g id="akРЎР_РѕР__1" data-name="РЎР»РѕР№_1" class="akcls-1"><path class="akcls-2" d="M11.71 11.33h1.51c2.52 0 6 .57 6 5.15 0 4.4-3.39 5.25-6 5.25h-1.51a.29.29 0 01-.31-.25V11.6a.29.29 0 01.31-.27zm1.91 8.34A3 3 0 0017 16.48c0-2.18-1.42-3.15-3.37-3.12zm8.7-8.34h6.52c.19 0 .32.11.32.25v1.72a.3.3 0 01-.32.25h-4.57v1.85h3.57c.2 0 .3.12.3.25v1.73c0 .13-.1.25-.3.25h-3.57v1.86h4.59a.3.3 0 01.33.25v1.73a.31.31 0 01-.33.25h-6.54a.28.28 0 01-.3-.25v-9.89a.27.27 0 01.3-.25zm10.43 0h1.67a.37.37 0 01.25.09l4.15 6.25v-6.11a.28.28 0 01.3-.25h1.61a.28.28 0 01.31.25v9.94a.29.29 0 01-.31.26H39.2a.43.43 0 01-.27-.11l-4.21-6.14v6a.31.31 0 01-.31.26h-1.66a.27.27 0 01-.29-.26v-9.95a.25.25 0 01.29-.25zm11.88 0h1.63a.27.27 0 01.3.25v9.92a.27.27 0 01-.3.25h-1.63a.29.29 0 01-.31-.25v-9.94a.28.28 0 01.31-.25zm8.51 6.19a4 4 0 01-1.57-.34 3 3 0 01-1.74-2.77 3.11 3.11 0 013.31-3.09c1.81 0 3.25 1 3.27 2.83a.28.28 0 01-.31.25h-1.58a.3.3 0 01-.32-.25c0-.6-.51-.83-1.06-.83a1 1 0 00-1.09 1.09 1.24 1.24 0 001.09 1.26 3.94 3.94 0 011.55.34 3 3 0 01-1.55 5.76c-1.83-.05-3.28-.89-3.31-2.84 0-.15.12-.24.31-.24h1.61c.14 0 .3.09.3.24 0 .63.52.85 1.09.85a1 1 0 001-1 1.36 1.36 0 00-1-1.28zm10.21-6.19A3.67 3.67 0 0167 14.94a3.68 3.68 0 01-7.36 0 3.68 3.68 0 013.71-3.63zm0 5.23a1.55 1.55 0 001.56-1.6 1.66 1.66 0 00-1.56-1.72 1.68 1.68 0 00-1.59 1.72 1.57 1.57 0 001.59 1.58zm-2.76 3h5.49a.3.3 0 01.32.26v1.68a.3.3 0 01-.32.26h-5.49a.29.29 0 01-.31-.26v-1.74a.29.29 0 01.31-.26zm8.75-8.19h1.72a.32.32 0 01.29.16c.64 1.81 1.19 3.27 1.82 5.08.6-1.68 1.19-3.38 1.79-5.08a.3.3 0 01.28-.16H77c.24 0 .35.16.28.35l-3.79 10a.35.35 0 01-.56 0l-3.81-10c-.12-.24 0-.41.22-.41z" id="ak_460947947792" data-name="460947947792"/></g></g><path class="akcls-2" d="M85 0H0v33h88V0zm1 31H2V2h84z" id="akСлой_2" data-name="Слой 2"/></svg><svg id="dostavka" viewBox="0 0 19.5 21.66" xmlns="http://www.w3.org/2000/svg"><defs><style>.alcls-1{fill:#231f20}</style></defs><path class="alcls-1" d="M1067.76 1953.2a2.82 2.82 0 00-1-1l-7-4a2.76 2.76 0 00-2.75 0l-7 4a2.79 2.79 0 00-1 1 2.71 2.71 0 00-.37 1.37v8.08a2.77 2.77 0 001.36 2.35l7 4a2.73 2.73 0 001.35.36h.06a2.67 2.67 0 001.34-.36l7-4a2.76 2.76 0 001.38-2.38v-8.08a2.76 2.76 0 00-.37-1.34zm-9.39 4.53l-2.83-1.63 7.5-4.33 2.83 1.63zm-.63-8.3a1.29 1.29 0 01.63-.17 1.23 1.23 0 01.62.17l2.55 1.47-7.5 4.33-3.17-1.83zm-7 14.29a1.26 1.26 0 01-.62-1.08v-7.94l3.55 2 3.95 2.28v8.66zm15.25 0l-6.87 4V1959l7.5-4.33v7.94a1.25 1.25 0 01-.62 1.11z" transform="translate(-1048.62 -1947.76)"/><path class="alcls-1" d="M1055.91 1960.31l-3-1.73a.74.74 0 00-1 .28.75.75 0 00.27 1l3 1.73a.76.76 0 001-.27.75.75 0 00-.27-1.01z" transform="translate(-1048.62 -1947.76)"/></svg><svg data-name="Слой 1" viewBox="0 0 63.94 64" id="eco" xmlns="http://www.w3.org/2000/svg"><path d="M60.8 2.48a.94.94 0 00-1.2-.45 23.12 23.12 0 00-9.09 4.54 11.39 11.39 0 00-4.17 10.55c.08.68.18 1.36.26 1.95-1.4-1.19-2.84-2.37-4.24-3.59a7 7 0 01-1.07-1.23c-1.31-1.92-4.56-7-7.75-9.8-4-3.43-8.59-5.11-13.92-4.17-5.85 1-10.7 4-15.14 7.81a1 1 0 00-.22 1.38 35.23 35.23 0 004.36 6.75c1.3 1.54 2.73 3 4.14 4.5l-.19.18c-5.66 5.15-8.23 11.54-7.23 19.12 1.07 8.14 5.56 13.92 13 17.22a23.19 23.19 0 0012.67 1.24c9.23-1.93 16.55-9.77 17.28-19.14.64-8.31-2.51-14.94-9.22-19.88l-.46-.36 2.62-2.06c.2.14.38.26.55.4 7.81 6.37 11.17 14.54 9.34 24.49a24.86 24.86 0 01-49-8.44c.12-.78-.12-1.22-.74-1.31s-1 .2-1.1 1A25.73 25.73 0 00.63 43.3a26.76 26.76 0 0052.23-11.67c-.38-1.7-1-3.35-1.46-5.08s.29-.11.44-.15a22.77 22.77 0 007.65-4.07 11.14 11.14 0 004.28-7.64c.52-4.47-.9-8.44-2.97-12.21zm-40.65-.39c.14 0 .34.12.5.2a.52.52 0 01.12.16l7.3 10-2-.37c-1.61-.31-3.22-.61-4.82-.95a1.16 1.16 0 01-.66-.38q-2.57-3.46-5.11-7a3.11 3.11 0 01-.21-.41c1.64-.47 3.25-.86 4.88-1.28zm7.7 12.29l-2.28 1.67c-2.38 1.75-4.77 3.48-7.13 5.24a.82.82 0 01-1 .1 20.82 20.82 0 01-4.52-3.26l.69-.52c2-1.49 4.07-3 6.12-4.47a1.26 1.26 0 01.84-.25c2.33.42 4.65.89 7 1.35a1.44 1.44 0 01.28.11zM13.51 4.31l4.51 6.16L7.25 8.38a25.38 25.38 0 016.26-4.1zm-1.94 12.46A35 35 0 016.8 10.2l10.85 2.11zm1.92 35C8.7 49.07 5.37 37.5 7.81 31.83c.51.93 1 1.8 1.47 2.71a4.93 4.93 0 003.37 2.75c2 .54 2.1.85 1.28 2.76-.52 1.21-1.11 2.37-1.64 3.57a3.86 3.86 0 00.19 4 7.1 7.1 0 011.01 4.14zm32.65-18.58a3.63 3.63 0 01.1.45 20.5 20.5 0 010 7.16 19.68 19.68 0 01-16.88 16c-4.73.51-8.39-.09-13.63-3.16a.71.71 0 01-.4-.81 8.65 8.65 0 00-1-5.6 3.37 3.37 0 010-3.72 7.66 7.66 0 00.45-1c.46-1.08 1-2.14 1.33-3.26a2.56 2.56 0 00-1.47-3.26 7.27 7.27 0 00-1.61-.6 3 3 0 01-2.08-1.69c-.72-1.35-1.53-2.66-2.27-4a.68.68 0 010-.54 19.7 19.7 0 015.68-7.39c1.32.65 2.53 1.37 3.83 1.86s2.64.75 4 1.12l-.54.47a7.94 7.94 0 00-2.79 4.94 5.48 5.48 0 005.18 6.35 30.64 30.64 0 004.57-.39c1.89-.24 2.1-.15 2.18 1.78.11 2.27.06 4.53.17 6.8a15.1 15.1 0 00.5 3.41 2.92 2.92 0 004 2.13 8.64 8.64 0 006-6.5 11.06 11.06 0 00-.19-3.42c-.19-1.84-.27-3.66 1.31-5 1.08-.91 2.27-1.68 3.44-2.54a2.76 2.76 0 01.12.4zm-.65-2.38c0 .08.05.16.08.24-1 .6-1.91 1.18-2.84 1.77a7 7 0 00-3.34 7.66c.06.42.12.84.19 1.25a6.65 6.65 0 01-4.64 6.84c-.92.21-1.51-.06-1.71-1a18.71 18.71 0 01-.4-3.16c-.09-2.22-.06-4.44-.17-6.66a7 7 0 00-.53-2.18 2.11 2.11 0 00-2.39-1.39c-1.15.11-2.29.32-3.43.46a15.46 15.46 0 01-1.66.13 3.8 3.8 0 01-3.74-5.13 7.38 7.38 0 012.94-3.69c.55-.41 1.11-.8 1.68-1.19a1.1 1.1 0 01.42-.17 26.49 26.49 0 0010.36-4 1 1 0 011.24 0 19.85 19.85 0 017.94 10.21zm-6.73-14.2a29.81 29.81 0 01-11.81 5.89 14.2 14.2 0 01-6.88-.11l2-1.49c2.64-1.93 5.27-3.87 7.91-5.78a1.25 1.25 0 01.84-.24c2.57.47 5.14 1 7.71 1.49a1.41 1.41 0 01.27.09c.01.02 0 .11-.04.14zm.45-2c-2.71-.54-5.43-1.06-8.15-1.62a1.05 1.05 0 01-.54-.43Q26.78 7.5 23.07 2.41c-.1-.13-.17-.28-.3-.49a12.5 12.5 0 014.43.84 18 18 0 015.11 3.09c.11.16 2.75 2.65 4 4.21 1.11 1.4 2 2.94 3 4.41zm12.3-6.41a20.39 20.39 0 016.81-3.83c-1.48 3.55-2.9 6.94-4.38 10.47-.89-2.17-1.72-4.18-2.54-6.2a.47.47 0 01.11-.47zm-1.12 15.2a1.28 1.28 0 01-.15.23c-2.3-4.56-3-10.32-.32-13.63a3 3 0 01.21.39c.89 2.14 1.78 4.29 2.65 6.44a1.08 1.08 0 010 .75c-.8 1.9-1.62 3.9-2.39 5.82zm10-4.64a15 15 0 01-5.65 4.44c-.83.42-1.69.76-2.54 1.13l-.13-.13c.75-1.79 1.55-3.57 2.23-5.39a2.68 2.68 0 011.72-1.72c2-.74 3.94-1.59 6-2.43a8.35 8.35 0 01-1.63 4.1zm1.4-6.07c-1.92.82-3.85 1.61-5.94 2.47 1.44-3.42 2.8-6.7 4.22-10.08a20.47 20.47 0 012 7.18.55.55 0 01-.3.43z"/></svg><svg data-name="Слой 1" viewBox="0 0 64.05 64" id="faq" xmlns="http://www.w3.org/2000/svg"><path d="M63.09 12.62A17.62 17.62 0 0049.94.47c-.92-.23-1.87-.34-2.81-.5h-5.75a1.71 1.71 0 01-.3.09 18.16 18.16 0 00-16.47 16.41 18 18 0 00.25 5.3c-4.33 0-12.28-.07-16.5 0a8.06 8.06 0 00-7 4.13 21.31 21.31 0 00-1.35 3.58v21.25a21.2 21.2 0 001.35 3.57 8.18 8.18 0 007 4.15c2.42.1 4.86 0 7.29.05a1.45 1.45 0 01.91.37c1.36 1.32 2.68 2.67 4 4 .4.39.83.74 1.25 1.11h.75a1.63 1.63 0 00.88-1.7V58.47h11.92a9.77 9.77 0 002.16-.21 8.69 8.69 0 006.92-8.57V36.38a32.74 32.74 0 005.47-.56.8.8 0 01.82.24c1.36 1.38 2.74 2.74 4.1 4.11a1.31 1.31 0 002.37-1v-6.31a1.3 1.3 0 01.46-1 29.28 29.28 0 003-3.39 17.19 17.19 0 002.43-15.85zM42 49.36A6.3 6.3 0 0135.33 56H22.58c-1.11 0-1.57.46-1.58 1.55v2.08c-1-1-2.07-2-3-3a1.84 1.84 0 00-1.45-.68H9.11a6.3 6.3 0 01-6.62-6.64V30.92a6.31 6.31 0 016.71-6.67h15.76a1.92 1.92 0 00.55-.09 18.47 18.47 0 001.93 3.88 17.4 17.4 0 0010.33 7.58 22.8 22.8 0 004.23.71v.08zm19.37-29.29a14.67 14.67 0 01-5.15 9.75 3.42 3.42 0 00-1.49 3.23c.11 1.08 0 2.19 0 3.48-1-1-1.9-1.88-2.76-2.78a1.71 1.71 0 00-1.91-.51 25.26 25.26 0 01-8 .56 14.77 14.77 0 01-9.14-3.39 15.66 15.66 0 013.32-26.52 14.51 14.51 0 016.35-1.38 44.64 44.64 0 015.79.26 14.77 14.77 0 019.71 5.72 15.17 15.17 0 013.28 11.58z"/><path d="M34.46 38.77a4.33 4.33 0 00-.62 0H8.34c-1 0-1.62.47-1.62 1.25s.6 1.24 1.62 1.25h25.5a4.33 4.33 0 00.62 0 1.24 1.24 0 000-2.46zM29.11 45.75H8.37a4 4 0 00-.49 0 1.24 1.24 0 000 2.46 4.33 4.33 0 00.62 0h20.87a1.24 1.24 0 001.23-1.7 1.39 1.39 0 00-1.49-.76zM7.88 34.23a4.24 4.24 0 00.62 0h17.37c1 0 1.62-.47 1.62-1.25s-.6-1.25-1.61-1.25H8.46a4.28 4.28 0 00-.62 0 1.24 1.24 0 000 2.46zM34.36 45.76a1.27 1.27 0 00-1.22 1.26 1.24 1.24 0 002.48 0 1.3 1.3 0 00-1.26-1.26zM46.87 9.3a5.26 5.26 0 00-7.53 4.77 1.22 1.22 0 002.42.2c0-.2.07-.41.1-.62a2.75 2.75 0 012.64-2.38 2.78 2.78 0 011.13 5.36c-.23.09-.48.15-.71.24a2.27 2.27 0 00-1.55 2.14v2.87c0 .88.49 1.44 1.21 1.46s1.27-.56 1.29-1.46v-2.06c0-.48.13-.68.59-.84a5.17 5.17 0 003.43-4.62 5.08 5.08 0 00-3.02-5.06zM44.61 25.81a1.23 1.23 0 100 2.46 1.23 1.23 0 100-2.46z"/></svg><svg id="fb" data-name="Слой 1" viewBox="0 0 41 41" xmlns="http://www.w3.org/2000/svg"><defs><style>.aocls-1{fill:#231f20}</style></defs><path class="aocls-1" d="M250 229.5a20.5 20.5 0 1020.5 20.5 20.53 20.53 0 00-20.5-20.5zm0 40a19.5 19.5 0 1119.5-19.5 19.53 19.53 0 01-19.5 19.5z" transform="translate(-229.5 -229.5)"/><path class="aocls-1" d="M254.32 243.5l.42-3a12.92 12.92 0 00-3.6-.36c-4 .18-3.9 3.55-3.9 3.55v2.94h-2v3h2v10.18h3.9v-10.13h3l.23-3h-3.19v-2.21c-.04-1.96 3.14-.97 3.14-.97z" transform="translate(-229.5 -229.5)"/></svg><svg fill="none" viewBox="0 0 20 20" id="filter" xmlns="http://www.w3.org/2000/svg"><path d="M16 3h3M1 3h11M8 10h11M1 10h2M16 17h3M1 17h11M14 5a2 2 0 100-4 2 2 0 000 4zM6 12a2 2 0 100-4 2 2 0 000 4zM14 19a2 2 0 100-4 2 2 0 000 4z" stroke="inherit" stroke-width="1.5" stroke-miterlimit="10" stroke-linecap="round" stroke-linejoin="round"/></svg><svg id="inst" data-name="Слой 1" viewBox="0 0 41 41" xmlns="http://www.w3.org/2000/svg"><defs><style>.aqcls-1{fill:#231f20}</style></defs><path class="aqcls-1" d="M250 229.5a20.5 20.5 0 1020.5 20.5 20.53 20.53 0 00-20.5-20.5zm0 40a19.5 19.5 0 1119.5-19.5 19.53 19.53 0 01-19.5 19.5z" transform="translate(-229.5 -229.5)"/><path class="aqcls-1" d="M259.46 243.46a5.08 5.08 0 00-2.92-2.92 7.58 7.58 0 00-2.42-.46c-1.07-.05-1.41-.06-4.12-.06s-3.05 0-4.12.06a7.58 7.58 0 00-2.42.46 5.08 5.08 0 00-2.92 2.92 7.58 7.58 0 00-.46 2.42C240 247 240 247.29 240 250s0 3.05.06 4.11a7.59 7.59 0 00.46 2.43 5.16 5.16 0 002.92 2.92 7.58 7.58 0 002.42.46c1.07.05 1.41.06 4.12.06s3.05 0 4.12-.06a7.58 7.58 0 002.42-.46 5.16 5.16 0 002.92-2.92 7.33 7.33 0 00.46-2.43c.05-1.06.06-1.4.06-4.11s0-3.05-.06-4.12a7.31 7.31 0 00-.44-2.42zM258.13 254a5.6 5.6 0 01-.35 1.86 3.38 3.38 0 01-1.89 1.89 5.41 5.41 0 01-1.86.34c-1.05.05-1.36.06-4 .06s-3 0-4-.06a5.41 5.41 0 01-1.86-.34 3.38 3.38 0 01-1.89-1.89 5.41 5.41 0 01-.34-1.86c0-1.05-.06-1.37-.06-4s0-3 .06-4a5.41 5.41 0 01.34-1.86A3 3 0 01243 243a3.1 3.1 0 011.14-.75 5.41 5.41 0 011.86-.34c1.05 0 1.36-.06 4-.06s3 0 4 .06a5.41 5.41 0 011.86.34 3.1 3.1 0 011.14.75 3 3 0 01.75 1.14 5.6 5.6 0 01.35 1.86c0 1.05.05 1.36.05 4s.02 3-.02 4z" transform="translate(-229.5 -229.5)"/><path class="aqcls-1" d="M250 244.88a5.12 5.12 0 105.13 5.12 5.13 5.13 0 00-5.13-5.12zm0 8.45a3.33 3.33 0 113.33-3.33 3.33 3.33 0 01-3.33 3.33zM255.33 243.47a1.2 1.2 0 101.2 1.2 1.2 1.2 0 00-1.2-1.2z" transform="translate(-229.5 -229.5)"/></svg><svg id="izbrannoe" data-name="Слой 1" viewBox="0 0 19.5 17.5" xmlns="http://www.w3.org/2000/svg"><defs><style>.arcls-1{fill:#231f20}</style></defs><path class="arcls-1" d="M37.37-11.09c0-3.14-2.44-6.5-6.06-6.5a5.41 5.41 0 00-3.69 1.39 5.42 5.42 0 00-3.7-1.39c-3.62 0-6.05 3.36-6.05 6.5 0 5.46 7.48 10.09 9.35 10.87a.79.79 0 00.4.13.73.73 0 00.38-.13c1.89-.78 9.37-5.41 9.37-10.87zm-9.75 9.42c-1.62-.81-8.25-4.93-8.25-9.42 0-2.41 1.83-5 4.55-5a4 4 0 013.13 1.45l.12.07.08.05a1 1 0 00.29.06.94.94 0 00.28-.06l.08-.05a.47.47 0 00.12-.07h.05a4 4 0 013.12-1.44c2.73 0 4.56 2.59 4.56 5 .12 4.48-6.52 8.6-8.13 9.41z" transform="translate(-17.87 17.59)"/></svg><svg data-name="Слой 1" viewBox="0 0 55.12 64" id="laboratory" xmlns="http://www.w3.org/2000/svg"><path d="M53.88 58.01h-2.24c0-.44 0-.78-.07-1.12-.15-1.71-.22-3.43-.48-5.11a51.75 51.75 0 00-12.31-26.21 2 2 0 01-.37-.64c-.3-.91-.58-1.83-.86-2.75l-.27-.07a4.06 4.06 0 00.61-.46l5.44-5.46c.83-.84.84-1.22 0-2.07-.38-.38-.84-.69-1.15-1L47 8.3c.23.24.5.55.8.84a.884.884 0 101.24-1.26L47.61 6.5 41.47.37a.87.87 0 00-1.34-.1c-.45.39-.42.88.09 1.38a8.2 8.2 0 00.83.64l-4.86 4.85c-.42-.44-.87-1-1.37-1.44a.94.94 0 00-1.46.07Q23.07 16.11 12.75 26.4a.91.91 0 00-.06 1.4c.25.3.51.58.65.73-.69.77-1.36 1.48-2 2.22s-.62 1.1 0 1.77l5.4 5.41c.74.74 1.11.74 1.85 0s1.33-1.38 2-2.13c.21.25.3.39.41.5 1 .94 1.24.94 2.16 0 1.7-1.7 3.41-3.4 5.1-5.11.31-.31.59-.64.77-.84 1 .34 1.75.59 2.51.89a.85.85 0 01.46.49c.24.89.46 1.79.62 2.7a23.24 23.24 0 01.21 9.1c-.62 2.9-2.09 5.23-5.2 5.72a71 71 0 01-7.5.39v-2.23H25.14c.75 0 1.06-.3 1.07-1.05v-3.82c0-.8-.3-1.09-1.1-1.09H2.33c-.76 0-1.06.29-1.07 1v3.89c0 .8.29 1.05 1.12 1.06h5v2.16a.75.75 0 01-.28.5 7.31 7.31 0 00-3 4.29c-.35 1.14-.54 2.33-.82 3.58H.92c-.8 0-1 .32-1 1v4.1a.85.85 0 00.91.92h53c.93 0 1.2-.27 1.21-1.2v-3.54c.07-.92-.21-1.2-1.16-1.2zm-4.06-.05a3.11 3.11 0 01-.44.06h-8c-.34 0-.61 0-.67-.46a75.55 75.55 0 01-.8-14.87 31.33 31.33 0 01.82-4.9 6.4 6.4 0 011-2.09 5.45 5.45 0 011.22-1c3.82 5.46 7.17 17 6.87 23.26zM42.27 3.91l3.2 3.17-4.57 4.56-3.15-3.14c1.51-1.54 3.04-3.1 4.52-4.59zM17.72 36.1l-4.6-4.6 1.55-1.49 4.65 4.64zm10.24-7.2l-5.76 5.79-7.5-7.51L34.19 7.69l7.51 7.5-5.72 5.59a5.23 5.23 0 00-3.82-1 6 6 0 00-3.45 1.78c-2.05 2.11-2.26 4.32-.75 7.36zm4.91.66a3.81 3.81 0 01-4.06-4 3.88 3.88 0 117.75.09 3.73 3.73 0 01-3.69 3.93zm-29.7 16v-2.34h21.35v2.34zm15.2 1.87v2.06H9.3v-2.06zm-11.2 5a3 3 0 012.51-1.19h15.35a15.52 15.52 0 002.89-.24c3.76-.77 5.83-3.26 6.68-6.87a22.88 22.88 0 00.07-9c-.21-1.3-.5-2.58-.76-3.94a6.08 6.08 0 004.25-3.78c1.39 1.92 2.71 3.73 4 5.59-2.91 1.6-3.45 4.38-3.83 7.17a61.41 61.41 0 00.34 15.5c.09.73.17 1.45.26 2.23H5.24a10.1 10.1 0 011.93-5.38zm46.14 9.69H1.84v-2.38h51.47z"/><path d="M32.75 22.7a3.14 3.14 0 00-2.93 3 2.9 2.9 0 002.8 2.72 3.06 3.06 0 003-3 3 3 0 00-2.87-2.72zm0 3.94c-.43.07-.9-.5-.88-1a1 1 0 01.83-1c.43-.07.89.51.88 1.1a1 1 0 01-.86.9z"/></svg><svg id="login" data-name="Слой 1" viewBox="0 0 19.5 19.47" xmlns="http://www.w3.org/2000/svg"><defs><style>.atcls-1{fill:#231f20}</style></defs><path class="atcls-1" d="M13.41 12.46a4.73 4.73 0 10-4.73-4.73 4.74 4.74 0 004.73 4.73zm0-8a3.23 3.23 0 11-3.23 3.23 3.24 3.24 0 013.23-3.19zM13.41 14c-4.79 0-9.75 2.15-9.75 5.74v1a1.75 1.75 0 001.75 1.75h16a1.75 1.75 0 001.75-1.75v-1c0-3.62-4.95-5.74-9.75-5.74zm8.25 6.74a.25.25 0 01-.25.25h-16a.25.25 0 01-.25-.25v-1c0-2.53 4.27-4.24 8.25-4.24s8.25 1.71 8.25 4.24z" transform="translate(-3.66 -3)"/></svg><svg data-name="Слой 1" viewBox="0 0 60.23 56" id="marka_n1" xmlns="http://www.w3.org/2000/svg"><path d="M8.03 56H4.14A3.85 3.85 0 010 51.87v-30.7a3.85 3.85 0 014.14-4.14h8a3.91 3.91 0 014.19 4.17v1.95l1.52-1.6c.53-.54 1-1.09 1.55-1.66a29.22 29.22 0 005.39-9.6c.38-1 .78-2.06 1.19-3.09.51-1.29 1-2.64 1.5-4a4.17 4.17 0 014.15-3.21 7.16 7.16 0 011.82.25 6.54 6.54 0 014.11 3.13 6.85 6.85 0 01.57 5.36c-.57 1.91-1.16 3.81-1.74 5.72l-.86 2.77-.13.45-.2.75h19.4a5.37 5.37 0 015.36 3.77 5.28 5.28 0 01-2.66 6.28l-.43.21-.56.27.2.33a5.53 5.53 0 01.6 4.59 5.65 5.65 0 01-3.23 3.43l-.32.14.13.32c1.59 3.88.85 6.07-2.73 8.08l-.33.18.2.32a5.27 5.27 0 01.77 3.92 5.16 5.16 0 01-5.09 4.29h-6.82c-3.54 0-6.8 0-10-.1a21.51 21.51 0 01-10.19-3l-1.81-1-1.44-.82v2.12a3.91 3.91 0 01-4.19 4.17zM4.24 19.12c-1.47 0-2.12.65-2.12 2.11v30.48c0 1.48.65 2.14 2.11 2.14h7.7c1.62 0 2.22-.6 2.22-2.22V21.31c0-1.53-.62-2.16-2.14-2.16H4.24zm39.38 33.3h2.93a3.14 3.14 0 003-2.78 3.17 3.17 0 00-2.29-3.43 4.06 4.06 0 00-1.14-.12H42.27a1.07 1.07 0 01-1.2-1c0-.64.46-1.05 1.23-1.08h6.63a4.61 4.61 0 001.35-.19 3.15 3.15 0 002.08-3.48 3.1 3.1 0 00-3-2.67h-5.58a1.37 1.37 0 01-1-.37 1 1 0 01-.24-.81c.07-.83.84-1 1.29-1h7.91a4.69 4.69 0 001.21-.12 3.18 3.18 0 002.31-3.35 3.11 3.11 0 00-3-2.86H45.6c-1.64 0-1.64-.8-1.65-1.07a.91.91 0 01.25-.68 1.94 1.94 0 011.38-.4h9.44a3.08 3.08 0 003-2.23 3 3 0 00-1.22-3.5 4.35 4.35 0 00-2.17-.59H36.02a2.53 2.53 0 01-2.65-3.56c.28-.93.57-1.85.86-2.78.64-2.06 1.3-4.19 1.9-6.3a4.48 4.48 0 00-.68-3.88 4.56 4.56 0 00-3.51-1.91h-.34c-1.11 0-1.61.37-2.06 1.54l-.85 2.22c-.83 2.17-1.67 4.34-2.5 6.52a29.48 29.48 0 01-9.31 12.78 1.44 1.44 0 00-.58 1.23v19.93a1.33 1.33 0 00.8 1.35c.76.4 1.51.83 2.26 1.27l1.08.62a21.28 21.28 0 0010.43 2.84H43.6z"/></svg><svg id="matras_jestkost" viewBox="0 0 13.81 15.25" xmlns="http://www.w3.org/2000/svg"><defs><style>.avcls-1{fill:#231f20}</style></defs><path class="avcls-1" d="M491.84 1622.78h12.55a.63.63 0 100-1.25h-12.55a.63.63 0 100 1.25zM491.51 1615.69l6.28 3.89a.63.63 0 00.33.09.66.66 0 00.33-.09l6.27-3.89a.62.62 0 00-.33-1.16h-12.55a.63.63 0 00-.33 1.16zm10.69.09l-4.08 2.53-4.09-2.53zM504.94 1629.09v-.12a.37.37 0 00-.05-.11l-.06-.1-.1-.09h-.05l-6.24-3.89h-.65l-6.24 3.89h-.05l-.09.09a.36.36 0 00-.07.1 1.17 1.17 0 00-.05.11.5.5 0 000 .12.14.14 0 000 .07v.13a.36.36 0 000 .11.54.54 0 00.15.15h.07a.6.6 0 00.27.07h12.48a.68.68 0 00.28-.07h.06a.75.75 0 00.16-.15.36.36 0 000-.11.31.31 0 000-.13s.18-.05.18-.07zm-6.86-3.09l4.06 2.53H494z" transform="translate(-491.21 -1614.53)"/></svg><svg id="matras_ves" viewBox="0 0 15.47 17.25" xmlns="http://www.w3.org/2000/svg"><defs><style>.awcls-1{fill:#231f20}</style></defs><path class="awcls-1" d="M1394.41 843.24a.62.62 0 01-.32-.09l-7.11-4.24a.6.6 0 01-.3-.53.62.62 0 01.3-.54l7.11-4.24a.66.66 0 01.64 0l7.11 4.24a.63.63 0 01.31.54.61.61 0 01-.31.53l-7.11 4.24a.59.59 0 01-.32.09zm-5.89-4.86l5.89 3.5 5.89-3.5-5.89-3.51z" transform="translate(-1386.68 -833.52)"/><path class="awcls-1" d="M1394.41 847a.62.62 0 01-.32-.09l-7.11-4.23a.63.63 0 01.64-1.08l6.79 4 6.8-4a.63.63 0 01.63 1.08l-7.11 4.23a.59.59 0 01-.32.09z" transform="translate(-1386.68 -833.52)"/><path class="awcls-1" d="M1394.41 850.77a.62.62 0 01-.32-.09l-7.11-4.24a.62.62 0 01-.21-.85.61.61 0 01.85-.22l6.79 4 6.8-4a.62.62 0 11.63 1.07l-7.11 4.24a.59.59 0 01-.32.09z" transform="translate(-1386.68 -833.52)"/></svg><svg version="1.1" id="matras_visota" x="0" y="0" viewBox="0 0 11.7 17.2" xml:space="preserve" xmlns="http://www.w3.org/2000/svg"><style>.axst0{fill:#231f20}</style><path class="axst0" d="M11.1 0H.6C.3 0 0 .3 0 .6v16c0 .3.3.6.6.6h10.5c.3 0 .6-.3.6-.6V.6c0-.3-.3-.6-.6-.6zm-.6 16H1.2V1.2h9.2v1.9H6.7c-.3 0-.6.4-.5.7s.4.6.7.5h3.5v2.2H4.3c-.3.1-.5.3-.6.6 0 .3.2.7.5.7h6.2v1.9H6.7c-.3 0-.6.4-.5.7s.4.6.7.6h3.5v1.9H4.3c-.3 0-.5.3-.5.5 0 .3.2.7.5.7h6.2V16z"/></svg><svg data-name="Слой 1" viewBox="0 0 73.8 64" id="napishite_zvonite" xmlns="http://www.w3.org/2000/svg"><path d="M71 7.05a2.88 2.88 0 00-.31-.36 21.45 21.45 0 00-4.58-3.92 20.26 20.26 0 00-20.09-.14 1.31 1.31 0 01-1.26.07c-11.34-4.57-22-3.36-32 3.76a37.85 37.85 0 00-3.52 3.08l-.07.07a42.74 42.74 0 00-3.53 4.23 31 31 0 00-5 11.56c-.3 1.48-.48 3-.71 4.47v4.18c.05.23.09.46.13.69.28 1.7.44 3.44.85 5.1a31.82 31.82 0 0035 23.9c10.41-1.33 18.31-6.7 23.68-15.68a30.47 30.47 0 004.21-18.57 1 1 0 01.65-1.15 26.31 26.31 0 004.06-2.58c6-4.94 6.98-12.75 2.49-18.71zm-9.37 28.27a28.2 28.2 0 01-7.4 16.54c-7.71 8.32-17.24 11.49-28.37 9.33A28.32 28.32 0 018.39 50.23a29.2 29.2 0 01-5.87-23 28.91 28.91 0 014.91-12.18s2.39-3 3.27-3.95c.12-.13.25-.23.37-.35 8-7.55 17.41-10 28.11-7.65 1.38.3 2.71.83 4.06 1.25-.06.18-.06.21-.08.22l-.47.45c-3.61 3.48-5.35 7.62-4.4 12.67a14 14 0 005.7 8.71.87.87 0 01.41.95c-.21 1.52-.37 3.05-.52 4.58a1.43 1.43 0 00.77 1.57 1.52 1.52 0 001.72-.34c1.33-1.07 2.66-2.13 4-3.16a1.35 1.35 0 011-.23 20.51 20.51 0 006.44.38c1.28-.13 2.54-.39 3.82-.6a55.72 55.72 0 010 5.77zm7.11-12.74c-4.36 4.83-10 6.21-16.18 5.13-1.66-.28-2.9-.16-4.08 1a25.06 25.06 0 01-2.24 1.75c.15-1.24.23-2.29.42-3.33a2 2 0 00-1-2.23 11.73 11.73 0 01-5.45-9 11.26 11.26 0 014.1-9.5C49.76 1.5 58.68.79 65.16 4.7a36.57 36.57 0 012.79 2.37 11.28 11.28 0 013.11 4.76 10.73 10.73 0 01-2.32 10.75z"/><path d="M33.39 17.23c-.11 1.22-.17 2.44-.34 3.65a4.25 4.25 0 01-3.33 3.74 1.7 1.7 0 00-1.31 1.42 10.53 10.53 0 00.11 5.2 14.39 14.39 0 002.89 6.28 9.09 9.09 0 00.75.77 1.8 1.8 0 001.75.51 4.49 4.49 0 014.84 1.63 42.08 42.08 0 013.58 5.3c1.21 2.18.55 4.16-1.66 5.35a11.45 11.45 0 01-10.4.15 18.28 18.28 0 01-8.53-8.09 34.19 34.19 0 01-4.87-18.61 15 15 0 013.7-9.91 10.8 10.8 0 018.19-3.76 4.16 4.16 0 014.52 4.21v2.16zm-2.2 0h-.06v-2c-.12-1.55-.81-2.22-2.36-2.2a8.61 8.61 0 00-6.49 2.95 12.76 12.76 0 00-3.23 8.49 32.06 32.06 0 004.94 18.2 15.52 15.52 0 007.87 6.88 9.24 9.24 0 007.48-.19c1.5-.73 1.8-1.51 1-2.94s-2-3-3-4.4a2.75 2.75 0 00-3.26-1 2.53 2.53 0 01-2.33-.38 11.73 11.73 0 01-2.13-1.91 16.9 16.9 0 01-3.35-7.93 10.83 10.83 0 01.32-5.89 3.11 3.11 0 012.39-2.24 2.36 2.36 0 002.06-2.43c.05-1.01.09-2.01.15-3.01zM56.53 10.84h7c.9 0 1.38.39 1.38 1.09S64.42 13 63.57 13h-14c-1 0-1.54-.6-1.32-1.35a1.16 1.16 0 011.28-.82zM56.5 18.71h-6.76a4.28 4.28 0 01-.72-.05 1 1 0 01-.85-1.09 1 1 0 01.88-1 4.29 4.29 0 01.72 0H63.3a3.5 3.5 0 01.79.05 1 1 0 01.8 1 1 1 0 01-.76 1.07 3.46 3.46 0 01-.79.06z"/></svg><svg id="phone" viewBox="0 0 19.53 19.54" xmlns="http://www.w3.org/2000/svg"><defs><style>.azcls-1{fill:#231f20}</style></defs><path class="azcls-1" d="M336.94 4436.22a2.25 2.25 0 00-3.18 0l-.88.92a12.23 12.23 0 01-6.08-6.06l.83-.83a2.28 2.28 0 00.08-3.26l-1.17-1.18a2.76 2.76 0 00-3.89 0l-.65.65a4 4 0 00-1.06 3.54 17.64 17.64 0 0013 13 5.12 5.12 0 00.77.07 3.91 3.91 0 002.77-1.13l.65-.65a2.74 2.74 0 000-3.89zm.11 4l-.65.65a2.43 2.43 0 01-2.2.64 16.15 16.15 0 01-11.79-11.78 2.46 2.46 0 01.65-2.2l.65-.66a1.24 1.24 0 01.88-.36 1.28 1.28 0 01.89.36l1.17 1.18a.79.79 0 01-.08 1.14l-.83.83a1.5 1.5 0 00-.32 1.64 13.68 13.68 0 006.86 6.85 1.48 1.48 0 001.62-.31l.92-.92a.75.75 0 011.06 0l1.17 1.17a1.24 1.24 0 010 1.77zM333.94 4430a3.15 3.15 0 01.94 2.31.75.75 0 00.74.76.75.75 0 00.75-.74 4.7 4.7 0 00-4.77-4.77.75.75 0 00-.74.76.71.71 0 00.76.74 3.34 3.34 0 012.32.94z" transform="translate(-320.87 -4423.52)"/><path class="azcls-1" d="M337.83 4426.1a8.74 8.74 0 00-6.21-2.58.75.75 0 100 1.5 7.29 7.29 0 017.28 7.29.75.75 0 001.5 0 8.71 8.71 0 00-2.57-6.21z" transform="translate(-320.87 -4423.52)"/></svg><svg id="play_video" data-name="Слой 1" viewBox="0 0 41.5 41.5" xmlns="http://www.w3.org/2000/svg"><defs><style>.bacls-1{fill:#231f20}</style></defs><path class="bacls-1" d="M250 229.25A20.75 20.75 0 10270.75 250 20.78 20.78 0 00250 229.25zm0 40A19.25 19.25 0 11269.25 250 19.28 19.28 0 01250 269.25z" transform="translate(-229.25 -229.25)"/><path class="bacls-1" d="M255.45 248.84l-3.84-2.21-3.85-2.22a1.33 1.33 0 00-2 1.15v8.88a1.33 1.33 0 002 1.15l3.85-2.22 3.84-2.21a1.34 1.34 0 000-2.32z" transform="translate(-229.25 -229.25)"/></svg><svg id="polezni_otziv" data-name="Слой 1" viewBox="0 0 19.5 17.09" xmlns="http://www.w3.org/2000/svg"><defs><style>.bbcls-1{fill:#231f20}</style></defs><path class="bbcls-1" d="M21.9 11l-.38-.57a2.76 2.76 0 00-2.29-1.22h-2.74V6.32a2.81 2.81 0 00-.63-1.76 2.65 2.65 0 00-2.14-1 2.69 2.69 0 00-2.09 1.06L7.94 9.43a1.76 1.76 0 00-1.23-.51H4.63a1.77 1.77 0 00-1.76 1.77v8.21a1.77 1.77 0 001.76 1.77h2.08a1.75 1.75 0 001.72-1.45l.53.57a2.79 2.79 0 002 .88h7.1a2.75 2.75 0 002.64-2l1.54-5.34A2.7 2.7 0 0021.9 11zM7 18.92a.25.25 0 01-.25.25H4.63a.27.27 0 01-.26-.27v-8.21a.27.27 0 01.26-.27h2.08a.25.25 0 01.25.25zm13.86-6l-1.54 5.34a1.26 1.26 0 01-1.2.91H11a1.28 1.28 0 01-.92-.4l-1.6-1.72v-5.84l4.36-5.67a1.2 1.2 0 01.93-.47 1.2 1.2 0 01.93.44 1.31 1.31 0 01.29.81V10a.75.75 0 00.75.75h3.49a1.26 1.26 0 011 .55l.39.58a1.26 1.26 0 01.2 1.04z" transform="translate(-2.87 -3.57)"/></svg><svg id="pozvonit_video" viewBox="0 0 19.5 12.75" xmlns="http://www.w3.org/2000/svg"><defs><style>.bccls-1{fill:#323232}</style></defs><path class="bccls-1" d="M1459 5334a1.85 1.85 0 00-2 .23l-2.57 2.07v-.71a3 3 0 00-3-3h-7.87a3 3 0 00-3 3v6.75a3 3 0 003 3h7.87a3 3 0 003-3v-.71l2.57 2.07a1.93 1.93 0 001.18.42 2 2 0 00.81-.19 1.85 1.85 0 001.07-1.69v-6.55a1.85 1.85 0 00-1.06-1.69zm-6.06 8.34a1.5 1.5 0 01-1.5 1.5h-7.87a1.5 1.5 0 01-1.5-1.5v-6.75a1.5 1.5 0 011.5-1.5h7.87a1.5 1.5 0 011.5 1.5zm5.63-.1a.37.37 0 01-.61.29l-3.52-2.83v-1.47l3.52-2.83a.35.35 0 01.39-.05.35.35 0 01.22.34z" transform="translate(-1440.58 -5332.54)"/></svg><svg data-name="Слой 1" viewBox="0 0 122.11 32" id="price_category" xmlns="http://www.w3.org/2000/svg"><path d="M11.43 30.1l-9.48-9.53a6.45 6.45 0 010-9.14l9.53-9.54A6.47 6.47 0 0116.05 0h99.6a6.47 6.47 0 016.47 6.46v19.07a6.47 6.47 0 01-6.47 6.47H16a6.44 6.44 0 01-4.57-1.9z"/></svg><svg id="rekomenduem" viewBox="0 0 19.5 19.5" xmlns="http://www.w3.org/2000/svg"><defs><style>.becls-1{fill:#323232}</style></defs><path class="becls-1" d="M558.62 1341.41h-3.25v-3.25a.75.75 0 00-1.5 0v3.25h-3.25a.75.75 0 000 1.5h3.25v3.25a.75.75 0 001.5 0v-3.25h3.25a.75.75 0 100-1.5z" transform="translate(-544.87 -1332.41)"/><path class="becls-1" d="M554.62 1332.41a9.75 9.75 0 109.75 9.75 9.76 9.76 0 00-9.75-9.75zm0 18a8.25 8.25 0 118.25-8.25 8.26 8.26 0 01-8.25 8.25z" transform="translate(-544.87 -1332.41)"/></svg><svg id="search" viewBox="0 0 15.41 15.5" xmlns="http://www.w3.org/2000/svg"><defs><style>.bfcls-1{fill:#231f20}</style></defs><path class="bfcls-1" d="M506.1 620.5l-2.8-2.8a6.78 6.78 0 001.6-4.4 7 7 0 10-7 7 7.23 7.23 0 004.3-1.5l2.8 2.8c.1.2.3.2.5.2a.76.76 0 00.5-.2.71.71 0 00.1-1.1zm-8.2-1.7a5.5 5.5 0 115.5-5.5 5.55 5.55 0 01-5.5 5.5z" transform="translate(-490.9 -606.3)"/></svg><svg id="skachat" viewBox="0 0 20.17 25.5" xmlns="http://www.w3.org/2000/svg"><defs><style>.bgcls-1{fill:#231f20}</style></defs><path class="bgcls-1" d="M395.61 5554.94l-3.77-3.78a3.42 3.42 0 00-2.42-1h-9.56a3.42 3.42 0 00-3.41 3.42v18.67a3.41 3.41 0 003.41 3.41h13.34a3.41 3.41 0 003.41-3.41v-14.9a3.36 3.36 0 00-1-2.41zm-1.06 1.06a1.84 1.84 0 01.48.83h-4.5a.58.58 0 01-.58-.58v-4.5a1.82 1.82 0 01.83.47zm-1.35 18.16h-13.34a1.92 1.92 0 01-1.91-1.91v-18.67a1.92 1.92 0 011.91-1.92h8.59v4.59a2.08 2.08 0 002.08 2.08h4.58v13.92a1.92 1.92 0 01-1.91 1.91z" transform="translate(-376.45 -5550.16)"/><path class="bgcls-1" d="M387.33 5566.38l-1.38 1.39v-6.19a.75.75 0 00-1.5 0v6.19l-1.39-1.39a.75.75 0 10-1.06 1.06l2.67 2.67a.67.67 0 00.24.16.72.72 0 00.29.06.71.71 0 00.28-.06.82.82 0 00.25-.16l2.66-2.67a.74.74 0 000-1.06.75.75 0 00-1.06 0z" transform="translate(-376.45 -5550.16)"/></svg><svg id="skidka" data-name="Слой 1" viewBox="0 0 44.28 24" xmlns="http://www.w3.org/2000/svg"><defs><style>.bhcls-1{fill:#231f20}</style></defs><path class="bhcls-1" d="M10-2.26L2.85-9.41a4.86 4.86 0 010-6.86L10-23.42a4.86 4.86 0 013.43-1.42h27.43A4.85 4.85 0 0145.71-20v14.3a4.85 4.85 0 01-4.85 4.86H13.43A4.86 4.86 0 0110-2.26z" transform="translate(-1.43 24.84)"/></svg><svg id="sravnenie" viewBox="0 0 19.5 19.5" xmlns="http://www.w3.org/2000/svg"><defs><style>.bicls-1{fill:#231f20}</style></defs><path class="bicls-1" d="M663.68 2930.33a.74.74 0 01-.75-.75v-8a.75.75 0 011.5 0v8a.75.75 0 01-.75.75zM675.68 2930.33a.74.74 0 01-.75-.75v-13a.75.75 0 011.5 0v13a.75.75 0 01-.75.75zM669.68 2930.33a.74.74 0 01-.75-.75v-18a.75.75 0 011.5 0v18a.75.75 0 01-.75.75zM657.68 2930.33a.74.74 0 01-.75-.75v-13a.75.75 0 011.5 0v13a.75.75 0 01-.75.75z" transform="translate(-656.93 -2910.83)"/></svg><svg data-name="Слой 1" viewBox="0 0 63.99 64" id="videokonsultaciya" xmlns="http://www.w3.org/2000/svg"><path d="M62.34 15.86a5.48 5.48 0 00-3.89-1.4H44.38v-2a12.19 12.19 0 00-6.22-10.84 12.36 12.36 0 00-18 7.3 24.81 24.81 0 00-.5 3.76 16.86 16.86 0 000 1.75H5.51a5 5 0 00-5 2.93 5.7 5.7 0 00-.54 2.41v32.67a5.25 5.25 0 005.46 5.34H18.55v3.85c0 .1-.32.26-.5.27h-3.56v2.11h35v-2.07h-3.31c-.62 0-.83-.14-.79-.79.06-1.07 0-2.16 0-3.32h13.06a5.15 5.15 0 005-3 10.56 10.56 0 00.52-1.59V19.01a5.79 5.79 0 00-1.63-3.15zm-40-7.13a10.32 10.32 0 0119.63 1.06 26.73 26.73 0 01.35 6.11c-.74-.15-1.39-.26-2-.41a.71.71 0 01-.44-.33c-1.28-2.42-3.38-3.35-6-2.39a5.3 5.3 0 01-3.88 0 4.47 4.47 0 00-5.89 2.4.75.75 0 01-.44.34c-.64.15-1.28.26-2 .4.04-2.43-.21-4.84.68-7.18zm20 10.85a2 2 0 01-2.06 2v-4a1.92 1.92 0 012.03 2zm0 17.62v6.14H21.71v-6.15h-2v6.13h-4.09v-.45-4.31a5.09 5.09 0 013.56-5c1.35-.46 2.74-.81 4.15-1.23 1.08 2.5 2.14 5 3.22 7.49l1.94-1.54c1-.84 2.12-1.67 3.16-2.54a.6.6 0 01.94 0c1.46 1.21 3 2.38 4.43 3.56l.68.53 1.62-3.76c.53-1.22 1-2.44 1.6-3.74 1.59.49 3.21.86 4.71 1.49a4.61 4.61 0 012.94 4c.14 1.79 0 3.61 0 5.46h-4.06v-6.12zm-11.89-3.19l-3.2 2.56-2-4.75c.74-.22 1.41-.43 2.09-.6a.61.61 0 01.48.14c.89.83 1.7 1.7 2.63 2.65zm-1.62-5.69a8.64 8.64 0 006.21 0 1.64 1.64 0 01-.48 1.74c-.88.78-1.67 1.66-2.55 2.55l-3-3c-.19-.26-.11-.79-.18-1.32zm7.91 8.25l-3.19-2.55c.94-.94 1.82-1.84 2.73-2.72a.44.44 0 01.38-.1c.7.19 1.39.4 2.12.62-.69 1.56-1.35 3.11-2.07 4.72zm-4.75-9.69a6.12 6.12 0 01-5.84-4.34 13.75 13.75 0 01-.34-2.95 18.81 18.81 0 010-2.81 2.45 2.45 0 013.24-2.16c.84.25 1.65.56 2.49.8a1.67 1.67 0 00.83 0c.82-.24 1.62-.54 2.44-.78a2.47 2.47 0 013.31 2.21c.06.76 0 1.54 0 2.31h.16a27 27 0 01-.49 3.38 6.13 6.13 0 01-5.8 4.31zm-8.26-9.22v4a1.93 1.93 0 01-2-1.93 2 2 0 011.98-2.1zm-21.66 2.4a3.16 3.16 0 013.51-3.52h14v2.87a4.28 4.28 0 00.83 2.7 4.13 4.13 0 003.41 1.66.79.79 0 01.75.48 15.22 15.22 0 001.62 2.26 1.89 1.89 0 01.64 1.51c-.08 1.45.23 1.08-1.12 1.48-2.3.7-4.62 1.36-7 2a7.16 7.16 0 00-5.31 6.52c-.07 2.43 0 4.87 0 7.35h37.13v-1.13c0-2.08 0-4.17-.08-6.24a7.15 7.15 0 00-5.34-6.5c-2.46-.69-4.91-1.43-7.37-2.11-.53-.15-.73-.38-.66-.9a7.18 7.18 0 010-.81 2.62 2.62 0 01.38-.91c.61-.87 1.27-1.69 1.87-2.56.19-.27.32-.44.7-.45a4.14 4.14 0 004.27-4.38v-2.87h14.12a3.12 3.12 0 013.42 3.36V49.54h-43.4a1.9 1.9 0 01-1.14-.34 7.5 7.5 0 00-5.64-1.73c-3 .16-5.91 0-8.87 0h-.73v-.71zm56.42 35.71H22.76v2.06h20.56v4.08H20.64v-6.14h-15c-2.29 0-3.52-1.21-3.53-3.49V49.6h11.53a1.56 1.56 0 011 .31c1.7 1.51 3.67 1.82 5.92 1.8 13.51-.08 27 0 40.55 0h.79a3.22 3.22 0 01-3.41 4.03z"/><path d="M4.17 28.87h13.32v-2H4.17zM4.18 22.76v2h13.31v-2zM17.5 18.64H4.17v2H17.5zM59.83 33.06h-7.12v2h7.16zM52.71 37.19v2h7.16v-2zM52.71 43.33h7.16v-2h-7.16zM52.71 47.46h7.16v-2h-7.16zM4.17 53.63h2v-2h-2zM8.29 53.61h2v-1.94h-2zM12.41 53.62h2v-2h-2z"/></svg><svg id="vk" data-name="Слой 1" viewBox="0 0 41 41" xmlns="http://www.w3.org/2000/svg"><defs><style>.bkcls-1{fill:#231f20}</style></defs><path class="bkcls-1" d="M250 229.5a20.5 20.5 0 1020.5 20.5 20.53 20.53 0 00-20.5-20.5zm0 40a19.5 19.5 0 1119.5-19.5 19.53 19.53 0 01-19.5 19.5z" transform="translate(-229.5 -229.5)"/><path class="bkcls-1" d="M259.94 256.28a14.76 14.76 0 00-3.76-4.5.6.6 0 01-.06-.83 35.56 35.56 0 003.52-5.36.6.6 0 00-.52-.89H256a28.63 28.63 0 01-3.89 5.78.45.45 0 01-.75-.33v-5a.45.45 0 00-.45-.44h-3.84a.45.45 0 00-.33.75l.06.07a3.06 3.06 0 01.78 2.06v3.49a.45.45 0 01-.63.41c-1.83-.84-3.12-3.84-4.07-6.59a.29.29 0 00-.28-.2h-3.1a.45.45 0 00-.45.49 12.1 12.1 0 00.83 3.35c1.41 3.57 4.33 7.21 8.18 8.24.65.17 3.3.85 3.3-.38v-2.49c.59-1.59 2.78 1 4.82 3.21h3.22a.6.6 0 00.55-.84z" transform="translate(-229.5 -229.5)"/></svg></svg>