<svg width="65" height="65" fill="none" xmlns="http://www.w3.org/2000/svg"><path d="M47.67.53c.94.16 1.89.27 2.81.5 6.56 1.67 11.04 5.71 13.15 12.12 1.85 5.61 1.03 10.99-2.36 15.87-.86 1.23-1.99 2.29-3.03 3.38-.29.31-.46.57-.45 1.01.02 2.1 0 4.21.01 6.31 0 .63-.12 1.17-.75 1.45-.65.29-1.16 0-1.62-.46-1.37-1.37-2.74-2.73-4.1-4.11-.24-.25-.46-.3-.81-.24-4.08.75-8.16.85-12.19-.22-4.41-1.17-7.84-3.78-10.33-7.58-2.3-3.52-3.26-7.4-2.84-11.59.51-5.12 2.81-9.31 6.82-12.53C34.8 2.18 38.03.92 41.63.6c.1-.01.2-.06.29-.09 1.91.02 3.83.02 5.75.02zm7.62 36.53c0-1.29.09-2.4-.02-3.49-.15-1.42.42-2.32 1.49-3.23 3-2.54 4.68-5.86 5.15-9.75.51-4.29-.57-8.19-3.25-11.58-2.48-3.15-5.72-5.15-9.71-5.71-1.9-.27-3.86-.24-5.79-.26-2.21-.02-4.35.42-6.35 1.38-5.08 2.42-8.22 6.39-9.04 11.96-.87 5.89 1.15 10.78 5.73 14.56 2.63 2.17 5.72 3.28 9.14 3.39 2.68.09 5.38.22 8-.56.77-.23 1.36-.07 1.91.51.84.9 1.73 1.77 2.74 2.78z" fill="#00BAC1"/><path d="M.54 30.029c.44-1.2.71-2.5 1.35-3.58 1.55-2.61 3.97-4.06 7-4.13 4.29-.11 12.41-.04 16.7-.03.82 0 1.37.52 1.39 1.22.01.74-.57 1.27-1.47 1.27-3.98.01-11.79 0-15.77 0-4.03 0-6.71 2.66-6.71 6.67v18.44c0 3.95 2.68 6.64 6.62 6.64 2.48 0 4.96.01 7.44-.01.61 0 1.03.22 1.45.68.93 1.01 1.94 1.93 3 2.95v-2.07c.01-1.1.47-1.55 1.57-1.55h12.75c3.99 0 6.67-2.67 6.67-6.64v-12.94c0-.25 0-.5.05-.74.13-.58.65-.99 1.21-.98.55.01 1.03.4 1.17.96.05.2.06.41.06.62 0 2.75.02 10.69 0 13.44-.04 4.22-2.8 7.65-6.91 8.57-.7.16-1.44.2-2.17.21-3.94.02-7.87.01-11.91.01v1.67c0 .71-.03 1.42.01 2.12.05.76-.2 1.34-.88 1.7h-.75c-.42-.37-.85-.72-1.25-1.11-1.35-1.33-2.67-2.68-4.03-4-.22-.21-.6-.37-.91-.38-2.43-.03-4.87.05-7.3-.05-3.05-.12-5.48-1.52-7.04-4.15-.64-1.08-.91-2.37-1.35-3.57.01-7.07.01-14.16.01-21.24z" fill="#00BAC1"/><path d="M21.79 39.279h12.62c.21 0 .42-.01.62.02.65.1 1.12.62 1.12 1.23s-.47 1.13-1.12 1.23c-.2.03-.42.02-.62.02H8.91c-1.01-.01-1.62-.47-1.62-1.25s.6-1.25 1.62-1.25h12.88zm-2.56 9.5H9.05c-.21 0-.42.01-.62-.02-.65-.1-1.12-.61-1.12-1.23 0-.61.46-1.13 1.11-1.23.16-.03.33-.02.5-.02h20.74c.65 0 1.22.14 1.49.79.35.84-.25 1.67-1.23 1.7-.92.03-1.83.01-2.75.01h-7.94zm-1.56-14H9.05c-.21 0-.42.01-.62-.02-.65-.1-1.12-.62-1.12-1.23s.47-1.13 1.12-1.23c.2-.03.42-.02.62-.02h17.38c1.01.01 1.62.47 1.62 1.25s-.6 1.25-1.62 1.25h-8.76zM36.16 47.51c.01.65-.57 1.25-1.22 1.26-.65.01-1.25-.57-1.26-1.22-.01-.65.57-1.25 1.22-1.26.64-.01 1.24.57 1.26 1.22zm7.75-26.54c0-.48-.02-.96 0-1.44.05-1.04.58-1.75 1.55-2.13.23-.09.48-.15.71-.24a2.78 2.78 0 001.71-3.13c-.27-1.34-1.49-2.3-2.84-2.24a2.771 2.771 0 00-2.64 2.39c-.03.21-.06.41-.1.62-.14.66-.64 1.04-1.3 1-.63-.04-1.12-.53-1.12-1.2-.01-1.61.59-2.98 1.82-4.01 1.72-1.44 3.69-1.74 5.71-.76 2.06 1 3.05 2.75 2.99 5.05-.05 2.02-1.48 3.97-3.43 4.63-.46.15-.61.36-.58.83.04.68.02 1.37.01 2.06-.02.9-.55 1.49-1.29 1.46-.73-.02-1.2-.58-1.21-1.46 0-.47 0-.95.01-1.43 0 0-.01 0 0 0zm2.48 6.6c0 .66-.58 1.22-1.25 1.22-.68 0-1.23-.55-1.23-1.23 0-.67.56-1.23 1.23-1.23.67.01 1.25.59 1.25 1.24z" fill="#00BAC1"/></svg>