<svg width="65" height="65" fill="none" xmlns="http://www.w3.org/2000/svg"><path d="M62.63 16.85c-1.1-1.01-2.41-1.4-3.89-1.4-4.42.02-8.83.01-13.25.01h-.83c0-.69.01-1.33 0-1.96-.09-4.75-2.16-8.4-6.23-10.84-6.76-4.07-16.01-.32-18.02 7.3-.32 1.21-.37 2.5-.51 3.76-.06.55-.01 1.11-.01 1.75h-.79c-4.44 0-8.87.01-13.31 0-2.24-.01-3.98.89-4.96 2.93-.35.72-.53 1.6-.53 2.4C.27 31.69.28 42.58.28 53.48c0 2.99 2.27 5.37 5.46 5.33 4.1-.04 8.21-.01 12.31-.01h.82c0 1.33.01 2.59-.02 3.85 0 .1-.33.26-.5.26-1.16.02-2.33.01-3.56.01v2.07h35v-2.07c-1.12 0-2.21-.04-3.31.01-.63.03-.83-.14-.8-.79.06-1.08.02-2.16.02-3.32.28-.01.52-.03.76-.03 4.1 0 8.2-.01 12.3 0 2.27.01 3.98-.91 5.01-2.96.25-.49.35-1.06.52-1.59V19.99c-.28-1.19-.73-2.29-1.66-3.14zM22.64 9.72c1.48-3.89 5.49-6.98 10.55-6.63 4.12.28 8.02 3.51 9.08 7.68.52 2.03.3 4.09.35 6.11-.74-.15-1.39-.26-2.02-.41-.17-.04-.37-.18-.44-.32-1.27-2.42-3.38-3.35-5.94-2.39-1.35.5-2.54.46-3.88-.02-2.52-.92-4.66.02-5.9 2.41-.08.15-.27.3-.44.34-.64.15-1.29.26-2.01.4.05.04.01.02 0 0l-.01-.01h.01c-.02-2.41-.24-4.82.65-7.16zM42.6 20.57c.03 1.15-.89 2.08-2.06 2.03v-3.96c1.11-.1 2.03.78 2.06 1.93zm.01 17.62v6.13H21.98v-6.14h-2.05v6.13h-4.09c-.02-.14-.05-.3-.05-.46 0-1.44-.02-2.87 0-4.31.03-2.37 1.32-4.21 3.56-4.97 1.35-.46 2.74-.82 4.15-1.23 1.08 2.5 2.13 4.96 3.22 7.49.67-.53 1.31-1.03 1.94-1.54 1.06-.84 2.13-1.67 3.16-2.55.35-.29.57-.32.94-.01 1.46 1.21 2.95 2.38 4.43 3.56.21.17.42.33.68.53.56-1.29 1.09-2.53 1.62-3.77.52-1.22 1.05-2.44 1.6-3.73 1.59.49 3.2.86 4.7 1.48 1.73.72 2.79 2.17 2.94 4.04.14 1.8.03 3.61.03 5.47h-4.05v-6.12h-2.1zm-11.87-3.22c-1.07.85-2.1 1.68-3.19 2.56-.68-1.59-1.35-3.13-2.04-4.75.74-.22 1.41-.43 2.09-.6.14-.04.37.04.48.15.87.85 1.73 1.72 2.66 2.64zm-1.62-5.69c2.14.78 4.18.79 6.21.04.13.71.07 1.24-.48 1.73-.88.78-1.68 1.66-2.56 2.55-1.03-1.03-2.05-1.98-2.97-3.02-.21-.24-.13-.77-.2-1.3zm7.91 8.25c-1.08-.87-2.11-1.69-3.19-2.55.94-.94 1.83-1.84 2.73-2.72.08-.08.27-.12.39-.09.7.19 1.39.4 2.12.62-.7 1.58-1.36 3.13-2.05 4.74zm-4.75-9.69c-2.64 0-5.15-1.8-5.85-4.34-.26-.94-.29-1.96-.34-2.95-.05-.93-.05-1.88.04-2.81.15-1.65 1.65-2.63 3.24-2.16.84.25 1.65.56 2.49.8.26.07.57.07.83 0 .82-.23 1.62-.54 2.43-.78 1.66-.5 3.15.48 3.31 2.21.07.76.01 1.54.01 2.31.05.01.11.01.16.02-.15 1.13-.18 2.29-.48 3.37-.68 2.53-3.2 4.33-5.84 4.33zm-8.26-9.22v3.97c-1.09.1-2.02-.78-2.05-1.93-.03-1.16.88-2.08 2.05-2.04zm-21.66 2.4c0-2.29 1.24-3.52 3.51-3.52H19.9c0 .98.01 1.92 0 2.87-.01.99.23 1.9.83 2.69.85 1.13 2.01 1.65 3.4 1.66.4 0 .55.17.75.48.5.79 1 1.59 1.63 2.27.43.46.67.87.63 1.51-.08 1.45.23 1.07-1.11 1.48-2.31.69-4.63 1.36-6.95 2.01-3.05.86-5.22 3.52-5.31 6.52-.07 2.43-.02 4.87-.02 7.35h37.12v-1.13c-.02-2.08.01-4.17-.07-6.25-.12-2.96-2.25-5.63-5.34-6.5-2.46-.69-4.91-1.43-7.38-2.11-.52-.14-.73-.37-.66-.9.04-.27-.04-.55.02-.81.08-.32.2-.65.38-.91.61-.86 1.27-1.68 1.86-2.55.19-.28.32-.45.7-.46 2.6-.07 4.25-1.78 4.27-4.38.01-.92 0-1.83 0-2.84h14.13c2.13 0 3.41 1.24 3.42 3.36.01 9.73.01 19.46 0 29.18 0 .12-.02.25-.03.48h-.72c-14.23 0-28.46 0-42.68-.01-.39 0-.86-.11-1.14-.35-1.64-1.4-3.48-1.84-5.63-1.72-2.95.16-5.91.04-8.87.04H2.4c-.01-.27-.04-.49-.04-.71V21.02zm56.42 35.71H23.04v2.06h20.57v4.08H20.93v-6.14H5.89c-2.29 0-3.52-1.21-3.53-3.49v-2.68c.26-.01.46-.03.66-.03 3.62 0 7.25-.01 10.87.01.33 0 .73.1.97.31 1.71 1.51 3.68 1.81 5.92 1.8 13.52-.09 27.04-.04 40.56-.04h.79c.48 2.36-.96 4.12-3.35 4.12z" fill="#00BAC1"/><path d="M4.46 29.861h13.32v-1.99H4.46v1.99zm.01-6.111v1.98h13.32v-1.98H4.47zm13.32-4.12H4.46v1.96h13.33v-1.96zm42.33 14.42h-7.16v2.02h7.16v-2.02zm-7.16 4.13v2.01h7.15v-2.01h-7.15zm0 6.14h7.16V42.3h-7.16v2.02zm0 4.13h7.16v-2.01h-7.16v2.01zm-48.5 6.17h1.97v-1.98H4.46v1.98zm4.12-.02h2.01v-1.95H8.58v1.95zm4.12.01h2.01v-1.97H12.7v1.97z" fill="#00BAC1"/></svg>