<svg width="64" height="64" fill="none" xmlns="http://www.w3.org/2000/svg"><path d="M60.793 2.448c-.25-.47-.67-.6-1.19-.45-3.34.91-6.44 2.3-9.1 4.54-3.28 2.76-4.64 6.3-4.17 10.55.08.68.18 1.36.26 1.95-1.4-1.18-2.83-2.37-4.24-3.59-.4-.35-.76-.78-1.07-1.22-1.31-1.92-4.56-6.99-7.76-9.8-4.03-3.43-8.59-5.11-13.92-4.17-5.85 1.03-10.7 4.02-15.14 7.8-.45.39-.48.86-.22 1.38 1.22 2.4 2.63 4.7 4.36 6.76 1.3 1.54 2.72 2.97 4.14 4.5-.03.03-.11.11-.19.18-5.66 5.14-8.23 11.54-7.23 19.12 1.07 8.13 5.56 13.92 13.05 17.21 4.61 2.03 10.21 1.77 12.68 1.25 9.22-1.94 16.55-9.78 17.27-19.14.65-8.31-2.51-14.94-9.21-19.88-.15-.11-.3-.23-.47-.36.9-.7 1.75-1.37 2.63-2.06.19.14.38.26.55.39 7.81 6.37 11.16 14.54 9.34 24.49-2.74 14.96-18.22 23.8-32.61 18.81-11.28-3.91-18.22-15.46-16.37-27.25.12-.78-.12-1.22-.74-1.31-.64-.1-.97.2-1.1 1.01-.56 3.4-.43 6.78.36 10.12 3.74 15.92 20.61 24.79 35.86 18.87 12.15-4.72 19.21-17.85 16.37-30.54-.38-1.7-.96-3.35-1.47-5.08-.04.03-.01-.01.03-.02.14-.06.29-.11.44-.16 2.78-.92 5.4-2.16 7.66-4.06 2.38-2 3.97-4.47 4.27-7.64.42-4.43-1-8.4-3.07-12.2zm-40.65-.39c.14-.03.34.12.5.2.05.03.08.1.12.16 2.4 3.27 4.79 6.54 7.3 9.97-.79-.14-1.42-.25-2.05-.37-1.61-.31-3.22-.62-4.83-.95-.24-.05-.51-.19-.65-.38-1.72-2.31-3.42-4.64-5.12-6.97-.05-.07-.08-.15-.21-.41 1.7-.44 3.31-.86 4.94-1.25zm7.7 12.29c-.79.58-1.54 1.13-2.28 1.67-2.38 1.74-4.76 3.48-7.13 5.24-.35.26-.61.31-1.01.1-1.64-.87-3.12-1.94-4.52-3.26.25-.19.46-.36.68-.52 2.04-1.49 4.07-3 6.12-4.47.23-.16.58-.29.83-.25 2.33.42 4.66.89 6.98 1.35.1.01.18.07.33.14zm-14.34-10.07c1.49 2.04 2.96 4.05 4.51 6.16-3.68-.72-7.21-1.4-10.77-2.1.65-.85 4.5-3.35 6.26-4.06zm-1.94 12.46c-1.83-1.97-3.37-4.12-4.77-6.58 3.67.72 7.18 1.4 10.85 2.12-2.1 1.54-4.06 2.98-6.08 4.46zm1.92 35.02c-4.79-2.69-8.11-14.27-5.68-19.94.51.93 1.03 1.8 1.48 2.71.71 1.45 1.79 2.33 3.37 2.75 1.99.54 2.1.85 1.27 2.76-.52 1.2-1.11 2.37-1.64 3.56-.61 1.37-.7 2.68.19 4.03.8 1.24 1.12 2.99 1.01 4.13zm32.65-18.58c.04.15.08.3.1.45.43 2.38.41 4.77.01 7.16-1.4 8.28-8.54 15.14-16.88 16.02-4.73.5-8.39-.09-13.64-3.16-.33-.19-.45-.41-.4-.8.26-1.97.01-3.92-.99-5.61-.8-1.35-.66-2.48.02-3.71.17-.31.32-.64.46-.96.45-1.08.97-2.15 1.32-3.26.45-1.43-.12-2.6-1.47-3.26-.52-.25-1.06-.48-1.62-.61-1-.22-1.61-.81-2.08-1.69-.72-1.35-1.52-2.66-2.27-3.99a.7.7 0 01-.04-.53c1.32-2.95 3.24-5.44 5.68-7.39 1.32.65 2.53 1.37 3.83 1.86 1.28.49 2.64.75 3.98 1.12-.18.16-.36.31-.54.48-1.47 1.34-2.53 2.9-2.79 4.93-.42 3.31 1.87 6.23 5.18 6.35 1.52.05 3.05-.2 4.56-.39 1.9-.23 2.1-.14 2.19 1.79.1 2.26.06 4.53.17 6.79.06 1.14.19 2.31.5 3.41.55 1.91 2.11 2.77 4 2.13 3.14-1.07 5.24-3.25 5.98-6.5.24-1.07-.06-2.28-.18-3.42-.19-1.84-.28-3.66 1.3-4.98 1.08-.9 2.27-1.68 3.44-2.53.13.19.16.24.18.3zm-.65-2.38c.03.08.05.16.07.24-.96.6-1.9 1.18-2.84 1.77-2.83 1.79-3.9 4.37-3.37 7.64.07.42.13.83.19 1.25.43 2.78-1.88 6.18-4.64 6.83-.92.22-1.51-.05-1.71-.99-.23-1.03-.35-2.1-.4-3.16-.09-2.22-.06-4.44-.17-6.66-.04-.74-.26-1.49-.54-2.18-.43-1.06-1.24-1.52-2.39-1.4-1.15.12-2.28.32-3.43.47-.55.07-1.11.12-1.66.12-2.81.02-4.59-2.43-3.74-5.13.5-1.6 1.63-2.72 2.94-3.69.55-.41 1.12-.8 1.69-1.19.12-.08.27-.15.42-.17 3.76-.52 7.16-2 10.36-3.98.46-.29.79-.29 1.24.01 3.79 2.54 6.48 5.92 7.98 10.22zm-6.73-14.2c-3.56 2.72-7.38 4.93-11.81 5.89-2.24.49-4.49.52-6.87-.12l2.03-1.49c2.63-1.93 5.26-3.86 7.91-5.78.22-.16.58-.29.84-.24 2.57.47 5.14.99 7.71 1.49.09.02.17.05.28.09-.04.07-.05.13-.09.16zm.45-2.02c-2.72-.53-5.44-1.06-8.15-1.61-.2-.04-.4-.25-.54-.43-2.49-3.38-4.97-6.77-7.45-10.15-.1-.13-.17-.28-.3-.49 1.59 0 3.03.32 4.43.84 1.89.71 3.55 1.81 5.11 3.09.11.16 2.75 2.66 3.99 4.22 1.11 1.4 2.03 2.94 3.05 4.41-.05.02-.09.07-.14.12zm12.3-6.41c1.94-1.74 4.22-2.88 6.81-3.83-1.48 3.55-2.9 6.94-4.38 10.47-.89-2.16-1.73-4.18-2.55-6.2-.04-.12.02-.36.12-.44zm-1.16 15.23c-.03.08-.1.14-.15.22-2.3-4.56-3.04-10.31-.32-13.62.08.14.16.26.21.38.89 2.15 1.78 4.29 2.65 6.45.09.22.11.53.03.74-.79 1.95-1.61 3.89-2.42 5.83zm10.02-4.64c-1.47 2-3.46 3.36-5.65 4.45-.83.41-1.7.75-2.55 1.12-.04-.04-.08-.08-.12-.13.75-1.79 1.54-3.57 2.22-5.39.33-.88.84-1.39 1.73-1.72 1.99-.74 3.93-1.59 5.97-2.43-.18 1.57-.72 2.9-1.6 4.1zm1.4-6.07c-1.92.81-3.84 1.6-5.93 2.46 1.43-3.42 2.8-6.7 4.21-10.08 1.09 2.36 1.82 4.7 1.99 7.18.01.15-.14.39-.27.44z" fill="#00BAC1"/></svg>