<svg width="61" height="57" fill="none" xmlns="http://www.w3.org/2000/svg"><path d="M8.43 56.88c-1.3 0-2.59 0-3.89-.01C1.99 56.86.4 55.28.4 52.74.39 42.51.39 32.28.4 22.05c0-2.54 1.59-4.12 4.14-4.13 1.3 0 2.59-.01 3.89-.01 1.36 0 2.72 0 4.08.01 2.57.01 4.17 1.61 4.19 4.17v.98l-.03.96s1.29-1.36 1.52-1.6c.52-.54 1.05-1.09 1.55-1.66 2.23-2.55 3.95-5.6 5.4-9.6.38-1.04.78-2.06 1.18-3.09.51-1.3 1.04-2.64 1.5-3.99.73-2.13 2.13-3.21 4.15-3.21.56 0 1.17.08 1.82.25a6.54 6.54 0 014.11 3.13c.92 1.62 1.12 3.53.58 5.36-.57 1.91-1.16 3.81-1.75 5.72l-.86 2.78-.13.45-.21.75h19.49c2.59 0 4.64 1.45 5.36 3.77.76 2.45-.36 5.09-2.66 6.28-.14.07-.29.14-.43.21l-.56.27.2.33c.87 1.46 1.09 3.08.6 4.59-.48 1.51-1.63 2.73-3.24 3.43l-.32.14.13.32c1.59 3.88.85 6.07-2.73 8.08l-.32.18.2.31c.78 1.23 1.03 2.55.76 3.92-.5 2.55-2.54 4.27-5.09 4.3-2.27.02-4.54.04-6.81.04-3.54 0-6.81-.03-9.98-.1-3.4-.07-6.73-1.04-10.19-2.96-.59-.33-1.18-.66-1.81-1.02l-1.44-.82v2.12c-.02 2.57-1.62 4.17-4.19 4.17H8.43zM4.64 20.03c-1.47 0-2.13.65-2.13 2.12v30.48c0 1.47.65 2.13 2.11 2.14h7.7c1.62 0 2.22-.6 2.22-2.22V22.21c0-1.54-.62-2.17-2.14-2.17H8.52l-3.88-.01zm39.38 33.3c.98 0 1.95 0 2.93-.02 1.54-.03 2.85-1.23 3.04-2.79.19-1.54-.8-3.01-2.29-3.43-.38-.1-.77-.12-1.14-.12h-2.45c-.47 0-.93 0-1.4-.01-.73-.01-1.18-.42-1.2-1.05-.01-.64.46-1.06 1.22-1.09h3.65c.99 0 1.99 0 2.98-.01.55 0 .98-.06 1.35-.18 1.44-.48 2.29-1.91 2.08-3.48a3.098 3.098 0 00-2.99-2.67c-.76-.02-1.53-.02-2.29-.02h-2.07c-.41 0-.82 0-1.23-.01-.46 0-.82-.13-1.04-.37-.18-.2-.26-.48-.24-.81.07-.83.84-.96 1.29-.96 1.03 0 6.88 0 7.91-.01.37 0 .81-.01 1.21-.12 1.47-.4 2.48-1.87 2.31-3.35-.19-1.66-1.44-2.84-3.03-2.87-1.04-.02-2.07-.02-3.11-.02h-3.54c-1.64 0-1.64-.8-1.65-1.07 0-.29.08-.51.24-.68.26-.26.74-.4 1.38-.4h4.76c1.56 0 3.12 0 4.67-.01 1.39-.01 2.55-.88 2.96-2.23.43-1.39-.07-2.83-1.22-3.51-.61-.36-1.43-.58-2.17-.59-3.4-.02-6.8-.03-10.2-.03h-8.41c-1.07 0-1.92-.36-2.4-1-.47-.64-.57-1.55-.26-2.56.28-.93.57-1.85.86-2.78.64-2.06 1.3-4.19 1.9-6.3.38-1.33.13-2.75-.68-3.88a4.572 4.572 0 00-3.51-1.91c-.1 0-.2-.01-.29-.01-1.11 0-1.61.38-2.06 1.55l-.85 2.21c-.83 2.17-1.67 4.34-2.5 6.52-1.95 5.12-5.09 9.42-9.31 12.79-.41.32-.58.69-.58 1.23.01 2.56.01 5.11.01 7.67v4.75c0 2.51.01 5.01-.02 7.51-.01.65.23 1.04.8 1.34.76.41 1.51.84 2.26 1.27.36.21.72.42 1.08.62 3.29 1.86 6.8 2.82 10.43 2.84 1.58.01 3.17.01 4.75.01h4.75l3.31.04z" fill="#00BAC1"/></svg>