<svg width="56" height="65" fill="none" xmlns="http://www.w3.org/2000/svg"><path d="M3.78 58.91c.28-1.24.47-2.43.82-3.57.52-1.74 1.4-3.27 2.99-4.29.14-.09.27-.33.28-.5.03-.69.01-1.38.01-2.16-.28-.01-.52-.04-.77-.04H2.87c-.83 0-1.11-.26-1.12-1.06-.02-1.3-.02-2.59 0-3.89.01-.75.31-1.04 1.07-1.04H25.6c.8 0 1.09.29 1.1 1.09.01 1.27.01 2.55 0 3.82-.01.75-.32 1.05-1.07 1.05-1.41.01-2.82 0-4.24 0h-.78v2.23c2.54-.11 5.06-.01 7.5-.39 3.11-.49 4.58-2.81 5.2-5.72.64-3.04.35-6.08-.2-9.1a35.2 35.2 0 00-.62-2.7c-.05-.19-.27-.41-.46-.48-.77-.3-1.55-.56-2.51-.89-.18.2-.46.53-.77.84-1.7 1.71-3.4 3.41-5.11 5.11-.92.92-1.2.92-2.16-.02-.11-.11-.21-.25-.42-.51-.72.75-1.37 1.45-2.05 2.14-.74.75-1.11.74-1.85.01l-5.4-5.4c-.68-.68-.7-1.02-.06-1.77.63-.74 1.29-1.45 1.99-2.22-.14-.15-.4-.43-.65-.73-.4-.48-.43-.92.05-1.4 6.88-6.87 13.75-13.75 20.62-20.63.5-.5.97-.52 1.45-.08.51.47.96 1 1.37 1.44 1.62-1.61 3.16-3.15 4.86-4.84-.22-.17-.55-.38-.83-.65-.51-.5-.54-.98-.1-1.38.47-.42.92-.32 1.34.1 2.05 2.05 4.1 4.09 6.14 6.13.47.47.95.95 1.42 1.43.41.41.46.86.04 1.28-.42.42-.86.39-1.28-.02-.29-.29-.57-.6-.8-.84-1.58 1.58-3.12 3.11-4.82 4.82.32.26.77.57 1.15.95.86.85.85 1.23.02 2.07-1.81 1.82-3.62 3.65-5.44 5.46-.18.18-.41.31-.61.46.09.03.18.05.26.08.29.92.56 1.84.87 2.75.08.23.21.46.37.64 6.56 7.58 10.73 16.29 12.3 26.21.27 1.69.33 3.4.49 5.11.03.34.04.69.07 1.12h2.24c.95.01 1.23.29 1.24 1.25.01 1.18.01 2.36 0 3.54-.01.93-.28 1.2-1.21 1.2-3.59.01-7.18 0-10.76 0H2.03c-.25 0-.51.01-.76-.01-.58-.03-.9-.33-.91-.92-.01-1.37-.02-2.73 0-4.1.01-.64.34-.95 1.01-.96.85-.04 1.66-.02 2.41-.02zm35.59-.04c-.09-.77-.18-1.5-.26-2.23-.61-5.16-1.04-10.32-.34-15.5.38-2.78.92-5.57 3.83-7.17l-4.05-5.59c-.87 2.07-2.29 3.26-4.25 3.79.26 1.36.55 2.64.76 3.94.48 3.01.65 6.03-.06 9.03-.85 3.61-2.92 6.1-6.68 6.87-.94.19-1.93.23-2.9.24-5.11.02-10.23.04-15.34-.01-1.09-.01-1.87.41-2.51 1.19-1.28 1.57-1.64 3.46-1.88 5.45 11.25-.01 22.43-.01 33.68-.01zM34.58 8.61L15.09 28.1c2.47 2.48 5 5.01 7.5 7.51l5.77-5.8c-1.51-3.03-1.3-5.25.75-7.31.96-.96 2.1-1.59 3.45-1.78 1.47-.22 2.78.24 3.82.97 1.95-1.91 3.85-3.76 5.71-5.59-2.52-2.51-5.06-5.04-7.51-7.49zm8.82 26.96c-.44.36-.95.61-1.22 1.02-.43.64-.86 1.35-1.03 2.09-.37 1.61-.71 3.26-.82 4.91-.34 4.98.16 9.93.8 14.86.06.48.33.46.67.46 2.66 0 5.32.01 7.98.02.15 0 .3-.04.44-.06.29-6.27-3.06-17.81-6.82-23.3zm10.3 27.54v-2.38H2.23v2.38H53.7zM3.56 46.51h21.35v-2.34H3.56v2.34zm37.73-33.97c1.53-1.53 3.06-3.06 4.57-4.56l-3.2-3.17c-1.48 1.5-3.01 3.06-4.52 4.59 1.01 1.01 2.07 2.07 3.15 3.14zm-4.34 14c.02-2.38-1.53-4.04-3.8-4.06-2.34-.02-3.95 1.59-3.96 3.97-.01 2.41 1.62 4.03 4.06 4.03 2.12 0 3.69-1.67 3.7-3.94zm-18.19 23.9v-2.06H9.69v2.06h9.07zm-5.25-18.02l4.6 4.6c.53-.48 1.11-1 1.6-1.45-1.58-1.57-3.13-3.12-4.65-4.64l-1.55 1.49z" fill="#00BAC1"/><path d="M35.97 26.38c.02 1.55-1.4 2.97-2.96 2.97-1.45 0-2.77-1.29-2.8-2.72-.03-1.54 1.39-3 2.93-3.03 1.43-.02 2.82 1.34 2.83 2.78zm-2.03.2c0-.59-.46-1.17-.88-1.1-.55.09-.82.48-.84 1.02-.02.53.45 1.11.88 1.04.56-.09.81-.48.84-.96z" fill="#00BAC1"/></svg>