<svg width="86" height="33" fill="none" xmlns="http://www.w3.org/2000/svg"><path d="M11.444 11.076h1.475c2.463 0 5.815.557 5.815 5.033 0 4.3-3.313 5.13-5.815 5.13h-1.475c-.176 0-.303-.126-.303-.244V11.34c0-.137.127-.264.303-.264zm1.866 8.15c1.163.05 3.294-.341 3.294-3.117 0-2.13-1.388-3.088-3.294-3.049v6.167zm8.502-8.15h6.372c.186 0 .313.108.313.244v1.681c0 .118-.127.245-.313.245h-4.466v1.808h3.489c.186 0 .293.107.293.244v1.69c0 .118-.098.245-.293.245h-3.489v1.808h4.486c.186 0 .322.117.322.244v1.691c0 .117-.136.244-.322.244h-6.392c-.175 0-.293-.127-.293-.244v-9.665c0-.127.118-.235.293-.235zm10.193-.02h1.632c.069 0 .206.02.245.089l4.055 6.108V11.3c0-.137.128-.244.303-.244h1.574c.185 0 .303.107.303.244v9.714c0 .117-.117.254-.303.254h-1.505c-.059 0-.205-.03-.264-.098l-4.114-6v5.854c0 .117-.137.254-.303.254h-1.613c-.205 0-.293-.137-.293-.254V11.31c0-.137.088-.254.283-.254zm11.61 0h1.593c.186 0 .303.118.303.245v9.704c0 .118-.107.245-.303.245h-1.593c-.175 0-.303-.127-.303-.245v-9.704c0-.127.128-.244.303-.244zm8.317 6.05c-.088 0-.801 0-1.534-.332-1.075-.518-1.7-1.496-1.7-2.707 0-1.926 1.553-3.02 3.234-3.02 1.769 0 3.166 1.026 3.196 2.766 0 .127-.127.244-.303.244H53.27c-.166 0-.303-.117-.303-.244-.03-.587-.508-.812-1.036-.812-.586 0-1.065.343-1.065 1.066 0 .635.508 1.231 1.065 1.231.078 0 .792 0 1.515.332 1.114.508 1.67 1.544 1.67 2.737 0 1.954-1.514 2.883-3.175 2.883-1.798-.05-3.206-.87-3.235-2.776 0-.137.117-.225.303-.225h1.573c.137 0 .303.088.303.225.03.626.508.83 1.066.83.566 0 1.026-.351 1.026-.947-.02-.606-.567-1.212-1.046-1.251zm9.978-6.05c1.964 0 3.587 1.603 3.587 3.548 0 1.955-1.623 3.45-3.587 3.45-1.984 0-3.606-1.485-3.606-3.45 0-1.945 1.622-3.547 3.606-3.547zm0 5.112c.86 0 1.525-.665 1.525-1.564 0-.89-.665-1.68-1.525-1.68-.86 0-1.554.79-1.554 1.68 0 .9.694 1.564 1.554 1.564zm-2.697 2.893h5.365c.186 0 .313.127.313.254v1.7c0 .117-.127.254-.313.254h-5.365c-.186 0-.303-.137-.303-.254v-1.7c0-.127.117-.255.303-.255zm8.55-8.004h1.682c.127 0 .264.078.273.166.626 1.759 1.163 3.186 1.789 4.955.586-1.633 1.153-3.304 1.75-4.955.019-.088.136-.166.263-.166h1.68c.235 0 .343.166.275.342l-3.704 9.753c-.098.186-.44.186-.548 0l-3.733-9.753c-.058-.176.059-.342.274-.342z" fill="#C1C1C1"/><path d="M83.068 0H0v32.25h86V0h-2.932zm.978 30.296H1.955V1.954h82.09v28.34z" fill="#C1C1C1"/></svg>