<svg width="66" height="40" fill="none" xmlns="http://www.w3.org/2000/svg"><path d="M39.482 19.74c0 10.902-8.84 19.742-19.741 19.742C8.839 39.482 0 30.642 0 19.74 0 8.839 8.84 0 19.74 0c10.902 0 19.742 8.84 19.742 19.74z" fill="#ED1B2E"/><path d="M46.245 0c-5.1 0-9.75 1.934-13.252 5.11-.71.645-1.38 1.347-1.993 2.089h3.986a20.48 20.48 0 011.508 2.09h-6.997c-.417.673-.802 1.37-1.137 2.09h9.275c.316.677.596 1.374.834 2.089H27.526a18.897 18.897 0 00-.572 2.09h12.093c.288 1.346.444 2.744.444 4.178 0 2.19-.357 4.303-1.017 6.274H27.53c.238.714.518 1.411.834 2.09h9.275c-.34.719-.72 1.42-1.137 2.089h-6.997c.458.728.958 1.425 1.508 2.09H35a19.533 19.533 0 01-1.993 2.089 19.67 19.67 0 0013.252 5.11C57.161 39.477 66 30.637 66 19.735 65.986 8.84 57.147 0 46.245 0z" fill="#FCB131"/><path d="M63.355 30.749a.637.637 0 111.275 0 .636.636 0 01-.637.637.636.636 0 01-.638-.637zm.638.486a.486.486 0 100-.973.486.486 0 000 .973zm-.087-.206h-.133v-.56h.238c.05 0 .101 0 .142.028a.172.172 0 01.07.142.155.155 0 01-.097.146l.105.248h-.146l-.087-.22H63.9v.216h.005zm0-.317h.073c.028 0 .055 0 .078-.009.023-.014.032-.041.032-.064a.078.078 0 00-.032-.06c-.023-.014-.06-.009-.082-.009h-.07v.142z" fill="#FCB131"/><path d="M15.132 21.895a3.335 3.335 0 00-.477-.032c-1.214 0-1.828.417-1.828 1.242 0 .509.298.83.77.83.87-.005 1.498-.834 1.535-2.04zm1.558 3.63h-1.778l.041-.843c-.54.669-1.265.985-2.245.985-1.16 0-1.957-.908-1.957-2.223 0-1.984 1.384-3.139 3.762-3.139.243 0 .555.023.875.065.065-.27.083-.385.083-.527 0-.541-.371-.743-1.375-.743a7.238 7.238 0 00-2.268.367c.023-.133.298-1.833.298-1.833 1.067-.316 1.773-.43 2.566-.43 1.842 0 2.813.824 2.813 2.387.005.417-.064.934-.174 1.612-.188 1.178-.586 3.708-.641 4.322zm-6.837-.001h-2.14l1.228-7.698-2.745 7.698H4.74l-.183-7.652-1.288 7.652H1.261l1.673-10.012h3.084l.188 5.604 1.878-5.604h3.428L9.853 25.524zm39.042-3.629a3.335 3.335 0 00-.477-.032c-1.214 0-1.828.417-1.828 1.242 0 .509.298.83.77.83.866-.005 1.498-.834 1.535-2.04zm1.558 3.63h-1.778l.041-.843c-.54.669-1.264.985-2.245.985-1.164 0-1.957-.908-1.957-2.223 0-1.984 1.384-3.139 3.762-3.139.243 0 .555.023.875.065.065-.27.083-.385.083-.527 0-.541-.371-.743-1.375-.743a7.238 7.238 0 00-2.268.367c.023-.133.298-1.833.298-1.833 1.068-.316 1.773-.43 2.561-.43 1.843 0 2.814.824 2.814 2.387.005.417-.064.934-.174 1.612-.183 1.178-.582 3.708-.637 4.322zm-24.236-.121c-.587.183-1.045.266-1.54.266-1.095 0-1.695-.628-1.695-1.787-.014-.362.155-1.306.293-2.172.124-.76.93-5.559.93-5.559h2.131l-.247 1.233h1.287l-.289 1.957h-1.292c-.247 1.549-.6 3.478-.605 3.734 0 .422.225.605.734.605.242 0 .435-.023.577-.078l-.284 1.801zm6.53-.074a7.165 7.165 0 01-2.186.33c-2.387-.005-3.63-1.247-3.63-3.634 0-2.782 1.582-4.835 3.73-4.835 1.756 0 2.878 1.146 2.878 2.947 0 .596-.078 1.182-.26 2.002h-4.244c-.142 1.183.614 1.673 1.851 1.673.76 0 1.448-.156 2.213-.513l-.352 2.03zm-1.196-4.825c.013-.17.224-1.453-.99-1.453-.678 0-1.164.518-1.361 1.453h2.35zm-13.573-.549c0 1.032.5 1.742 1.631 2.273.866.408 1.004.527 1.004.899 0 .508-.385.737-1.233.737-.641 0-1.232-.1-1.92-.32l-.293 1.883c.486.105.921.206 2.232.243 2.259 0 3.303-.862 3.303-2.722 0-1.118-.435-1.778-1.512-2.269-.898-.412-1.003-.503-1.003-.884 0-.44.357-.664 1.05-.664.42 0 .994.045 1.539.123l.307-1.887a14.711 14.711 0 00-1.888-.16c-2.397-.01-3.226 1.24-3.217 2.748zm25.194-2.541c.595 0 1.15.155 1.915.54l.353-2.172c-.316-.123-1.42-.848-2.355-.848-1.435 0-2.65.71-3.501 1.888-1.242-.412-1.756.422-2.383 1.252l-.555.128c.041-.275.083-.546.069-.82h-1.97c-.27 2.52-.747 5.072-1.118 7.597l-.097.55h2.145c.357-2.323.554-3.813.673-4.82l.807-.45c.12-.449.5-.6 1.255-.582a9.372 9.372 0 00-.15 1.668c0 2.663 1.438 4.322 3.743 4.322.596 0 1.105-.078 1.893-.294l.375-2.282c-.71.348-1.292.513-1.819.513-1.246 0-1.998-.92-1.998-2.437-.004-2.21 1.118-3.753 2.718-3.753zm18.141-1.903l-.477 2.891c-.586-.77-1.214-1.329-2.044-1.329-1.081 0-2.066.82-2.708 2.026a17.808 17.808 0 01-1.824-.504v.009c.074-.674.101-1.086.097-1.228h-1.97c-.267 2.52-.748 5.073-1.119 7.597l-.096.55h2.14c.288-1.879.513-3.441.674-4.678.733-.665 1.1-1.238 1.837-1.201a7.027 7.027 0 00-.518 2.644c0 2.035 1.031 3.377 2.59 3.377.783 0 1.388-.27 1.974-.898l-.1.756h2.03l1.63-10.012h-2.116zm-2.676 8.129c-.729 0-1.1-.54-1.1-1.604 0-1.6.692-2.736 1.663-2.736.738 0 1.137.56 1.137 1.595-.005 1.613-.706 2.745-1.7 2.745z" fill="#003473"/><path d="M10.471 24.932H8.326l1.229-7.693-2.74 7.693H5.352l-.18-7.652-1.291 7.652H1.875L3.552 14.92h3.084l.082 6.2 2.08-6.2h3.332l-1.66 10.012zm5.279-3.623a3.35 3.35 0 00-.476-.032c-1.214 0-1.828.417-1.828 1.237 0 .509.302.83.77.83.866 0 1.498-.835 1.535-2.035zm1.559 3.625H15.53l.041-.844c-.54.665-1.265.986-2.245.986-1.164 0-1.957-.908-1.957-2.227 0-1.985 1.384-3.14 3.762-3.14.243 0 .555.024.876.065.064-.27.082-.385.082-.532 0-.54-.371-.738-1.375-.738a6.97 6.97 0 00-2.268.367c.023-.133.298-1.833.298-1.833 1.068-.311 1.773-.43 2.566-.43 1.842 0 2.814.824 2.814 2.387.004.417-.065.935-.175 1.613-.188 1.182-.586 3.712-.641 4.326zm28.744-9.746L45.7 17.36c-.765-.385-1.32-.54-1.915-.54-1.6 0-2.722 1.548-2.722 3.752 0 1.521.756 2.438 2.002 2.438.527 0 1.11-.165 1.82-.513l-.376 2.282c-.788.215-1.301.293-1.893.293-2.31 0-3.743-1.659-3.743-4.321 0-3.58 1.988-6.081 4.825-6.081.935-.005 2.039.394 2.355.518zm3.455 6.121a3.348 3.348 0 00-.477-.032c-1.214 0-1.828.417-1.828 1.237 0 .509.298.83.77.83.87 0 1.503-.835 1.535-2.035zm1.563 3.625h-1.778l.04-.844c-.54.665-1.264.986-2.244.986-1.164 0-1.957-.908-1.957-2.227 0-1.985 1.384-3.14 3.762-3.14.243 0 .554.024.87.065.065-.27.083-.385.083-.532 0-.54-.371-.738-1.375-.738a6.997 6.997 0 00-2.268.367c.023-.133.298-1.833.298-1.833 1.068-.311 1.773-.43 2.566-.43 1.842 0 2.814.824 2.814 2.387.004.417-.064.935-.174 1.613-.184 1.182-.582 3.712-.637 4.326zm-24.24-.126c-.586.184-1.045.266-1.54.266-1.095 0-1.695-.632-1.695-1.787-.014-.362.156-1.306.293-2.172.124-.76.93-5.558.93-5.558h2.131l-.247 1.232h1.095l-.289 1.957h-1.095c-.247 1.549-.6 3.478-.605 3.735 0 .421.225.604.733.604.243 0 .436-.022.578-.077l-.289 1.8zm6.534-.062a7.308 7.308 0 01-2.186.33c-2.387 0-3.63-1.247-3.63-3.634 0-2.786 1.582-4.835 3.726-4.835 1.76 0 2.878 1.146 2.878 2.947 0 .596-.078 1.178-.261 2.002h-4.244c-.142 1.183.615 1.673 1.852 1.673.76 0 1.452-.156 2.218-.513l-.353 2.03zm-1.196-4.83c.014-.17.224-1.453-.99-1.453-.678 0-1.164.518-1.36 1.453h2.35zm-13.578-.55c0 1.031.5 1.741 1.632 2.273.866.408 1.003.527 1.003.898 0 .509-.38.738-1.232.738-.642 0-1.233-.101-1.92-.321 0 0-.28 1.796-.294 1.879.486.105.921.206 2.232.243 2.264 0 3.304-.862 3.304-2.722 0-1.118-.435-1.778-1.512-2.269-.898-.412-1.004-.504-1.004-.884 0-.44.357-.669 1.05-.669.421 0 .994.046 1.54.124l.306-1.888a14.711 14.711 0 00-1.888-.16c-2.392 0-3.221 1.255-3.217 2.758zm43.822 5.564h-2.025l.1-.757c-.586.628-1.191.898-1.975.898-1.558 0-2.589-1.342-2.589-3.382 0-2.708 1.6-4.99 3.487-4.99.83 0 1.462.34 2.049 1.11l.476-2.897h2.113L62.413 24.93zm-3.162-1.88c1 0 1.7-1.131 1.7-2.744 0-1.036-.398-1.595-1.136-1.595-.972 0-1.664 1.136-1.664 2.736 0 1.063.371 1.603 1.1 1.603zM53 16.79c-.27 2.52-.747 5.072-1.119 7.593l-.096.55h2.145c.765-4.982.953-5.953 2.153-5.83.193-1.017.55-1.91.816-2.36-.898-.187-1.398.322-2.057 1.284.05-.417.146-.82.128-1.238H53zm-17.642 0c-.27 2.52-.747 5.072-1.118 7.593l-.096.55h2.144c.765-4.982.953-5.953 2.154-5.83.192-1.017.55-1.91.816-2.36-.899-.187-1.398.322-2.053 1.284.05-.417.146-.82.128-1.238h-1.975zm27.999 7.504a.64.64 0 01.638-.638c.353 0 .637.285.637.638a.636.636 0 01-.638.637.636.636 0 01-.637-.637zm.638.486a.486.486 0 100-.972.486.486 0 000 .972zm-.088-.206h-.133v-.56h.239c.05 0 .1 0 .142.027a.168.168 0 01.073.138.155.155 0 01-.096.147l.1.248h-.146l-.087-.22h-.096v.22h.004zm0-.317h.074c.027 0 .055.005.078-.01.023-.013.032-.04.032-.063a.079.079 0 00-.032-.06c-.023-.014-.06-.009-.083-.009h-.069v.142z" fill="#fff"/></svg>