<svg width="81" height="27" fill="none" xmlns="http://www.w3.org/2000/svg"><path d="M35.109 25.839H28.5L32.638.455h6.607L35.11 25.84zM22.94.456l-6.303 17.459-.747-3.762-2.227-11.415S13.391.449 10.526.449H.122L0 .877s3.185.666 6.913 2.9l5.745 22.056h6.879L30.056.449h-7.117v.007zm51.99 25.383H81L75.71.455h-5.317c-2.451 0-3.049 1.895-3.049 1.895l-9.853 23.496h6.885l1.38-3.77h8.4l.773 3.763zm-7.274-8.977l3.47-9.5 1.956 9.5h-5.425zM58 6.56l.944-5.453S56.03 0 53.002 0c-3.28 0-11.07 1.433-11.07 8.407 0 6.56 9.141 6.641 9.141 10.084 0 3.443-8.196 2.832-10.906.659l-.984 5.697s2.954 1.433 7.463 1.433 11.313-2.336 11.313-8.692c0-6.6-9.222-7.219-9.222-10.084 0-2.873 6.438-2.506 9.263-.944z" fill="#0066B3"/><path d="M15.897 14.153L13.67 2.738S13.398.449 10.532.449H.122L0 .877S5.005 1.916 9.813 5.8c4.583 3.722 6.084 8.353 6.084 8.353z" fill="#FAA634"/></svg>